<?xml version="1.0" standalone="no"?>
<!DOCTYPE svg PUBLIC "-//W3C//DTD SVG 1.1//EN" "http://www.w3.org/Graphics/SVG/1.1/DTD/svg11.dtd" >
<svg>
<metadata>
Created by FontForge 20090914 at Tue Jan  9 10:51:54 2018
 By www-data
Copyright (c) Phanlop Thongsuk, 1995-2009. All rights reserved.
</metadata>
<defs>
<font id="PSLTextProBoldItalic" horiz-adv-x="0" >
  <font-face 
    font-family="PSL Text Pro (เท็กซ์)"
    font-weight="700"
    font-style="italic"
    font-stretch="normal"
    units-per-em="2048"
    panose-1="2 0 5 6 5 0 0 2 0 4"
    ascent="1638"
    descent="-410"
    x-height="698"
    cap-height="965"
    bbox="-874.001 -901 1499 1655"
    underline-thickness="72"
    underline-position="-123"
    unicode-range="U+0020-U+F880"
  />
<missing-glyph horiz-adv-x="1599" 
d="M100 1599h1399v-1599h-1399v1599zM1401 1499h-1200v-1399h1200v1399z" />
    <glyph glyph-name="saraueesp1" unicode="&#xe37;&#xe48;" 
d="M-113 1587h164l-49 -246h-164zM-8 901c-41.333 16 -89.001 28.666 -143.001 37.999s-109.833 15.5 -167.5 18.5s-115.167 3 -172.5 0s-110 -8.83301 -158 -17.5c8 40.667 23 77.834 45 111.501s48.833 62.5 80.5 86.5s66.834 42.667 105.501 56s79 20 121 20h21.5
c7 0 13.5 -0.666992 19.5 -2l12 68h123l-16 -94c10 -4 19.5 -9 28.5 -15s17.167 -12 24.5 -18l25 127h122zM-174.001 1026c-4 12.667 -10.668 23.832 -20.001 33.499s-20.166 17.834 -32.499 24.501s-25.833 11.667 -40.5 15s-29.334 5 -44.001 5
c-34 0 -64.167 -6.5 -90.5 -19.5s-46.166 -29.167 -59.499 -48.5c21.333 4 44.5 6.83301 69.5 8.5s50.333 2.16699 76 1.5s50.667 -2.66699 75 -6s46.5 -8 66.5 -14z" />
    <glyph glyph-name=".notdef" horiz-adv-x="1599" 
d="M100 1599h1399v-1599h-1399v1599zM1401 1499h-1200v-1399h1200v1399z" />
    <glyph glyph-name="space" unicode=" " horiz-adv-x="553" 
 />
    <glyph glyph-name="space" unicode="&#xa0;" horiz-adv-x="553" 
 />
    <glyph glyph-name="exclam" unicode="!" horiz-adv-x="375" 
d="M199 289h-97l31 418l51 258h201l-51 -258zM-10 0l41 209h213l-41 -209h-213z" />
    <glyph glyph-name="quotedbl" unicode="&#x22;" horiz-adv-x="627" 
d="M377 530l86 435h143l-86 -435h-143zM125 530l86 435h145l-86 -435h-145z" />
    <glyph glyph-name="numbersign" unicode="#" horiz-adv-x="758" 
d="M614 557l-55 -168h96l-24 -121h-113l-88 -268h-129l88 268h-147l-88 -268h-129l88 268h-109l25 121h123l57 168h-109l23 121h125l92 268h127l-90 -268h147l90 268h129l-90 -268h99l-23 -121h-115zM281 389h151l55 168h-149z" />
    <glyph glyph-name="dollar" unicode="$" horiz-adv-x="799" 
d="M590 700c3.33301 18 3.49316 34.8311 0.493164 50.498s-8.16699 29.334 -15.5 41.001s-16.833 20.834 -28.5 27.501s-24.5 10 -38.5 10l-47 -239c18 -4 38.333 -9.66699 61 -17c40.667 -12 74.5 -26 101.5 -42s48.833 -33.167 65.5 -51.5s28.667 -37.333 36 -57
s11.833 -39 13.5 -58s1.33398 -37.5 -0.999023 -55.5s-5.16602 -34.333 -8.49902 -49c-3.33301 -19.333 -13 -44.166 -29 -74.499s-39.667 -60.333 -71 -90s-70.666 -55.834 -117.999 -78.501s-103.666 -36 -168.999 -40l-23 -114h-77l22 114
c-97.333 7.33301 -168.666 38.5 -213.999 93.5s-62.666 135.833 -51.999 242.5h188c-5.33301 -25.333 -6.5 -48 -3.5 -68s9.5 -37.5 19.5 -52.5s23 -27.333 39 -37s34 -16.5 54 -20.5l55 283c-5.33301 2 -11.666 4 -18.999 6l-22 6c-32 9.33301 -62.667 20 -92 32
s-54.5 28 -75.5 48s-36 45 -45 75s-9.16699 67.667 -0.5 113c9.33301 46.667 25.833 87.667 49.5 123s52 65 85 89s69.333 42.333 109 55s80.167 20 121.5 22l22 115h78l-22 -115c38 -4 73 -12.5 105 -25.5s59 -31 81 -54s38 -51.667 48 -86s11.667 -74.833 5 -121.5h-188z
M429.993 828.998c-15.333 0 -30.668 -2.33301 -46.001 -7s-29.666 -11.5 -42.999 -20.5s-24.833 -20.667 -34.5 -35s-16.167 -30.833 -19.5 -49.5c-6.66699 -30 -2 -52.667 14 -68s44.667 -28.333 86 -39zM540.991 267.998c3.33301 18 3.66797 33.333 1.00098 46
s-8.5 23.834 -17.5 33.501s-21.833 18.167 -38.5 25.5s-37.334 14.666 -62.001 21.999l-51 -260c15.333 1.33301 32 4.83301 50 10.5s35 14 51 25s30.167 24.5 42.5 40.5s20.5 35 24.5 57z" />
    <glyph glyph-name="percent" unicode="%" horiz-adv-x="1284" 
d="M1159 242c-7.33301 -37.333 -18.501 -71.833 -33.501 -103.5s-34 -59 -57 -82s-49.833 -41.167 -80.5 -54.5s-65 -20 -103 -20c-40.667 0 -73.667 6.83301 -99 20.5s-44.333 32.5 -57 56.5s-19.5 52.167 -20.5 84.5s2.5 67.166 10.5 104.499
c7.33301 36.667 18.5 70.834 33.5 102.501s33.833 59.167 56.5 82.5s49.334 41.666 80.001 54.999s65.334 20 104.001 20c40.667 0 73.667 -6.83301 99 -20.5s44.166 -32.5 56.499 -56.5s19 -52.167 20 -84.5s-2.16699 -67.166 -9.5 -104.499zM198.999 -31l743 1008h154
l-744 -1008h-153zM564.999 692c-7.33301 -36.667 -18.4961 -70.499 -33.4961 -101.499s-33.833 -57.833 -56.5 -80.5s-49.334 -40.334 -80.001 -53.001s-65.334 -19 -104.001 -19c-41.333 0 -74.666 6.5 -99.999 19.5s-44.5 31.167 -57.5 54.5s-20.167 50.833 -21.5 82.5
s1.66699 66.167 9 103.5c7.33301 36.667 18.666 71.167 33.999 103.5s34.666 60.666 57.999 84.999s50.666 43.5 81.999 57.5s66.666 21 105.999 21c40.667 0 73.5 -7.16699 98.5 -21.5s43.667 -33.833 56 -58.5s18.833 -53.667 19.5 -87
s-2.66602 -68.666 -9.99902 -105.999zM1016 244.001c2 10.667 3.83398 23.666 5.50098 38.999s1.5 30 -0.5 44s-7 25.833 -15 35.5s-20.333 14.5 -37 14.5c-19.333 0 -35.333 -4.5 -48 -13.5s-23 -20.167 -31 -33.5s-14.333 -27.666 -19 -42.999s-8.33398 -29 -11.001 -41
c-2 -12 -4 -25.667 -6 -41s-1.83301 -29.833 0.5 -43.5s7.83301 -25.167 16.5 -34.5s22.667 -14 42 -14c18.667 0 34.167 4.66699 46.5 14s22.333 20.833 30 34.5s13.5 28 17.5 43s7 28.167 9 39.5zM422.004 700c2 10.667 3.83301 23.666 5.5 38.999s1.5 30 -0.5 44
s-7 26 -15 36s-20.333 15 -37 15c-19.333 0 -35.166 -4.5 -47.499 -13.5s-22.5 -20.167 -30.5 -33.5s-14.167 -27.666 -18.5 -42.999s-7.83301 -29.333 -10.5 -42c-2 -12 -4 -25.667 -6 -41s-2 -29.833 0 -43.5s7.16699 -25.167 15.5 -34.5s22.166 -14 41.499 -14
c18.667 0 34 4.66699 46 14s21.833 20.833 29.5 34.5s13.5 28 17.5 43s7.33301 28.167 10 39.5z" />
    <glyph glyph-name="ampersand" unicode="&#x26;" horiz-adv-x="907" 
d="M541 96c-88 -76 -183.666 -113.998 -286.999 -113.998c-43.333 0 -82.5 6.5 -117.5 19.5s-63.667 31.833 -86 56.5s-37.833 54.834 -46.5 90.501s-8.66699 76.167 0 121.5c6.66699 34 18.5 65.333 35.5 94s37.333 54.5 61 77.5s50 43.667 79 62s58.5 34.166 88.5 47.499
c-9.33301 16 -17.833 31.667 -25.5 47s-14 31.166 -19 47.499s-8 33.5 -9 51.5s0.5 37.667 4.5 59c6 32.667 18.667 62.667 38 90s42.5 50.666 69.5 69.999s56.5 34.333 88.5 45s63.667 16 95 16c35.333 0 67.666 -5 96.999 -15s53.833 -24.667 73.5 -44
s33.5 -43.5 41.5 -72.5s8.33301 -62.5 1 -100.5c-6 -28 -15.667 -53.833 -29 -77.5s-29.333 -45.5 -48 -65.5s-39.667 -38.167 -63 -54.5s-48.333 -30.833 -75 -43.5l92 -152c13.333 17.333 24.333 36 33 56s16 39.667 22 59h164c-12 -44 -29.5 -86.167 -52.5 -126.5
s-50.5 -77.5 -82.5 -111.5l145 -229h-229zM561.001 756.002c2.66699 12 2.66699 23.6689 0 35.002s-7.33398 21.166 -14.001 29.499s-14.834 15 -24.501 20s-19.834 7.5 -30.501 7.5c-23.333 0 -44.666 -8 -63.999 -24s-31.666 -36.667 -36.999 -62
c-2.66699 -14.667 -3 -28.5 -1 -41.5s5.33301 -25.167 10 -36.5s10.334 -22.5 17.001 -33.5s13.667 -21.833 21 -32.5c14.667 8.66699 28.667 17.5 42 26.5s25.5 18.833 36.5 29.5s20.333 22.667 28 36s13.167 28.666 16.5 45.999zM342.001 426.004
c-17.333 -8 -34.832 -17.167 -52.499 -27.5s-34 -22 -49 -35s-27.833 -27.5 -38.5 -43.5s-18 -34 -22 -54c-3.33301 -17.333 -2.83301 -33.666 1.5 -48.999s11.666 -28.833 21.999 -40.5s23 -20.834 38 -27.501s31.5 -10 49.5 -10c34 0 65.167 8 93.5 24
s55.833 36.667 82.5 62z" />
    <glyph glyph-name="quotesingle" unicode="'" horiz-adv-x="375" 
d="M127 530l86 435h143l-86 -435h-143z" />
    <glyph glyph-name="parenleft" unicode="(" horiz-adv-x="430" 
d="M516 1026c-68.667 -96 -125 -195.334 -169 -298.001s-76.333 -207.334 -97 -314.001c-20.667 -108 -29.5 -213.833 -26.5 -317.5s19.833 -204.834 50.5 -303.501h-139c-38 93.333 -62.5 191.333 -73.5 294s-6.16699 207.334 14.5 314.001c10 50.667 24 103.667 42 159
s39.833 110.333 65.5 165s54.5 107.834 86.5 159.501s67 98.834 105 141.501h141v0z" />
    <glyph glyph-name="parenright" unicode=")" horiz-adv-x="430" 
d="M330 418c-10 -51.333 -24.168 -104.666 -42.501 -159.999s-40.333 -110.333 -66 -165s-54.667 -107.667 -87 -159s-67.5 -98.333 -105.5 -141h-142c70 96 126.833 195.333 170.5 298s75.834 206.667 96.501 312c21.333 108 30.5 214.167 27.5 318.5
s-20.5 205.833 -52.5 304.5h139c38 -93.333 63 -191.333 75 -294s7.66699 -207.334 -13 -314.001z" />
    <glyph glyph-name="asterisk" unicode="*" horiz-adv-x="596" 
d="M530 662l-137 -89l-55 136l-98 -136l-107 89l121 114l-137 35l78 139l118 -67l15 149h149l-45 -149l152 67l22 -139l-153 -37z" />
    <glyph glyph-name="plus" unicode="+" horiz-adv-x="745" 
d="M406 270l-52 -260h-143l51 260h-260l27 144h260l51 260h143l-51 -260h260l-26 -144h-260z" />
    <glyph glyph-name="comma" unicode="," horiz-adv-x="348" 
d="M203 82c-4 -23.333 -11.3359 -46.1641 -22.0029 -68.4971s-23.667 -43.666 -39 -63.999s-32.666 -39.333 -51.999 -57s-39.666 -33.167 -60.999 -46.5l-64 50c19.333 11.333 39 24.666 59 39.999s37.333 33.333 52 54c-14 0 -26.667 2.66699 -38 8
s-20.833 12.666 -28.5 21.999s-13 20.166 -16 32.499s-2.83301 25.5 0.5 39.5c2.66699 14 7.83398 27.167 15.501 39.5s17 23.166 28 32.499s23.167 16.833 36.5 22.5s27 8.5 41 8.5c30 0 53.333 -10.333 70 -31s22.667 -48 18 -82z" />
    <glyph glyph-name="hyphen" unicode="-" horiz-adv-x="553" 
d="M39 307l29 144h409l-28 -144h-410z" />
    <glyph glyph-name="period" unicode="." horiz-adv-x="348" 
d="M203 92c-3.33301 -14 -8.99902 -27.167 -16.999 -39.5s-17.5 -23.166 -28.5 -32.499s-23.167 -16.666 -36.5 -21.999s-27 -8 -41 -8c-13.333 0 -25.833 2.66699 -37.5 8s-21.334 12.666 -29.001 21.999s-13 20.166 -16 32.499s-2.83301 25.5 0.5 39.5
c2.66699 14 7.83398 27.167 15.501 39.5s17 23.166 28 32.499s23.167 16.833 36.5 22.5s27 8.5 41 8.5s26.667 -2.83301 38 -8.5s20.833 -13.167 28.5 -22.5s13.167 -20.166 16.5 -32.499s3.66602 -25.5 0.999023 -39.5z" />
    <glyph glyph-name="slash" unicode="/" horiz-adv-x="502" 
d="M-111 -23l574 1010h153l-573 -1010h-154z" />
    <glyph glyph-name="zero" unicode="0" horiz-adv-x="745" 
d="M717 477c-18 -94 -42.335 -172.667 -73.002 -236s-65.5 -114.166 -104.5 -152.499s-81.167 -65.666 -126.5 -81.999s-91.666 -24.5 -138.999 -24.5c-46.667 0 -89.167 8.16699 -127.5 24.5s-69.333 43.666 -93 81.999s-38.5 89.166 -44.5 152.499s0 142 18 236
c18 92 42.167 169.167 72.5 231.5s65 112.5 104 150.5s80.833 65.167 125.5 81.5s90.667 24.5 138 24.5c46.667 0 89.334 -8.16699 128.001 -24.5s70 -43.5 94 -81.5s39.167 -88.167 45.5 -150.5s0.5 -139.5 -17.5 -231.5zM527.998 477c3.33301 16 7 35.5 11 58.5
s7 46.833 9 71.5s2.33301 49.167 1 73.5s-6 46.166 -14 65.499s-19.833 35 -35.5 47s-36.834 18 -63.501 18c-26 0 -48.833 -6 -68.5 -18s-37.167 -27.667 -52.5 -47s-28.5 -41.166 -39.5 -65.499s-20.5 -48.833 -28.5 -73.5s-14.5 -48.5 -19.5 -71.5l-12.5 -58.5
c-3.33301 -17.333 -7 -38 -11 -62s-7 -48.667 -9 -74s-2.16699 -50.333 -0.5 -75s6.33398 -46.667 14.001 -66s19.167 -35 34.5 -47s36 -18 62 -18s49.167 6 69.5 18s38.333 27.667 54 47s29 41.333 40 66s20.333 49.667 28 75s14 49.833 19 73.5s9.16699 44.5 12.5 62.5z
" />
    <glyph glyph-name="one" unicode="1" horiz-adv-x="745" 
d="M231 0l125 639.001h-250l29 152c37.333 0 72.333 3 105 9s62 15.667 88 29s48.5 31.166 67.5 53.499s33.833 49.833 44.5 82.5h168l-188 -965h-189z" />
    <glyph glyph-name="two" unicode="2" horiz-adv-x="745" 
d="M758 672c-9.33301 -49.333 -26.668 -92.0029 -52.001 -128.003s-55 -68 -89 -96s-71 -53.167 -111 -75.5l-117.5 -65.5c-38.333 -21.333 -74.333 -43.5 -108 -66.5s-61.5 -49.167 -83.5 -78.5h450l-31 -162h-694c10.667 50.667 27.334 95.334 50.001 134.001
s49 73 79 103s62.333 56.5 97 79.5s69.834 44.667 105.501 65l104.5 59c34 19 65 39.5 93 61.5s51.667 46.333 71 73s32.333 57.667 39 93c3.33301 18 3.33301 35 0 51s-10 30.333 -20 43s-23.167 22.667 -39.5 30s-35.5 11 -57.5 11c-26 0 -49.833 -5.33301 -71.5 -16
s-40.834 -26 -57.501 -46s-31 -44 -43 -72s-21.333 -59.333 -28 -94h-185c6 56.667 21.833 108.834 47.5 156.501s57.5 89 95.5 124s80.833 62.333 128.5 82s96.5 29.5 146.5 29.5c48.667 0 92 -7.66699 130 -23s69.333 -36.166 94 -62.499s42.167 -57.5 52.5 -93.5
s11.833 -74.667 4.5 -116z" />
    <glyph glyph-name="three" unicode="3" horiz-adv-x="745" 
d="M731 698c-3.33301 -19.333 -9.5 -38.1748 -18.5 -56.5078s-20.167 -35.666 -33.5 -51.999s-28.333 -31.166 -45 -44.499s-34 -24.333 -52 -33c42 -20.667 72.833 -50 92.5 -88s24.167 -85 13.5 -141c-8.66699 -46 -25.667 -87.333 -51 -124s-56.5 -68 -93.5 -94
s-78.667 -46 -125 -60s-94.5 -21 -144.5 -21c-111.333 0 -190.5 30 -237.5 90s-61.167 143.333 -42.5 250h184c-12 -60.667 -6 -106 18 -136s61 -45 111 -45c22.667 0 44.334 3.5 65.001 10.5s39.167 16.667 55.5 29s30.166 27 41.499 44s19 35.833 23 56.5
c4.66699 24 4.5 45.833 -0.5 65.5s-15.667 35.834 -32 48.501s-38.666 21.334 -66.999 26.001s-63.5 4.33398 -105.5 -0.999023l28 147c36 -2.66699 67 -1.16699 93 4.5s47.833 14.167 65.5 25.5s31.334 24.833 41.001 40.5s16.5 32.5 20.5 50.5
c6 34 -0.333008 61.333 -19 82s-46 31 -82 31c-22.667 0 -43.167 -4.16699 -61.5 -12.5s-34.5 -19.666 -48.5 -33.999s-25.833 -31.5 -35.5 -51.5s-17.167 -41.333 -22.5 -64h-186c8 42.667 23.333 83.667 46 123s50.667 73.833 84 103.5s71.166 53.334 113.499 71.001
s87.5 26.5 135.5 26.5c46.667 0 88.667 -6.16699 126 -18.5s68.166 -30.166 92.499 -53.499s41.333 -51.5 51 -84.5s10.5 -69.833 2.5 -110.5z" />
    <glyph glyph-name="four" unicode="4" horiz-adv-x="745" 
d="M549 211l-41 -211h-186l40 211h-395l29 143l539 611h161l-116 -592h127l-31 -162h-127zM393 373l64 321l-289 -321h225z" />
    <glyph glyph-name="five" unicode="5" horiz-adv-x="745" 
d="M344 788l-80.002 -216.998c6 7.33301 15.833 15.5 29.5 24.5s29.5 17.5 47.5 25.5s37.5 14.667 58.5 20s42.167 8 63.5 8c40 0 76.333 -7.33301 109 -22s59.5 -35.667 80.5 -63s35.333 -60.833 43 -100.5s6.5 -84.834 -3.5 -135.501c-10 -51.333 -27.667 -98 -53 -140
s-56.666 -78.167 -93.999 -108.5s-80 -53.833 -128 -70.5s-99.667 -25 -155 -25c-46.667 0 -88.834 6.66699 -126.501 20s-68.834 33 -93.501 59s-42.167 57.833 -52.5 95.5s-11.5 80.5 -3.5 128.5h184c-3.33301 -42 5.5 -76.167 26.5 -102.5s54.5 -39.5 100.5 -39.5
c26.667 0 51.167 5 73.5 15s42 23.5 59 40.5s31.167 36.667 42.5 59s19.333 45.833 24 70.5c4.66699 23.333 5.33398 45.166 2.00098 65.499s-10.5 38 -21.5 53s-25.5 26.667 -43.5 35s-39.333 12.5 -64 12.5c-14 0 -28.833 -2 -44.5 -6s-31.167 -10.167 -46.5 -18.5
s-30.166 -18.5 -44.499 -30.5s-27.166 -26 -38.499 -42l-158 33l201 520h520l-31 -164h-383z" />
    <glyph glyph-name="six" unicode="6" horiz-adv-x="745" 
d="M563 702c-4 40 -14.665 68.5039 -31.998 85.5039s-41.333 25.5 -72 25.5c-30 0 -57.5 -8.5 -82.5 -25.5s-47.167 -38.5 -66.5 -64.5s-36 -54.667 -50 -86s-25 -61.333 -33 -90c26 23.333 57.833 43.833 95.5 61.5s83.834 26.5 138.501 26.5
c46 0 85.5 -8.16699 118.5 -24.5s59.167 -38.833 78.5 -67.5s31.666 -62.834 36.999 -102.501s3.66602 -82.834 -5.00098 -129.501c-8 -41.333 -23.333 -81.666 -46 -120.999s-51.5 -74.333 -86.5 -105s-75.667 -55.167 -122 -73.5s-97.166 -27.5 -152.499 -27.5
c-58 0 -106.833 10.833 -146.5 32.5s-70.167 53 -91.5 94s-33.833 90.667 -37.5 149s1.5 124.166 15.5 197.499c12.667 66 32.167 129.667 58.5 191s59.166 115.666 98.499 162.999s84.666 85.166 135.999 113.499s108.333 42.5 171 42.5
c90.667 0 157.5 -22.833 200.5 -68.5s63.833 -111.167 62.5 -196.5h-187zM504.002 313.004c4.66699 25.333 5.33398 48.5 2.00098 69.5s-10.166 39.167 -20.499 54.5s-24.166 27.166 -41.499 35.499s-37.666 12.5 -60.999 12.5s-45.333 -4.16699 -66 -12.5
s-39.334 -20.166 -56.001 -35.499s-30.667 -33.5 -42 -54.5s-19.333 -44.167 -24 -69.5c-5.33301 -25.333 -6.5 -48.666 -3.5 -69.999s9.83301 -39.833 20.5 -55.5s24.667 -28 42 -37s37.666 -13.5 60.999 -13.5c24 0 46.333 4.5 67 13.5s39.167 21.333 55.5 37
s30.166 34.167 41.499 55.5s19.666 44.666 24.999 69.999z" />
    <glyph glyph-name="seven" unicode="7" horiz-adv-x="745" 
d="M764 805c-76.667 -64 -141.669 -131.168 -195.002 -201.501s-98.166 -140.666 -134.499 -210.999s-65.833 -139 -88.5 -206s-41.667 -129.167 -57 -186.5h-207c18.667 66 41.834 131.833 69.501 197.5s60.667 131 99 196s83 130 134 195s109.167 129.5 174.5 193.5h-455
l33 170h656l-29 -147v0z" />
    <glyph glyph-name="eight" unicode="8" horiz-adv-x="745" 
d="M731 700c-4.66699 -24 -12.335 -46 -23.002 -66s-23.5 -37.667 -38.5 -53s-31.5 -28.666 -49.5 -39.999s-37 -20.333 -57 -27c24.667 -6.66699 46 -17.667 64 -33s32.5 -33.166 43.5 -53.499s18 -42.833 21 -67.5s1.83301 -49.667 -3.5 -75
c-8.66699 -46 -25.667 -87.5 -51 -124.5s-56.666 -68.5 -93.999 -94.5s-79.166 -46.167 -125.499 -60.5s-94.833 -21.5 -145.5 -21.5s-96.167 7.16699 -136.5 21.5s-73.833 34.5 -100.5 60.5s-45.5 57.5 -56.5 94.5s-12.167 78.5 -3.5 124.5
c5.33301 25.333 14.333 50.333 27 75s28.334 47.167 47.001 67.5s40 38.166 64 53.499s49.667 26.333 77 33c-34.667 13.333 -62 35.666 -82 66.999s-25.333 71 -16 119c8 38.667 23.333 74.334 46 107.001s50.667 60.834 84 84.501s70.833 42.167 112.5 55.5
s85.167 20 130.5 20s86.166 -6.66699 122.499 -20s66.5 -31.833 90.5 -55.5s40.833 -51.834 50.5 -84.501s10.5 -68.334 2.5 -107.001zM554.999 692c3.33301 18.667 2.66504 35.834 -2.00195 51.501s-12.5 29.167 -23.5 40.5s-24.5 20 -40.5 26s-33.667 9 -53 9
c-20 0 -39.167 -3 -57.5 -9s-35 -14.667 -50 -26s-27.833 -24.833 -38.5 -40.5s-18 -32.834 -22 -51.501c-3.33301 -19.333 -2.66602 -36.666 2.00098 -51.999s12.334 -28.333 23.001 -39s24 -19 40 -25s34 -9 54 -9c19.333 0 38.333 3 57 9s35.667 14.333 51 25
s28.333 23.667 39 39s17.667 32.666 21 51.999zM495.998 285c4 22 3.5 42.167 -1.5 60.5s-13.667 34.333 -26 48s-27.833 24.167 -46.5 31.5s-39.334 11 -62.001 11s-44.667 -3.66699 -66 -11s-40.666 -17.833 -57.999 -31.5s-32 -29.667 -44 -48s-20 -38.5 -24 -60.5
c-4.66699 -22.667 -4.5 -43.334 0.5 -62.001s13.5 -34.834 25.5 -48.501s27.167 -24.334 45.5 -32.001s38.833 -11.5 61.5 -11.5s44.667 3.83301 66 11.5s40.833 18.334 58.5 32.001s32.667 29.834 45 48.501s20.833 39.334 25.5 62.001z" />
    <glyph glyph-name="nine" unicode="9" horiz-adv-x="745" 
d="M723 494c-12.667 -66 -32.1699 -129.83 -58.5029 -191.497s-59.166 -116 -98.499 -163s-84.833 -84.667 -136.5 -113s-108.834 -42.5 -171.501 -42.5c-90 0 -156.167 22.667 -198.5 68s-62.833 110.666 -61.5 195.999h186c2 -38 11.667 -66 29 -84s42 -27 74 -27
c30 0 57.333 8.5 82 25.5s46.834 38.5 66.501 64.5s36.334 54.667 50.001 86s24.5 61.333 32.5 90c-12 -10 -25.833 -20.167 -41.5 -30.5s-33.167 -19.833 -52.5 -28.5s-40.5 -15.667 -63.5 -21s-48.167 -8 -75.5 -8c-46 0 -85.5 8.16699 -118.5 24.5s-59.167 39 -78.5 68
s-31.666 63.167 -36.999 102.5s-3.33301 82.333 6 129c8 40.667 23.167 80.5 45.5 119.5s50.833 74 85.5 105s75.167 56 121.5 75s97.5 28.5 153.5 28.5c58 0 106.833 -11 146.5 -33s70.167 -53.333 91.5 -94s33.833 -90.334 37.5 -149.001s-1.5 -124.334 -15.5 -197.001z
M550.997 637.003c4.66699 24.667 5.49902 47.834 2.49902 69.501s-9.83301 40.334 -20.5 56.001s-24.667 28 -42 37s-37.666 13.5 -60.999 13.5s-45.333 -4.5 -66 -13.5s-39.334 -21.333 -56.001 -37s-30.667 -34.334 -42 -56.001s-19.333 -44.834 -24 -69.501
c-9.33301 -50.667 -3.5 -92 17.5 -124s55.167 -48 102.5 -48c24 0 46.333 4.33301 67 13s39.334 20.5 56.001 35.5s30.667 33 42 54s19.333 44.167 24 69.5z" />
    <glyph glyph-name="colon" unicode=":" horiz-adv-x="369" 
d="M313 606c-3.33301 -14 -9.00293 -27.167 -17.0029 -39.5s-17.5 -23.166 -28.5 -32.499s-23.167 -16.666 -36.5 -21.999s-27 -8 -41 -8s-26.667 2.66699 -38 8s-20.666 12.666 -27.999 21.999s-12.5 20.166 -15.5 32.499s-2.83301 25.5 0.5 39.5
c2.66699 14 7.83398 27.167 15.501 39.5s17 23.333 28 33s23 17.167 36 22.5s26.5 8 40.5 8s26.833 -2.66699 38.5 -8s21.334 -12.833 29.001 -22.5s13 -20.667 16 -33s3.16699 -25.5 0.5 -39.5zM212.997 92c-3.33301 -14 -8.99902 -27.167 -16.999 -39.5
s-17.5 -23.166 -28.5 -32.499s-23.167 -16.666 -36.5 -21.999s-27 -8 -41 -8c-13.333 0 -25.833 2.66699 -37.5 8s-21.334 12.666 -29.001 21.999s-13 20.166 -16 32.499s-2.83301 25.5 0.5 39.5c2.66699 14 7.83398 27.167 15.501 39.5s17 23.166 28 32.499
s23.167 16.833 36.5 22.5s27 8.5 41 8.5s26.667 -2.83301 38 -8.5s20.833 -13.167 28.5 -22.5s13.167 -20.166 16.5 -32.499s3.66602 -25.5 0.999023 -39.5z" />
    <glyph glyph-name="semicolon" unicode=";" horiz-adv-x="369" 
d="M313 606c-3.33301 -14 -9.00293 -27.167 -17.0029 -39.5s-17.5 -23.166 -28.5 -32.499s-23.167 -16.666 -36.5 -21.999s-27 -8 -41 -8s-26.667 2.66699 -38 8s-20.666 12.666 -27.999 21.999s-12.5 20.166 -15.5 32.499s-2.83301 25.5 0.5 39.5
c2.66699 14 7.83398 27.167 15.501 39.5s17 23.333 28 33s23 17.167 36 22.5s26.5 8 40.5 8s26.833 -2.66699 38.5 -8s21.334 -12.833 29.001 -22.5s13 -20.667 16 -33s3.16699 -25.5 0.5 -39.5zM216.997 82c-3.33301 -23.333 -10.167 -46.1641 -20.5 -68.4971
s-23.333 -43.833 -39 -64.5s-33.334 -39.667 -53.001 -57s-40.167 -32.666 -61.5 -45.999l-63 50c19.333 11.333 38.833 24.666 58.5 39.999s36.834 33.333 51.501 54c-13.333 0 -25.833 2.66699 -37.5 8s-21.334 12.666 -29.001 21.999s-13 20.166 -16 32.499
s-2.83301 25.5 0.5 39.5c2.66699 14 7.83398 27.167 15.501 39.5s17 23.166 28 32.499s23.167 16.833 36.5 22.5s27 8.5 41 8.5c30 0 53.333 -10.333 70 -31s22.667 -48 18 -82z" />
    <glyph glyph-name="less" unicode="&#x3c;" horiz-adv-x="745" 
d="M205 342l422 -197l-31 -155l-580 272l31 160l686 272l-31 -155z" />
    <glyph glyph-name="equal" unicode="=" horiz-adv-x="745" 
d="M29 414l28 145h664l-29 -145h-663zM-27 127l29 143h664l-29 -143h-664z" />
    <glyph glyph-name="greater" unicode="&#x3e;" horiz-adv-x="745" 
d="M-37 -10l31 155l493 197l-417 197l30 155l580 -272l-31 -160z" />
    <glyph glyph-name="question" unicode="?" horiz-adv-x="752" 
d="M758 727c-8.66699 -44 -22 -80.335 -40 -109.002s-38 -53 -60 -73s-45.167 -37 -69.5 -51s-47 -28.333 -68 -43s-39.333 -31.167 -55 -49.5s-26.167 -41.5 -31.5 -69.5l-8 -43h-182l12 61c6.66699 34.667 17.667 64.334 33 89.001s32.833 46.167 52.5 64.5
s40.167 34.833 61.5 49.5s41.5 29.5 60.5 44.5s35.5 31.167 49.5 48.5s23.333 38.333 28 63c8 42 4 72.5 -12 91.5s-42 28.5 -78 28.5c-24 0 -45.667 -4.66699 -65 -14s-36.333 -22 -51 -38s-26.834 -34.667 -36.501 -56s-17.167 -44 -22.5 -68h-198
c10 48.667 26.833 93.5 50.5 134.5s52.834 76.167 87.501 105.5s74.5 52.333 119.5 69s94.167 25 147.5 25c55.333 0 102 -7.5 140 -22.5s68 -34.667 90 -59s36.5 -52.166 43.5 -83.499s7.5 -63 1.5 -95zM408 101.998c-3.33301 -15.333 -9.33496 -29.833 -18.002 -43.5
s-19.167 -25.5 -31.5 -35.5s-26 -18 -41 -24s-30.167 -9 -45.5 -9s-29.166 3 -41.499 9s-22.666 14 -30.999 24s-14.166 21.833 -17.499 35.5s-3.33301 28.167 0 43.5s9.16602 29.833 17.499 43.5s18.5 25.667 30.5 36s25.333 18.5 40 24.5s29.667 9 45 9s29.333 -3 42 -9
s23.334 -14.167 32.001 -24.5s14.667 -22.333 18 -36s3.66602 -28.167 0.999023 -43.5z" />
    <glyph glyph-name="at" unicode="@" horiz-adv-x="1081" 
d="M1053 575c-9.33301 -46 -23.4971 -87.6631 -42.4971 -124.996s-40.833 -70.5 -65.5 -99.5s-50.834 -54 -78.501 -75s-54.5 -38.333 -80.5 -52s-50.333 -23.667 -73 -30s-41.334 -9.5 -56.001 -9.5c-28.667 0 -50.334 7.33301 -65.001 22s-20.334 32.667 -17.001 54h-2
c-21.333 -26.667 -46.666 -46.334 -75.999 -59.001s-58.333 -19 -87 -19c-29.333 0 -55.5 6.16699 -78.5 18.5s-42 29.166 -57 50.499s-25.333 46 -31 74s-5.5 57.667 0.5 89c8 42.667 22.833 84.5 44.5 125.5s48.5 77.667 80.5 110s68.167 58.5 108.5 78.5
s83.166 30 128.499 30c14.667 0 29.334 -1.66699 44.001 -5s28.334 -8.66602 41.001 -15.999s23.834 -17 33.501 -29s16.5 -26.667 20.5 -44l35 73h113l-154 -350l-12.5 -29.5c-4.33301 -10.333 -7.5 -19.833 -9.5 -28.5s-2 -15.834 0 -21.501s7.33301 -8.5 16 -8.5
c18.667 0 38.834 6.16699 60.501 18.5s42.167 29.5 61.5 51.5s36.833 48.167 52.5 78.5s27.167 63.5 34.5 99.5c10 54 9.66699 101.667 -1 143s-29.667 76.166 -57 104.499s-61.833 49.833 -103.5 64.5s-88.167 22 -139.5 22c-58 0 -112.667 -10.167 -164 -30.5
s-97.333 -48.5 -138 -84.5s-74.834 -78.5 -102.501 -127.5s-47.167 -102.167 -58.5 -159.5c-11.333 -58.667 -11.833 -112.167 -1.5 -160.5s29.833 -89.666 58.5 -123.999s65.667 -61 111 -80s97.333 -28.5 156 -28.5c56.667 0 112 9.5 166 28.5s103 46.5 147 82.5h133
c-30 -35.333 -63.167 -66.666 -99.5 -93.999s-75 -50.333 -116 -69s-83.333 -32.834 -127 -42.501s-87.834 -14.5 -132.501 -14.5c-72 0 -137.167 12.833 -195.5 38.5s-106.666 61 -144.999 106s-65 98.333 -80 160s-15.5 128.834 -1.5 201.501
c14 71.333 40.5 137.666 79.5 198.999s86.167 114.666 141.5 159.999s116.666 80.833 183.999 106.5s136.666 38.5 207.999 38.5c61.333 0 118.333 -9.66699 171 -29s97.167 -47 133.5 -83s62.5 -79.333 78.5 -130s18 -107.334 6 -170.001zM674.003 514.004
c6 34 0.999023 62 -15.001 84s-38.333 33 -67 33c-24.667 0 -48.5 -6.16699 -71.5 -18.5s-43.833 -28.333 -62.5 -48s-34.5 -41.167 -47.5 -64.5s-21.5 -46 -25.5 -68c-7.33301 -36 -3.16602 -65.167 12.501 -87.5s39.5 -33.5 71.5 -33.5c24 0 47.333 6.16699 70 18.5
s43.167 28.333 61.5 48s34 41.5 47 65.5s21.833 47.667 26.5 71z" />
    <glyph glyph-name="A" unicode="A" horiz-adv-x="907" 
d="M578 215h-351l-112 -215h-217l548 965h211l168 -965h-217zM502 723l-193 -350h244l-49 350h-2z" />
    <glyph glyph-name="B" unicode="B" horiz-adv-x="934" 
d="M887 719c-10.667 -54.667 -31.167 -98.8311 -61.5 -132.498s-66.5 -55.834 -108.5 -66.501c58 -16.667 96.667 -45.334 116 -86.001s23 -93.334 11 -158.001c-9.33301 -49.333 -26.666 -91.333 -51.999 -126s-55.833 -63.167 -91.5 -85.5
s-74.834 -38.666 -117.501 -48.999s-86 -15.5 -130 -15.5h-453l188 965h430c48 0 90.5 -4.5 127.5 -13.5s67.5 -23.5 91.5 -43.5s40.5 -45.5 49.5 -76.5s9.16699 -68.5 0.5 -112.5zM680 690.003c4 22.667 3.50098 41.168 -1.49902 55.501s-13.333 25.666 -25 33.999
s-26.334 14 -44.001 17s-37.167 4.5 -58.5 4.5h-189l-45 -228h205c40 0 74.333 9 103 27s47 48 55 90zM641.001 293.004c9.33301 50 2.66699 85.335 -20 106.002s-59 31 -109 31h-221l-51 -264h217c22.667 0 44.167 2 64.5 6s38.5 10.667 54.5 20s29.5 22.166 40.5 38.499
s19.167 37.166 24.5 62.499z" />
    <glyph glyph-name="C" unicode="C" horiz-adv-x="981" 
d="M758 641c0.666992 24 -3.16895 46.1699 -11.502 66.5029s-20.666 38 -36.999 53s-36 26.833 -59 35.5s-48.833 13 -77.5 13c-42.667 0 -81.667 -9.33301 -117 -28s-66.5 -43.334 -93.5 -74.001s-49.5 -65.834 -67.5 -105.501s-31 -80.5 -39 -122.5
c-8 -40.667 -10.833 -80.334 -8.5 -119.001s11 -73.167 26 -103.5s36.667 -54.666 65 -72.999s64.166 -27.5 107.499 -27.5c36 0 68.167 5.33301 96.5 16s53.5 25.667 75.5 45s41 42.5 57 69.5s29.333 56.5 40 88.5h200c-17.333 -60.667 -41.666 -115.5 -72.999 -164.5
s-68.5 -90.833 -111.5 -125.5s-91.333 -61.334 -145 -80.001s-111.5 -28 -173.5 -28c-70 0 -131 13.167 -183 39.5s-93.833 62.166 -125.5 107.499s-52.5 98.5 -62.5 159.5s-8 126.167 6 195.5c14 72 38 138.833 72 200.5s75.5 115.334 124.5 161.001
s104.5 81.5 166.5 107.5s128 39 198 39c54.667 0 104.334 -7.5 149.001 -22.5s82.5 -37.167 113.5 -66.5s54.333 -65.5 70 -108.5s21.5 -92.5 17.5 -148.5h-200v0z" />
    <glyph glyph-name="D" unicode="D" horiz-adv-x="981" 
d="M934 492c-13.333 -70 -34.335 -135.001 -63.002 -195.001s-65.667 -112 -111 -156s-99.5 -78.5 -162.5 -103.5s-135.167 -37.5 -216.5 -37.5h-381l188 965h392c66.667 0 125.5 -10 176.5 -30s92.333 -49.667 124 -89s52.334 -88.666 62.001 -147.999
s6.83398 -128 -8.49902 -206zM720.998 470.999c9.33301 48.667 13.001 92.499 11.001 131.499s-11.5 72 -28.5 99s-42.333 47.833 -76 62.5s-77.5 22 -131.5 22h-136l-118 -608h161c38.667 0 75.167 5.33301 109.5 16s65.166 27.834 92.499 51.501s51 54 71 91
s35 81.833 45 134.5z" />
    <glyph glyph-name="E" unicode="E" horiz-adv-x="858" 
d="M360 786l-41 -206h459l-33 -164h-458l-45 -238h499l-34 -178h-707l188 965h707l-35 -179h-500z" />
    <glyph glyph-name="F" unicode="F" horiz-adv-x="784" 
d="M360 786l-45 -223h398l-31 -164h-397l-78 -399h-207l188 965h664l-35 -179h-457z" />
    <glyph glyph-name="G" unicode="G" horiz-adv-x="1006" 
d="M754 641c0 28 -4.50195 52.498 -13.502 73.498s-21.5 38.5 -37.5 52.5s-35.167 24.5 -57.5 31.5s-46.5 10.5 -72.5 10.5c-45.333 0 -85.833 -10 -121.5 -30s-66.667 -45.833 -93 -77.5s-47.833 -67 -64.5 -106s-28.667 -77.833 -36 -116.5
c-8 -41.333 -10.833 -81.5 -8.5 -120.5s10.833 -73.5 25.5 -103.5s35.834 -54 63.501 -72s62.834 -27 105.501 -27c74.667 0 134.667 19 180 57s77.666 88.667 96.999 152h-209l31 157h397l-102 -522h-154l-8 76c-41.333 -37.333 -84.833 -63.166 -130.5 -77.499
s-92.167 -21.5 -139.5 -21.5c-65.333 0 -123.166 12.333 -173.499 37s-91.5 59.334 -123.5 104.001s-53.5 97.667 -64.5 159s-9.5 128.666 4.5 201.999c14 72 37.667 138.833 71 200.5s74.5 115.334 123.5 161.001s104.667 81.5 167 107.5s129.5 39 201.5 39
c50 0 96.667 -7.5 140 -22.5s80.833 -37.167 112.5 -66.5s55.5 -65.5 71.5 -108.5s21.333 -92.5 16 -148.5h-198v0z" />
    <glyph glyph-name="H" unicode="H" horiz-adv-x="979" 
d="M588 0l82 418h-381l-82 -418h-207l188 965h207l-71 -369h381l71 369h209l-188 -965h-209z" />
    <glyph glyph-name="I" unicode="I" horiz-adv-x="391" 
d="M0 0l188 965h207l-188 -965h-207z" />
    <glyph glyph-name="J" unicode="J" horiz-adv-x="737" 
d="M614 313c-4.66699 -24 -10.8291 -48.833 -18.4961 -74.5s-17.834 -51 -30.501 -76s-28.334 -48.667 -47.001 -71s-41.334 -42 -68.001 -59s-58 -30.5 -94 -40.5s-77.667 -15 -125 -15c-39.333 0 -76.5 5.66699 -111.5 17s-64.5 29.333 -88.5 54s-41 56.5 -51 95.5
s-9.33301 86.167 2 141.5l14 71h188l-8 -45c-4 -23.333 -6 -44.5 -6 -63.5s3.16699 -35.333 9.5 -49s16.5 -24.167 30.5 -31.5s32.667 -11 56 -11c26.667 0 48.5 5 65.5 15s30.667 23 41 39s18.166 34 23.499 54s10 40 14 60l125 641h206l-127 -652v0z" />
    <glyph glyph-name="K" unicode="K" horiz-adv-x="936" 
d="M850 0h-248l-199 418l-141 -129l-55 -289h-207l188 965h207l-78 -400l433 400h262l-447 -398z" />
    <glyph glyph-name="L" unicode="L" horiz-adv-x="780" 
d="M0 0l188 965h207l-153 -787h463l-35 -178h-670z" />
    <glyph glyph-name="M" unicode="M" horiz-adv-x="1202" 
d="M823 0l133 684h-2l-356 -684h-168l-102 678h-2l-131 -678h-195l188 965h291l99 -643h2l333 643h293l-188 -965h-195z" />
    <glyph glyph-name="N" unicode="N" horiz-adv-x="985" 
d="M594 0l-275 635h-2l-122 -635h-195l188 965h205l275 -637h2l125 637h196l-188 -965h-209z" />
    <glyph glyph-name="O" unicode="O" horiz-adv-x="1030" 
d="M985 479c-14 -69.333 -37.501 -134.5 -70.501 -195.5s-73.667 -114.167 -122 -159.5s-104 -81.166 -167 -107.499s-131.5 -39.5 -205.5 -39.5s-137.833 13.167 -191.5 39.5s-96.5 62.166 -128.5 107.499s-53 98.5 -63 159.5s-8 126.167 6 195.5
c14 72 38 138.833 72 200.5s75.833 115.334 125.5 161.001s106.334 81.5 170.001 107.5s132.167 39 205.5 39s136.5 -13 189.5 -39s95.167 -61.833 126.5 -107.5s51.5 -99.334 60.5 -161.001s6.5 -128.5 -7.5 -200.5zM775.999 479c8 42 11.3359 82.833 10.0029 122.5
s-9.33301 74.834 -24 105.501s-36.5 55.334 -65.5 74.001s-67.167 28 -114.5 28s-89.5 -9.33301 -126.5 -28s-69 -43.334 -96 -74.001s-49.333 -65.834 -67 -105.501s-30.5 -80.5 -38.5 -122.5c-8 -40.667 -10.833 -80.334 -8.5 -119.001s11.166 -73.167 26.499 -103.5
s37.833 -54.666 67.5 -72.999s68.167 -27.5 115.5 -27.5s89.166 9.16699 125.499 27.5s67.666 42.666 93.999 72.999s47.833 64.833 64.5 103.5s29 78.334 37 119.001z" />
    <glyph glyph-name="P" unicode="P" horiz-adv-x="883" 
d="M883 653c-8 -38.667 -21.6709 -76.667 -41.0039 -114s-45.5 -70.5 -78.5 -99.5s-73 -52.5 -120 -70.5s-101.833 -27 -164.5 -27h-207l-65 -342h-207l188 965h414c62.667 0 113.834 -8.83301 153.501 -26.5s70.334 -41 92.001 -70s34.834 -62.333 39.501 -100
s3.33398 -76.167 -3.99902 -115.5zM681.996 653c6 30.667 5.83301 55.666 -0.5 74.999s-17.5 34.333 -33.5 45s-35.667 18 -59 22s-49 6 -77 6h-150l-57 -295h150c27.333 0 53.333 1.83301 78 5.5s47 10.834 67 21.501s37.167 25.5 51.5 44.5s24.5 44.167 30.5 75.5z" />
    <glyph glyph-name="Q" unicode="Q" horiz-adv-x="1030" 
d="M987 479c-14.667 -72.667 -38.666 -139.999 -71.999 -201.999s-76.333 -116 -129 -162l107 -119l-123 -98l-115 131c-34.667 -16.667 -72 -29.5 -112 -38.5s-81 -13.5 -123 -13.5c-73.333 0 -137 13.167 -191 39.5s-97.333 62.166 -130 107.499s-54 98.5 -64 159.5
s-8 126.167 6 195.5c14 72 38 138.833 72 200.5s76 115.334 126 161.001s107 81.5 171 107.5s132.667 39 206 39c74 0 137.5 -13 190.5 -39s95.167 -61.833 126.5 -107.5s51.666 -99.334 60.999 -161.001s7 -128.5 -7 -200.5zM778.001 479.001
c8 42 11.168 82.832 9.50098 122.499s-9.83398 74.834 -24.501 105.501s-36.667 55.334 -66 74.001s-67.666 28 -114.999 28s-89.5 -9.33301 -126.5 -28s-69.333 -43.334 -97 -74.001s-50.334 -65.834 -68.001 -105.501s-30.5 -80.5 -38.5 -122.5
c-8 -40.667 -10.833 -80.334 -8.5 -119.001s11.333 -73.167 27 -103.5s38.5 -54.666 68.5 -72.999s68.667 -27.5 116 -27.5c13.333 0 27.166 0.833008 41.499 2.5s27.833 4.16699 40.5 7.5l-74 78l121 98l86 -94c28.667 30.667 51.834 65.834 69.501 105.501
s30.5 81.5 38.5 125.5z" />
    <glyph glyph-name="R" unicode="R" horiz-adv-x="956" 
d="M922 694c-5.33301 -26.667 -13.002 -52.3379 -23.002 -77.0049s-23 -47.334 -39 -68.001s-34.833 -39 -56.5 -55s-46.5 -28.333 -74.5 -37v-2c24.667 -7.33301 43.5 -19.166 56.5 -35.499s22.167 -35.166 27.5 -56.499s7.83301 -44 7.5 -68s-1.5 -47.333 -3.5 -70
c-1.33301 -15.333 -3.5 -33.166 -6.5 -53.499s-5.5 -41 -7.5 -62s-2.5 -41.167 -1.5 -60.5s4.83301 -35.666 11.5 -48.999h-207c-3.33301 15.333 -4.83301 32 -4.5 50s1.33301 36.833 3 56.5s3.66699 39.667 6 60s4.16602 40.5 5.49902 60.5
c2 22.667 1.83301 43.334 -0.5 62.001s-8.5 34.5 -18.5 47.5s-24.5 23 -43.5 30s-43.833 10.5 -74.5 10.5h-198l-74 -377h-207l188 965h490c50 0 92.333 -6.66699 127 -20s61.834 -32 81.501 -56s32.334 -52.667 38.001 -86s4.83398 -69.666 -2.49902 -108.999z
M706.998 665.996c9.33301 48 3.66699 82.5 -17 103.5s-58 31.5 -112 31.5h-216l-53 -273h215c52.667 0 94 11 124 33s49.667 57 59 105z" />
    <glyph glyph-name="S" unicode="S" horiz-adv-x="858" 
d="M633 678c4 28.667 2.8418 52.3359 -3.49121 71.0029s-16.5 33.5 -30.5 44.5s-30.833 18.667 -50.5 23s-40.834 6.5 -63.501 6.5c-18 0 -36.167 -2 -54.5 -6s-35.5 -10.167 -51.5 -18.5s-29.667 -19.333 -41 -33s-19 -29.834 -23 -48.501
c-4.66699 -25.333 -0.5 -45.666 12.5 -60.999s31.667 -28 56 -38s52.5 -18.667 84.5 -26s64.667 -15.333 98 -24s65.5 -19.5 96.5 -32.5s57.5 -30.333 79.5 -52s38 -48.834 48 -81.501s10.333 -73 1 -121c-8.66699 -44.667 -24.334 -85.667 -47.001 -123
s-52.667 -69.333 -90 -96s-82.5 -47.5 -135.5 -62.5s-113.833 -22.5 -182.5 -22.5c-52 0 -100.833 6.83301 -146.5 20.5s-84.334 34.667 -116.001 63s-54.334 64 -68.001 107s-14.834 93.5 -3.50098 151.5h201c-6 -29.333 -5.83301 -55.166 0.5 -77.499s17 -41 32 -56
s33.833 -26.167 56.5 -33.5s47.667 -11 75 -11c20 0 41 2 63 6s42.667 10.667 62 20s36.166 21.5 50.499 36.5s23.833 33.833 28.5 56.5c5.33301 27.333 1.83301 49.5 -10.5 66.5s-30.333 31.167 -54 42.5s-51.334 20.833 -83.001 28.5l-96.5 24.5
c-32.667 8.66699 -64.334 19.167 -95.001 31.5s-56.834 29 -78.501 50s-37.334 47.167 -47.001 78.5s-9.83398 70.666 -0.500977 117.999c9.33301 48.667 28 91.167 56 127.5s61.167 66.5 99.5 90.5s80.333 41.833 126 53.5s91.167 17.5 136.5 17.5
c46 0 90.167 -5.5 132.5 -16.5s78.833 -28.833 109.5 -53.5s52.834 -56.834 66.501 -96.501s14.834 -87.834 3.50098 -144.501h-203v0z" />
    <glyph glyph-name="T" unicode="T" horiz-adv-x="805" 
d="M567 791l-153 -791h-207l153 791h-278l35 174h766l-35 -174h-281z" />
    <glyph glyph-name="U" unicode="U" horiz-adv-x="985" 
d="M879 375c-13.333 -69.333 -34.1738 -129.002 -62.5068 -179.002s-63.166 -91.333 -104.499 -124s-88.666 -56.667 -141.999 -72s-111.666 -23 -174.999 -23s-118.5 7.66699 -165.5 23s-84.5 39.333 -112.5 72s-46.167 74 -54.5 124s-5.83301 109.667 7.5 179l114 590h207
l-115 -590c-15.333 -80 -10.166 -136.5 15.501 -169.5s71.834 -49.5 138.501 -49.5c34.667 0 65.334 3.83301 92.001 11.5s49.834 20.334 69.501 38.001s36 40.334 49 68.001s23.5 61.5 31.5 101.5l114 590h207l-114 -590v0z" />
    <glyph glyph-name="V" unicode="V" horiz-adv-x="844" 
d="M209 0l-123 965h215l82 -674h2l350 674h215l-506 -965h-235z" />
    <glyph glyph-name="W" unicode="W" horiz-adv-x="1251" 
d="M692 0l-33 647h-4l-282 -647h-223l-50 965h209l23 -639h2l291 639h194l35 -646h2l283 646h204l-432 -965h-219z" />
    <glyph glyph-name="X" unicode="X" horiz-adv-x="883" 
d="M799 0h-242l-145 336l-273 -336h-239l430 506l-211 459h239l123 -308l248 308h227l-389 -461z" />
    <glyph glyph-name="Y" unicode="Y" horiz-adv-x="883" 
d="M453 0h-207l73 375l-235 590h231l150 -379h4l291 379h231l-467 -594z" />
    <glyph glyph-name="Z" unicode="Z" horiz-adv-x="858" 
d="M250 178h518l-35 -178h-794l32 168l623 618h-475l35 179h749l-33 -168z" />
    <glyph glyph-name="bracketleft" unicode="[" horiz-adv-x="471" 
d="M354 887l-184 -955h174l-29 -139h-356l240 1233h356l-27 -139h-174z" />
    <glyph glyph-name="backslash" unicode="\" horiz-adv-x="502" 
d="M86 987h154l180 -1010h-154z" />
    <glyph glyph-name="bracketright" unicode="]" horiz-adv-x="471" 
d="M-113 -207l29 139h174l184 955h-174l27 139h356l-239 -1233h-357z" />
    <glyph glyph-name="asciicircum" unicode="^" horiz-adv-x="745" 
d="M436 797l-227 -371h-166l340 520h166l135 -520h-166z" />
    <glyph glyph-name="underscore" unicode="_" horiz-adv-x="745" 
d="M-131 -205l18 103h746l-19 -103h-745z" />
    <glyph glyph-name="grave" unicode="`" horiz-adv-x="350" 
d="M33 977h213l90 -193h-133z" />
    <glyph glyph-name="a" unicode="a" horiz-adv-x="809" 
d="M467 0l13.999 76h-2c-30 -30 -62.833 -53.167 -98.5 -69.5s-78.5 -24.5 -128.5 -24.5c-38 0 -73.5 7.16699 -106.5 21.5s-60.5 36.5 -82.5 66.5s-37 68.167 -45 114.5s-5.66699 101.5 7 165.5s32 119.167 58 165.5s55.667 84.333 89 114s69.5 51.667 108.5 66
s77.833 21.5 116.5 21.5c44 0 80.833 -7 110.5 -21s53.834 -32.333 72.501 -55h4l10 57h186l-135 -698h-178zM531.999 350c6 30 8.50098 58.333 7.50098 85s-6.16699 50.334 -15.5 71.001s-23 37 -41 49s-41 18 -69 18c-27.333 0 -52.166 -6 -74.499 -18
s-42 -28.333 -59 -49s-31.333 -44.334 -43 -71.001s-20.5 -55 -26.5 -85c-6 -28.667 -8.5 -56.5 -7.5 -83.5s6.16699 -51 15.5 -72s23 -37.833 41 -50.5s40.667 -19 68 -19c28 0 53.333 6.33301 76 19s42.667 29.5 60 50.5s31.666 45 42.999 72s19.666 54.833 24.999 83.5z
" />
    <glyph glyph-name="b" unicode="b" horiz-adv-x="809" 
d="M735 350c-12 -64 -30.501 -119.167 -55.501 -165.5s-54 -84.5 -87 -114.5s-68.5 -52.167 -106.5 -66.5s-75.667 -21.5 -113 -21.5c-50.667 0 -91.667 8.16699 -123 24.5s-56.666 39.5 -75.999 69.5h-2l-14 -76h-178l188 965h186l-63 -324h4
c26.667 22.667 57.834 41 93.501 55s75.5 21 119.5 21c38.667 0 74.667 -7.16699 108 -21.5s61 -36.333 83 -66s36.667 -67.667 44 -114s4.66602 -101.5 -8.00098 -165.5zM548.999 350c6 30 8.5 58.333 7.5 85s-6.16699 50.334 -15.5 71.001s-22.833 37 -40.5 49
s-40.5 18 -68.5 18s-53.333 -6 -76 -18s-42.5 -28.333 -59.5 -49s-31.333 -44.334 -43 -71.001s-20.5 -55 -26.5 -85c-5.33301 -28.667 -7.33301 -56.5 -6 -83.5s6.5 -51 15.5 -72s22.5 -37.833 40.5 -50.5s41 -19 69 -19s53.167 6.33301 75.5 19s42 29.5 59 50.5
s31.167 45 42.5 72s20 54.833 26 83.5z" />
    <glyph glyph-name="c" unicode="c" horiz-adv-x="760" 
d="M535 449c1.33301 40 -8.16895 70.6689 -28.502 92.002s-50.5 32 -90.5 32c-29.333 0 -55.333 -6.83301 -78 -20.5s-42.167 -31.334 -58.5 -53.001s-29.833 -45.834 -40.5 -72.501s-18.667 -53 -24 -79c-4.66699 -25.333 -7.16699 -51.166 -7.5 -77.499
s3.33398 -50.166 11.001 -71.499s19.834 -39 36.501 -53s39.667 -21 69 -21c46 0 83.833 12.833 113.5 38.5s51.834 60.5 66.501 104.5h182c-15.333 -46.667 -35.5 -87.834 -60.5 -123.501s-54.167 -65.5 -87.5 -89.5s-70.5 -42.167 -111.5 -54.5
s-84.833 -18.5 -131.5 -18.5c-52 0 -97.333 8.83301 -136 26.5s-69.667 42.667 -93 75s-38.666 71 -45.999 116s-5.66602 94.5 5.00098 148.5s28.667 103.667 54 149s56.166 84.333 92.499 117s77.666 58 123.999 76s95.833 27 148.5 27c43.333 0 83.166 -5.5 119.499 -16.5
s67 -27.667 92 -50s43.333 -50.333 55 -84s14.5 -72.834 8.5 -117.501h-184v0z" />
    <glyph glyph-name="d" unicode="d" horiz-adv-x="809" 
d="M467 0l14 76h-2c-25.333 -30 -57 -53.167 -95 -69.5s-82 -24.5 -132 -24.5c-38.667 0 -74.5 7.16699 -107.5 21.5s-60.5 36.5 -82.5 66.5s-36.833 68.167 -44.5 114.5s-5.16699 101.5 7.5 165.5c12.667 64.667 32 120.167 58 166.5s55.833 84.333 89.5 114
s70.167 51.5 109.5 65.5s79 21 119 21c44 0 81 -7.5 111 -22.5s52.667 -32.833 68 -53.5h4l63 324h187l-189 -965h-178zM532 350c6 30 8.50098 58.333 7.50098 85s-6.16699 50.334 -15.5 71.001s-23 37 -41 49s-41 18 -69 18c-27.333 0 -52.166 -6 -74.499 -18
s-42 -28.333 -59 -49s-31.333 -44.334 -43 -71.001s-20.5 -55 -26.5 -85c-6 -28.667 -8.5 -56.5 -7.5 -83.5s6.16699 -51 15.5 -72s23 -37.833 41 -50.5s40.667 -19 68 -19c28 0 53.333 6.33301 76 19s42.667 29.5 60 50.5s31.666 45 42.999 72s19.666 54.833 24.999 83.5z
" />
    <glyph glyph-name="e" unicode="e" horiz-adv-x="760" 
d="M195 303c-4 -29.333 -3.50293 -55.001 1.49707 -77.001s13.333 -40.5 25 -55.5s26.167 -26.333 43.5 -34s36.333 -11.5 57 -11.5c20 0 38.5 2.83301 55.5 8.5s32.333 12.834 46 21.501s25.334 18.5 35.001 29.5s17.167 21.833 22.5 32.5h178
c-43.333 -83.333 -95.333 -143.333 -156 -180s-130.667 -55 -210 -55c-54 0 -100.833 9 -140.5 27s-71.5 43.167 -95.5 75.5s-39.667 70.833 -47 115.5s-6 94 4 148c10 52.667 27.667 101.5 53 146.5s56.333 84 93 117s78 58.833 124 77.5s94.667 28 146 28
c60.667 0 110.834 -11.5 150.501 -34.5s69.834 -53.667 90.501 -92s32.167 -82.333 34.5 -132s-3.5 -101.5 -17.5 -155.5h-493zM521.997 423.999c2 18.667 1.33105 36.832 -2.00195 54.499s-9.66602 33.5 -18.999 47.5s-22.333 25.333 -39 34s-37 13 -61 13
c-28 0 -52.667 -5.16699 -74 -15.5s-39.666 -23.166 -54.999 -38.499s-27.5 -31.5 -36.5 -48.5s-15.167 -32.5 -18.5 -46.5h305z" />
    <glyph glyph-name="f" unicode="f" horiz-adv-x="442" 
d="M516 815c-10 1.33301 -21.667 2.66602 -35 3.99902s-26.333 2 -39 2c-24.667 0 -44 -5.66699 -58 -17s-24.667 -33.666 -32 -66.999l-8 -39h129l-24 -127h-130l-110 -571h-189l111 571h-117l25 127h117l10 52c13.333 66.667 43.5 119.167 90.5 157.5
s108.833 57.5 185.5 57.5c26 0 47.833 -0.833008 65.5 -2.5s30.167 -3.16699 37.5 -4.5l-29 -143v0z" />
    <glyph glyph-name="g" unicode="g" horiz-adv-x="809" 
d="M649 20c-6 -31.333 -16.332 -65.667 -30.999 -103s-37.167 -72 -67.5 -104s-70.333 -58.667 -120 -80s-112.5 -32 -188.5 -32c-38.667 0 -75.834 4.16699 -111.501 12.5s-66.667 21.333 -93 39s-46.333 40.667 -60 69s-17.834 62.5 -12.501 102.5h187
c0.666992 -18 4.5 -33 11.5 -45s16.333 -21.833 28 -29.5s25 -13.167 40 -16.5s31.5 -5 49.5 -5c52 0 93.5 16.167 124.5 48.5s52.167 77.5 63.5 135.5l12 64h-2c-30 -30 -62.833 -53.167 -98.5 -69.5s-78.5 -24.5 -128.5 -24.5c-38 0 -73.5 7.16699 -106.5 21.5
s-60.5 36.5 -82.5 66.5s-37 68.167 -45 114.5s-5.66699 101.5 7 165.5s32 119.167 58 165.5s55.667 84.333 89 114s69.5 51.667 108.5 66s77.833 21.5 116.5 21.5c44 0 80.833 -7 110.5 -21s53.834 -32.333 72.501 -55h4l10 57h186zM532.001 349.999
c6 30 8.50098 58.333 7.50098 85s-6.16699 50.334 -15.5 71.001s-23 37 -41 49s-41 18 -69 18c-27.333 0 -52.166 -6 -74.499 -18s-42 -28.333 -59 -49s-31.333 -44.334 -43 -71.001s-20.5 -55 -26.5 -85c-6 -28.667 -8.5 -56.5 -7.5 -83.5s6.16699 -51 15.5 -72
s23 -37.833 41 -50.5s40.667 -19 68 -19c28 0 53.333 6.33301 76 19s42.667 29.5 60 50.5s31.666 45 42.999 72s19.666 54.833 24.999 83.5z" />
    <glyph glyph-name="h" unicode="h" horiz-adv-x="784" 
d="M434 0l76.0029 384.999c5.33301 28.667 8.16602 54.334 8.49902 77.001s-2.66699 41.667 -9 57s-16.666 27.166 -30.999 35.499s-33.833 12.5 -58.5 12.5c-46 0 -84.833 -18.5 -116.5 -55.5s-54.167 -88.833 -67.5 -155.5l-70 -356h-186l188 965h186l-67 -342h4
c13.333 16 28.666 29.833 45.999 41.5s35.5 21.334 54.5 29.001s38.167 13.5 57.5 17.5s37.666 6 54.999 6c46.667 0 85.167 -6.16699 115.5 -18.5s53.666 -30.333 69.999 -54s25.833 -52.5 28.5 -86.5s-0.333008 -72.667 -9 -116l-86 -442h-189z" />
    <glyph glyph-name="i" unicode="i" horiz-adv-x="342" 
d="M141 811l31 154h188l-30 -154h-189zM-16 0l135 698h188l-135 -698h-188z" />
    <glyph glyph-name="j" unicode="j" horiz-adv-x="373" 
d="M160 811l30 154h189l-31 -154h-188zM186 -20c-7.33301 -38.667 -17.167 -72.167 -29.5 -100.5s-29 -51.833 -50 -70.5s-47.667 -32.5 -80 -41.5s-71.833 -13.5 -118.5 -13.5c-14.667 0 -30.5 0.833008 -47.5 2.5s-30.5 3.5 -40.5 5.5l30 158
c6.66699 -2 16.834 -3.83301 30.501 -5.5s26.167 -2.5 37.5 -2.5c19.333 0 36.166 4.66699 50.499 14s24.833 29.333 31.5 60l137 712h189z" />
    <glyph glyph-name="k" unicode="k" horiz-adv-x="752" 
d="M664 0h-226l-125 305l-84 -74l-45 -231h-188l188 965h189l-103 -519l287 252h221l-313 -264z" />
    <glyph glyph-name="l" unicode="l" horiz-adv-x="342" 
d="M-16 0l188 965h188l-188 -965h-188z" />
    <glyph glyph-name="m" unicode="m" horiz-adv-x="1200" 
d="M844 0l78 403.004c4.66699 24 7.66699 46.167 9 66.5s-0.5 37.666 -5.5 51.999s-13.833 25.5 -26.5 33.5s-30.334 12 -53.001 12c-24 0 -45.333 -5 -64 -15s-35 -23.5 -49 -40.5s-25.5 -36.5 -34.5 -58.5s-15.833 -44.667 -20.5 -68l-76 -385h-188l78 403
c4.66699 24 7.66699 46.167 9 66.5s-0.5 37.666 -5.5 51.999s-13.833 25.5 -26.5 33.5s-30.334 12 -53.001 12c-24 0 -45.5 -5 -64.5 -15s-35.333 -23.5 -49 -40.5s-25 -36.5 -34 -58.5s-15.833 -44.667 -20.5 -68l-76 -385h-188l135 698h178l-16 -92h2
c30.667 36 66.167 63.5 106.5 82.5s82.5 28.5 126.5 28.5c19.333 0 38.166 -2 56.499 -6s35.333 -10.333 51 -19s29.334 -20.334 41.001 -35.001s20.167 -32.334 25.5 -53.001c13.333 14.667 28.333 28.834 45 42.501s34.834 25.667 54.501 36s40.667 18.666 63 24.999
s46.166 9.5 71.499 9.5c36.667 0 69.334 -4.66699 98.001 -14s51.667 -24.333 69 -45s28.833 -47.5 34.5 -80.5s3.83398 -73.167 -5.49902 -120.5l-88 -457h-188z" />
    <glyph glyph-name="n" unicode="n" horiz-adv-x="784" 
d="M434 0l78 403.002c4.66699 24 7.16699 46 7.5 66s-2.66699 37.167 -9 51.5s-16.5 25.666 -30.5 33.999s-33.333 12.5 -58 12.5c-25.333 0 -48 -4.83301 -68 -14.5s-37.5 -22.834 -52.5 -39.501s-27.5 -36 -37.5 -58s-17.333 -45.333 -22 -70l-76 -385h-186l135 698h178
l-17 -92h5c30.667 40 66.5 68.5 107.5 85.5s81.5 25.5 121.5 25.5c50 0 89.667 -7.66699 119 -23s50.833 -36.333 64.5 -63s20.5 -58.5 20.5 -95.5s-4 -76.833 -12 -119.5l-79 -416h-189z" />
    <glyph glyph-name="o" unicode="o" horiz-adv-x="809" 
d="M735 348c-10.667 -55.333 -28.834 -105.5 -54.501 -150.5s-57.167 -83.5 -94.5 -115.5s-79.666 -56.667 -126.999 -74s-98 -26 -152 -26s-101.167 8.66699 -141.5 26s-72.833 42 -97.5 74s-41 70.5 -49 115.5s-6.66699 95.167 4 150.5
c10.667 56 28.834 106.667 54.501 152s57.167 84 94.5 116s79.666 56.833 126.999 74.5s98 26.5 152 26.5s101.167 -8.83301 141.5 -26.5s72.833 -42.5 97.5 -74.5s41 -70.667 49 -116s6.66699 -96 -4 -152zM547 348c5.33301 28 8 55.5 8 82.5s-4.5 50.833 -13.5 71.5
s-23 37.334 -42 50.001s-44.833 19 -77.5 19c-32 0 -59.833 -6.33301 -83.5 -19s-43.667 -29.334 -60 -50.001s-29.833 -44.5 -40.5 -71.5s-19 -54.5 -25 -82.5c-5.33301 -27.333 -8 -54.333 -8 -81s4.5 -50.334 13.5 -71.001s22.833 -37.334 41.5 -50.001s44 -19 76 -19
s60 6.33301 84 19s44.5 29.334 61.5 50.001s30.833 44.334 41.5 71.001s18.667 53.667 24 81z" />
    <glyph glyph-name="p" unicode="p" horiz-adv-x="809" 
d="M735 350c-12 -64 -31.001 -119.167 -57.001 -165.5s-55.833 -84.5 -89.5 -114.5s-69.834 -52.167 -108.501 -66.5s-77 -21.5 -115 -21.5c-25.333 0 -47.666 2 -66.999 6s-36.5 10 -51.5 18s-28.333 17.833 -40 29.5s-22.5 25.167 -32.5 40.5h-2l-61 -322h-179l183 944
h186l-10 -57h4c26.667 22.667 57.5 41 92.5 55s74.5 21 118.5 21c38.667 0 74.834 -7.16699 108.501 -21.5s61.5 -36.333 83.5 -66s36.833 -67.667 44.5 -114s5.16699 -101.5 -7.5 -165.5zM548.999 350c6 30 8.5 58.333 7.5 85s-6.16699 50.334 -15.5 71.001
s-22.833 37 -40.5 49s-40.5 18 -68.5 18s-53.333 -6 -76 -18s-42.5 -28.333 -59.5 -49s-31.333 -44.334 -43 -71.001s-20.5 -55 -26.5 -85c-5.33301 -28.667 -7.33301 -56.5 -6 -83.5s6.5 -51 15.5 -72s22.5 -37.833 40.5 -50.5s41 -19 69 -19s53.167 6.33301 75.5 19
s42 29.5 59 50.5s31.167 45 42.5 72s20 54.833 26 83.5z" />
    <glyph glyph-name="q" unicode="q" horiz-adv-x="809" 
d="M420 -246l60.999 322h-2c-30 -30 -62.833 -53.167 -98.5 -69.5s-78.5 -24.5 -128.5 -24.5c-38 0 -73.5 7.16699 -106.5 21.5s-60.5 36.5 -82.5 66.5s-37 68.167 -45 114.5s-5.66699 101.5 7 165.5s32 119.167 58 165.5s55.667 84.333 89 114s69.5 51.667 108.5 66
s77.833 21.5 116.5 21.5c44 0 80.833 -7 110.5 -21s53.834 -32.333 72.501 -55h4l10 57h186l-182 -944h-178zM531.999 350c6 30 8.50098 58.333 7.50098 85s-6.16699 50.334 -15.5 71.001s-23 37 -41 49s-41 18 -69 18c-27.333 0 -52.166 -6 -74.499 -18
s-42 -28.333 -59 -49s-31.333 -44.334 -43 -71.001s-20.5 -55 -26.5 -85c-6 -28.667 -8.5 -56.5 -7.5 -83.5s6.16699 -51 15.5 -72s23 -37.833 41 -50.5s40.667 -19 68 -19c28 0 53.333 6.33301 76 19s42.667 29.5 60 50.5s31.666 45 42.999 72s19.666 54.833 24.999 83.5z
" />
    <glyph glyph-name="r" unicode="r" horiz-adv-x="516" 
d="M528 535c-8 2 -17.1689 3.16895 -27.502 3.50195s-22.833 0.5 -37.5 0.5c-30 0 -58.167 -5.83301 -84.5 -17.5s-49.666 -27.834 -69.999 -48.501s-37.666 -45.334 -51.999 -74.001s-24.833 -60 -31.5 -94l-59 -305h-186l135 698h178l-23 -123h2
c30 44 66.333 78.667 109 104s87 38 133 38c8 0 16.667 -0.166992 26 -0.5s17 -1.5 23 -3.5l-35 -178v0z" />
    <glyph glyph-name="s" unicode="s" horiz-adv-x="711" 
d="M479 496c5.33301 32.667 -2.16699 56.502 -22.5 71.502s-47.5 22.5 -81.5 22.5c-36 0 -64.5 -6 -85.5 -18s-33.5 -29.333 -37.5 -52c-3.33301 -17.333 0 -31.166 10 -41.499s24.333 -19 43 -26s40.334 -12.833 65.001 -17.5s49.834 -10 75.501 -16s50.5 -13.333 74.5 -22
s44.667 -20.5 62 -35.5s30 -33.833 38 -56.5s9 -50.667 3 -84c-8.66699 -45.333 -25 -83.333 -49 -114s-52.667 -55.334 -86 -74.001s-69.833 -31.834 -109.5 -39.501s-79.167 -11.5 -118.5 -11.5s-76.833 4 -112.5 12s-66.334 21.667 -92.001 41s-44.667 45 -57 77
s-14.5 71.667 -6.5 119h178c-4 -21.333 -3.5 -39.666 1.5 -54.999s13.167 -28 24.5 -38s25 -17.333 41 -22s33.333 -7 52 -7c14 0 28.667 1.5 44 4.5s29.666 7.83301 42.999 14.5s24.833 15.5 34.5 26.5s16.167 24.5 19.5 40.5c4 18.667 1 33.667 -9 45
s-24.333 20.833 -43 28.5s-40.5 14.167 -65.5 19.5s-50.5 11.166 -76.5 17.499s-51.167 13.833 -75.5 22.5s-45.333 20.334 -63 35.001s-30.5 33 -38.5 55s-8.66699 49.333 -2 82c8 40.667 23.167 75 45.5 103s49 50.333 80 67s64.833 28.667 101.5 36s73.667 11 111 11
c38.667 0 75.167 -3.5 109.5 -10.5s63.833 -18.833 88.5 -35.5s43 -39.334 55 -68.001s15 -64.334 9 -107.001h-178v0z" />
    <glyph glyph-name="t" unicode="t" horiz-adv-x="465" 
d="M328 571l-66.0059 -338.001c-3.33301 -18.667 -4.66602 -33.834 -3.99902 -45.501s3.83398 -20.834 9.50098 -27.501s13.834 -11.167 24.501 -13.5s24.667 -3.5 42 -3.5c16.667 0 29 1.33301 37 4c4.66699 0.666992 9.33398 2.33398 14.001 5.00098l-29 -152
c-2 -0.666992 -6.5 -1.66699 -13.5 -3s-15.5 -2.66602 -25.5 -3.99902s-21 -2.5 -33 -3.5s-24 -1.5 -36 -1.5c-37.333 0 -69.166 3.33301 -95.499 10s-47.166 17.834 -62.499 33.501s-25 36 -29 61s-2.33301 55.5 5 91.5l75 387h-118l24 127h119l41 211h186l-41 -211h140
l-25 -127h-139z" />
    <glyph glyph-name="u" unicode="u" horiz-adv-x="784" 
d="M444 0l17.0039 81.999h-4c-54.667 -66.667 -129.334 -100 -224.001 -100c-48.667 0 -88 7.16699 -118 21.5s-52.5 34.5 -67.5 60.5s-23.333 57.333 -25 94s1.83301 77 10.5 121l82 419h186l-74 -387c-5.33301 -28.667 -8.5 -54 -9.5 -76s1.5 -40.5 7.5 -55.5
s16.167 -26.5 30.5 -34.5s34.166 -12 59.499 -12c20 0 39.667 4.5 59 13.5s37.166 21.833 53.499 38.5s30.666 36.834 42.999 60.501s21.5 50.5 27.5 80.5l71 372h189l-135 -698h-179z" />
    <glyph glyph-name="v" unicode="v" horiz-adv-x="688" 
d="M150 0l-107 698h199l55 -467h4l231 467h199l-373 -698h-208z" />
    <glyph glyph-name="w" unicode="w" horiz-adv-x="1077" 
d="M563 0l-24 459h-4l-203 -459h-199l-82 698h199l39 -458h2l198 458h185l24 -458h2l213 458h199l-350 -698h-199z" />
    <glyph glyph-name="x" unicode="x" horiz-adv-x="711" 
d="M618 0h-210l-103 219l-186 -219h-211l319 369l-159 329h213l84 -178l147 178h213l-289 -327z" />
    <glyph glyph-name="y" unicode="y" horiz-adv-x="692" 
d="M303 -82c-16 -28 -32.499 -52.3311 -49.499 -72.998s-36.333 -37.834 -58 -51.501s-46.167 -23.667 -73.5 -30s-59 -9.5 -95 -9.5c-22.667 0 -43.334 0.833008 -62.001 2.5s-34.334 3.5 -47.001 5.5l31 158c14 -3.33301 28.333 -5.5 43 -6.5s32.334 -1.5 53.001 -1.5
c16.667 0 32 3.5 46 10.5s25.667 16.667 35 29s16 26.666 20 42.999s4.33301 33.833 1 52.5l-112 651h201l67 -456h2h2l236 456h200l-440 -780v0z" />
    <glyph glyph-name="z" unicode="z" horiz-adv-x="688" 
d="M211 145h383l-29 -145h-628l28 145l438 410h-335l26 143h584l-27 -143z" />
    <glyph glyph-name="braceleft" unicode="{" horiz-adv-x="471" 
d="M461 887c-16.667 0 -30.3301 -3.16992 -40.9971 -9.50293s-19.5 -14.5 -26.5 -24.5s-12.333 -21 -16 -33s-6.5 -23.333 -8.5 -34l-43 -215c-6.66699 -33.333 -16.5 -60 -29.5 -80s-27.167 -35.667 -42.5 -47s-30.5 -19.166 -45.5 -23.499
s-27.833 -7.16602 -38.5 -8.49902v-4c10 -1.33301 21.667 -4.5 35 -9.5s25.5 -13 36.5 -24s19.333 -25.833 25 -44.5s5.5 -42 -0.5 -70l-45 -229c-2 -11.333 -3.33301 -22.833 -4 -34.5s0.666016 -22.334 3.99902 -32.001s9.33301 -17.5 18 -23.5s21 -9 37 -9h70l-29 -139
h-159c-15.333 0 -31.833 3.83301 -49.5 11.5s-33.334 19 -47.001 34s-24 33.833 -31 56.5s-7.5 49.334 -1.5 80.001l51 265c4 20.667 2.83301 38 -3.5 52s-15.333 25.333 -27 34s-24.334 14.834 -38.001 18.501s-25.834 5.5 -36.501 5.5l25 119c10.667 0 23.5 2 38.5 6
s29.833 10.833 44.5 20.5s27.834 22.167 39.501 37.5s19.834 34.333 24.501 57l50 254c6 30.667 17 57.5 33 80.5s33.833 42 53.5 57s39.667 26.167 60 33.5s38.166 11 53.499 11h160l-27 -139h-69z" />
    <glyph glyph-name="bar" unicode="|" horiz-adv-x="471" 
d="M164 987h145v-1010h-145v1010z" />
    <glyph glyph-name="braceright" unicode="}" horiz-adv-x="471" 
d="M446 350c-10.667 0 -23.5029 -1.83008 -38.5029 -5.49707s-29.667 -9.83398 -44 -18.501s-27.333 -20 -39 -34s-19.5 -31.333 -23.5 -52l-51 -265c-6 -30.667 -17.167 -57.334 -33.5 -80.001s-34.5 -41.5 -54.5 -56.5s-40.5 -26.333 -61.5 -34s-38.833 -11.5 -53.5 -11.5
h-160l29 139h70c16 0 29.5 3 40.5 9s20 13.833 27 23.5s12.333 20.334 16 32.001s6.5 23.167 8.5 34.5l45 229c5.33301 28 14.333 51.333 27 70s26.5 33.5 41.5 44.5s30.167 19 45.5 24s28.333 8.16699 39 9.5v4c-9.33301 1.33301 -20.833 4.16602 -34.5 8.49902
s-26 12.166 -37 23.499s-19.167 27 -24.5 47s-4.66602 46.667 2.00098 80l43 215c2 10.667 3.33301 22 4 34s-0.666016 23 -3.99902 33s-9.33301 18.167 -18 24.5s-21 9.5 -37 9.5h-70l27 139h160c14.667 0 31 -3.66699 49 -11s34 -18.5 48 -33.5s24.667 -34 32 -57
s8 -49.833 2 -80.5l-49 -254c-4.66699 -22.667 -4 -41.667 2 -57s14.667 -27.833 26 -37.5s23.833 -16.5 37.5 -20.5s25.834 -6 36.501 -6l-25 -119v0z" />
    <glyph glyph-name="asciitilde" unicode="~" horiz-adv-x="801" 
d="M688 328c-9.33301 -11.333 -20.834 -23.1689 -34.501 -35.502s-29 -23.666 -46 -33.999s-35.333 -18.833 -55 -25.5s-39.834 -10 -60.501 -10c-32.667 0 -61 4.83301 -85 14.5s-46.333 20.167 -67 31.5l-60 31.5c-19.333 9.66699 -40.333 14.5 -63 14.5
c-14.667 0 -28.334 -2.83301 -41.001 -8.5s-24.5 -13.167 -35.5 -22.5s-21 -19.833 -30 -31.5s-17.167 -23.5 -24.5 -35.5l-31 127c8 13.333 18.333 26.833 31 40.5s27.167 26 43.5 37s34.5 20 54.5 27s41.333 10.5 64 10.5c30 0 56.333 -4.66699 79 -14
s43.834 -19.666 63.501 -30.999s39.334 -21.666 59.001 -30.999s41.834 -14 66.501 -14c14 0 27.833 3 41.5 9s26.5 13.5 38.5 22.5s23 18.667 33 29s18 20.166 24 29.499l35 -131v0z" />
    <glyph glyph-name="currency" unicode="&#xa4;" horiz-adv-x="840" 
d="M422 729c-64 0 -117.334 -22.333 -160.001 -67c-43.333 -49.333 -65 -102.666 -65 -159.999c0 -62.667 21 -117.334 63 -164.001c43.333 -45.333 97.333 -68 162 -68c61.333 0 114 22.667 158 68c42 42 63 96.667 63 164c0 30.667 -5.5 59.667 -16.5 87
s-26.167 51.333 -45.5 72s-42.666 37.167 -69.999 49.5s-57 18.5 -89 18.5zM155.999 309c-41.333 55.333 -62.001 119.666 -62.001 192.999c0 76 20.667 138.667 62 188l-148 150l76 71l145 -145c53.333 39.333 117.666 59 192.999 59c36.667 0 71.834 -5.33301 105.501 -16
s61.167 -25 82.5 -43l150 145l71 -71l-145 -150c39.333 -53.333 59 -116 59 -188c0 -75.333 -19.667 -139.666 -59 -192.999l145 -145l-71 -76l-150 148c-10 -8.66699 -22 -16.5 -36 -23.5s-29.667 -13.833 -47 -20.5c-35.333 -12 -70.333 -18 -105 -18
c-73.333 0 -137.666 20.667 -192.999 62l-145 -148l-76 76z" />
    <glyph glyph-name="FL00A9h" unicode="&#xa9;" horiz-adv-x="1171" 
d="M1116 504c-14.667 -74 -40.667 -141.336 -78 -202.003s-86.333 -117 -147 -169c-121.333 -100.667 -254.333 -151 -399 -151c-62.667 0 -120 9.66699 -172 29s-98 49 -138 89c-80.667 80.667 -121 181.667 -121 303c0 16.667 1 33.334 3 50.001s4.66699 33.667 8 51
c28 146.667 102.333 269.334 223 368.001c120.667 102.667 253.667 154 399 154c126 0 229.333 -40.333 310 -121c81.333 -80 122 -180.333 122 -301c0 -33.333 -3.33301 -66.666 -10 -99.999zM1026 503.997c3.33301 13.333 5.5 27 6.5 41s1.5 27.667 1.5 41
c0 100 -33.333 183.333 -100 250s-152 100 -256 100c-118.667 0 -228.667 -42.333 -330 -127c-50 -42 -90.667 -88.167 -122 -138.5s-52.666 -105.833 -63.999 -166.5c-3.33301 -13.333 -5.5 -27 -6.5 -41s-1.5 -27.667 -1.5 -41c0 -100 33.333 -183.333 100 -250
c34 -34 72.167 -59.167 114.5 -75.5s89.5 -24.5 141.5 -24.5c118.667 0 228.667 42.333 330 127c50 42 90.667 88.167 122 138.5s52.666 105.833 63.999 166.5zM739 579.997c-6 76 -39.333 113.999 -100 113.999c-65.333 0 -116 -29.333 -152 -88
c-16 -25.333 -28.167 -52.5 -36.5 -81.5s-12.5 -60.5 -12.5 -94.5c0 -88.667 37.667 -133 113 -133c70 0 123.333 46.333 160 139h127c-54 -173.333 -157.333 -260 -310 -260c-147.333 0 -221 75 -221 225c0 30.667 3.33301 61.667 10 93
c18.667 94.667 56.334 170.334 113.001 227.001c63.333 61.333 140.666 92 231.999 92c138.667 0 206 -77.667 202 -233h-125z" />
    <glyph glyph-name="guillemotleft" unicode="&#xab;" horiz-adv-x="600" 
d="M399 369l107 -99l-33 -161l-182 167l37 183l245 168l-30 -164zM125 369l106 -99l-32 -161l-183 167l37 183l246 168l-31 -164z" />
    <glyph glyph-name="logicalnot" unicode="&#xac;" horiz-adv-x="745" 
d="M623 297h-584v90h666v-268h-82v178z" />
    <glyph glyph-name="minus" unicode="&#xad;" horiz-adv-x="745" 
d="M2 270l27 144h663l-26 -144h-664z" />
    <glyph glyph-name="registered" unicode="&#xae;" horiz-adv-x="1171" 
d="M1116 504c-14.667 -74 -40.667 -141.336 -78 -202.003s-86.333 -117 -147 -169c-121.333 -100.667 -254.333 -151 -399 -151c-62.667 0 -120 9.66699 -172 29s-98 49 -138 89c-80.667 80.667 -121 181.667 -121 303c0 16.667 1 33.334 3 50.001s4.66699 33.667 8 51
c28 146.667 102.333 269.334 223 368.001c120.667 102.667 253.667 154 399 154c126 0 229.333 -40.333 310 -121c81.333 -80 122 -180.333 122 -301c0 -33.333 -3.33301 -66.666 -10 -99.999zM1026 503.997c3.33301 13.333 5.5 27 6.5 41s1.5 27.667 1.5 41
c0 100 -33.333 183.333 -100 250s-152 100 -256 100c-118.667 0 -228.667 -42.333 -330 -127c-50 -42 -90.667 -88.167 -122 -138.5s-52.666 -105.833 -63.999 -166.5c-3.33301 -13.333 -5.5 -27 -6.5 -41s-1.5 -27.667 -1.5 -41c0 -100 33.333 -183.333 100 -250
c34 -34 72.167 -59.167 114.5 -75.5s89.5 -24.5 141.5 -24.5c118.667 0 228.667 42.333 330 127c50 42 90.667 88.167 122 138.5s52.666 105.833 63.999 166.5zM862 624.997c-16 -89.333 -72 -146.001 -168 -170.001l113 -248h-141l-99 233h-67l-45 -233h-123l114 594h236
c122.667 0 184 -43.667 184 -131c0 -7.33301 -0.333008 -14.666 -1 -21.999s-1.66699 -15 -3 -23zM737 626.996c8 40.667 -22 61 -90 61h-100l-27 -135h74c44.667 0 74.667 3.33301 90 10c29.333 10 47 31.333 53 64z" />
    <glyph glyph-name="degree" unicode="&#xb0;" horiz-adv-x="541" 
d="M266 915c28.667 0 55.5 -5.33398 80.5 -16.001s46.667 -25 65 -43s32.833 -39.333 43.5 -64s16 -51 16 -79s-5.33301 -54.333 -16 -79s-25.167 -46.167 -43.5 -64.5s-40 -32.833 -65 -43.5s-51.833 -16 -80.5 -16c-27.333 0 -53 5.16699 -77 15.5
s-45.167 24.666 -63.5 42.999s-32.833 39.833 -43.5 64.5s-16 51.334 -16 80.001c0 26.667 5.16699 52.334 15.5 77.001s24.5 46.167 42.5 64.5s39.167 33 63.5 44s50.5 16.5 78.5 16.5zM266 857.999c-20.667 0 -39.833 -3.66602 -57.5 -10.999s-33 -17.5 -46 -30.5
s-23.167 -28.333 -30.5 -46s-11 -36.834 -11 -57.501c0 -20 3.83301 -39 11.5 -57s18 -33.667 31 -47s28.333 -24 46 -32s36.5 -12 56.5 -12c41.333 0 76.333 14.333 105 43c30 30.667 45 65.667 45 105c0 20 -4 38.833 -12 56.5s-18.833 33 -32.5 46s-29.5 23.333 -47.5 31
s-37.333 11.5 -58 11.5z" />
    <glyph glyph-name="paragraph" unicode="&#xb6;" horiz-adv-x="727" 
d="M567 -244v1356h-145v-1356h-55v805c-112 0 -199.667 20.667 -263 62c-69.333 49.333 -104 127.666 -104 234.999c-0 102 31.333 178.333 94 229c60 44 142.667 66 248 66h389v-41h-102v-1356h-62z" />
    <glyph glyph-name="periodcentered" unicode="&#xb7;" horiz-adv-x="338" 
d="M170 520c20.667 0 37.832 -7.16699 51.499 -21.5s20.5 -30.833 20.5 -49.5c0 -20.667 -7.16699 -38.167 -21.5 -52.5s-31.166 -21.5 -50.499 -21.5c-22 0 -39.833 6.83301 -53.5 20.5s-20.5 31.5 -20.5 53.5c0 20 6.83301 36.833 20.5 50.5s31.5 20.5 53.5 20.5z" />
    <glyph glyph-name="periodcentered" unicode="&#x2219;" horiz-adv-x="338" 
d="M170 520c20.667 0 37.832 -7.16699 51.499 -21.5s20.5 -30.833 20.5 -49.5c0 -20.667 -7.16699 -38.167 -21.5 -52.5s-31.166 -21.5 -50.499 -21.5c-22 0 -39.833 6.83301 -53.5 20.5s-20.5 31.5 -20.5 53.5c0 20 6.83301 36.833 20.5 50.5s31.5 20.5 53.5 20.5z" />
    <glyph glyph-name="guillemotright" unicode="&#xbb;" horiz-adv-x="600" 
d="M256 109l33 161l143 99l-106 94l30 164l185 -168l-37 -183zM-18 109l32 161l144 99l-107 94l31 164l184 -168l-37 -183z" />
    <glyph glyph-name="multiply" unicode="&#xd7;" horiz-adv-x="745" 
d="M633 115l-123 -103l-182 230l-273 -230l-82 103l273 227l-185 227l123 103l183 -230l272 230l82 -103l-275 -227z" />
    <glyph glyph-name="divide" unicode="&#xf7;" horiz-adv-x="745" 
d="M500 598c-2.66699 -12.667 -8.16602 -25.168 -16.499 -37.501s-18 -23.166 -29 -32.499s-23.167 -17 -36.5 -23s-26.333 -9 -39 -9c-56 0 -84 27.333 -84 82c0 16 3.33301 31.5 10 46.5s15.834 28.333 27.501 40s25 20.834 40 27.501s30.833 10 47.5 10
c12.667 0 24.5 -2.83301 35.5 -8.5s20.167 -13.334 27.5 -23.001s12.666 -20.667 15.999 -33s3.66602 -25.5 0.999023 -39.5zM2.00098 269.999l27 144h663l-26 -144h-664zM401.001 91.999c-2.66699 -12.667 -7.99902 -25.168 -15.999 -37.501s-17.5 -23.5 -28.5 -33.5
s-23.167 -18 -36.5 -24s-26.333 -9 -39 -9c-56 0 -84 28 -84 84c0 16 3.33301 31.333 10 46s15.5 27.5 26.5 38.5s24 19.833 39 26.5s30.5 10 46.5 10c14 0 26.667 -2.66699 38 -8s20.666 -12.666 27.999 -21.999s12.5 -20 15.5 -32s3.16699 -25 0.5 -39z" />
    <glyph glyph-name="uni0E00" unicode="&#xe00;" horiz-adv-x="205" 
 />
    <glyph glyph-name="uni0E01" unicode="&#xe01;" horiz-adv-x="819" 
d="M471 0l106.998 552.997c4.66699 24.667 4.83398 46.5 0.500977 65.5s-12.333 34.833 -24 47.5s-26.334 22.334 -44.001 29.001s-37.5 10 -59.5 10c-40 0 -75 -6.66699 -105 -20s-53.333 -27.333 -70 -42c26 -13.333 48 -27.5 66 -42.5s33.667 -32.833 47 -53.5
c-36 -10.667 -66 -28 -90 -52s-39 -52.333 -45 -85l-80 -410h-164l80 416c2.66699 16 8.16699 31.333 16.5 46s18.333 28 30 40s24.334 22.5 38.001 31.5s27.167 16.167 40.5 21.5c-8.66699 7.33301 -19 14.5 -31 21.5s-24.667 13.833 -38 20.5s-27 12.667 -41 18
s-27 10 -39 14c24 28.667 50.833 55.667 80.5 81s61.834 47.333 96.501 66s71.667 33.334 111 44.001s81 16 125 16c43.333 0 83 -5.66699 119 -17s66.333 -28.166 91 -50.499s42.167 -50 52.5 -83s11.5 -71.167 3.5 -114.5l-110 -571h-164z" />
    <glyph glyph-name="uni0E02" unicode="&#xe02;" horiz-adv-x="829" 
d="M686 209c-6.66699 -34.667 -15.8369 -64.9971 -27.5039 -90.9971s-27.5 -47.833 -47.5 -65.5s-45.167 -30.834 -75.5 -39.501s-67.5 -13 -111.5 -13h-363l25 131c22.667 0 42 0.5 58 1.5s29.333 3.5 40 7.5s18.834 9.83301 24.501 17.5s9.83398 18.5 12.501 32.5l43 222
c4.66699 22.667 14.334 42.834 29.001 60.501s30.334 34.167 47.001 49.5s32 30.333 46 45s22.667 30.334 26 47.001c2.66699 14.667 1.16699 28 -4.5 40s-14.334 22 -26.001 30s-25.834 13.5 -42.501 16.5s-34.667 2.83301 -54 -0.5c22.667 -12 37.167 -29.333 43.5 -52
s7.5 -45.334 3.5 -68.001c-4 -20 -12 -38.833 -24 -56.5s-26.333 -33 -43 -46s-35 -23.167 -55 -30.5s-40 -11 -60 -11c-18.667 0 -36.834 3 -54.501 9s-32.667 15.667 -45 29s-21.166 30.333 -26.499 51s-5 45.667 1 75c6 32 18.833 62.167 38.5 90.5
s44.167 53.166 73.5 74.499s62.333 38.166 99 50.499s75.334 18.5 116.001 18.5c44.667 0 82.334 -6.16699 113.001 -18.5s54.667 -28.833 72 -49.5s28.666 -44 33.999 -70s5.33301 -52.667 0 -80s-15.333 -50.333 -30 -69s-30.167 -36.5 -46.5 -53.5
s-31.666 -34.667 -45.999 -53s-23.833 -40.833 -28.5 -67.5l-45 -234h18c22.667 0 41.5 0.833008 56.5 2.5s27.5 5.5 37.5 11.5s17.833 14.667 23.5 26s10.167 26.666 13.5 45.999l117 594h164zM230.997 582.003c3.33301 14 0.832031 26.333 -7.50098 37
s-20.166 16 -35.499 16c-14 0 -26.833 -5.33301 -38.5 -16s-19.167 -23 -22.5 -37c-3.33301 -14.667 -1 -27.334 7 -38.001s19.333 -16 34 -16c15.333 0 28.833 5.33301 40.5 16s19.167 23.334 22.5 38.001z" />
    <glyph glyph-name="uni0E03" unicode="&#xe03;" horiz-adv-x="866" 
d="M723 207c-6.66699 -34 -15.5039 -63.8359 -26.5039 -89.5029s-26.333 -47.167 -46 -64.5s-44.167 -30.5 -73.5 -39.5s-65.333 -13.5 -108 -13.5h-367l25 131c24 0 43.333 0.833008 58 2.5s26.167 4.83398 34.5 9.50098s14.5 10.667 18.5 18s7.33301 17 10 29l47 238
c4 20.667 14 39.834 30 57.501s33 34.667 51 51s35 32.5 51 48.5s26 33.333 30 52c2 11.333 0.666992 21.333 -4 30s-9.66699 15.667 -15 21l-71 -47l-84 66c-2 -0.666992 -5 -2.16699 -9 -4.5s-8.16699 -5 -12.5 -8l-12.5 -9c-4 -3 -7 -5.5 -9 -7.5
c18 -4 33 -10.5 45 -19.5s21.167 -19.5 27.5 -31.5s10.166 -24.833 11.499 -38.5s0.666016 -27.5 -2.00098 -41.5c-4 -19.333 -11.667 -37.666 -23 -54.999s-25 -32.333 -41 -45s-33.833 -22.667 -53.5 -30s-40.167 -11 -61.5 -11c-22 0 -41.833 3.83301 -59.5 11.5
s-32.167 18.5 -43.5 32.5s-19 30.833 -23 50.5s-3.66699 41.167 1 64.5c5.33301 28 16.333 56 33 84s38 54.167 64 78.5s56.5 46 91.5 65s73.5 33.5 115.5 43.5c12 -6.66699 24.5 -15.167 37.5 -25.5l33.5 -26.5l27 16c10 6 19.667 11.5 29 16.5s17.5 9.16699 24.5 12.5
s12.167 5 15.5 5c9.33301 0 22.333 -4.66699 39 -14s32.5 -22.5 47.5 -39.5s27 -37.5 36 -61.5s10.5 -50.667 4.5 -80c-5.33301 -29.333 -16.166 -54.666 -32.499 -75.999s-33.666 -40.833 -51.999 -58.5s-35.166 -34.834 -50.499 -51.501s-24.666 -34.667 -27.999 -54
l-52 -260h29c24.667 0 44.834 1 60.501 3s28.334 6 38.001 12s17 14.833 22 26.5s9.16699 27.167 12.5 46.5l115 592h164zM222.996 548.997c3.33301 14.667 0.666016 27.167 -8.00098 37.5s-20.334 15.5 -35.001 15.5c-14 0 -27.167 -5.16699 -39.5 -15.5
s-20.166 -22.833 -23.499 -37.5s-0.666016 -27.167 8.00098 -37.5s20.334 -15.5 35.001 -15.5c14 0 27.167 5.16699 39.5 15.5s20.166 22.833 23.499 37.5z" />
    <glyph glyph-name="uni0E04" unicode="&#xe04;" horiz-adv-x="868" 
d="M520 0l102.998 525.992c4 22 4.33301 43.5 1 64.5s-11 39.833 -23 56.5s-28.833 30.334 -50.5 41.001s-48.834 16.334 -81.501 17.001c-31.333 0.666992 -60.166 -3.5 -86.499 -12.5s-49.5 -21.167 -69.5 -36.5s-36.667 -33.166 -50 -53.499s-22.333 -41.5 -27 -63.5
c-5.33301 -21.333 -8.83301 -43.333 -10.5 -66l-4.5 -63c0 -6 -1.33301 -16.667 -4 -32s-5.66699 -31.333 -9 -48l-13 -62h4l19 59l15.5 47.5c5 15.667 9.16699 27.5 12.5 35.5c8 20.667 16.667 41.334 26 62.001s19.666 38.667 30.999 54c21.333 32 45.333 55.333 72 70
s58 22 94 22c20.667 0 39.167 -3.66699 55.5 -11s29.666 -17.166 39.999 -29.499s17.5 -27 21.5 -44s4 -35.167 0 -54.5s-11.167 -37.666 -21.5 -54.999s-23.166 -32.333 -38.499 -45s-32.5 -22.667 -51.5 -30s-39.167 -11 -60.5 -11c-11.333 0 -22.166 1.33301 -32.499 4
s-20.833 6 -31.5 10c-11.333 -21.333 -24.166 -47 -38.499 -77l-43.5 -94.5l-42.5 -97l-35.5 -83.5h-165l28 150c8 39.333 12.167 75 12.5 107s-0.166992 62.833 -1.5 92.5s-2 59.667 -2 90s3.33301 63.5 10 99.5c7.33301 38 23 75 47 111s54.5 67.667 91.5 95
s80 49.333 129 66s102.5 25 160.5 25c55.333 0 103 -7.83301 143 -23.5s72.167 -36.667 96.5 -63s40.833 -57.166 49.5 -92.499s9.33398 -72.666 2.00098 -111.999l-107 -545h-164zM493.998 476.992c3.33301 14.667 0.49707 27.167 -8.50293 37.5s-20.5 15.5 -34.5 15.5
c-14.667 0 -28.167 -5.16699 -40.5 -15.5s-20.166 -22.833 -23.499 -37.5c-2 -14 1 -26.333 9 -37s19.333 -16 34 -16s28.334 5.33301 41.001 16s20.334 23 23.001 37z" />
    <glyph glyph-name="uni0E05" unicode="&#xe05;" horiz-adv-x="868" 
d="M520 0l112.999 584.001c5.33301 28 3.66602 50.667 -5.00098 68s-18.667 30 -30 38l-137 -86l-117 88c-24 -10.667 -45 -28.334 -63 -53.001s-29.667 -50.667 -35 -78c-5.33301 -20.667 -9 -44.834 -11 -72.501s-4 -53.834 -6 -78.501
c-0.666992 -8.66699 -2.66699 -21 -6 -37l-10 -49l-14 -62h4c3.33301 11.333 7 22.5 11 33.5l11 30.5c5.33301 16.667 10.833 32.834 16.5 48.501s9.16699 26.167 10.5 31.5c6 14 12.833 28.333 20.5 43s15.167 26.667 22.5 36c23.333 32 47.833 55.5 73.5 70.5
s56.5 22.5 92.5 22.5c20.667 0 39.167 -3.66699 55.5 -11s29.833 -17.333 40.5 -30s18 -27.5 22 -44.5s4.33301 -35.167 1 -54.5c-4 -19.333 -11.5 -37.666 -22.5 -54.999s-24.333 -32.333 -40 -45s-33 -22.667 -52 -30s-38.833 -11 -59.5 -11
c-11.333 0 -22.166 1.33301 -32.499 4s-20.166 6 -29.499 10c-12 -19.333 -25 -42.166 -39 -68.499l-42 -82.5l-40 -84.5c-12.667 -27.667 -23.667 -52.834 -33 -75.501h-165l28 147c8 39.333 12.667 76.333 14 111s2 68.334 2 101.001s0.5 65 1.5 97s4.83301 65 11.5 99
c7.33301 38 21 73.167 41 105.5s44.5 60.666 73.5 84.999s61.333 44.166 97 59.499s73.167 25 112.5 29l86 -66l116 68c22.667 -4.66699 47 -12 73 -22s49.333 -24.167 70 -42.5s36.167 -41.666 46.5 -69.999s11.5 -62.833 3.5 -103.5l-117 -598h-164zM484.999 436.001
c3.33301 14.667 0.666016 27.167 -8.00098 37.5s-20.334 15.5 -35.001 15.5c-14 0 -27.167 -5.16699 -39.5 -15.5s-20.166 -22.833 -23.499 -37.5c-2 -14 1 -26.333 9 -37s19.333 -16 34 -16s28.334 5.33301 41.001 16s20 23 22 37z" />
    <glyph glyph-name="uni0E06" unicode="&#xe06;" horiz-adv-x="950" 
d="M788 113c-8 -42 -23.3359 -71.3359 -46.0029 -88.0029s-55 -25 -97 -25h-59c-4 20.667 -10.167 41.334 -18.5 62.001s-19 40 -32 58s-28.167 34.167 -45.5 48.5s-36.666 25.833 -57.999 34.5l-10 -58c-3.33301 -21.333 -10.666 -41.166 -21.999 -59.499
s-25.666 -34.333 -42.999 -48s-37.166 -24.334 -59.499 -32.001s-45.833 -11.5 -70.5 -11.5s-47.334 4 -68.001 12s-38.167 19.5 -52.5 34.5s-24.333 33.167 -30 54.5s-5.83398 45.666 -0.500977 72.999c4.66699 23.333 14 45 28 65s31 37.667 51 53s42 27.833 66 37.5
s48.667 15.834 74 18.501l20 102c4.66699 24 13.834 43.833 27.501 59.5s28.334 30.334 44.001 44.001s30.334 27.167 44.001 40.5s22.5 29.666 26.5 48.999c2 11.333 0.666992 21.333 -4 30s-9.66699 15.667 -15 21l-71 -47l-84 66c-2 -0.666992 -5 -2.16699 -9 -4.5
s-8.16699 -5 -12.5 -8l-12.5 -9c-4 -3 -7 -5.5 -9 -7.5c18 -4 33 -10.5 45 -19.5s21.167 -19.5 27.5 -31.5s10.166 -24.833 11.499 -38.5s0.666016 -27.5 -2.00098 -41.5c-4 -19.333 -11.667 -37.666 -23 -54.999s-25 -32.333 -41 -45s-33.833 -22.667 -53.5 -30
s-40.167 -11 -61.5 -11c-22 0 -41.833 3.83301 -59.5 11.5s-32.167 18.5 -43.5 32.5s-19 30.833 -23 50.5s-3.66699 41.167 1 64.5c5.33301 28 16.333 56 33 84s38 54.167 64 78.5s56.5 46 91.5 65s73.5 33.5 115.5 43.5c12 -6.66699 24.5 -15.167 37.5 -25.5l33.5 -26.5
l27 16c10 6 19.667 11.5 29 16.5s17.5 9.16699 24.5 12.5s12.167 5 15.5 5c9.33301 0 22.333 -4.66699 39 -14s32.5 -22.5 47.5 -39.5s27 -37.5 36 -61.5s10.5 -50.667 4.5 -80c-5.33301 -27.333 -15 -50 -29 -68s-28.833 -34.333 -44.5 -49s-30 -29.167 -43 -43.5
s-21.167 -31.833 -24.5 -52.5l-16 -90c32.667 -7.33301 65.5 -19.666 98.5 -36.999s62.833 -40 89.5 -68l115 588h164zM222.997 548.997c3.33301 14.667 0.666016 27.167 -8.00098 37.5s-20.334 15.5 -35.001 15.5c-14 0 -27.167 -5.16699 -39.5 -15.5
s-20.166 -22.833 -23.499 -37.5s-0.666016 -27.167 8.00098 -37.5s20.334 -15.5 35.001 -15.5c14 0 27.167 5.16699 39.5 15.5s20.166 22.833 23.499 37.5zM275.997 228.997c-7.33301 -0.666992 -15.334 -2.5 -24.001 -5.5s-16.834 -7.16699 -24.501 -12.5
s-14.5 -12 -20.5 -20s-10 -17 -12 -27c-2 -9.33301 -2.16699 -17.166 -0.5 -23.499s4.33398 -11.333 8.00098 -15s7.66699 -6.33398 12 -8.00098s8.5 -2.5 12.5 -2.5c8.66699 0 15.834 2.33301 21.501 7s9.5 13 11.5 25z" />
    <glyph glyph-name="uni0E07" unicode="&#xe07;" horiz-adv-x="705" 
d="M557 193c-6.66699 -34.667 -15.4971 -64.1621 -26.4971 -88.4951s-25.5 -44.333 -43.5 -60s-40.167 -27 -66.5 -34s-57.833 -10.5 -94.5 -10.5h-125c-8 38.667 -18 79.167 -30 121.5s-26.833 84.166 -44.5 125.499s-38.5 81.166 -62.5 119.499s-52 72.5 -84 102.5l163 70
c28.667 -24.667 54 -53.5 76 -86.5s41 -67.167 57 -102.5s29.167 -70.333 39.5 -105s18.5 -66.334 24.5 -95.001c17.333 0 30.166 4.33301 38.499 13s14.5 23.334 18.5 44.001l60 309c-3.33301 -1.33301 -6.5 -2 -9.5 -2h-9.5c-23.333 0 -44.166 4.16699 -62.499 12.5
s-33.5 19.666 -45.5 33.999s-20.5 30.833 -25.5 49.5s-5.5 38.667 -1.5 60s12.333 41.666 25 60.999s28.167 36.166 46.5 50.499s38.666 25.833 60.999 34.5s45.166 13 68.499 13c26.667 0 50.167 -4.16699 70.5 -12.5s36.833 -19.833 49.5 -34.5s21.167 -32.167 25.5 -52.5
s4.16602 -42.833 -0.500977 -67.5zM522.003 670.005c2 15.333 -0.833008 28 -8.5 38s-19.167 15 -34.5 15s-29.166 -5 -41.499 -15s-19.5 -22.667 -21.5 -38c-3.33301 -15.333 -0.833008 -28.166 7.5 -38.499s20.166 -15.5 35.499 -15.5s28.833 5.16699 40.5 15.5
s19.167 23.166 22.5 38.499z" />
    <glyph glyph-name="uni0E08" unicode="&#xe08;" horiz-adv-x="768" 
d="M717 565c-10.667 -43.333 -25.6699 -85.834 -45.0029 -127.501s-40.5 -85 -63.5 -130s-46 -92.667 -69 -143s-43.167 -105.166 -60.5 -164.499h-178l-8 270c-20 -6.66699 -39 -10 -57 -10c-23.333 0 -44.166 4.16699 -62.499 12.5s-33.5 19.5 -45.5 33.5
s-20.333 30.667 -25 50s-5 40 -1 62c4 20.667 12 40.334 24 59.001s26.667 35.167 44 49.5s36.666 25.666 57.999 33.999s43.666 12.5 66.999 12.5c24.667 0 46.334 -4 65.001 -12s34.167 -18.667 46.5 -32s21.5 -29 27.5 -47s8.66699 -37.333 8 -58l-2 -76
c-0.666992 -12.667 -2.16699 -28.5 -4.5 -47.5s-5.16602 -37.5 -8.49902 -55.5l-11 -67h4l10 41l10 40c5.33301 22 11.5 44.5 18.5 67.5s13.167 41.833 18.5 56.5c6 16.667 12.667 32.667 20 48l21 44.5c6.66699 14.333 12.834 28.666 18.501 42.999
s9.83398 28.5 12.501 42.5c2.66699 16 1.5 32.5 -3.5 49.5s-13.667 32.5 -26 46.5s-28.5 25.5 -48.5 34.5s-43.333 13.5 -70 13.5c-22 0 -44.167 -2.66699 -66.5 -8s-43.5 -13.5 -63.5 -24.5s-38.333 -24.833 -55 -41.5s-30.667 -36 -42 -58h-166
c16 36.667 37.5 71 64.5 103s58.667 59.833 95 83.5s76.833 42.334 121.5 56.001s93 20.5 145 20.5c54 0 100.667 -8.33301 140 -25s70.833 -38 94.5 -64s39.667 -55.167 48 -87.5s8.5 -63.833 0.5 -94.5zM318.997 417.999c3.33301 15.333 0.833008 28 -7.5 38
s-20.166 15 -35.499 15s-28.833 -5 -40.5 -15s-19.167 -22.667 -22.5 -38s-0.833008 -28 7.5 -38s20.166 -15 35.499 -15s28.833 5 40.5 15s19.167 22.667 22.5 38z" />
    <glyph glyph-name="uni0E09" unicode="&#xe09;" horiz-adv-x="838" 
d="M698 289c21.333 -14.667 37.1699 -33.665 47.5029 -56.998s12.5 -49.333 6.5 -78c-4 -22 -12.667 -42.667 -26 -62s-29.333 -36.333 -48 -51s-39.5 -26.167 -62.5 -34.5s-45.833 -12.5 -68.5 -12.5c-38 0 -69.333 10 -94 30s-39.667 46 -45 78
c-8 -5.33301 -17.333 -12 -28 -20l-32.5 -25.5l-33 -28c-11 -9.66699 -20.833 -19.167 -29.5 -28.5h-183l48 240c-3.33301 -1.33301 -6.5 -2 -9.5 -2h-9.5c-23.333 0 -44.333 4.16699 -63 12.5s-34.167 19.5 -46.5 33.5s-21 30.333 -26 49s-5.5 38.667 -1.5 60
s12.333 41.666 25 60.999s28 36.333 46 51s38.167 26.334 60.5 35.001s45.5 13 69.5 13c27.333 0 51.166 -4.33301 71.499 -13s36.666 -20.667 48.999 -36s20.666 -33.666 24.999 -54.999s4.16602 -44.666 -0.500977 -69.999l-37 -193
c14.667 11.333 31.667 23.166 51 35.499s39.5 24.166 60.5 35.499s42.167 21.5 63.5 30.5s41.666 16.167 60.999 21.5l49 254c4 20.667 3.16699 39.834 -2.5 57.501s-15 32.667 -28 45s-29.167 22 -48.5 29s-41 10.5 -65 10.5s-47.167 -3.33301 -69.5 -10
s-43 -15.834 -62 -27.501s-36.167 -25.667 -51.5 -42s-28 -33.833 -38 -52.5h-170c16.667 39.333 39.334 75.166 68.001 107.499s61.334 60 98.001 83s76.667 40.833 120 53.5s88 19 134 19c48 0 91 -6.16699 129 -18.5s69.5 -30 94.5 -53s42.667 -50.833 53 -83.5
s11.833 -69.334 4.5 -110.001zM633.004 158.002c3.33301 15.333 0.833008 28 -7.5 38s-20.166 15 -35.499 15s-29 -5 -41 -15s-19.667 -22.667 -23 -38s-0.833008 -28.166 7.5 -38.499s20.166 -15.5 35.499 -15.5s29 5.16699 41 15.5s19.667 23.166 23 38.499z
M213.004 393.002c3.33301 15.333 0.831055 28 -7.50195 38s-20.166 15 -35.499 15s-29 -5 -41 -15s-19.667 -22.667 -23 -38s-0.666016 -28 8.00098 -38s20.667 -15 36 -15s28.833 5 40.5 15s19.167 22.667 22.5 38z" />
    <glyph glyph-name="uni0E0A" unicode="&#xe0a;" horiz-adv-x="895" 
d="M915 840c-4 -34 -11.834 -64.1621 -23.501 -90.4951s-25.667 -49.333 -42 -69s-34.333 -36 -54 -49s-39.167 -22.833 -58.5 -29.5c23.333 -9.33301 41.5 -25 54.5 -47s16.833 -48 11.5 -78l-51 -268c-6.66699 -34.667 -16 -65 -28 -91s-28.333 -47.833 -49 -65.5
s-46.167 -30.834 -76.5 -39.501s-67.5 -13 -111.5 -13h-401l25 129c24 0 43.5 1 58.5 3s27 5.5 36 10.5s15.667 11.5 20 19.5s7.83301 18.333 10.5 31l45 231c4.66699 22.667 13.334 41.834 26.001 57.501s26.167 30.167 40.5 43.5s27.666 26.833 39.999 40.5
s20.5 29.834 24.5 48.501c2.66699 14.667 1.16699 28 -4.5 40s-14.334 22 -26.001 30s-25.834 13.5 -42.501 16.5s-34.667 2.83301 -54 -0.5c22.667 -12 37.167 -29.333 43.5 -52s7.5 -45.334 3.5 -68.001c-4 -20 -12 -38.833 -24 -56.5s-26.333 -33 -43 -46
s-35 -23.167 -55 -30.5s-40 -11 -60 -11c-18.667 0 -36.834 3 -54.501 9s-32.667 15.667 -45 29s-21.166 30.333 -26.499 51s-5 45.667 1 75c6 32 18.833 62.167 38.5 90.5s44.167 53.166 73.5 74.499s62.333 38.166 99 50.499s75.334 18.5 116.001 18.5
c44 0 81.333 -6.16699 112 -18.5s55 -28.833 73 -49.5s29.667 -44 35 -70s5 -52.667 -1 -80c-5.33301 -26.667 -14.166 -47.834 -26.499 -63.501s-25.333 -30 -39 -43s-26.5 -27 -38.5 -42s-20.333 -34.833 -25 -59.5l-53 -275h68c22.667 0 41.834 1.16699 57.501 3.5
s28.667 6.83301 39 13.5s18.5 16.167 24.5 28.5s10.667 28.5 14 48.5l43 226c4 23.333 1.16699 41.666 -8.5 54.999s-29.5 20 -59.5 20l23 113c22.667 2.66699 43.667 9.66699 63 21s36 25.666 50 42.999s25.167 37.5 33.5 60.5s12.833 47.833 13.5 74.5h165z
M230.999 582.005c3.33301 14 0.832031 26.333 -7.50098 37s-20.166 16 -35.499 16c-14 0 -26.833 -5.33301 -38.5 -16s-19.167 -23 -22.5 -37c-3.33301 -14.667 -1 -27.334 7 -38.001s19.333 -16 34 -16c15.333 0 28.833 5.33301 40.5 16s19.167 23.334 22.5 38.001z" />
    <glyph glyph-name="uni0E0B" unicode="&#xe0b;" horiz-adv-x="936" 
d="M956 840c-4 -34 -11.832 -64.1631 -23.499 -90.4961s-25.667 -49.333 -42 -69s-34.333 -36 -54 -49s-39.167 -22.833 -58.5 -29.5c23.333 -9.33301 41.5 -25 54.5 -47s16.833 -48 11.5 -78l-51 -268c-6.66699 -34.667 -16.167 -65 -28.5 -91
s-28.666 -47.833 -48.999 -65.5s-45.833 -30.834 -76.5 -39.501s-67.667 -13 -111 -13h-450l24 129c26 0 48.167 0.833008 66.5 2.5s33.833 5 46.5 10s22.5 12.333 29.5 22s12.167 22.834 15.5 39.501l41 213c6 28.667 16.667 52.167 32 70.5s31.5 34.666 48.5 48.999
s32.833 28.5 47.5 42.5s24 31.667 28 53c3.33301 14 2.33301 25.667 -3 35s-10.666 16.666 -15.999 21.999l-71 -47l-84 66c-2 -0.666992 -5 -2.16699 -9 -4.5s-8.16699 -5 -12.5 -8l-12.5 -9c-4 -3 -7 -5.5 -9 -7.5c18 -4 33 -10.5 45 -19.5s21.167 -19.5 27.5 -31.5
s10.166 -24.833 11.499 -38.5s0.666016 -27.5 -2.00098 -41.5c-4 -19.333 -11.667 -37.666 -23 -54.999s-25 -32.333 -41 -45s-33.833 -22.667 -53.5 -30s-40.167 -11 -61.5 -11c-22 0 -41.833 3.83301 -59.5 11.5s-32.167 18.5 -43.5 32.5s-19 30.833 -23 50.5
s-3.66699 41.167 1 64.5c5.33301 28 16.333 56 33 84s38 54.167 64 78.5s56.5 46 91.5 65s73.5 33.5 115.5 43.5c12 -6.66699 24.5 -15.167 37.5 -25.5l33.5 -26.5l27 16c10 6 19.667 11.5 29 16.5s17.5 9.16699 24.5 12.5s12.167 5 15.5 5
c9.33301 0 22.333 -4.66699 39 -14s32.5 -22.5 47.5 -39.5s27 -37.5 36 -61.5s10.5 -50.667 4.5 -80c-4 -21.333 -10.167 -40.166 -18.5 -56.499s-17.666 -31 -27.999 -44s-21.333 -24.833 -33 -35.5s-22.5 -21.334 -32.5 -32.001s-18.667 -21.834 -26 -33.501
s-12.333 -24.5 -15 -38.5l-51 -266h86c23.333 0 42.666 1.16699 57.999 3.5s28 6.83301 38 13.5s18 16.167 24 28.5s11 28.5 15 48.5l43 226c4 23.333 1.16699 41.666 -8.5 54.999s-29.5 20 -59.5 20l23 113c22.667 2.66699 43.5 9.66699 62.5 21s35.667 25.666 50 42.999
s25.666 37.5 33.999 60.5s12.833 47.833 13.5 74.5h165zM223.001 549.004c3.33301 14.667 0.666016 27.167 -8.00098 37.5s-20.334 15.5 -35.001 15.5c-14 0 -27.167 -5.16699 -39.5 -15.5s-20.166 -22.833 -23.499 -37.5s-0.666016 -27.167 8.00098 -37.5
s20.334 -15.5 35.001 -15.5c14 0 27.167 5.16699 39.5 15.5s20.166 22.833 23.499 37.5z" />
    <glyph glyph-name="uni0E0C" unicode="&#xe0c;" horiz-adv-x="1196" 
d="M1034 113c-8 -42 -23.334 -71.3389 -46.001 -88.0059s-55 -25 -97 -25h-55c-15.333 24.667 -33.333 47.667 -54 69s-38.334 38 -53.001 50c-7.33301 -18 -17.333 -34.833 -30 -50.5s-27.5 -29.334 -44.5 -41.001s-35.5 -20.834 -55.5 -27.501s-40.667 -10 -62 -10
c-23.333 0 -44.333 4 -63 12s-34.167 19 -46.5 33s-21 30.5 -26 49.5s-5.16699 39.833 -0.5 62.5c6.66699 34 21.5 64 44.5 90s50.5 44.667 82.5 56l50 260c4.66699 24.667 4.66699 46.334 0 65.001s-12.667 34.5 -24 47.5s-25.833 22.833 -43.5 29.5s-37.5 10 -59.5 10
c-40 0 -75 -6.66699 -105 -20s-53.333 -27.333 -70 -42c26 -13.333 48 -27.5 66 -42.5s33.667 -32.833 47 -53.5c-36 -10.667 -66 -28 -90 -52s-39 -52.333 -45 -85l-21 -107c3.33301 1.33301 6.5 2 9.5 2h9.5c22.667 0 43.167 -4 61.5 -12s33.166 -19 44.499 -33
s19.333 -30.5 24 -49.5s5 -39.167 1 -60.5c-4 -22 -12 -42.667 -24 -62s-26.833 -36.166 -44.5 -50.499s-37.5 -25.833 -59.5 -34.5s-45 -13 -69 -13c-27.333 0 -51 4.16699 -71 12.5s-36.333 19.833 -49 34.5s-21.167 32.334 -25.5 53.001s-4.16602 43.334 0.500977 68.001
l49 258c2.66699 16 8.16699 31.333 16.5 46s18.333 28 30 40s24.334 22.5 38.001 31.5s27.167 16.167 40.5 21.5c-8.66699 7.33301 -19 14.5 -31 21.5s-24.667 13.833 -38 20.5s-27 12.667 -41 18s-27 10 -39 14c24 28.667 50.833 55.667 80.5 81s61.834 47.333 96.501 66
s71.667 33.334 111 44.001s81 16 125 16c43.333 0 83 -5.66699 119 -17s66.333 -28.166 91 -50.499s42.167 -50 52.5 -83s11.5 -71.167 3.5 -114.5l-51 -270c18 -5.33301 36.5 -12.666 55.5 -21.999s37 -19.666 54 -30.999s32.5 -22.833 46.5 -34.5s25 -22.167 33 -31.5
l125 637h163zM620.999 149.994c3.33301 15.333 0.833008 28 -7.5 38s-20.166 15 -35.499 15s-29 -5 -41 -15s-19.667 -22.667 -23 -38s-0.833008 -28.166 7.5 -38.499s20.166 -15.5 35.499 -15.5s29 5.16699 41 15.5s19.667 23.166 23 38.499zM273.999 149.994
c3.33301 15.333 0.833008 28 -7.5 38s-20.166 15 -35.499 15s-28.833 -5 -40.5 -15s-19.167 -22.667 -22.5 -38s-0.833008 -28.166 7.5 -38.499s20.166 -15.5 35.499 -15.5s28.833 5.16699 40.5 15.5s19.167 23.166 22.5 38.499z" />
    <glyph glyph-name="uni0E0D" unicode="&#xe0d;" horiz-adv-x="1167" 
d="M1024 213c-7.33301 -36 -17.0049 -67.3369 -29.0049 -94.0039s-28.167 -48.834 -48.5 -66.501s-45.666 -30.834 -75.999 -39.501s-67.166 -13 -110.499 -13h-371l27 133c31.333 0 53.5 4 66.5 12s21.5 24 25.5 48l70 360c4.66699 24.667 4.66699 46.334 0 65.001
s-12.667 34.5 -24 47.5s-25.833 22.833 -43.5 29.5s-37.5 10 -59.5 10c-40 0 -75 -6.66699 -105 -20s-53.333 -27.333 -70 -42c26 -13.333 48 -27.5 66 -42.5s33.667 -32.833 47 -53.5c-36 -10.667 -66 -28 -90 -52s-39 -52.333 -45 -85l-21 -107
c3.33301 1.33301 6.5 2 9.5 2h9.5c22.667 0 43.167 -4 61.5 -12s33.166 -19 44.499 -33s19.333 -30.5 24 -49.5s5 -39.167 1 -60.5c-4 -22 -12 -42.667 -24 -62s-26.833 -36.166 -44.5 -50.499s-37.5 -25.833 -59.5 -34.5s-45 -13 -69 -13c-27.333 0 -51 4.16699 -71 12.5
s-36.333 19.833 -49 34.5s-21.167 32.334 -25.5 53.001s-4.16602 43.334 0.500977 68.001l49 258c2.66699 16 8.16699 31.333 16.5 46s18.333 28 30 40s24.334 22.5 38.001 31.5s27.167 16.167 40.5 21.5c-8.66699 7.33301 -19 14.5 -31 21.5s-24.667 13.833 -38 20.5
s-27 12.667 -41 18s-27 10 -39 14c24 28.667 50.833 55.667 80.5 81s61.834 47.333 96.501 66s71.667 33.334 111 44.001s81 16 125 16c43.333 0 83 -5.66699 119 -17s66.333 -28.166 91 -50.499s42.167 -50 52.5 -83s11.5 -71.167 3.5 -114.5l-83 -434h67
c22.667 0 41.834 1.16699 57.501 3.5s28.5 6.83301 38.5 13.5s18 16.167 24 28.5s11 28.5 15 48.5l115 588h164zM957.995 -193.004c-58.667 -58.667 -121.5 -102.335 -188.5 -131.002s-135.833 -42.334 -206.5 -41.001c-27.333 0.666992 -51.666 5 -72.999 13
s-38.833 18.833 -52.5 32.5s-23.334 29.834 -29.001 48.501s-6.5 39.334 -2.5 62.001c4 20.667 11.833 40 23.5 58s25.834 33.667 42.501 47s35.167 23.833 55.5 31.5s41.166 11.5 62.499 11.5s40.666 -3.83301 57.999 -11.5s31.833 -18.167 43.5 -31.5
s19.834 -29 24.501 -47s5 -37.333 1 -58c12 3.33301 25.667 9 41 17s30.333 17.333 45 28s28.667 22.334 42 35.001s24 25 32 37zM273.995 149.995c3.33301 15.333 0.833008 28 -7.5 38s-20.166 15 -35.499 15s-28.833 -5 -40.5 -15s-19.167 -22.667 -22.5 -38
s-0.833008 -28.166 7.5 -38.499s20.166 -15.5 35.499 -15.5s28.833 5.16699 40.5 15.5s19.167 23.166 22.5 38.499zM609.995 -207.005c2 13.333 -0.667969 24.833 -8.00098 34.5s-17.666 14.5 -30.999 14.5s-26 -4.83301 -38 -14.5s-19 -21.167 -21 -34.5
c-3.33301 -14.667 -1 -26.834 7 -36.501s19.333 -14.5 34 -14.5s27 4.83301 37 14.5s16.667 21.834 20 36.501z" />
    <glyph glyph-name="uni0E0E" unicode="&#xe0e;" horiz-adv-x="891" 
d="M659 -238c-6.66699 -33.333 -15.4961 -61.001 -26.4961 -83.001s-24.5 -39.667 -40.5 -53s-35 -22.666 -57 -27.999s-47.333 -8 -76 -8h-47l-31.5 57.5c-11.667 21 -23.167 38.833 -34.5 53.5c-12 -16 -26.5 -30.833 -43.5 -44.5s-36 -25.834 -57 -36.501
s-43.333 -19 -67 -25s-47.834 -9 -72.501 -9c-27.333 0 -52.5 3.33301 -75.5 10s-42.5 16.667 -58.5 30s-27.5 29.666 -34.5 48.999s-8.16699 41.666 -3.5 66.999c5.33301 25.333 15.333 48 30 68s31.667 37.167 51 51.5s40 25.833 62 34.5s43.333 14.667 64 18
c22.667 3.33301 47 4.33301 73 3s49.667 -5 71 -11c1.33301 6 2.16602 11.833 2.49902 17.5s0.833008 11.167 1.5 16.5l2 17h160l-2 -20c-0.666992 -6.66699 -1.66699 -13.334 -3 -20.001c-2 -11.333 -4.5 -23.833 -7.5 -37.5s-7.16699 -26.167 -12.5 -37.5
c14.667 -10 28.334 -22.667 41.001 -38s22.334 -29.333 29.001 -42l153 791c4 22 4.16699 42.333 0.5 61s-11 34.667 -22 48s-25.333 23.833 -43 31.5s-38.5 11.5 -62.5 11.5c-40 0 -74.833 -6.66699 -104.5 -20s-52.834 -27.333 -69.501 -42
c25.333 -13.333 47.166 -27.5 65.499 -42.5s34.166 -32.833 47.499 -53.5c-36 -10.667 -66 -28 -90 -52s-39 -52.333 -45 -85l-35 -177c6 -11.333 9.33301 -24.166 10 -38.499s-0.666016 -28.5 -3.99902 -42.5c-4 -22 -12.333 -42.833 -25 -62.5
s-28.334 -36.834 -47.001 -51.501s-39.167 -26.334 -61.5 -35.001s-44.833 -13 -67.5 -13c-23.333 0 -44.333 4.33301 -63 13s-34.334 20.334 -47.001 35.001s-21.667 31.834 -27 51.501s-6 40.5 -2 62.5c4 20 11.833 39.333 23.5 58s26 35.334 43 50.001
s35.833 26.667 56.5 36s41.667 15 63 17l19 103c2.66699 16 8.16699 31.333 16.5 46s18.333 28 30 40s24.334 22.5 38.001 31.5s27.167 16.167 40.5 21.5c-8.66699 7.33301 -19.167 14.5 -31.5 21.5s-25.166 13.833 -38.499 20.5s-27 12.667 -41 18s-27 10 -39 14
c24 28.667 50.833 55.667 80.5 81s62 47.333 97 66s72.167 33.334 111.5 44.001s81 16 125 16c43.333 0 83.166 -5.66699 119.499 -17s66.833 -28.166 91.5 -50.499s42.167 -50 52.5 -83s11.166 -71.167 2.49902 -114.5zM180.004 151.999
c3.33301 15.333 0.833008 28 -7.5 38s-20.166 15 -35.499 15s-28.833 -5 -40.5 -15s-19.167 -22.667 -22.5 -38s-0.833008 -28.166 7.5 -38.499s20.166 -15.5 35.499 -15.5s28.833 5.16699 40.5 15.5s19.167 23.166 22.5 38.499zM227.004 -223.001
c-7.33301 6 -17.667 10.167 -31 12.5s-26 3.5 -38 3.5c-21.333 0 -40.5 -5 -57.5 -15s-27.167 -22.667 -30.5 -38c-2 -12.667 2 -22 12 -28s21.667 -9 35 -9c28 0 51.5 7.83301 70.5 23.5s32.167 32.5 39.5 50.5z" />
    <glyph glyph-name="uni0E0F" unicode="&#xe0f;" horiz-adv-x="891" 
d="M662 -231c-7.33301 -36 -17.3311 -65.5049 -29.998 -88.5049s-27.667 -41.333 -45 -55s-36.833 -23 -58.5 -28s-44.834 -7.5 -69.501 -7.5h-53l-48 76l-75 -76h-93l-2 10.5c-0.666992 3.66699 -1.66699 7.16699 -3 10.5c-1.33301 6.66699 -3.16602 12.667 -5.49902 18
s-4.83301 10.333 -7.5 15c-26.667 -18.667 -53.334 -32.667 -80.001 -42s-58 -14 -94 -14c-21.333 0 -41.333 4 -60 12s-34.5 18.833 -47.5 32.5s-22.5 29.667 -28.5 48s-7 38.166 -3 59.499c4.66699 22.667 13.834 44 27.501 64s30.334 37.167 50.001 51.5
s41.667 25.666 66 33.999s50.166 12.5 77.499 12.5c14.667 0 28.5 -1.16699 41.5 -3.5s25.167 -6.16602 36.5 -11.499c1.33301 5.33301 2.33301 11.5 3 18.5s1.66699 13.167 3 18.5l4 19h154c0 -15.333 -1.66699 -31.666 -5 -48.999s-7.33301 -34.166 -12 -50.499
s-9.66699 -31.5 -15 -45.5s-10 -25.333 -14 -34l3 -12l120 109l93 -125l157 817c9.33301 50 2.5 87.833 -20.5 113.5s-58.5 38.5 -106.5 38.5c-40 0 -74.833 -6.66699 -104.5 -20s-52.834 -27.333 -69.501 -42c25.333 -13.333 47.166 -27.5 65.499 -42.5
s34.166 -32.833 47.499 -53.5c-36 -10.667 -66 -28 -90 -52s-39 -52.333 -45 -85l-35 -177c6 -11.333 9.33301 -24.166 10 -38.499s-0.666016 -28.5 -3.99902 -42.5c-4 -22 -12.333 -42.833 -25 -62.5s-28.334 -36.834 -47.001 -51.501s-39.167 -26.334 -61.5 -35.001
s-44.833 -13 -67.5 -13c-23.333 0 -44.333 4.33301 -63 13s-34.334 20.334 -47.001 35.001s-21.667 31.834 -27 51.501s-6 40.5 -2 62.5c4 20 11.833 39.333 23.5 58s26 35.334 43 50.001s35.833 26.667 56.5 36s41.667 15 63 17l19 103c2.66699 16 8.16699 31.333 16.5 46
s18.333 28 30 40s24.334 22.5 38.001 31.5s27.167 16.167 40.5 21.5c-8.66699 7.33301 -19.167 14.5 -31.5 21.5s-25.166 13.833 -38.499 20.5s-27 12.667 -41 18s-27 10 -39 14c24 28.667 50.833 55.667 80.5 81s62 47.333 97 66s72.167 33.334 111.5 44.001s81 16 125 16
c43.333 0 83 -5.66699 119 -17s66.333 -28.166 91 -50.499s42.167 -50 52.5 -83s11.5 -71.167 3.5 -114.5zM180.002 151.995c3.33301 15.333 0.833008 28 -7.5 38s-20.166 15 -35.499 15s-28.833 -5 -40.5 -15s-19.167 -22.667 -22.5 -38s-0.833008 -28.166 7.5 -38.499
s20.166 -15.5 35.499 -15.5s28.833 5.16699 40.5 15.5s19.167 23.166 22.5 38.499zM119.002 -250.005c-2 12.667 -9.66895 22.0039 -23.002 28.0039s-27.666 9 -42.999 9c-6.66699 0 -14 -1.16699 -22 -3.5s-15.5 -5.5 -22.5 -9.5s-13 -9 -18 -15s-7.83301 -13 -8.5 -21
c0 -6.66699 1.83301 -12.334 5.5 -17.001s8.16699 -8.33398 13.5 -11.001s11.166 -4.33398 17.499 -5.00098s12.5 -0.666992 18.5 0c16.667 2 32.334 6.66699 47.001 14s26.334 17.666 35.001 30.999z" />
    <glyph glyph-name="uni0E10" unicode="&#xe10;" horiz-adv-x="778" 
d="M782 748c-63.333 -70 -127.326 -105.001 -191.993 -105.001c-20.667 0 -39.834 3 -57.501 9s-35.334 12.833 -53.001 20.5s-36.334 14.5 -56.001 20.5s-41.5 9 -65.5 9c-14 0 -27 -2 -39 -6s-22.833 -9 -32.5 -15s-17.834 -12.333 -24.501 -19
s-11.334 -12.334 -14.001 -17.001c154.667 -1.33301 267.334 -17.166 338.001 -47.499s100 -77.833 88 -142.5c-6.66699 -34.667 -18.167 -69.5 -34.5 -104.5l-53 -108.5c-19 -37.333 -37.5 -76 -55.5 -116s-32 -82 -42 -126h-178l-41 209
c-19.333 -6.66699 -38.333 -10 -57 -10c-23.333 0 -44.166 4 -62.499 12s-33.5 19.167 -45.5 33.5s-20.333 31 -25 50s-4.66699 39.5 0 61.5c4 20.667 12 40.334 24 59.001s26.833 35.167 44.5 49.5s37.167 25.833 58.5 34.5s43.666 13 66.999 13
c24.667 0 45.667 -3.66699 63 -11s31.666 -17.666 42.999 -30.999s20.166 -29.166 26.499 -47.499s10.833 -38.5 13.5 -60.5l6 -51c1.33301 -7.33301 1.33301 -18.166 0 -32.499l-4 -41.5l-6 -51h4l8 47c2.66699 13.333 5.83398 27.666 9.50098 42.999
s8.16699 29.666 13.5 42.999c2.66699 8 6.33398 16.833 11.001 26.5l15 31c5.33301 11 10.333 21.833 15 32.5s8 21 10 31c2.66699 15.333 -2 28.5 -14 39.5s-28 20.167 -48 27.5s-42.5 13 -67.5 17s-48.833 6.66699 -71.5 8c-46 3.33301 -95.333 4.83301 -148 4.5
s-103 -1.83301 -151 -4.5c11.333 34.667 29.666 70 54.999 106s55.5 68.667 90.5 98s73.667 53.333 116 72s86.166 28 131.499 28c20.667 0 40.5 -2.5 59.5 -7.5s37 -10.5 54 -16.5l48 -16.5c15 -5 28.833 -7.5 41.5 -7.5c10 0 22.667 4.66699 38 14
s28.666 20.666 39.999 33.999zM567.007 -254.001c-5.33301 -29.333 -13.0029 -53.9971 -23.0029 -73.9971s-22.667 -36 -38 -48s-33.166 -20.667 -53.499 -26s-43.5 -8 -69.5 -8h-47l-47 41l-68 -41h-98c-1.33301 4.66699 -3.33301 9.66699 -6 15l-13 26
c-22.667 -16 -46.167 -28.167 -70.5 -36.5s-52.5 -12.5 -84.5 -12.5c-18.667 0 -36.5 3.5 -53.5 10.5s-31.667 16.667 -44 29s-21.333 26.833 -27 43.5s-6.5 34.667 -2.5 54c4 20.667 12.333 40 25 58s28 33.5 46 46.5s38.167 23.167 60.5 30.5s45.5 11 69.5 11
c17.333 0 33 -1 47 -3s24.667 -5 32 -9c3.33301 14.667 5 25.667 5 33v8c0 2.66699 -0.333008 5.33398 -1 8.00098h140c2 -20.667 -0.166992 -45.334 -6.5 -74.001s-17.166 -55.334 -32.499 -80.001l20 -47l86 57l72 -57l8 41c-40 3.33301 -69 16.666 -87 39.999
s-23.667 51 -17 83c2.66699 16 9.16699 31.333 19.5 46s23.333 27.5 39 38.5s33.334 19.833 53.001 26.5s40.5 10 62.5 10s41.5 -3.16699 58.5 -9.5s31 -15 42 -26s18.833 -23.833 23.5 -38.5s5.66699 -30.334 3 -47.001zM297.004 356.002
c3.33301 15.333 0.833008 28.166 -7.5 38.499s-20.166 15.5 -35.499 15.5s-29 -5.16699 -41 -15.5s-19.667 -23.166 -23 -38.499s-0.833008 -28 7.5 -38s20.166 -15 35.499 -15s29 5 41 15s19.667 22.667 23 38zM483.004 -134.998c3.33301 12 1.16797 22.5 -6.49902 31.5
s-19.167 13.5 -34.5 13.5s-27.833 -4.5 -37.5 -13.5s-16.167 -19.5 -19.5 -31.5c-2 -12.667 0.5 -23.334 7.5 -32.001s18.167 -13 33.5 -13s28.166 4.33301 38.499 13s16.5 19.334 18.5 32.001zM59.0059 -269.998c0 9.33301 -5.50098 18.167 -16.501 26.5
s-25.833 11.833 -44.5 10.5c-14 0 -27.833 -4.33301 -41.5 -13s-21.834 -20.334 -24.501 -35.001c-1.33301 -11.333 3.83398 -20.166 15.501 -26.499s23.834 -8.83301 36.501 -7.5c32.667 4 57.667 19 75 45z" />
    <glyph glyph-name="uni0E11" unicode="&#xe11;" horiz-adv-x="1055" 
d="M707 0l123.995 640.999c3.33301 13.333 4.66602 24.5 3.99902 33.5s-4.66699 13.5 -12 13.5c-5.33301 0 -10.666 -4.33301 -15.999 -13l-16 -26l-416 -649h-166l86 444c4.66699 24 13.834 43.833 27.501 59.5s28.167 30.167 43.5 43.5s29.833 26.833 43.5 40.5
s22.5 30.167 26.5 49.5c2 11.333 0.833008 21.333 -3.5 30s-9.16602 15.667 -14.499 21l-72 -47l-84 66c-2 -0.666992 -5 -2.16699 -9 -4.5s-8.16699 -5 -12.5 -8l-12.5 -9c-4 -3 -7 -5.5 -9 -7.5c18.667 -4 33.834 -10.5 45.501 -19.5s20.667 -19.5 27 -31.5
s10.166 -24.833 11.499 -38.5s0.666016 -27.5 -2.00098 -41.5c-3.33301 -19.333 -10.666 -37.666 -21.999 -54.999s-25 -32.333 -41 -45s-34 -22.667 -54 -30s-40.333 -11 -61 -11c-22 0 -41.833 3.83301 -59.5 11.5s-32.167 18.5 -43.5 32.5s-19 30.833 -23 50.5
s-3.66699 41.167 1 64.5c4.66699 28 15.334 56 32.001 84s38 54.167 64 78.5s56.5 46 91.5 65s73.5 33.5 115.5 43.5c12.667 -6.66699 25.5 -15.167 38.5 -25.5l33.5 -26.5l27 16c10 6 19.667 11.5 29 16.5s17.5 9.16699 24.5 12.5s12.167 5 15.5 5
c10 0 23.167 -4.66699 39.5 -14s31.833 -22.5 46.5 -39.5s26.5 -37.5 35.5 -61.5s10.833 -50.667 5.5 -80c-6 -27.333 -16.167 -50 -30.5 -68s-29.166 -34.333 -44.499 -49s-29.333 -29.167 -42 -43.5s-20.667 -31.833 -24 -52.5l-4 -25l-21 -79
c-5.33301 -19.333 -11.333 -39.333 -18 -60h4l21 52c6 14 12.5 28.333 19.5 43s13.167 26.667 18.5 36l203 316c10.667 16.667 22 32.334 34 47.001s25.333 27.334 40 38.001s30.834 19.167 48.501 25.5s37.5 9.5 59.5 9.5c26.667 0 50 -3.33301 70 -10
s36 -17.334 48 -32.001s19.5 -33.834 22.5 -57.501s1.16699 -52.5 -5.5 -86.5l-125 -643h-163zM202.995 548.999c3.33301 14.667 0.5 27.167 -8.5 37.5s-20.5 15.5 -34.5 15.5c-14.667 0 -28.167 -5.16699 -40.5 -15.5s-20.166 -22.833 -23.499 -37.5
s-0.5 -27.167 8.5 -37.5s20.5 -15.5 34.5 -15.5c14.667 0 28.167 5.16699 40.5 15.5s20.166 22.833 23.499 37.5z" />
    <glyph glyph-name="uni0E12" unicode="&#xe12;" horiz-adv-x="1245" 
d="M1083 113c-8 -42 -23.3389 -71.3311 -46.0059 -87.998s-55 -25 -97 -25h-55c-7.33301 13.333 -16.166 26 -26.499 38s-20.666 23 -30.999 33s-20.166 18.667 -29.499 26s-16.666 12.666 -21.999 15.999c-8 -17.333 -18.667 -33.5 -32 -48.5s-28.333 -28 -45 -39
s-34.667 -19.667 -54 -26s-39 -9.5 -59 -9.5c-23.333 0 -44.333 4.16699 -63 12.5s-34.5 19.666 -47.5 33.999s-22.167 31 -27.5 50s-6 39.167 -2 60.5c6.66699 34 21.834 63.667 45.501 89s52.5 44.333 86.5 57l55 291c5.33301 28 3.66602 50.667 -5.00098 68
s-18.667 30 -30 38l-135 -84l-115 84c-26.667 -15.333 -49 -36 -67 -62s-29.667 -52.333 -35 -79c-4 -22.667 -6.66699 -47.667 -8 -75s-2.5 -55.333 -3.5 -84s-2.16699 -57 -3.5 -85s-4 -54 -8 -78c5.33301 6 12.666 13.333 21.999 22l28 26.5l26.5 24.5
c8.33301 7.33301 14.166 12.333 17.499 15c-18 13.333 -31.667 30.5 -41 51.5s-11.333 44.167 -6 69.5c4 18.667 11.5 36.667 22.5 54s24.5 32.5 40.5 45.5s33.667 23.333 53 31s39.333 11.5 60 11.5s39.334 -3.83301 56.001 -11.5s30.334 -18 41.001 -31
s18 -28.167 22 -45.5s4 -35.333 0 -54c-5.33301 -28 -14.666 -51.667 -27.999 -71s-27.666 -36.666 -42.999 -51.999l-33 -30.5l-40.5 -37.5l-43 -41l-39.5 -40l-47 -48l-45 -47.5l-37.5 -41l-24.5 -27.5h-159l28 147c8 40.667 12.667 78 14 112s1.83301 67 1.5 99
s0 63.833 1 95.5s5.16699 65.5 12.5 101.5c7.33301 38 21 73.167 41 105.5s44.5 60.666 73.5 84.999s61.333 44.166 97 59.499s73.167 25 112.5 29l88 -66l114 68c22.667 -4.66699 47 -12 73 -22s49.333 -24.167 70 -42.5s36.167 -41.666 46.5 -69.999
s11.5 -62.833 3.5 -103.5l-60 -301c38 -12.667 73.667 -29.5 107 -50.5s61.333 -41.833 84 -62.5l125 635h164zM466.994 436.002c3.33301 14.667 1.33398 26.5 -5.99902 35.5s-18.333 13.5 -33 13.5c-13.333 0 -25.333 -4.5 -36 -13.5s-17.667 -20.833 -21 -35.5
c-2 -13.333 0.666992 -24.5 8 -33.5s17.666 -13.5 30.999 -13.5c14 0 26.5 4.5 37.5 13.5s17.5 20.167 19.5 33.5zM673.995 147.002c3.33301 15.333 0.333008 28.166 -9 38.499s-22 15.5 -38 15.5c-16.667 0 -31.334 -5.16699 -44.001 -15.5s-20.667 -23.166 -24 -38.499
s-0.5 -28 8.5 -38s21.833 -15 38.5 -15s31.334 5 44.001 15s20.667 22.667 24 38z" />
    <glyph glyph-name="uni0E13" unicode="&#xe13;" horiz-adv-x="1206" 
d="M1067 287c20.667 -14.667 36.3311 -33.3379 46.998 -56.0049s12.667 -48.334 6 -77.001c-4 -22 -12.5 -42.667 -25.5 -62s-28.833 -36.333 -47.5 -51s-39.334 -26.167 -62.001 -34.5s-46 -12.5 -70 -12.5c-38 0 -69.5 10 -94.5 30s-40.5 46 -46.5 78
c-19.333 -12 -40.166 -27.167 -62.499 -45.5s-43.833 -37.166 -64.5 -56.499h-176l107 553c4.66699 24.667 4.66699 46.334 0 65.001s-12.667 34.5 -24 47.5s-25.833 22.833 -43.5 29.5s-37.5 10 -59.5 10c-40 0 -75 -6.66699 -105 -20s-53.333 -27.333 -70 -42
c26 -13.333 48 -27.5 66 -42.5s33.667 -32.833 47 -53.5c-36 -10.667 -66 -28 -90 -52s-39 -52.333 -45 -85l-21 -107c3.33301 1.33301 6.5 2 9.5 2h9.5c22.667 0 43.334 -4.16699 62.001 -12.5s34 -19.666 46 -33.999s20.5 -30.833 25.5 -49.5s5.5 -38.334 1.5 -59.001
c-4 -22 -12.333 -42.667 -25 -62s-28 -36.166 -46 -50.499s-38.167 -25.833 -60.5 -34.5s-45.5 -13 -69.5 -13c-27.333 0 -51 4.16699 -71 12.5s-36.333 19.833 -49 34.5s-21.167 32.334 -25.5 53.001s-4.16602 43.334 0.500977 68.001l49 258
c2.66699 16 8.16699 31.333 16.5 46s18.333 28 30 40s24.334 22.5 38.001 31.5s27.167 16.167 40.5 21.5c-8.66699 7.33301 -19 14.5 -31 21.5s-24.667 13.833 -38 20.5s-27 12.667 -41 18s-27 10 -39 14c24 28.667 50.833 55.667 80.5 81s61.834 47.333 96.501 66
s71.667 33.334 111 44.001s81 16 125 16c43.333 0 83.166 -5.66699 119.499 -17s66.833 -28.166 91.5 -50.499s42.167 -50 52.5 -83s11.166 -71.167 2.49902 -114.5l-75 -389l57 36.5c20 12.333 40.333 24.166 61 35.499s41.167 21.833 61.5 31.5s39.5 17.5 57.5 23.5
l101 510h163zM1006 153.996c2 15.333 -1.33301 28 -10 38s-21.334 15 -38.001 15c-16 0 -30.667 -5 -44 -15s-21 -22.667 -23 -38c-3.33301 -15.333 -0.5 -28.166 8.5 -38.499s21.833 -15.5 38.5 -15.5s31.334 5.16699 44.001 15.5s20.667 23.166 24 38.499z
M273.997 149.996c3.33301 15.333 0.833008 28 -7.5 38s-20.166 15 -35.499 15s-28.833 -5 -40.5 -15s-19.167 -22.667 -22.5 -38s-0.833008 -28.166 7.5 -38.499s20.166 -15.5 35.499 -15.5s28.833 5.16699 40.5 15.5s19.167 23.166 22.5 38.499z" />
    <glyph glyph-name="uni0E14" unicode="&#xe14;" horiz-adv-x="864" 
d="M516 0l101.998 526.006c4.66699 23.333 5.16699 45.333 1.5 66s-11.5 39 -23.5 55s-28.667 29.167 -50 39.5s-47 16.5 -77 18.5c-28 1.33301 -54.667 -2.16699 -80 -10.5s-48 -20 -68 -35s-37.167 -32.5 -51.5 -52.5s-24.833 -41.333 -31.5 -64
c-8 -26.667 -12.833 -53.334 -14.5 -80.001s-2.33398 -53 -2.00098 -79s1.16602 -51.333 2.49902 -76s1 -48 -1 -70c4 4.66699 10.333 11.5 19 20.5l27.5 28l27.5 27c8.66699 8.33301 15.334 14.5 20.001 18.5c-17.333 13.333 -30.5 30.666 -39.5 51.999s-10.833 45 -5.5 71
c4 18.667 11.5 36.5 22.5 53.5s24.333 31.833 40 44.5s33.167 22.667 52.5 30s39 11 59 11s38.333 -3.66699 55 -11s30.5 -17.333 41.5 -30s18.833 -27.5 23.5 -44.5s5 -34.833 1 -53.5c-5.33301 -28 -15.333 -51.667 -30 -71s-29.667 -36.666 -45 -51.999l-32.5 -33.5
l-39 -39l-41.5 -41.5l-39 -40l-45 -49.5l-46 -51l-39 -45c-11.333 -13.667 -20 -24.5 -26 -32.5h-159l26 139c6.66699 35.333 10 69.166 10 101.499s-0.5 64.5 -1.5 96.5s-1.16699 64.5 -0.5 97.5s5 67.833 13 104.5c8 38.667 23.667 76.167 47 112.5
s53.333 68.166 90 95.499s79.334 49.166 128.001 65.499s102.334 24.166 161.001 23.499c53.333 -0.666992 99.833 -8.83398 139.5 -24.501s71.834 -36.667 96.501 -63s41.5 -57 50.5 -92s9.5 -72.167 1.5 -111.5l-106 -545h-164zM466.998 455.006
c3.33301 14 1.66797 25.333 -4.99902 34s-17.334 13 -32.001 13s-27 -4.33301 -37 -13s-16.667 -20 -20 -34c-3.33301 -14.667 -1.33301 -26.167 6 -34.5s18.333 -12.5 33 -12.5c14 0 25.833 4.16699 35.5 12.5s16.167 19.833 19.5 34.5z" />
    <glyph glyph-name="uni0E15" unicode="&#xe15;" horiz-adv-x="868" 
d="M520 0l112.999 584c5.33301 28 3.66602 50.667 -5.00098 68s-18.667 30 -30 38l-135 -84l-115 84c-26.667 -15.333 -49 -36 -67 -62s-29.667 -52.333 -35 -79c-4 -22.667 -6.66699 -47.667 -8 -75s-2.5 -55.333 -3.5 -84s-2.16699 -57 -3.5 -85s-4 -54 -8 -78
c5.33301 6 12.666 13.333 21.999 22l28 26.5l26.5 24.5c8.33301 7.33301 14.166 12.333 17.499 15c-18 13.333 -31.667 30.5 -41 51.5s-11.333 44.167 -6 69.5c4 18.667 11.5 36.667 22.5 54s24.5 32.5 40.5 45.5s33.667 23.333 53 31s39.333 11.5 60 11.5
s39.334 -3.83301 56.001 -11.5s30.334 -18 41.001 -31s18 -28.167 22 -45.5s4 -35.333 0 -54c-5.33301 -28 -14.666 -51.667 -27.999 -71s-27.666 -36.666 -42.999 -51.999l-33 -30.5l-40.5 -37.5l-43 -41l-39.5 -40l-47 -48l-45 -47.5l-37.5 -41l-24.5 -27.5h-159l28 147
c8 40.667 12.667 78 14 112s1.83301 67 1.5 99s0 63.833 1 95.5s5.16699 65.5 12.5 101.5c7.33301 38 21 73.167 41 105.5s44.5 60.666 73.5 84.999s61.333 44.166 97 59.499s73.167 25 112.5 29l88 -66l114 68c22.667 -4.66699 47 -12 73 -22s49.333 -24.167 70 -42.5
s36.167 -41.666 46.5 -69.999s11.5 -62.833 3.5 -103.5l-117 -598h-164zM466.999 436c3.33301 14.667 1.33398 26.5 -5.99902 35.5s-18.333 13.5 -33 13.5c-13.333 0 -25.333 -4.5 -36 -13.5s-17.667 -20.833 -21 -35.5c-2 -13.333 0.666992 -24.5 8 -33.5
s17.666 -13.5 30.999 -13.5c14 0 26.5 4.5 37.5 13.5s17.5 20.167 19.5 33.5z" />
    <glyph glyph-name="uni0E16" unicode="&#xe16;" horiz-adv-x="819" 
d="M471 0l110.998 572.995c4 22 3 41.333 -3 58s-15.333 30.5 -28 41.5s-27.834 19.167 -45.501 24.5s-35.834 8 -54.501 8c-40 0 -75 -6.66699 -105 -20s-53.333 -27.333 -70 -42c26 -13.333 48 -27.5 66 -42.5s33.667 -32.833 47 -53.5c-36 -10.667 -66 -28 -90 -52
s-39 -52.333 -45 -85l-21 -107c3.33301 1.33301 6.5 2 9.5 2h9.5c22.667 0 43.334 -4.16699 62.001 -12.5s34 -19.666 46 -33.999s20.5 -30.833 25.5 -49.5s5.5 -38.334 1.5 -59.001c-4 -22 -12.333 -42.667 -25 -62s-28 -36.166 -46 -50.499s-38.167 -25.833 -60.5 -34.5
s-45.5 -13 -69.5 -13c-27.333 0 -51 4.16699 -71 12.5s-36.333 19.833 -49 34.5s-21.167 32.334 -25.5 53.001s-4.16602 43.334 0.500977 68.001l49 258c2.66699 16 8.16699 31.333 16.5 46s18.333 28 30 40s24.334 22.5 38.001 31.5s27.167 16.167 40.5 21.5
c-8.66699 7.33301 -19 14.5 -31 21.5s-24.667 13.833 -38 20.5s-27 12.667 -41 18s-27 10 -39 14c24 28.667 50.833 55.667 80.5 81s61.834 47.333 96.501 66s71.667 33.334 111 44.001s81 16 125 16c43.333 0 83 -5.66699 119 -17s66.333 -28.166 91 -50.499
s42.167 -50 52.5 -83s11.5 -71.167 3.5 -114.5l-110 -571h-164zM273.998 149.995c3.33301 15.333 0.833008 28 -7.5 38s-20.166 15 -35.499 15s-28.833 -5 -40.5 -15s-19.167 -22.667 -22.5 -38s-0.833008 -28.166 7.5 -38.499s20.166 -15.5 35.499 -15.5
s28.833 5.16699 40.5 15.5s19.167 23.166 22.5 38.499z" />
    <glyph glyph-name="uni0E17" unicode="&#xe17;" horiz-adv-x="907" 
d="M559 0l121.001 616.003c4 21.333 5 38.666 3 51.999s-9 20 -21 20c-6.66699 0 -13.334 -4.5 -20.001 -13.5s-13.667 -20.167 -21 -33.5l-351 -641h-178l101 516c-3.33301 -1.33301 -6.5 -2 -9.5 -2h-9.5c-23.333 0 -44.166 4.16699 -62.499 12.5
s-33.5 19.666 -45.5 33.999s-20.5 30.833 -25.5 49.5s-5.5 38.667 -1.5 60s12.333 41.666 25 60.999s28 36.166 46 50.499s38.167 25.833 60.5 34.5s45.5 13 69.5 13c26.667 0 50.167 -4.16699 70.5 -12.5s36.666 -19.833 48.999 -34.5s20.833 -32.167 25.5 -52.5
s4.66699 -42.833 0 -67.5l-27 -138c-2.66699 -10.667 -8 -29.334 -16 -56.001l-26 -83l-35 -109h4l41 95l18 39l17.5 38.5l16 34.5c5 10.667 9.5 19.667 13.5 27l105 197c8.66699 16 18.834 31.5 30.501 46.5s25.5 28 41.5 39s34.167 19.833 54.5 26.5s43.5 10 69.5 10
c28.667 0 54.167 -3.33301 76.5 -10s40.333 -17.667 54 -33s22.667 -35.666 27 -60.999s3.16602 -56.666 -3.50098 -93.999l-123 -631h-164zM258.001 670.003c2 15.333 -0.833008 28 -8.5 38s-19.167 15 -34.5 15s-29.166 -5 -41.499 -15s-19.5 -22.667 -21.5 -38
c-3.33301 -15.333 -0.833008 -28.166 7.5 -38.499s20.166 -15.5 35.499 -15.5s28.833 5.16699 40.5 15.5s19.167 23.166 22.5 38.499z" />
    <glyph glyph-name="uni0E18" unicode="&#xe18;" horiz-adv-x="788" 
d="M793 750c-28 -34 -58.334 -59.335 -91.001 -76.002s-66 -24.334 -100 -23.001c-16 0.666992 -32 3.83398 -48 9.50098s-32.5 11.834 -49.5 18.501s-34.5 12.667 -52.5 18s-37 8 -57 8c-13.333 0 -25.833 -2.16699 -37.5 -6.5s-22.167 -9.5 -31.5 -15.5
s-17.166 -12.5 -23.499 -19.5s-10.833 -13.167 -13.5 -18.5c18.667 0 47.5 -0.333008 86.5 -1s84.5 -5.66699 136.5 -15c66.667 -12.667 115.667 -33.667 147 -63s41.666 -70.666 30.999 -123.999l-45 -233c-7.33301 -36.667 -16.666 -68.167 -27.999 -94.5s-27 -48 -47 -65
s-45.167 -29.5 -75.5 -37.5s-68.166 -12 -113.499 -12h-412l25 129c21.333 0 38.833 0.833008 52.5 2.5s24.667 4.83398 33 9.50098s14.666 10.667 18.999 18s7.83301 17 10.5 29l38 197c5.33301 28 15 50.5 29 67.5s31.667 30.833 53 41.5h183
c-30 -11.333 -53.667 -27.333 -71 -48s-28.666 -45 -33.999 -73l-45 -240h88c22 0 40.667 1.16699 56 3.5s28.166 6.83301 38.499 13.5s18.666 16.167 24.999 28.5s11.5 28.5 15.5 48.5l39 201c4 18 1 33 -9 45s-24.167 21.667 -42.5 29s-39.833 13 -64.5 17s-50 7 -76 9
c-42 3.33301 -88 5.16602 -138 5.49902s-97 -0.166992 -141 -1.5c12 37.333 29.5 74.166 52.5 110.499s49.833 68.833 80.5 97.5s64.334 51.834 101.001 69.501s74.667 26.5 114 26.5c20.667 0 41 -2.33301 61 -7s39 -9.83398 57 -15.501l49.5 -15.5
c15 -4.66699 28.167 -7 39.5 -7c15.333 0 29.833 4.33301 43.5 13s25.167 19.334 34.5 32.001l107 -86v0z" />
    <glyph glyph-name="uni0E19" unicode="&#xe19;" horiz-adv-x="909" 
d="M750 287c20.667 -14.667 36.166 -33.3291 46.499 -55.9961s12.5 -48.334 6.5 -77.001c-4 -22 -12.667 -42.667 -26 -62s-29.333 -36.333 -48 -51s-39.5 -26.167 -62.5 -34.5s-45.833 -12.5 -68.5 -12.5c-23.333 0 -44.5 4.16699 -63.5 12.5s-34.833 19.833 -47.5 34.5
s-21.334 31.667 -26.001 51s-4.66699 40 0 62c-12.667 -6.66699 -27.167 -15.667 -43.5 -27s-33 -23.833 -50 -37.5s-34 -28.167 -51 -43.5s-32.5 -30.666 -46.5 -45.999h-178l101 516c-3.33301 -1.33301 -6.5 -2 -9.5 -2h-9.5c-23.333 0 -44.166 4.16699 -62.499 12.5
s-33.5 19.666 -45.5 33.999s-20.5 30.833 -25.5 49.5s-5.5 38.667 -1.5 60s12.333 41.666 25 60.999s28 36.166 46 50.499s38.167 25.833 60.5 34.5s45.5 13 69.5 13c26.667 0 50.167 -4.16699 70.5 -12.5s36.666 -19.833 48.999 -34.5s20.833 -32.167 25.5 -52.5
s4.66699 -42.833 0 -67.5l-92 -474c18.667 14.667 39.834 29 63.501 43s48.667 27.167 75 39.5s53.333 23.166 81 32.499s54.834 16.333 81.501 21l96 495h164zM257.999 670.005c2 15.333 -0.833008 28 -8.5 38s-19.167 15 -34.5 15s-29.166 -5 -41.499 -15
s-19.5 -22.667 -21.5 -38c-3.33301 -15.333 -0.833008 -28.166 7.5 -38.499s20.166 -15.5 35.499 -15.5s28.833 5.16699 40.5 15.5s19.167 23.166 22.5 38.499zM687.999 154.005c2 15.333 -1.16699 28 -9.5 38s-20.833 15 -37.5 15s-31.5 -5 -44.5 -15
s-20.833 -22.667 -23.5 -38c-3.33301 -15.333 -0.333008 -28.166 9 -38.499s22.333 -15.5 39 -15.5c16 0 30.333 5.16699 43 15.5s20.667 23.166 24 38.499z" />
    <glyph glyph-name="uni0E1A" unicode="&#xe1a;" horiz-adv-x="891" 
d="M748 207c-6.66699 -34 -16.167 -63.998 -28.5 -89.998s-28.666 -47.667 -48.999 -65s-45.833 -30.333 -76.5 -39s-67.667 -13 -111 -13h-493l24 129c22.667 0 41 0.833008 55 2.5s25.167 4.83398 33.5 9.50098s14.333 10.667 18 18s6.5 17 8.5 29l64 328
c-3.33301 -1.33301 -6.5 -2 -9.5 -2h-9.5c-23.333 0 -44.166 4.16699 -62.499 12.5s-33.5 19.666 -45.5 33.999s-20.5 30.833 -25.5 49.5s-5.5 38.667 -1.5 60s12.333 41.666 25 60.999s28 36.166 46 50.499s38.167 25.833 60.5 34.5s45.5 13 69.5 13
c26.667 0 50.167 -4.16699 70.5 -12.5s36.666 -19.833 48.999 -34.5s20.833 -32.167 25.5 -52.5s4.66699 -42.833 0 -67.5l-102 -529h170c22.667 0 41.667 1.33301 57 4s28.166 7.5 38.499 14.5s18.5 16.5 24.5 28.5s11 27.667 15 47l114 592h164zM258 670.002
c2 15.333 -0.833008 28 -8.5 38s-19.167 15 -34.5 15s-29.166 -5 -41.499 -15s-19.5 -22.667 -21.5 -38c-3.33301 -15.333 -0.833008 -28.166 7.5 -38.499s20.166 -15.5 35.499 -15.5s28.833 5.16699 40.5 15.5s19.167 23.166 22.5 38.499z" />
    <glyph glyph-name="uni0E1B" unicode="&#xe1b;" horiz-adv-x="891" 
d="M748 207c-6.66699 -34 -16.167 -63.998 -28.5 -89.998s-28.666 -47.667 -48.999 -65s-45.833 -30.333 -76.5 -39s-67.667 -13 -111 -13h-493l24 129c22.667 0 41 0.833008 55 2.5s25.167 4.83398 33.5 9.50098s14.333 10.667 18 18s6.5 17 8.5 29l64 328
c-3.33301 -1.33301 -6.5 -2 -9.5 -2h-9.5c-23.333 0 -44.166 4.16699 -62.499 12.5s-33.5 19.666 -45.5 33.999s-20.5 30.833 -25.5 49.5s-5.5 38.667 -1.5 60s12.333 41.666 25 60.999s28 36.166 46 50.499s38.167 25.833 60.5 34.5s45.5 13 69.5 13
c26.667 0 50.167 -4.16699 70.5 -12.5s36.666 -19.833 48.999 -34.5s20.833 -32.167 25.5 -52.5s4.66699 -42.833 0 -67.5l-102 -529h170c22.667 0 41.667 1.33301 57 4s28.166 7.5 38.499 14.5s18.5 16.5 24.5 28.5s11 27.667 15 47l162 838h163zM258 670.002
c2 15.333 -0.833008 28 -8.5 38s-19.167 15 -34.5 15s-29.166 -5 -41.499 -15s-19.5 -22.667 -21.5 -38c-3.33301 -15.333 -0.833008 -28.166 7.5 -38.499s20.166 -15.5 35.499 -15.5s28.833 5.16699 40.5 15.5s19.167 23.166 22.5 38.499z" />
    <glyph glyph-name="uni0E1C" unicode="&#xe1c;" horiz-adv-x="889" 
d="M729 123c-5.33301 -27.333 -12.832 -49.1689 -22.499 -65.502s-21.167 -28.666 -34.5 -36.999s-28 -13.833 -44 -16.5s-32.667 -4 -50 -4h-60l-104 311l-228 -311h-59c-17.333 0 -33.5 1.33301 -48.5 4s-27.333 8.16699 -37 16.5s-16.167 20.666 -19.5 36.999
s-2.33301 38.166 3 65.499l104 539c4.66699 24.667 13.167 47.167 25.5 67.5s27.666 37.833 45.999 52.5s39.333 26.167 63 34.5s49.167 12.5 76.5 12.5c24.667 0 46.5 -4.16699 65.5 -12.5s34.667 -19.666 47 -33.999s20.833 -31.166 25.5 -50.499s5 -40 1 -62
c-4 -21.333 -12.167 -41.333 -24.5 -60s-27.333 -35.167 -45 -49.5s-37.5 -25.666 -59.5 -33.999s-44.333 -12.5 -67 -12.5h-9.5c-3 0 -6.16699 0.666992 -9.5 2l-51 -260l178 238h115l84 -238l110 563h164zM367.001 669.997c2 15.333 -0.832031 28 -8.49902 38
s-19.167 15 -34.5 15s-29.333 -5 -42 -15s-20 -22.667 -22 -38c-3.33301 -15.333 -0.833008 -28.166 7.5 -38.499s20.166 -15.5 35.499 -15.5s29 5.16699 41 15.5s19.667 23.166 23 38.499z" />
    <glyph glyph-name="uni0E1D" unicode="&#xe1d;" horiz-adv-x="889" 
d="M729 123c-5.33301 -27.333 -12.832 -49.1689 -22.499 -65.502s-21.167 -28.666 -34.5 -36.999s-28 -13.833 -44 -16.5s-32.667 -4 -50 -4h-60l-104 311l-228 -311h-59c-17.333 0 -33.5 1.33301 -48.5 4s-27.333 8.16699 -37 16.5s-16.167 20.666 -19.5 36.999
s-2.33301 38.166 3 65.499l104 539c4.66699 24.667 13.167 47.167 25.5 67.5s27.666 37.833 45.999 52.5s39.333 26.167 63 34.5s49.167 12.5 76.5 12.5c24.667 0 46.5 -4.16699 65.5 -12.5s34.667 -19.666 47 -33.999s20.833 -31.166 25.5 -50.499s5 -40 1 -62
c-4 -21.333 -12.167 -41.333 -24.5 -60s-27.333 -35.167 -45 -49.5s-37.5 -25.666 -59.5 -33.999s-44.333 -12.5 -67 -12.5h-9.5c-3 0 -6.16699 0.666992 -9.5 2l-51 -260l178 238h115l84 -238l158 809h163zM367.001 669.997c2 15.333 -0.832031 28 -8.49902 38
s-19.167 15 -34.5 15s-29.333 -5 -42 -15s-20 -22.667 -22 -38c-3.33301 -15.333 -0.833008 -28.166 7.5 -38.499s20.166 -15.5 35.499 -15.5s29 5.16699 41 15.5s19.667 23.166 23 38.499z" />
    <glyph glyph-name="uni0E1E" unicode="&#xe1e;" horiz-adv-x="1001" 
d="M842 123c-5.33301 -27.333 -12.8311 -49.165 -22.498 -65.498s-21 -28.666 -34 -36.999s-27.333 -13.833 -43 -16.5s-31.834 -4 -48.501 -4h-88l-45 551l-278 -551h-74c-16.667 0 -31.834 1.33301 -45.501 4s-24.834 8.16699 -33.501 16.5s-14.334 20.666 -17.001 36.999
s-1.33398 38.166 3.99902 65.499l76 393c-3.33301 -1.33301 -6.5 -2 -9.5 -2h-9.5c-23.333 0 -44.166 4.16699 -62.499 12.5s-33.5 19.666 -45.5 33.999s-20.5 30.833 -25.5 49.5s-5.5 38.667 -1.5 60s12.333 41.666 25 60.999s28 36.166 46 50.499s38.167 25.833 60.5 34.5
s45.5 13 69.5 13c54 0 94.333 -14.833 121 -44.5s34.667 -70.5 24 -122.5l-37 -187l-34 -133c-3.33301 -14.667 -7.16602 -29.5 -11.499 -44.5l-13.5 -45.5h4l19 50.5c6 16.333 12.333 32.5 19 48.5c10.667 27.333 22.834 56.5 36.501 87.5s26.5 58.167 38.5 81.5l147 299
h123l29 -301c2 -24 3.5 -51.167 4.5 -81.5s2.16699 -59.5 3.5 -87.5l2 -97h4l9 90c2.66699 24.667 5.5 49.334 8.5 74.001s5.83301 44.334 8.5 59.001l68 344h164zM258.002 670.001c2 15.333 -0.833008 28 -8.5 38s-19.167 15 -34.5 15s-29.166 -5 -41.499 -15
s-19.5 -22.667 -21.5 -38c-3.33301 -15.333 -0.833008 -28.166 7.5 -38.499s20.166 -15.5 35.499 -15.5s28.833 5.16699 40.5 15.5s19.167 23.166 22.5 38.499z" />
    <glyph glyph-name="uni0E1F" unicode="&#xe1f;" horiz-adv-x="1001" 
d="M842 123c-5.33301 -27.333 -12.8311 -49.165 -22.498 -65.498s-21 -28.666 -34 -36.999s-27.333 -13.833 -43 -16.5s-31.834 -4 -48.501 -4h-88l-45 551l-278 -551h-74c-16.667 0 -31.834 1.33301 -45.501 4s-24.834 8.16699 -33.501 16.5s-14.334 20.666 -17.001 36.999
s-1.33398 38.166 3.99902 65.499l76 393c-3.33301 -1.33301 -6.5 -2 -9.5 -2h-9.5c-23.333 0 -44.166 4.16699 -62.499 12.5s-33.5 19.666 -45.5 33.999s-20.5 30.833 -25.5 49.5s-5.5 38.667 -1.5 60s12.333 41.666 25 60.999s28 36.166 46 50.499s38.167 25.833 60.5 34.5
s45.5 13 69.5 13c54 0 94.333 -14.833 121 -44.5s34.667 -70.5 24 -122.5l-37 -187l-34 -133c-3.33301 -14.667 -7.16602 -29.5 -11.499 -44.5l-13.5 -45.5h4l19 50.5c6 16.333 12.333 32.5 19 48.5c10.667 27.333 22.834 56.5 36.501 87.5s26.5 58.167 38.5 81.5l147 299
h123l29 -301c2 -24 3.5 -51.167 4.5 -81.5s2.16699 -59.5 3.5 -87.5l2 -97h4l9 90c2.66699 24.667 5.5 49.334 8.5 74.001s5.83301 44.334 8.5 59.001l115 590h164zM258.002 670.001c2 15.333 -0.833008 28 -8.5 38s-19.167 15 -34.5 15s-29.166 -5 -41.499 -15
s-19.5 -22.667 -21.5 -38c-3.33301 -15.333 -0.833008 -28.166 7.5 -38.499s20.166 -15.5 35.499 -15.5s28.833 5.16699 40.5 15.5s19.167 23.166 22.5 38.499z" />
    <glyph glyph-name="uni0E20" unicode="&#xe20;" horiz-adv-x="891" 
d="M543 0l106.002 552.996c4 22 4.16699 42.333 0.5 61s-11 34.667 -22 48s-25.333 23.833 -43 31.5s-38.5 11.5 -62.5 11.5c-40 0 -74.833 -6.66699 -104.5 -20s-52.834 -27.333 -69.501 -42c25.333 -13.333 47.166 -27.5 65.499 -42.5s34.166 -32.833 47.499 -53.5
c-36 -10.667 -66 -28 -90 -52s-39 -52.333 -45 -85l-35 -177c6 -11.333 9.33301 -24.166 10 -38.499s-0.666016 -28.5 -3.99902 -42.5c-4 -22 -12.333 -42.833 -25 -62.5s-28.334 -36.834 -47.001 -51.501s-39.167 -26.334 -61.5 -35.001s-44.833 -13 -67.5 -13
c-23.333 0 -44.333 4.33301 -63 13s-34.334 20.334 -47.001 35.001s-21.667 31.834 -27 51.501s-6 40.5 -2 62.5c4 20 11.833 39.333 23.5 58s26 35.334 43 50.001s35.833 26.667 56.5 36s41.667 15 63 17l19 103c2.66699 16 8.16699 31.333 16.5 46s18.333 28 30 40
s24.334 22.5 38.001 31.5s27.167 16.167 40.5 21.5c-8.66699 7.33301 -19.167 14.5 -31.5 21.5s-25.166 13.833 -38.499 20.5s-27 12.667 -41 18s-27 10 -39 14c24 28.667 50.833 55.667 80.5 81s62 47.333 97 66s72.167 33.334 111.5 44.001s81 16 125 16
c43.333 0 83 -5.66699 119 -17s66.333 -28.166 91 -50.499s42.167 -50 52.5 -83s11.5 -71.167 3.5 -114.5l-110 -571h-164zM180.002 151.996c3.33301 15.333 0.833008 28 -7.5 38s-20.166 15 -35.499 15s-28.833 -5 -40.5 -15s-19.167 -22.667 -22.5 -38
s-0.833008 -28.166 7.5 -38.499s20.166 -15.5 35.499 -15.5s28.833 5.16699 40.5 15.5s19.167 23.166 22.5 38.499z" />
    <glyph glyph-name="uni0E21" unicode="&#xe21;" horiz-adv-x="885" 
d="M723 119c-8 -42 -24.165 -72.3311 -48.498 -90.998s-57.5 -28 -99.5 -28h-57c-3.33301 21.333 -10 43 -20 65s-22.333 42.833 -37 62.5s-31.5 37.667 -50.5 54s-39.167 29.5 -60.5 39.5l-14 -76c-4 -21.333 -11.833 -41.166 -23.5 -59.499s-26 -34.333 -43 -48
s-36.5 -24.334 -58.5 -32.001s-45.333 -11.5 -70 -11.5s-47.667 4 -69 12s-39.333 19.833 -54 35.5s-25.167 34.834 -31.5 57.501s-6.5 49 -0.5 79c4.66699 25.333 14 48.833 28 70.5s31.167 41 51.5 58s43.333 31 69 42s52.5 18.5 80.5 22.5l29 145
c-3.33301 -1.33301 -6.5 -2 -9.5 -2h-9.5c-23.333 0 -44.166 4.16699 -62.499 12.5s-33.5 19.666 -45.5 33.999s-20.5 30.833 -25.5 49.5s-5.5 38.667 -1.5 60s12.333 41.666 25 60.999s28.167 36.166 46.5 50.499s38.666 25.833 60.999 34.5s45.166 13 68.499 13
c26.667 0 50.167 -4.16699 70.5 -12.5s36.833 -19.833 49.5 -34.5s21.167 -32.167 25.5 -52.5s4.16602 -42.833 -0.500977 -67.5l-57 -297c16.667 -4.66699 34.5 -11 53.5 -19s37.5 -17.5 55.5 -28.5s35.167 -23.667 51.5 -38s30.5 -29.833 42.5 -46.5l114 586h164z
M309.002 670.002c2 15.333 -0.833008 28 -8.5 38s-19.167 15 -34.5 15s-29.166 -5 -41.499 -15s-19.5 -22.667 -21.5 -38c-3.33301 -15.333 -0.833008 -28.166 7.5 -38.499s20.166 -15.5 35.499 -15.5s28.833 5.16699 40.5 15.5s19.167 23.166 22.5 38.499zM193.002 248.002
c-23.333 -1.33301 -43.167 -9.33203 -59.5 -23.999s-26.166 -31.334 -29.499 -50.001c-3.33301 -14.667 -1.5 -26.5 5.5 -35.5s16.167 -13.5 27.5 -13.5c10.667 0 18.667 2.5 24 7.5s9.66602 14.833 12.999 29.5z" />
    <glyph glyph-name="uni0E22" unicode="&#xe22;" horiz-adv-x="819" 
d="M676 207c-6.66699 -34 -16.168 -64.002 -28.501 -90.002s-28.666 -47.667 -48.999 -65s-45.666 -30.333 -75.999 -39s-67.166 -13 -110.499 -13h-412l53 276c4 20.667 10.5 38.5 19.5 53.5s19.333 27.667 31 38s23.667 18.333 36 24s23.833 9.5 34.5 11.5
c-10 2 -21.333 5.33301 -34 10s-24.167 11.5 -34.5 20.5s-18.166 20.5 -23.499 34.5s-6 31.333 -2 52l29 142c4.66699 24.667 13.167 47.167 25.5 67.5s27.833 37.833 46.5 52.5s39.667 26.167 63 34.5s48.333 12.5 75 12.5c24 0 45.5 -4.33301 64.5 -13
s34.667 -20.167 47 -34.5s21.166 -31.166 26.499 -50.499s6 -39.666 2 -60.999s-12.167 -41.333 -24.5 -60s-27.5 -35.167 -45.5 -49.5s-38 -25.666 -60 -33.999s-44.333 -12.5 -67 -12.5c-6 -26 17.333 -39 70 -39h100l-26 -133h-95c-30 0 -52.167 -6.33301 -66.5 -19
s-23.5 -30.334 -27.5 -53.001l-27 -137h191c22 0 40.667 1.16699 56 3.5s28.166 6.83301 38.499 13.5s18.666 16.167 24.999 28.5s11.5 28.5 15.5 48.5l115 592h164zM345.999 669.998c2 15.333 -0.833008 28 -8.5 38s-19.167 15 -34.5 15s-29.166 -5 -41.499 -15
s-19.5 -22.667 -21.5 -38c-3.33301 -15.333 -0.833008 -28.166 7.5 -38.499s20.166 -15.5 35.499 -15.5s28.833 5.16699 40.5 15.5s19.167 23.166 22.5 38.499z" />
    <glyph glyph-name="uni0E23" unicode="&#xe23;" horiz-adv-x="686" 
d="M721 750c-26.667 -34 -56.665 -58.998 -89.998 -74.998s-67 -24 -101 -24c-16 0 -31.333 2.83301 -46 8.5s-29.5 11.834 -44.5 18.501s-30.667 12.834 -47 18.501s-34.5 8.5 -54.5 8.5c-28 0 -51.833 -6.33301 -71.5 -19s-34.167 -26.334 -43.5 -41.001
c7.33301 0 17.666 -0.333008 30.999 -1s28.666 -1.83398 45.999 -3.50098s36.5 -4 57.5 -7s43.167 -7.16699 66.5 -12.5c60.667 -14.667 103.667 -36.5 129 -65.5s32.666 -70.833 21.999 -125.5l-53 -272c-4.66699 -24.667 -13.167 -47.334 -25.5 -68.001
s-27.666 -38.334 -45.999 -53.001s-39.333 -26.167 -63 -34.5s-49.167 -12.5 -76.5 -12.5c-23.333 0 -44.5 4.33301 -63.5 13s-34.833 20.167 -47.5 34.5s-21.5 31.166 -26.5 50.499s-5.5 40 -1.5 62c4 20.667 12.167 40.334 24.5 59.001s27.333 35.167 45 49.5
s37.5 25.666 59.5 33.999s44.667 12.5 68 12.5h9c2.66699 0 5.66699 -0.666992 9 -2l23 123c4.66699 28.667 -7.83301 51.834 -37.5 69.501s-70.5 29.167 -122.5 34.5c-46 4.66699 -88.333 7.16699 -127 7.5s-79 -0.5 -121 -2.5c12 38 28.667 75.167 50 111.5
s46.833 68.5 76.5 96.5s63.5 50.5 101.5 67.5s80 25.5 126 25.5c22 0 41.5 -2.33301 58.5 -7s32.667 -9.83398 47 -15.501l40 -15.5c12.333 -4.66699 24.833 -7 37.5 -7c13.333 0 26.333 4.33301 39 13s24.667 19.334 36 32.001zM391.002 150.002
c3.33301 15.333 0.833008 28 -7.5 38s-20.166 15 -35.499 15s-28.833 -5 -40.5 -15s-19.167 -22.667 -22.5 -38s-0.833008 -28.166 7.5 -38.499s20.166 -15.5 35.499 -15.5s28.833 5.16699 40.5 15.5s19.167 23.166 22.5 38.499z" />
    <glyph glyph-name="uni0E24" unicode="&#xe24;" horiz-adv-x="819" 
d="M412 -307l169.998 879.995c4 22 3 41.333 -3 58s-15.333 30.5 -28 41.5s-27.834 19.167 -45.501 24.5s-35.834 8 -54.501 8c-40 0 -75 -6.66699 -105 -20s-53.333 -27.333 -70 -42c26 -13.333 48 -27.5 66 -42.5s33.667 -32.833 47 -53.5c-36 -10.667 -66 -28 -90 -52
s-39 -52.333 -45 -85l-21 -107c3.33301 1.33301 6.5 2 9.5 2h9.5c22.667 0 43.334 -4.16699 62.001 -12.5s34 -19.666 46 -33.999s20.5 -30.833 25.5 -49.5s5.5 -38.334 1.5 -59.001c-4 -22 -12.333 -42.667 -25 -62s-28 -36.166 -46 -50.499s-38.167 -25.833 -60.5 -34.5
s-45.5 -13 -69.5 -13c-27.333 0 -51 4.16699 -71 12.5s-36.333 19.833 -49 34.5s-21.167 32.334 -25.5 53.001s-4.16602 43.334 0.500977 68.001l49 258c2.66699 16 8.16699 31.333 16.5 46s18.333 28 30 40s24.334 22.5 38.001 31.5s27.167 16.167 40.5 21.5
c-8.66699 7.33301 -19 14.5 -31 21.5s-24.667 13.833 -38 20.5s-27 12.667 -41 18s-27 10 -39 14c24 28.667 50.833 55.667 80.5 81s61.834 47.333 96.501 66s71.667 33.334 111 44.001s81 16 125 16c43.333 0 83 -5.66699 119 -17s66.333 -28.166 91 -50.499
s42.167 -50 52.5 -83s11.5 -71.167 3.5 -114.5l-170 -878h-163zM273.998 149.995c3.33301 15.333 0.833008 28 -7.5 38s-20.166 15 -35.499 15s-28.833 -5 -40.5 -15s-19.167 -22.667 -22.5 -38s-0.833008 -28.166 7.5 -38.499s20.166 -15.5 35.499 -15.5
s28.833 5.16699 40.5 15.5s19.167 23.166 22.5 38.499z" />
    <glyph glyph-name="uni0E25" unicode="&#xe25;" horiz-adv-x="848" 
d="M686 113c-8 -42 -23.3398 -71.3379 -46.0068 -88.0049s-55 -25 -97 -25h-84l-86 389c-4 16.667 -10.167 29.667 -18.5 39s-24.166 14 -47.499 14c-18.667 0 -33.667 -5.66699 -45 -17s-18.666 -24.666 -21.999 -39.999l-17 -82c3.33301 1.33301 6.5 2 9.5 2h9.5
c22.667 0 43.334 -4.16699 62.001 -12.5s34 -19.666 46 -33.999s20.5 -30.833 25.5 -49.5s5.5 -38.334 1.5 -59.001c-4 -22 -12.333 -42.667 -25 -62s-28.167 -36.166 -46.5 -50.499s-38.666 -25.833 -60.999 -34.5s-45.166 -13 -68.499 -13c-27.333 0 -51 4.16699 -71 12.5
s-36.333 19.833 -49 34.5s-21.167 32.334 -25.5 53.001s-4.16602 43.334 0.500977 68.001l47 237c4.66699 24.667 13.834 47.167 27.501 67.5s29.667 38 48 53s37.833 27.167 58.5 36.5s40.667 15.666 60 18.999c36 7.33301 67.667 9.66602 95 6.99902
s50.833 -9.16699 70.5 -19.5s35.5 -24 47.5 -41s20.333 -35.833 25 -56.5l25 -115c2 -11.333 4 -26.666 6 -45.999s3.66699 -38.666 5 -57.999c1.33301 -11.333 2.33301 -23 3 -35l2 -37h4c1.33301 15.333 2.5 30.333 3.5 45s2.16699 29.334 3.5 44.001
c2 24.667 4.33301 49.834 7 75.501s5.66699 47.167 9 64.5l28 152c8.66699 46 -0.833008 83.167 -28.5 111.5s-70.5 42.5 -128.5 42.5c-25.333 0 -49.666 -3.16699 -72.999 -9.5s-45 -15.166 -65 -26.499s-38 -25.333 -54 -42s-28.667 -35.334 -38 -56.001h-168
c16 42 38.167 79.5 66.5 112.5s61.333 60.667 99 83s79.167 39.5 124.5 51.5s92.666 18 141.999 18c50 0 94.833 -6 134.5 -18s72.5 -28.833 98.5 -50.5s44.667 -47.834 56 -78.501s13.333 -65 6 -103zM263.993 149.995c3.33301 15.333 0.833008 28 -7.5 38
s-20.166 15 -35.499 15s-28.833 -5 -40.5 -15s-19.167 -22.667 -22.5 -38s-0.833008 -28.166 7.5 -38.499s20.166 -15.5 35.499 -15.5s28.833 5.16699 40.5 15.5s19.167 23.166 22.5 38.499z" />
    <glyph glyph-name="uni0E26" unicode="&#xe26;" horiz-adv-x="891" 
d="M483 -307l166.002 859.996c4 22 4.16699 42.333 0.5 61s-11 34.667 -22 48s-25.333 23.833 -43 31.5s-38.5 11.5 -62.5 11.5c-40 0 -74.833 -6.66699 -104.5 -20s-52.834 -27.333 -69.501 -42c25.333 -13.333 47.166 -27.5 65.499 -42.5s34.166 -32.833 47.499 -53.5
c-36 -10.667 -66 -28 -90 -52s-39 -52.333 -45 -85l-35 -177c6 -11.333 9.33301 -24.166 10 -38.499s-0.666016 -28.5 -3.99902 -42.5c-4 -22 -12.333 -42.833 -25 -62.5s-28.334 -36.834 -47.001 -51.501s-39.167 -26.334 -61.5 -35.001s-44.833 -13 -67.5 -13
c-23.333 0 -44.333 4.33301 -63 13s-34.334 20.334 -47.001 35.001s-21.667 31.834 -27 51.501s-6 40.5 -2 62.5c4 20 11.833 39.333 23.5 58s26 35.334 43 50.001s35.833 26.667 56.5 36s41.667 15 63 17l19 103c2.66699 16 8.16699 31.333 16.5 46s18.333 28 30 40
s24.334 22.5 38.001 31.5s27.167 16.167 40.5 21.5c-8.66699 7.33301 -19.167 14.5 -31.5 21.5s-25.166 13.833 -38.499 20.5s-27 12.667 -41 18s-27 10 -39 14c24 28.667 50.833 55.667 80.5 81s62 47.333 97 66s72.167 33.334 111.5 44.001s81 16 125 16
c43.333 0 83 -5.66699 119 -17s66.333 -28.166 91 -50.499s42.167 -50 52.5 -83s11.5 -71.167 3.5 -114.5l-170 -878h-164zM180.002 151.996c3.33301 15.333 0.833008 28 -7.5 38s-20.166 15 -35.499 15s-28.833 -5 -40.5 -15s-19.167 -22.667 -22.5 -38
s-0.833008 -28.166 7.5 -38.499s20.166 -15.5 35.499 -15.5s28.833 5.16699 40.5 15.5s19.167 23.166 22.5 38.499z" />
    <glyph glyph-name="uni0E27" unicode="&#xe27;" horiz-adv-x="733" 
d="M580 158c-4.66699 -24.667 -13.1699 -47.333 -25.5029 -68s-27.833 -38.334 -46.5 -53.001s-39.834 -26.167 -63.501 -34.5s-48.834 -12.5 -75.501 -12.5c-24 0 -45.5 4.33301 -64.5 13s-34.667 20.167 -47 34.5s-21.166 31.166 -26.499 50.499s-6 40 -2 62
c4 20.667 12.167 40.334 24.5 59.001s27.5 35.167 45.5 49.5s38 25.666 60 33.999s44.333 12.5 67 12.5h9c2.66699 0 5.66699 -0.666992 9 -2l48 250c4.66699 24.667 4.83398 46.334 0.500977 65.001s-12.166 34.5 -23.499 47.5s-25.833 22.833 -43.5 29.5
s-37.834 10 -60.501 10c-23.333 0 -45.166 -3.66699 -65.499 -11s-38.666 -17.166 -54.999 -29.499s-30.333 -26.666 -42 -42.999s-20.5 -33.166 -26.5 -50.499h-170c12.667 43.333 32.334 81.5 59.001 114.5s57.5 60.667 92.5 83s73.167 39.166 114.5 50.499s83 17 125 17
c46 0 87 -6.33301 123 -19s65.833 -30.334 89.5 -53.001s40.167 -50.167 49.5 -82.5s10.333 -67.833 3 -106.5zM448.997 150.001c3.33301 15.333 0.833008 28 -7.5 38s-20.166 15 -35.499 15s-29 -5 -41 -15s-19.667 -22.667 -23 -38s-0.833008 -28.166 7.5 -38.499
s20.166 -15.5 35.499 -15.5s29 5.16699 41 15.5s19.667 23.166 23 38.499z" />
    <glyph glyph-name="uni0E28" unicode="&#xe28;" horiz-adv-x="868" 
d="M938 825c-22.667 -34.667 -49.668 -60.8408 -81.001 -78.5078s-61 -29.5 -89 -35.5c27.333 -48.667 35 -104 23 -166l-107 -545h-164l103 526c4 22 4.33301 43.5 1 64.5s-11 39.833 -23 56.5s-28.833 30.334 -50.5 41.001s-48.834 16.334 -81.501 17.001
c-30.667 0.666992 -59.167 -3.5 -85.5 -12.5s-49.666 -21.167 -69.999 -36.5s-37.166 -33.166 -50.499 -53.499s-22.333 -41.5 -27 -63.5c-5.33301 -21.333 -8.83301 -43.333 -10.5 -66l-4.5 -63c0 -6 -1.33301 -16.667 -4 -32s-5.66699 -31.333 -9 -48l-13 -62h4l19 59
l15.5 47.5c5 15.667 9.16699 27.5 12.5 35.5c8 20.667 16.667 41.334 26 62.001s19.666 38.667 30.999 54c21.333 32 45.333 55.333 72 70s58 22 94 22c20.667 0 39.167 -3.66699 55.5 -11s29.666 -17.166 39.999 -29.499s17.5 -27 21.5 -44s4 -35.167 0 -54.5
s-11.167 -37.666 -21.5 -54.999s-23.166 -32.333 -38.499 -45s-32.5 -22.667 -51.5 -30s-39.167 -11 -60.5 -11c-11.333 0 -22.166 1.33301 -32.499 4s-20.833 6 -31.5 10c-11.333 -21.333 -24.166 -47 -38.499 -77l-43.5 -94.5l-42.5 -97l-35.5 -83.5h-165l28 150
c8 39.333 12.167 75 12.5 107s-0.166992 62.833 -1.5 92.5s-2 59.667 -2 90s3.33301 63.5 10 99.5c7.33301 38 23 75 47 111s54.5 67.667 91.5 95s80 49.333 129 66s102.5 25 160.5 25c21.333 0 40.666 -1.16699 57.999 -3.5s33 -4.66602 47 -6.99902
s26.333 -4.66602 37 -6.99902s20 -3.5 28 -3.5c22.667 0 46.5 8.5 71.5 25.5s44.833 40.5 59.5 70.5zM493.999 476.993c3.33301 14.667 0.49707 27.167 -8.50293 37.5s-20.5 15.5 -34.5 15.5c-14.667 0 -28.167 -5.16699 -40.5 -15.5s-20.166 -22.833 -23.499 -37.5
c-2 -14 1 -26.333 9 -37s19.333 -16 34 -16s28.334 5.33301 41.001 16s20.334 23 23.001 37z" />
    <glyph glyph-name="uni0E29" unicode="&#xe29;" horiz-adv-x="911" 
d="M911 475c-26.667 -22.667 -50.002 -39.999 -70.002 -51.999s-39.667 -22.667 -59 -32l-34 -184c-6.66699 -34 -16.167 -64 -28.5 -90s-28.666 -47.667 -48.999 -65s-45.833 -30.333 -76.5 -39s-67.667 -13 -111 -13h-493l24 129c22.667 0 41 0.833008 55 2.5
s25.167 4.83398 33.5 9.50098s14.333 10.667 18 18s6.5 17 8.5 29l64 328c-3.33301 -1.33301 -6.5 -2 -9.5 -2h-9.5c-23.333 0 -44.166 4.16699 -62.499 12.5s-33.5 19.666 -45.5 33.999s-20.5 30.833 -25.5 49.5s-5.5 38.667 -1.5 60s12.333 41.666 25 60.999
s28 36.166 46 50.499s38.167 25.833 60.5 34.5s45.5 13 69.5 13c26.667 0 50.167 -4.16699 70.5 -12.5s36.666 -19.833 48.999 -34.5s20.833 -32.167 25.5 -52.5s4.66699 -42.833 0 -67.5l-102 -529h170c22.667 0 41.667 1.33301 57 4s28.166 7.5 38.499 14.5
s18.5 16.5 24.5 28.5s11 27.667 15 47l16 84c-18.667 -5.33301 -38.667 -9.66602 -60 -12.999s-41.666 -4.33301 -60.999 -3c-22 0.666992 -42 4.16699 -60 10.5s-32.833 15.333 -44.5 27s-20 25.667 -25 42s-5.5 34.833 -1.5 55.5c4 18.667 11 36.167 21 52.5
s22.333 30.166 37 41.499s30.834 20.333 48.501 27s36.167 10 55.5 10s36.833 -3.33301 52.5 -10s28.5 -15.667 38.5 -27s17 -25.166 21 -41.499s4.33301 -33.833 1 -52.5l75 389h164c-3.33301 -18.667 -7 -37 -11 -55s-7.66699 -35.667 -11 -53l-33 -170
c4 4 8.66699 8 14 12s10.333 8.66699 15 14zM534.998 430.001c2 13.333 -0.666992 24.5 -8 33.5s-17 13.5 -29 13.5c-13.333 0 -25.5 -4.5 -36.5 -13.5s-17.5 -20.167 -19.5 -33.5c-3.33301 -12 -1 -22.5 7 -31.5s18.667 -13.5 32 -13.5c12.667 0 24 4.5 34 13.5
s16.667 19.5 20 31.5zM257.998 670.001c2 15.333 -0.833008 28 -8.5 38s-19.167 15 -34.5 15s-29.166 -5 -41.499 -15s-19.5 -22.667 -21.5 -38c-3.33301 -15.333 -0.833008 -28.166 7.5 -38.499s20.166 -15.5 35.499 -15.5s28.833 5.16699 40.5 15.5
s19.167 23.166 22.5 38.499z" />
    <glyph glyph-name="uni0E2A" unicode="&#xe2a;" horiz-adv-x="866" 
d="M936 823c-23.333 -34 -50.1729 -59.8369 -80.5059 -77.5039s-60.833 -30.5 -91.5 -38.5c17.333 -34.667 22 -75 14 -121l-92 -473c-8 -42 -23.333 -71.333 -46 -88s-55 -25 -97 -25h-84l-86 389c-4 16.667 -10.167 29.667 -18.5 39s-24.166 14 -47.499 14
c-18.667 0 -33.667 -5.66699 -45 -17s-18.666 -24.666 -21.999 -39.999l-17 -82c3.33301 1.33301 6.5 2 9.5 2h9.5c22.667 0 43.334 -4.16699 62.001 -12.5s34 -19.666 46 -33.999s20.5 -30.833 25.5 -49.5s5.5 -38.334 1.5 -59.001c-4 -22 -12.333 -42.667 -25 -62
s-28.167 -36.166 -46.5 -50.499s-38.666 -25.833 -60.999 -34.5s-45.166 -13 -68.499 -13c-27.333 0 -51 4.16699 -71 12.5s-36.333 19.833 -49 34.5s-21.167 32.334 -25.5 53.001s-4.16602 43.334 0.500977 68.001l47 237c4.66699 24.667 13.834 47.167 27.501 67.5
s29.667 38 48 53s37.833 27.167 58.5 36.5s40.667 15.666 60 18.999c36 7.33301 67.667 9.66602 95 6.99902s50.833 -9.16699 70.5 -19.5s35.5 -24 47.5 -41s20.333 -35.833 25 -56.5l25 -115c2 -11.333 4 -26.666 6 -45.999s3.66699 -38.666 5 -57.999
c1.33301 -11.333 2.33301 -23 3 -35l2 -37h4c1.33301 15.333 2.5 30.333 3.5 45s2.16699 29.334 3.5 44.001c2 24.667 4.33301 49.834 7 75.501s5.66699 47.167 9 64.5l28 152c8.66699 46 -0.833008 83.167 -28.5 111.5s-70.5 42.5 -128.5 42.5
c-25.333 0 -49.666 -3.16699 -72.999 -9.5s-45 -15.166 -65 -26.499s-38 -25.333 -54 -42s-28.667 -35.334 -38 -56.001h-168c16 42 38.167 79.5 66.5 112.5s61.333 60.667 99 83s79.167 39.5 124.5 51.5s92.666 18 141.999 18c24 0 45 -1.33301 63 -4
s34.5 -5.83398 49.5 -9.50098s28.833 -6.83398 41.5 -9.50098s25.667 -4 39 -4c10 0 20.667 2.33301 32 7s22.666 11.5 33.999 20.5s22 19.667 32 32s18.333 26.5 25 42.5zM263.993 149.996c3.33301 15.333 0.833008 28 -7.5 38s-20.166 15 -35.499 15s-28.833 -5 -40.5 -15
s-19.167 -22.667 -22.5 -38s-0.833008 -28.166 7.5 -38.499s20.166 -15.5 35.499 -15.5s28.833 5.16699 40.5 15.5s19.167 23.166 22.5 38.499z" />
    <glyph glyph-name="uni0E2B" unicode="&#xe2b;" horiz-adv-x="897" 
d="M864 678c-5.33301 -30 -16.832 -56.332 -34.499 -78.999s-36.167 -40.667 -55.5 -54c15.333 -10.667 24.333 -24.5 27 -41.5s2 -36.833 -2 -59.5l-86 -444h-164l80 416c2 11.333 3 20.666 3 27.999s-3.66699 11 -11 11c-5.33301 0 -14 -4.83301 -26 -14.5
s-25.333 -21.834 -40 -36.501s-29.5 -30.334 -44.5 -47.001s-28.167 -32 -39.5 -46c-19.333 -23.333 -39.166 -48.666 -59.499 -75.999l-59.5 -82.5c-19.333 -27.667 -37.333 -54.667 -54 -81s-30.667 -50.166 -42 -71.499h-164l101 516c-3.33301 -1.33301 -6.5 -2 -9.5 -2
h-9.5c-23.333 0 -44.166 4.16699 -62.499 12.5s-33.5 19.666 -45.5 33.999s-20.5 30.833 -25.5 49.5s-5.5 38.667 -1.5 60s12.333 41.666 25 60.999s28 36.166 46 50.499s38.167 25.833 60.5 34.5s45.5 13 69.5 13c26.667 0 50.167 -4.16699 70.5 -12.5
s36.666 -19.833 48.999 -34.5s20.833 -32.167 25.5 -52.5s4.66699 -42.833 0 -67.5l-55 -287c-1.33301 -7.33301 -3.83301 -16.166 -7.5 -26.499l-10.5 -29.5c-2 -5.33301 -4 -11 -6 -17s-4.33301 -11.667 -7 -17h4l20 31l16 25.5c5.33301 8.33301 9.66602 14.5 12.999 18.5
c9.33301 12.667 22.166 27.834 38.499 45.501s34.166 35.834 53.499 54.501s39.166 36.334 59.499 53.001s38.833 30 55.5 40c-5.33301 4 -10.5 10 -15.5 18s-9.5 17.333 -13.5 28s-6.66699 22.667 -8 36s-0.666016 27.666 2.00098 42.999c4 21.333 12.333 41.666 25 60.999
s28.334 36.166 47.001 50.499s39 25.666 61 33.999s44.667 12.5 68 12.5c22.667 0 43.5 -4.16699 62.5 -12.5s34.833 -19.666 47.5 -33.999s21.667 -31.166 27 -50.499s6 -39.666 2 -60.999zM748.001 676.001c3.33301 15.333 0.833008 28 -7.5 38s-20.166 15 -35.499 15
s-29 -5 -41 -15s-19.667 -22.667 -23 -38s-0.833008 -28 7.5 -38s20.166 -15 35.499 -15s29 5 41 15s19.667 22.667 23 38zM258.001 670.001c2 15.333 -0.833008 28 -8.5 38s-19.167 15 -34.5 15s-29.166 -5 -41.499 -15s-19.5 -22.667 -21.5 -38
c-3.33301 -15.333 -0.833008 -28.166 7.5 -38.499s20.166 -15.5 35.499 -15.5s28.833 5.16699 40.5 15.5s19.167 23.166 22.5 38.499z" />
    <glyph glyph-name="uni0E2C" unicode="&#xe2c;" horiz-adv-x="991" 
d="M1071 948c-13.333 -24.667 -29.3291 -46.8301 -47.9961 -66.4971s-37.334 -35.5 -56.001 -47.5c3.33301 -5.33301 5.33301 -12.333 6 -21s-0.666016 -20.334 -3.99902 -35.001l-127 -655c-5.33301 -27.333 -12.833 -49.166 -22.5 -65.499s-21 -28.666 -34 -36.999
s-27.333 -13.833 -43 -16.5s-31.834 -4 -48.501 -4h-108l-43 449l-240 -449h-94c-16.667 0 -31.834 1.33301 -45.501 4s-24.834 8.16699 -33.501 16.5s-14.334 20.666 -17.001 36.999s-1.33398 38.166 3.99902 65.499l76 393c-3.33301 -1.33301 -6.5 -2 -9.5 -2h-9.5
c-23.333 0 -44.166 4.16699 -62.499 12.5s-33.5 19.666 -45.5 33.999s-20.5 30.833 -25.5 49.5s-5.5 38.667 -1.5 60s12.333 41.666 25 60.999s28 36.166 46 50.499s38.167 25.833 60.5 34.5s45.5 13 69.5 13c54 0 94.333 -14.833 121 -44.5s34.667 -70.5 24 -122.5
l-49 -254c-2.66699 -14.667 -6.66699 -33.5 -12 -56.5l-16 -67.5l-21 -81h4l28 62l29 62.5c10.667 23 22.334 46.167 35.001 69.5l137 258h123l39 -260c3.33301 -23.333 5.83301 -46.5 7.5 -69.5l4.5 -61.5c0.666992 -11.333 1.16699 -22 1.5 -32s0.5 -19.667 0.5 -29h4
l13 81l20 124l64 325c-48 -16.667 -93 -26 -135 -28c-33.333 -1.33301 -62.333 1.66699 -87 9s-45 18 -61 32s-27.167 30.5 -33.5 49.5s-7.5 39.833 -3.5 62.5c4 20.667 12.833 40.834 26.5 60.501s31.5 36.834 53.5 51.501s47.5 26.167 76.5 34.5
s60.833 12.166 95.5 11.499c76.667 -2 136 -22 178 -60c5.33301 7.33301 11.166 15.833 17.499 25.5l23.5 36.5zM772.004 852.004c-4 18.667 -12.999 32.1689 -26.999 40.502s-29.667 13.166 -47 14.499c-8 0.666992 -16.833 0.166992 -26.5 -1.5s-18.667 -4.5 -27 -8.5
s-15.333 -9.16699 -21 -15.5s-8.83398 -13.5 -9.50098 -21.5c-1.33301 -8.66699 0.166992 -15.834 4.5 -21.501s10 -10 17 -13s15 -5 24 -6s17.833 -1.16699 26.5 -0.5c14.667 1.33301 30.167 4.83301 46.5 10.5s29.5 13.167 39.5 22.5zM258.005 670.006
c2 15.333 -0.833008 28 -8.5 38s-19.167 15 -34.5 15s-29.166 -5 -41.499 -15s-19.5 -22.667 -21.5 -38c-3.33301 -15.333 -0.833008 -28.166 7.5 -38.499s20.166 -15.5 35.499 -15.5s28.833 5.16699 40.5 15.5s19.167 23.166 22.5 38.499z" />
    <glyph glyph-name="uni0E2D" unicode="&#xe2d;" horiz-adv-x="825" 
d="M682 209c-7.33301 -36.667 -16.9971 -68.1699 -28.9971 -94.5029s-28.167 -48 -48.5 -65s-45.666 -29.5 -75.999 -37.5s-67.166 -12 -110.499 -12h-408l76 391c4.66699 25.333 13.334 48.333 26.001 69s28.167 38.334 46.5 53.001s39.333 26 63 34s48.834 12 75.501 12
c23.333 0 44.5 -4.33301 63.5 -13s34.667 -20.334 47 -35.001s21.166 -31.667 26.499 -51s6 -39.666 2 -60.999s-12.167 -41.166 -24.5 -59.499s-27.333 -34.5 -45 -48.5s-37.5 -25 -59.5 -33s-44.333 -12 -67 -12c-7.33301 0 -13 0.666992 -17 2l-22 -115h186
c22 0 40.667 1.16699 56 3.5s28.166 6.83301 38.499 13.5s18.666 16.167 24.999 28.5s11.5 28.5 15.5 48.5l64 328c9.33301 46 1 82.5 -25 109.5s-66.333 40.5 -121 40.5c-23.333 0 -46 -3.16699 -68 -9.5s-42.833 -15.333 -62.5 -27s-37.334 -25.667 -53.001 -42
s-28.834 -34.833 -39.501 -55.5h-170c19.333 44.667 43.833 83.667 73.5 117s63 61 100 83s77.167 38.333 120.5 49s88.666 16 135.999 16c48.667 0 91.667 -6.16699 129 -18.5s68.166 -29.666 92.499 -51.999s41.333 -49 51 -80s11.167 -64.833 4.5 -101.5z
M324.003 398.997c3.33301 15.333 0.833008 28.166 -7.5 38.499s-20.166 15.5 -35.499 15.5s-29 -5.16699 -41 -15.5s-19.667 -23.166 -23 -38.499s-0.833008 -28 7.5 -38s20.166 -15 35.499 -15s29 5 41 15s19.667 22.667 23 38z" />
    <glyph glyph-name="uni0E2E" unicode="&#xe2e;" horiz-adv-x="825" 
d="M852 776c-10 -14 -19.3291 -26.168 -27.9961 -36.501s-17 -19.5 -25 -27.5s-16 -15.333 -24 -22l-25 -20c2 -10.667 2.66699 -21.5 2 -32.5s-2 -22.833 -4 -35.5l-76 -393c-7.33301 -36.667 -17 -68.167 -29 -94.5s-28.167 -48 -48.5 -65s-45.666 -29.5 -75.999 -37.5
s-67.166 -12 -110.499 -12h-408l68 350c4.66699 25.333 13.167 48.333 25.5 69s27.666 38.334 45.999 53.001s39.333 26 63 34s49.167 12 76.5 12c23.333 0 44.5 -4.33301 63.5 -13s34.667 -20.334 47 -35.001s21.166 -31.667 26.499 -51s6 -39.666 2 -60.999
s-12.167 -41.166 -24.5 -59.499s-27.5 -34.5 -45.5 -48.5s-38 -25 -60 -33s-44.333 -12 -67 -12h-9c-2.66699 0 -5 0.666992 -7 2l-15 -74h187c22 0 40.667 1.16699 56 3.5s28.166 6.83301 38.499 13.5s18.666 16.167 24.999 28.5s11.5 28.5 15.5 48.5l66 340
c-6 -2.66699 -15.333 -5.83398 -28 -9.50098s-27.334 -7.33398 -44.001 -11.001s-34.834 -7.16699 -54.501 -10.5s-39.167 -6 -58.5 -8c-34 -3.33301 -68.833 -2.83301 -104.5 1.5s-67.5 12.333 -95.5 24s-50 27 -66 46s-21.333 41.167 -16 66.5
c4.66699 24.667 17.5 47.667 38.5 69s47.667 40 80 56s69 28.333 110 37s83.5 12.667 127.5 12c40 -1.33301 77.333 -6.66602 112 -15.999s65 -23.333 91 -42c9.33301 8.66699 19.833 20.167 31.5 34.5s23.5 32.833 35.5 55.5zM545.004 687.999
c-11.333 10.667 -29.168 20.166 -53.501 28.499s-50.833 11.833 -79.5 10.5c-12.667 -0.666992 -26.5 -2.16699 -41.5 -4.5s-29 -5.66602 -42 -9.99902s-24.167 -10 -33.5 -17s-14.666 -15.5 -15.999 -25.5c-2 -7.33301 0.333008 -13.333 7 -18s16 -8.16699 28 -10.5
s26 -3.5 42 -3.5s32.667 1 50 3c50 6 96.333 21.667 139 47zM305.002 357.998c3.33301 15.333 0.833008 28.166 -7.5 38.499s-20.166 15.5 -35.499 15.5s-28.833 -5.16699 -40.5 -15.5s-19.167 -23.166 -22.5 -38.499s-0.833008 -28 7.5 -38s20.166 -15 35.499 -15
s28.833 5 40.5 15s19.167 22.667 22.5 38z" />
    <glyph glyph-name="uni0E2F" unicode="&#xe2f;" horiz-adv-x="729" 
d="M381 0l114.997 588c-12 -10 -27.5 -21.167 -46.5 -33.5s-40.667 -23.833 -65 -34.5s-50.833 -19.5 -79.5 -26.5s-58.667 -10.5 -90 -10.5c-28.667 0 -55 4.5 -79 13.5s-44.167 21.833 -60.5 38.5s-28 36.667 -35 60s-7.5 49.666 -1.5 78.999
c4 21.333 12.333 41.5 25 60.5s28 35.5 46 49.5s38 25 60 33s44.667 12 68 12c22.667 0 43.334 -4 62.001 -12s34.167 -19 46.5 -33s21.166 -30.5 26.499 -49.5s6 -39.167 2 -60.5c-1.33301 -7.33301 -3 -13.833 -5 -19.5s-4.66699 -12.167 -8 -19.5
c16.667 6 33.834 14.5 51.501 25.5s34.834 24.167 51.501 39.5s31.834 33 45.501 53s24.5 42 32.5 66h61c20.667 0 37 -2 49 -6s21 -10.167 27 -18.5s9 -19.166 9 -32.499s-1.66699 -29 -5 -47l-139 -715h-164zM261.997 674c3.33301 15.333 0.833008 28 -7.5 38
s-20.166 15 -35.499 15s-28.833 -5 -40.5 -15s-19.167 -22.667 -22.5 -38s-0.833008 -28 7.5 -38s20.166 -15 35.499 -15s28.833 5 40.5 15s19.167 22.667 22.5 38z" />
    <glyph glyph-name="uni0E30" unicode="&#xe30;" horiz-adv-x="762" 
d="M762 791c-12 -53.333 -32.665 -99.832 -61.998 -139.499s-63.833 -72.5 -103.5 -98.5s-83 -45.5 -130 -58.5s-93.833 -19.5 -140.5 -19.5c-42 0 -78.333 5 -109 15s-55.5 23.667 -74.5 41s-32.167 37.833 -39.5 61.5s-8.33301 49.5 -3 77.5c4 21.333 12 41.166 24 59.499
s26.5 34.166 43.5 47.499s35.833 23.666 56.5 30.999s41.667 11 63 11s40.666 -3.66699 57.999 -11s31.666 -17.5 42.999 -30.5s19.166 -28.167 23.499 -45.5s4.5 -36 0.5 -56c-2 -11.333 -5.5 -22.166 -10.5 -32.499s-10.5 -20.166 -16.5 -29.499
c20.667 0 42.334 4 65.001 12s44 19.667 64 35s37.5 33.833 52.5 55.5s25.5 46.5 31.5 74.5h164zM670.002 315.001c-12 -53.333 -32.665 -99.666 -61.998 -138.999s-63.833 -72 -103.5 -98s-83 -45.5 -130 -58.5s-94.167 -19.5 -141.5 -19.5c-41.333 0 -77.333 5 -108 15
s-55.667 23.667 -75 41s-32.833 37.833 -40.5 61.5s-8.83398 49.5 -3.50098 77.5c4 21.333 12 41.166 24 59.499s26.667 34.166 44 47.499s36.5 23.666 57.5 30.999s42.167 11 63.5 11s40.666 -3.66699 57.999 -11s31.5 -17.5 42.5 -30.5s18.667 -28.167 23 -45.5
s4.5 -36 0.5 -56c-2 -11.333 -5.33301 -22.166 -10 -32.499s-10 -20.166 -16 -29.499c20.667 0 42.167 4 64.5 12s43.333 19.5 63 34.5s37.167 33.5 52.5 55.5s26.333 46.667 33 74h164zM307.004 676.001c3.33301 13.333 0.999023 24.833 -7.00098 34.5
s-18.667 14.5 -32 14.5s-25.666 -4.83301 -36.999 -14.5s-18.666 -21.167 -21.999 -34.5c-2 -13.333 0.666992 -24.833 8 -34.5s17.666 -14.5 30.999 -14.5s26 4.83301 38 14.5s19 21.167 21 34.5zM215.003 201.001c3.33301 13.333 0.999023 24.833 -7.00098 34.5
s-18.667 14.5 -32 14.5s-25.666 -4.83301 -36.999 -14.5s-18.666 -21.167 -21.999 -34.5c-2 -13.333 0.666992 -24.833 8 -34.5s17.666 -14.5 30.999 -14.5s26 4.83301 38 14.5s19 21.167 21 34.5z" />
    <glyph glyph-name="uni0E31" unicode="&#xe31;" 
d="M297 1239c-11.333 -48.667 -31.666 -91.499 -60.999 -128.499s-64 -68 -104 -93s-83.833 -43.833 -131.5 -56.5s-95.5 -19 -143.5 -19c-40 0 -76.5 4.33301 -109.5 13s-60.667 21.167 -83 37.5s-38.333 36 -48 59s-11.5 49.167 -5.5 78.5
c4 19.333 11.5 37.666 22.5 54.999s24.667 32.5 41 45.5s35 23.167 56 30.5s43.167 11 66.5 11s43.666 -3.83301 60.999 -11.5s31.5 -18 42.5 -31s18.5 -27.667 22.5 -44s4.33301 -33.166 1 -50.499c-2 -10.667 -6 -23.334 -12 -38.001s-12 -26 -18 -34
c27.333 -1.33301 54 1.83398 80 9.50098s49.667 19.167 71 34.5s39.5 34.166 54.5 56.499s25.5 47.5 31.5 75.5h166zM-180 1135c2 13.333 -1.00098 24.833 -9.00098 34.5s-18.667 14.5 -32 14.5s-25.666 -4.83301 -36.999 -14.5s-18.333 -21.167 -21 -34.5
c-3.33301 -13.333 -1 -25 7 -35s18.667 -15 32 -15s25.833 5 37.5 15s19.167 21.667 22.5 35z" />
    <glyph glyph-name="uni0E32" unicode="&#xe32;" horiz-adv-x="692" 
d="M344 0l106.997 553.001c9.33301 50 4.33301 87.833 -15 113.5s-50 38.5 -92 38.5c-21.333 0 -41.166 -3.83301 -59.499 -11.5s-34.833 -17.667 -49.5 -30s-27 -26.666 -37 -42.999s-17.333 -32.833 -22 -49.5h-170c12.667 43.333 31.334 81.5 56.001 114.5
s53.5 60.667 86.5 83s69 39.166 108 50.499s79.167 17 120.5 17c43.333 0 81.833 -6.33301 115.5 -19s61.334 -30.334 83.001 -53.001s36.5 -50.167 44.5 -82.5s8.33301 -67.833 1 -106.5l-113 -575h-164z" />
    <glyph glyph-name="uni0E33" unicode="&#xe33;" horiz-adv-x="692" 
d="M133 1104c-4.66699 -24 -13.499 -46.667 -26.499 -68s-29.167 -40 -48.5 -56s-41.5 -28.667 -66.5 -38s-51.5 -14 -79.5 -14s-52.667 4.66699 -74 14s-38.5 22 -51.5 38s-21.833 34.667 -26.5 56s-4.66699 44 0 68s13.5 46.667 26.5 68s29.167 40 48.5 56
s41.333 28.667 66 38s51 14 79 14s52.667 -4.66699 74 -14s38.666 -22 51.999 -38s22.333 -34.667 27 -56s4.66699 -44 0 -68zM344.001 0l106.997 553.001c9.33301 50 4.33301 87.833 -15 113.5s-50 38.5 -92 38.5c-21.333 0 -41.166 -3.83301 -59.499 -11.5
s-34.833 -17.667 -49.5 -30s-27 -26.666 -37 -42.999s-17.333 -32.833 -22 -49.5h-170c12.667 43.333 31.334 81.5 56.001 114.5s53.5 60.667 86.5 83s69 39.166 108 50.499s79.167 17 120.5 17c43.333 0 81.833 -6.33301 115.5 -19s61.334 -30.334 83.001 -53.001
s36.5 -50.167 44.5 -82.5s8.33301 -67.833 1 -106.5l-113 -575h-164zM17.998 1104c3.33301 18.667 -0.332031 34.5 -10.999 47.5s-26.667 19.5 -48 19.5s-39.833 -6.5 -55.5 -19.5s-25.167 -28.833 -28.5 -47.5c-4 -18.667 -0.833008 -34.667 9.5 -48s26.166 -20 47.499 -20
s40 6.66699 56 20s26 29.333 30 48z" />
    <glyph glyph-name="uni0E34" unicode="&#xe34;" 
d="M-8 901c-41.333 16 -89.001 28.666 -143.001 37.999s-109.833 15.5 -167.5 18.5s-115.167 3 -172.5 0s-110 -8.83301 -158 -17.5c8 40.667 23 77.834 45 111.501s48.833 62.5 80.5 86.5s66.834 42.667 105.501 56s79 20 121 20c50 0 94.667 -7 134 -21
s71.833 -34.5 97.5 -61.5s43.667 -59.833 54 -98.5s11.5 -82.667 3.5 -132zM-174.001 1026c-4 12.667 -10.668 23.832 -20.001 33.499s-20.166 17.834 -32.499 24.501s-25.833 11.667 -40.5 15s-29.334 5 -44.001 5c-34 0 -64.167 -6.5 -90.5 -19.5
s-46.166 -29.167 -59.499 -48.5c21.333 4 44.5 6.83301 69.5 8.5s50.333 2.16699 76 1.5s50.667 -2.66699 75 -6s46.5 -8 66.5 -14z" />
    <glyph glyph-name="uni0E35" unicode="&#xe35;" 
d="M-8 901c-41.333 16 -89.001 28.666 -143.001 37.999s-109.833 15.5 -167.5 18.5s-115.167 3 -172.5 0s-110 -8.83301 -158 -17.5c8 40.667 23 77.834 45 111.501s48.833 62.5 80.5 86.5s66.834 42.667 105.501 56s79 20 121 20c36 0 69 -3.66699 99 -11
s55.667 -19.333 77 -36l21 113h163zM-174.001 1026c-4 12.667 -10.668 23.832 -20.001 33.499s-20.166 17.834 -32.499 24.501s-25.833 11.667 -40.5 15s-29.334 5 -44.001 5c-34 0 -64.167 -6.5 -90.5 -19.5s-46.166 -29.167 -59.499 -48.5c21.333 4 44.5 6.83301 69.5 8.5
s50.333 2.16699 76 1.5s50.667 -2.66699 75 -6s46.5 -8 66.5 -14z" />
    <glyph glyph-name="uni0E36" unicode="&#xe36;" 
d="M102 1157c-6 -30 -18.834 -55.832 -38.501 -77.499s-45.5 -36.834 -77.5 -45.501c10 -38.667 12 -83 6 -133c-41.333 16 -89 28.667 -143 38s-109.833 15.5 -167.5 18.5s-115.167 3 -172.5 0s-110 -8.83301 -158 -17.5c8 40.667 23 77.834 45 111.501
s48.833 62.5 80.5 86.5s66.834 42.667 105.501 56s79 20 121 20c50.667 0 89.667 -8 117 -24c5.33301 16 13.5 30.167 24.5 42.5s23.667 22.666 38 30.999s29.833 14.833 46.5 19.5s33.667 7 51 7c21.333 0 40.5 -3.5 57.5 -10.5s31 -16.667 42 -29s18.5 -26.5 22.5 -42.5
s4 -33 0 -51zM7.99902 1157c3.33301 14.667 1 26.834 -7 36.501s-19.333 14.5 -34 14.5c-14 0 -26.833 -4.83301 -38.5 -14.5s-19.167 -21.834 -22.5 -36.501s-1 -26.834 7 -36.501s19.333 -14.5 34 -14.5c14 0 26.833 4.83301 38.5 14.5s19.167 21.834 22.5 36.501z
M-174.001 1026c-4 12.667 -10.668 23.832 -20.001 33.499s-20.166 17.834 -32.499 24.501s-25.833 11.667 -40.5 15s-29.334 5 -44.001 5c-34 0 -64.167 -6.5 -90.5 -19.5s-46.166 -29.167 -59.499 -48.5c21.333 4 44.5 6.83301 69.5 8.5s50.333 2.16699 76 1.5
s50.667 -2.66699 75 -6s46.5 -8 66.5 -14z" />
    <glyph glyph-name="uni0E37" unicode="&#xe37;" 
d="M-8 901c-41.333 16 -89.001 28.666 -143.001 37.999s-109.833 15.5 -167.5 18.5s-115.167 3 -172.5 0s-110 -8.83301 -158 -17.5c8 40.667 23 77.834 45 111.501s48.833 62.5 80.5 86.5s66.834 42.667 105.501 56s79 20 121 20h21.5c7 0 13.5 -0.666992 19.5 -2l12 68
h123l-16 -94c10 -4 19.5 -9 28.5 -15s17.167 -12 24.5 -18l25 127h122zM-174.001 1026c-4 12.667 -10.668 23.832 -20.001 33.499s-20.166 17.834 -32.499 24.501s-25.833 11.667 -40.5 15s-29.334 5 -44.001 5c-34 0 -64.167 -6.5 -90.5 -19.5
s-46.166 -29.167 -59.499 -48.5c21.333 4 44.5 6.83301 69.5 8.5s50.333 2.16699 76 1.5s50.667 -2.66699 75 -6s46.5 -8 66.5 -14z" />
    <glyph glyph-name="uni0E38" unicode="&#xe38;" 
d="M-449 -512l28.998 143c-21.333 0 -40.666 3.66699 -57.999 11s-31.666 17.5 -42.999 30.5s-19.166 28.333 -23.499 46s-4.5 36.5 -0.5 56.5s11.667 38.667 23 56s25.166 32.5 41.499 45.5s34.833 23.167 55.5 30.5s42.334 11 65.001 11c22 0 42.167 -3.16699 60.5 -9.5
s33.666 -15.666 45.999 -27.999s21 -27.333 26 -45s5.16699 -37.834 0.5 -60.501l-58 -287h-164zM-352.002 -221c3.33301 13.333 1 24.833 -7 34.5s-18.667 14.5 -32 14.5s-25.833 -4.83301 -37.5 -14.5s-19.167 -21.167 -22.5 -34.5s-1 -24.833 7 -34.5
s18.667 -14.5 32 -14.5s25.833 4.83301 37.5 14.5s19.167 21.167 22.5 34.5z" />
    <glyph glyph-name="uni0E39" unicode="&#xe39;" 
d="M-248 -328c-5.33301 -26 -12.6699 -49.168 -22.0029 -69.501s-22.166 -37.5 -38.499 -51.5s-37 -24.667 -62 -32s-55.833 -11 -92.5 -11h-227l24 123c-21.333 0 -40.666 3.66699 -57.999 11s-31.666 17.5 -42.999 30.5s-19.166 28.333 -23.499 46s-4.5 36.5 -0.5 56.5
s11.667 38.667 23 56s25.166 32.5 41.499 45.5s34.833 23.167 55.5 30.5s42.334 11 65.001 11c22 0 42.167 -3.16699 60.5 -9.5s33.666 -15.666 45.999 -27.999s21 -27.333 26 -45s5.16699 -37.834 0.5 -60.501l-29 -146h27c12.667 0 22.834 1 30.501 3
s13.667 5.33301 18 10s7.66602 10.334 9.99902 17.001s4.5 14.667 6.5 24l45 229h164zM-598.004 -221.001c3.33301 13.333 1 24.833 -7 34.5s-18.667 14.5 -32 14.5s-25.666 -4.83301 -36.999 -14.5s-18.666 -21.167 -21.999 -34.5s-1 -24.833 7 -34.5
s18.667 -14.5 32 -14.5s25.666 4.83301 36.999 14.5s18.666 21.167 21.999 34.5z" />
    <glyph glyph-name="uni0E3A" unicode="&#xe3a;" 
d="M-190 -195c-3.33301 -15.333 -9.33691 -29.833 -18.0039 -43.5s-19.167 -25.5 -31.5 -35.5s-26 -18 -41 -24s-30.167 -9 -45.5 -9s-29.166 3 -41.499 9s-22.666 14 -30.999 24s-14.166 21.833 -17.499 35.5s-3.33301 28.167 0 43.5
c2.66699 15.333 8.33398 29.833 17.001 43.5s19 25.667 31 36s25.333 18.5 40 24.5s29.667 9 45 9s29.333 -3 42 -9s23.167 -14.167 31.5 -24.5s14.333 -22.333 18 -36s4.16699 -28.167 1.5 -43.5z" />
    <glyph glyph-name="uni0E3F" unicode="&#xe3f;" horiz-adv-x="934" 
d="M889 725c-9.33301 -48 -28.1689 -88.332 -56.502 -120.999s-65.5 -59.334 -111.5 -80.001c54 -16 91.167 -45.5 111.5 -88.5s24.833 -94.5 13.5 -154.5c-10 -49.333 -27.667 -91.666 -53 -126.999s-55.666 -64.5 -90.999 -87.5s-74 -39.833 -116 -50.5
s-84.333 -16 -127 -16h-49l-27 -137h-78l27 137h-332l188 965h332l27 137h78l-27 -137h35c44.667 0 84.834 -4 120.501 -12s65 -21.5 88 -40.5s38.833 -43.833 47.5 -74.5s8.66699 -68.334 0 -113.001zM679.997 690.001c4 21.333 3.5 39 -1.5 53s-13 25.167 -24 33.5
s-24.333 14.333 -40 18s-32.167 5.83398 -49.5 6.50098l-45 -228h8c36 0 68.333 9.16699 97 27.5s47 48.166 55 89.499zM316.997 573.001h125l45 228h-125zM640.997 293.001c4.66699 24.667 5.00098 45.6689 1.00098 63.002s-11.5 31.5 -22.5 42.5s-25.167 19 -42.5 24
s-37 7.5 -59 7.5h-24l-52 -264h21c20.667 0 40.5 2 59.5 6s36.5 10.667 52.5 20s29.667 22.166 41 38.499s19.666 37.166 24.999 62.499zM239.998 166.003h125l51 264h-125z" />
    <glyph glyph-name="uni0E40" unicode="&#xe40;" horiz-adv-x="522" 
d="M418 150c-4 -22 -12.3369 -42.6699 -25.0039 -62.0029s-28.167 -36.166 -46.5 -50.499s-38.666 -25.833 -60.999 -34.5s-45.166 -13 -68.499 -13c-27.333 0 -51 4.16699 -71 12.5s-36.333 19.833 -49 34.5s-21.167 32.334 -25.5 53.001s-4.16602 43.334 0.500977 68.001
l129 661h164l-101 -516c3.33301 1.33301 6.5 2 9.5 2h9.5c22.667 0 43.334 -4.16699 62.001 -12.5s34 -19.666 46 -33.999s20.5 -30.833 25.5 -49.5s5.5 -38.334 1.5 -59.001zM304.996 149.997c3.33301 15.333 0.833008 28 -7.5 38s-20.166 15 -35.499 15
s-28.833 -5 -40.5 -15s-19.167 -22.667 -22.5 -38s-0.833008 -28.166 7.5 -38.499s20.166 -15.5 35.499 -15.5s28.833 5.16699 40.5 15.5s19.167 23.166 22.5 38.499z" />
    <glyph glyph-name="uni0E41" unicode="&#xe41;" horiz-adv-x="932" 
d="M827 150c-4 -22 -12.335 -42.6699 -25.002 -62.0029s-28 -36.166 -46 -50.499s-38.167 -25.833 -60.5 -34.5s-45.166 -13 -68.499 -13c-27.333 0 -51.166 4.16699 -71.499 12.5s-36.833 19.833 -49.5 34.5s-21.167 32.334 -25.5 53.001s-4.16602 43.334 0.500977 68.001
l129 661h164l-100 -516c3.33301 1.33301 6.33301 2 9 2h9c23.333 0 44.166 -4.16699 62.499 -12.5s33.5 -19.666 45.5 -33.999s20.5 -30.833 25.5 -49.5s5.5 -38.334 1.5 -59.001zM417.998 149.997c-4 -22 -12.3369 -42.6699 -25.0039 -62.0029
s-28.167 -36.166 -46.5 -50.499s-38.666 -25.833 -60.999 -34.5s-45.166 -13 -68.499 -13c-27.333 0 -51 4.16699 -71 12.5s-36.333 19.833 -49 34.5s-21.167 32.334 -25.5 53.001s-4.16602 43.334 0.500977 68.001l129 661h164l-101 -516c3.33301 1.33301 6.5 2 9.5 2h9.5
c22.667 0 43.334 -4.16699 62.001 -12.5s34 -19.666 46 -33.999s20.5 -30.833 25.5 -49.5s5.5 -38.334 1.5 -59.001zM714.994 149.994c3.33301 15.333 0.833008 28 -7.5 38s-20.166 15 -35.499 15s-29 -5 -41 -15s-19.667 -22.667 -23 -38s-0.833008 -28.166 7.5 -38.499
s20.166 -15.5 35.499 -15.5s29 5.16699 41 15.5s19.667 23.166 23 38.499zM304.994 149.994c3.33301 15.333 0.833008 28 -7.5 38s-20.166 15 -35.499 15s-28.833 -5 -40.5 -15s-19.167 -22.667 -22.5 -38s-0.833008 -28.166 7.5 -38.499s20.166 -15.5 35.499 -15.5
s28.833 5.16699 40.5 15.5s19.167 23.166 22.5 38.499z" />
    <glyph glyph-name="uni0E42" unicode="&#xe42;" horiz-adv-x="563" 
d="M788 1327c-28 -30.667 -59.0068 -54.002 -93.0068 -70.002s-71 -24 -111 -24c-21.333 0 -40.333 2.83301 -57 8.5s-33 11.667 -49 18s-32.167 12.333 -48.5 18s-34.5 8.5 -54.5 8.5c-17.333 0 -31.833 -3.33301 -43.5 -10s-21.167 -13.667 -28.5 -21
c64.667 -9.33301 108.834 -28.5 132.501 -57.5s30.834 -67.833 21.501 -116.5l-152 -778c-1.33301 -2.66699 0.666992 -3 6 -1s9.66602 3 12.999 3c22.667 0 43.334 -4.16699 62.001 -12.5s34 -19.666 46 -33.999s20.5 -30.833 25.5 -49.5s5.5 -38.334 1.5 -59.001
c-4 -22 -12.333 -42.667 -25 -62s-28.167 -36.166 -46.5 -50.499s-38.666 -25.833 -60.999 -34.5s-45.166 -13 -68.499 -13c-27.333 0 -51 4.16699 -71 12.5s-36.333 19.833 -49 34.5s-21.167 32.334 -25.5 53.001s-4.16602 43.334 0.500977 68.001l176 903
c3.33301 19.333 0 35.333 -10 48s-25 23 -45 31s-43.667 14.167 -71 18.5s-56.333 7.83301 -87 10.5c16 42.667 35.833 80 59.5 112s50.334 58.333 80.001 79s61.5 35.834 95.5 45.501s69 14.167 105 13.5c20.667 -0.666992 39.167 -3.33398 55.5 -8.00098
s31.5 -9.83398 45.5 -15.501s27.667 -10.667 41 -15s28 -6.5 44 -6.5c18.667 0 35.834 5.5 51.501 16.5s30.5 24.167 44.5 39.5zM345.993 149.998c3.33301 15.333 0.833008 28 -7.5 38s-20.166 15 -35.499 15s-28.833 -5 -40.5 -15s-19.167 -22.667 -22.5 -38
s-0.833008 -28.166 7.5 -38.499s20.166 -15.5 35.499 -15.5s28.833 5.16699 40.5 15.5s19.167 23.166 22.5 38.499z" />
    <glyph glyph-name="uni0E43" unicode="&#xe43;" horiz-adv-x="563" 
d="M598 1249c-7.33301 -37.333 -18.833 -67.0039 -34.5 -89.0039s-32.167 -42 -49.5 -60s-33.5 -36.5 -48.5 -55.5s-25.5 -44.167 -31.5 -75.5l-129 -666c3.33301 1.33301 6.5 2 9.5 2h9.5c22.667 0 43.334 -4.16699 62.001 -12.5s34 -19.666 46 -33.999
s20.5 -30.833 25.5 -49.5s5.5 -38.334 1.5 -59.001c-4 -22 -12.333 -42.667 -25 -62s-28.167 -36.166 -46.5 -50.499s-38.666 -25.833 -60.999 -34.5s-45.166 -13 -68.499 -13c-27.333 0 -51 4.16699 -71 12.5s-36.333 19.833 -49 34.5s-21.167 32.334 -25.5 53.001
s-4.16602 43.334 0.500977 68.001l166 856c4.66699 26 14 46.5 28 61.5s29.167 29.5 45.5 43.5s31.833 29.667 46.5 47s25 41 31 71c5.33301 28.667 -0.333984 51.834 -17.001 69.501s-45 25.834 -85 24.501c8 -8 14.667 -20 20 -36s6 -35.333 2 -58
c-4 -20 -11.667 -38.667 -23 -56s-25 -32.166 -41 -44.499s-33.833 -22.166 -53.5 -29.499s-39.834 -11 -60.501 -11c-21.333 0 -40.333 3.66699 -57 11s-30.667 17.166 -42 29.499s-19.333 27.166 -24 44.499s-5.33398 36 -2.00098 56c6 32 19 61.167 39 87.5
s44.667 49.166 74 68.499s62 34.333 98 45s73 16 111 16c34 0 66.167 -4.5 96.5 -13.5s56.5 -22.333 78.5 -40s38.167 -39.167 48.5 -64.5s12.166 -54.333 5.49902 -87zM250 1235c3.33301 13.333 1.00098 24.833 -6.99902 34.5s-18.667 14.5 -32 14.5
s-25.666 -4.83301 -36.999 -14.5s-18.666 -21.167 -21.999 -34.5c-2.66699 -13.333 0.166016 -24.833 8.49902 -34.5s19.166 -14.5 32.499 -14.5s25.666 4.83301 36.999 14.5s18 21.167 20 34.5zM346.001 149.996c3.33301 15.333 0.833008 28 -7.5 38s-20.166 15 -35.499 15
s-28.833 -5 -40.5 -15s-19.167 -22.667 -22.5 -38s-0.833008 -28.166 7.5 -38.499s20.166 -15.5 35.499 -15.5s28.833 5.16699 40.5 15.5s19.167 23.166 22.5 38.499z" />
    <glyph glyph-name="uni0E44" unicode="&#xe44;" horiz-adv-x="563" 
d="M602 1225c-16.667 -2.66699 -33.0029 -8.33496 -49.0029 -17.002s-30.5 -19 -43.5 -31s-24 -25.333 -33 -40s-14.833 -29 -17.5 -43l-154 -791c-1.33301 -2.66699 0.666992 -3 6 -1s9.66602 3 12.999 3c22.667 0 43.334 -4.16699 62.001 -12.5s34 -19.666 46 -33.999
s20.5 -30.833 25.5 -49.5s5.5 -38.334 1.5 -59.001c-4 -22 -12.333 -42.667 -25 -62s-28.167 -36.166 -46.5 -50.499s-38.666 -25.833 -60.999 -34.5s-45.166 -13 -68.499 -13c-27.333 0 -51 4.16699 -71 12.5s-36.333 19.833 -49 34.5s-21.167 32.334 -25.5 53.001
s-4.16602 43.334 0.500977 68.001l180 929c4 20 10.667 38.5 20 55.5s20.5 32.167 33.5 45.5s27.167 25 42.5 35s31 18 47 24c2 6.66699 -1 12.5 -9 17.5s-18.667 7.5 -32 7.5s-27 -2.83301 -41 -8.5s-27.833 -13.334 -41.5 -23.001s-26.667 -21 -39 -34
s-22.833 -26.833 -31.5 -41.5c-7.33301 14 -19.166 29.5 -35.499 46.5s-35.5 33.5 -57.5 49.5s-46.333 30.5 -73 43.5s-54 22.5 -82 28.5l162 101c30.667 -10.667 56.5 -25.667 77.5 -45s36.833 -39.333 47.5 -60c7.33301 7.33301 17.166 15.333 29.499 24s26 16.667 41 24
s31.167 13.5 48.5 18.5s35 7.5 53 7.5c58.667 0 101 -15.667 127 -47s33.333 -75 22 -131zM345.997 149.999c3.33301 15.333 0.833008 28 -7.5 38s-20.166 15 -35.499 15s-28.833 -5 -40.5 -15s-19.167 -22.667 -22.5 -38s-0.833008 -28.166 7.5 -38.499
s20.166 -15.5 35.499 -15.5s28.833 5.16699 40.5 15.5s19.167 23.166 22.5 38.499z" />
    <glyph glyph-name="uni0E45" unicode="&#xe45;" horiz-adv-x="694" 
d="M287 -307l165.997 860.001c9.33301 50 4.33301 87.833 -15 113.5s-50 38.5 -92 38.5c-21.333 0 -41.166 -3.83301 -59.499 -11.5s-34.833 -17.667 -49.5 -30s-27 -26.666 -37 -42.999s-17.333 -32.833 -22 -49.5h-170c12.667 43.333 31.334 81.5 56.001 114.5
s53.5 60.667 86.5 83s69 39.166 108 50.499s79.167 17 120.5 17c43.333 0 81.833 -6.33301 115.5 -19s61.334 -30.334 83.001 -53.001s36.5 -50.167 44.5 -82.5s8.33301 -67.833 1 -106.5l-172 -882h-164z" />
    <glyph glyph-name="uni0E46" unicode="&#xe46;" horiz-adv-x="803" 
d="M760 616c-4 -21.333 -13.1592 -40.666 -27.4922 -57.999s-29.5 -34.166 -45.5 -50.499l-45.5 -48.5c-14.333 -16 -23.5 -33 -27.5 -51l-139 -715h-164l142 733c3.33301 19.333 11.666 36.5 24.999 51.5s27.833 29 43.5 42s30.167 25.833 43.5 38.5
s21.666 26.667 24.999 42c0.666992 6 -0.5 13.333 -3.5 22s-7 17 -12 25s-10.667 14.833 -17 20.5s-11.833 8.5 -16.5 8.5c-4 0 -10.833 -2.5 -20.5 -7.5s-20.167 -10.833 -31.5 -17.5s-22.5 -13.667 -33.5 -21s-19.5 -13.333 -25.5 -18
c-6.66699 5.33301 -15.334 11.666 -26.001 18.999s-22.5 14.666 -35.5 21.999s-26.667 14.166 -41 20.499s-28.5 11.166 -42.5 14.499c25.333 -12 45.166 -31 59.499 -57s18.166 -55.333 11.499 -88c-4.66699 -22 -13.334 -42.333 -26.001 -61s-27.834 -35 -45.501 -49
s-37.334 -24.833 -59.001 -32.5s-44.167 -11.5 -67.5 -11.5c-22 0 -42.667 3.83301 -62 11.5s-35.833 18.834 -49.5 33.501s-23.5 32.5 -29.5 53.5s-6.33301 44.833 -1 71.5c6 29.333 19.333 57.833 40 85.5s45.167 53.5 73.5 77.5s59 45.667 92 65
s64.833 35.666 95.5 48.999c10.667 -4 23.167 -9.33301 37.5 -16s28.333 -13.667 42 -21s26.167 -14.5 37.5 -21.5s19.666 -12.833 24.999 -17.5c6.66699 4 18.167 10.167 34.5 18.5l51 25.5c17.667 8.66699 34.334 16.167 50.001 22.5s26.5 9.5 32.5 9.5
c7.33301 0 15.833 -4.16699 25.5 -12.5s19.667 -19 30 -32s20.5 -27.833 30.5 -44.5s18.667 -33.167 26 -49.5s13 -31.666 17 -45.999s5.33301 -26.166 4 -35.499zM244.008 543c2 15.333 -0.833984 28 -8.50098 38s-19.167 15 -34.5 15s-29.333 -5 -42 -15
s-20 -22.667 -22 -38c-3.33301 -15.333 -1.16602 -28.166 6.50098 -38.499s19.167 -15.5 34.5 -15.5s29.333 5.16699 42 15.5s20.667 23.166 24 38.499z" />
    <glyph glyph-name="uni0E47" unicode="&#xe47;" 
d="M106 1374c-6 -33.333 -18.5029 -62.167 -37.5029 -86.5s-41.667 -44.333 -68 -60s-55.333 -27.167 -87 -34.5s-63.5 -10.333 -95.5 -9c-10 0.666992 -21 1.16699 -33 1.5s-24.167 0.333008 -36.5 0s-24.166 -0.833008 -35.499 -1.5s-20.666 -1.33398 -27.999 -2.00098
c-9.33301 -1.33301 -19.333 -4 -30 -8s-20.834 -9.5 -30.501 -16.5s-18.167 -15.333 -25.5 -25s-12.333 -20.5 -15 -32.5c-3.33301 -15.333 -1.5 -27 5.5 -35s13.5 -12 19.5 -12l100 94c10.667 -15.333 22.334 -27.166 35.001 -35.499s23.667 -13.5 33 -15.5
c12 20.667 29.333 38.334 52 53.001s51 22 85 22c19.333 0 36.333 -3.33301 51 -10s26.5 -15.834 35.5 -27.501s15 -25 18 -40s2.83301 -30.5 -0.5 -46.5c-3.33301 -17.333 -10.166 -33.5 -20.499 -48.5s-23 -28.167 -38 -39.5s-32.167 -20.333 -51.5 -27
s-39.333 -10 -60 -10c-32.667 0 -61.5 6.83301 -86.5 20.5s-45.833 31.167 -62.5 52.5l-64 -63h-67c-20.667 0 -40.334 3.5 -59.001 10.5s-34.334 17.667 -47.001 32s-21.5 32.166 -26.5 53.499s-4.5 46 1.5 74c4 22.667 12.667 44.834 26 66.501s30.833 41 52.5 58
s46.834 30.833 75.501 41.5s60.667 16.667 96 18c10 0.666992 21.667 1 35 1h40.5c13.667 0 26.834 -0.166992 39.501 -0.5s24 -0.5 34 -0.5c10.667 0 21.667 1.33301 33 4s22 7.33398 32 14.001s18.667 15.667 26 27s12 25.666 14 42.999h165zM-68.0029 1047
c3.33301 12 1.16602 22.833 -6.50098 32.5s-17.5 14.5 -29.5 14.5c-12.667 0 -24.667 -4.83301 -36 -14.5s-18.666 -20.5 -21.999 -32.5c-2 -12.667 1 -23.834 9 -33.501s18 -14.5 30 -14.5c12.667 0 24.5 4.83301 35.5 14.5s17.5 20.834 19.5 33.501z" />
    <glyph glyph-name="uni0E48" unicode="&#xe48;" 
d="M-88 1341l49 246h164l-49 -246h-164z" />
    <glyph glyph-name="uni0E49" unicode="&#xe49;" 
d="M322 1632c-15.333 -43.333 -37.5 -82.4941 -66.5 -117.494s-63.167 -65.833 -102.5 -92.5s-82.833 -48.334 -130.5 -65.001s-97.5 -28 -149.5 -34l-70 45c19.333 11.333 36.166 23.166 50.499 35.499s25.5 23.166 33.5 32.499c-16 1.33301 -30 5.16602 -42 11.499
s-21.833 14.333 -29.5 24s-13 20.5 -16 32.5s-3.16699 24.667 -0.5 38c3.33301 14.667 9.33301 28.834 18 42.501s19.5 25.667 32.5 36s28 18.666 45 24.999s35.167 9.5 54.5 9.5c41.333 0 71 -11.5 89 -34.5s23.667 -51.167 17 -84.5
c-3.33301 -16.667 -8.5 -31.5 -15.5 -44.5s-14.833 -24.833 -23.5 -35.5c20 8.66699 39.333 19.5 58 32.5s35.834 27.167 51.501 42.5s29.5 31.666 41.5 48.999s21.333 34.666 28 51.999h127zM-39 1544.01c4 24.667 -5.66699 37 -29 37c-24 0 -38.333 -12.333 -43 -37
c-2 -9.33301 -0.5 -17.166 4.5 -23.499s13.167 -9.5 24.5 -9.5s20.833 3.16699 28.5 9.5s12.5 14.166 14.5 23.499z" />
    <glyph glyph-name="uni0E4A" unicode="&#xe4a;" 
d="M371 1614c0 -39.333 -8.16699 -74.833 -24.5 -106.5s-37.333 -59.5 -63 -83.5s-54.5 -43.667 -86.5 -59s-63.667 -26 -95 -32l-55 47c12.667 12.667 24 26.5 34 41.5s17 32.167 21 51.5c3.33301 17.333 2.66602 33.5 -2.00098 48.5s-10.667 24.5 -18 28.5l-78 -51l-74 55
c-5.33301 -2 -11.333 -5.5 -18 -10.5s-12 -9.5 -16 -13.5c28 -2.66699 49.5 -13.5 64.5 -32.5s19.833 -40.167 14.5 -63.5c-5.33301 -30 -19.833 -54.333 -43.5 -73s-51.5 -28 -83.5 -28c-16 0 -30.5 2.83301 -43.5 8.5s-24 14 -33 25s-15.333 24.333 -19 40
s-3.83398 33.5 -0.500977 53.5c5.33301 26.667 14.833 50.334 28.5 71.001s29.667 38.667 48 54s38.333 28.333 60 39s43.167 19 64.5 25l67 -54l89 54c20 -4 38.333 -11 55 -21s30.334 -22.333 41.001 -37s17.334 -31.334 20.001 -50.001s0 -38.667 -8 -60
c8 8 15 17.667 21 29s10.5 23 13.5 35s4.5 24 4.5 36s-2 23 -6 33h121zM-100 1434c1.33301 7.33301 -0.999023 13.833 -6.99902 19.5s-12.667 8.5 -20 8.5c-10 0 -19 -2.83301 -27 -8.5s-12.667 -12.167 -14 -19.5c-2 -11.333 -0.333008 -19.666 5 -24.999s13.333 -8 24 -8
c7.33301 0 15.166 2.66699 23.499 8s13.5 13.666 15.5 24.999z" />
    <glyph glyph-name="uni0E4B" unicode="&#xe4b;" 
d="M82 1438l-19 -97h-139l19 97h-105l21 102h104l19 96h139l-19 -96h105l-21 -102h-104z" />
    <glyph glyph-name="uni0E4C" unicode="&#xe4c;" 
d="M225 1595c-7.33301 -23.333 -17.833 -43.0039 -31.5 -59.0039s-29 -29.333 -46 -40s-34.667 -19.167 -53 -25.5s-35.5 -11.166 -51.5 -14.499c8 -9.33301 14.167 -20.666 18.5 -33.999s4.83301 -27.333 1.5 -42c-3.33301 -16 -9.5 -31.167 -18.5 -45.5
s-20 -26.666 -33 -36.999s-27.833 -18.5 -44.5 -24.5s-34.334 -9 -53.001 -9c-14.667 0 -29 2.83301 -43 8.5s-26.167 14.167 -36.5 25.5s-18 25 -23 41s-5.5 34.667 -1.5 56c8 42 28.667 75.667 62 101s76 42 128 50c66.667 10.667 106.334 41.334 119.001 92.001z
M-23 1380c2.66699 10.667 1.16797 19.5 -4.49902 26.5s-13.5 10.5 -23.5 10.5c-10.667 0 -20.334 -3.5 -29.001 -10.5s-14 -15.833 -16 -26.5c-2 -10 0 -18.667 6 -26s14 -11 24 -11c10.667 0 20 3.66699 28 11s13 16 15 26z" />
    <glyph glyph-name="uni0E4D" unicode="&#xe4d;" 
d="M133 1104c-4.66699 -24 -13.499 -46.667 -26.499 -68s-29.167 -40 -48.5 -56s-41.5 -28.667 -66.5 -38s-51.5 -14 -79.5 -14s-52.667 4.66699 -74 14s-38.5 22 -51.5 38s-21.833 34.667 -26.5 56s-4.66699 44 0 68s13.5 46.667 26.5 68s29.167 40 48.5 56
s41.333 28.667 66 38s51 14 79 14s52.667 -4.66699 74 -14s38.666 -22 51.999 -38s22.333 -34.667 27 -56s4.66699 -44 0 -68zM18.001 1104c3.33301 18.667 -0.332031 34.5 -10.999 47.5s-26.667 19.5 -48 19.5s-39.833 -6.5 -55.5 -19.5s-25.167 -28.833 -28.5 -47.5
c-4 -18.667 -0.833008 -34.667 9.5 -48s26.166 -20 47.499 -20s40 6.66699 56 20s26 29.333 30 48z" />
    <glyph glyph-name="uni0E4E" unicode="&#xe4e;" 
d="M195 1336c-16.667 5.33301 -33.834 8.99805 -51.501 10.998s-36.167 3 -55.5 3c-23.333 0 -45.333 -1.66699 -66 -5s-39.334 -8.16602 -56.001 -14.499s-30.167 -14 -40.5 -23s-16.5 -18.833 -18.5 -29.5c-4.66699 -26.667 19.666 -36.667 72.999 -30l-21 -107
c-41.333 4 -86.333 0 -135 -12c-54 -14.667 -83.667 -34.667 -89 -60c-4 -21.333 13 -32 51 -32c34 0 69.333 9.33301 106 28l38 -98c-59.333 -28.667 -118 -43 -176 -43c-26.667 0 -50.667 3.16699 -72 9.5s-39.166 15.333 -53.499 27s-24.5 25.834 -30.5 42.501
s-7 35.334 -3 56.001c4 18.667 12.5 36.5 25.5 53.5s29.167 32 48.5 45s40.833 23.667 64.5 32s48.167 13.5 73.5 15.5c-33.333 14 -46.666 39 -39.999 75c5.33301 26 17.333 50.167 36 72.5s42.834 41.666 72.501 57.999s64.167 29.166 103.5 38.499s82.333 14 129 14
c18 0 36 -0.666992 54 -2s36.667 -3.66602 56 -6.99902l-23 -118v0z" />
    <glyph glyph-name="uni0E4F" unicode="&#xe4f;" horiz-adv-x="1004" 
d="M909 410c-11.333 -58 -33 -112.5 -65 -163.5s-70.667 -95.5 -116 -133.5s-95.5 -68 -150.5 -90s-111.5 -33 -169.5 -33s-110.333 11 -157 33s-85.334 52 -116.001 90s-52 82.5 -64 133.5s-12.333 105.5 -1 163.5s33 112.333 65 163s70.667 95 116 133s95.5 68 150.5 90
s111.5 33 169.5 33s110.333 -11 157 -33s85.334 -52 116.001 -90s52 -82.333 64 -133s12.333 -105 1 -163zM848 410c10 48.667 9.83398 94.834 -0.499023 138.501s-28.833 81.667 -55.5 114s-60 58 -100 77s-84.333 28.5 -133 28.5c-49.333 0 -97.5 -9.5 -144.5 -28.5
s-89.833 -44.667 -128.5 -77s-71.667 -70.333 -99 -114s-46 -89.834 -56 -138.501c-10 -49.333 -9.83301 -95.833 0.5 -139.5s28.666 -81.667 54.999 -114s59.5 -58 99.5 -77s84.667 -28.5 134 -28.5s97.5 9.5 144.5 28.5s89.833 44.667 128.5 77s71.667 70.333 99 114
s46 90.167 56 139.5zM745.001 410c-7.33301 -35.333 -20.667 -68.666 -40 -99.999s-42.666 -58.5 -69.999 -81.5s-57.666 -41.167 -90.999 -54.5s-68 -20 -104 -20c-35.333 0 -67.333 6.66699 -96 20s-52.5 31.5 -71.5 54.5s-32.167 50.167 -39.5 81.5
s-7.33301 64.666 0 99.999c6.66699 35.333 19.667 68.5 39 99.5s42.833 58.167 70.5 81.5s58.5 41.666 92.5 54.999s68.667 20 104 20s67.166 -6.66699 95.499 -20s51.833 -31.666 70.5 -54.999s31.667 -50.5 39 -81.5s7.66602 -64.167 0.999023 -99.5zM684 410
c5.33301 26.667 5.16699 51.667 -0.5 75s-15.834 43.833 -30.501 61.5s-32.834 31.667 -54.501 42s-45.834 15.5 -72.501 15.5c-26 0 -51.833 -5.16699 -77.5 -15.5s-49 -24.333 -70 -42s-39 -38.167 -54 -61.5s-24.833 -48.333 -29.5 -75
c-5.33301 -26.667 -5.16602 -51.834 0.500977 -75.501s15.5 -44.334 29.5 -62.001s31.833 -31.667 53.5 -42s45.834 -15.5 72.501 -15.5s52.834 5.16699 78.501 15.5s49 24.333 70 42s39 38.334 54 62.001s25.167 48.834 30.5 75.501z" />
    <glyph glyph-name="uni0E50" unicode="&#xe50;" horiz-adv-x="844" 
d="M750 307c-8.66699 -44 -24.665 -85.333 -47.998 -124s-53.166 -72.167 -89.499 -100.5s-78.333 -50.833 -126 -67.5s-100.5 -25 -158.5 -25c-58.667 0 -108.834 8.33301 -150.501 25s-75 39.167 -100 67.5s-41.5 61.833 -49.5 100.5s-7.66699 80 1 124
s24.5 85.333 47.5 124s52.5 72.334 88.5 101.001s78 51.334 126 68.001s101.333 25 160 25c57.333 0 106.833 -8.33301 148.5 -25s75.167 -39.334 100.5 -68.001s42.166 -62.334 50.499 -101.001s8.16602 -80 -0.500977 -124zM586.002 307
c4.66699 27.333 4.5 52.333 -0.5 75s-14.5 42.167 -28.5 58.5s-32 29 -54 38s-47.667 13.5 -77 13.5c-28.667 0 -56 -4.5 -82 -13.5s-49.333 -21.667 -70 -38s-38.167 -35.833 -52.5 -58.5s-23.833 -47.667 -28.5 -75c-5.33301 -27.333 -5.33301 -52.166 0 -74.499
s15.166 -41.666 29.499 -57.999s32.666 -29 54.999 -38s47.833 -13.5 76.5 -13.5s55.834 4.5 81.501 13.5s48.834 21.667 69.501 38s38 35.666 52 57.999s23.667 47.166 29 74.499z" />
    <glyph glyph-name="uni0E51" unicode="&#xe51;" horiz-adv-x="905" 
d="M809 295c-8 -42 -22.168 -81.665 -42.501 -118.998s-44.5 -71.833 -72.5 -103.5s-58.5 -60 -91.5 -85s-65.833 -46.167 -98.5 -63.5l-105 72c141.333 82 223.333 180.333 246 295c6 28.667 5.33301 55 -2 79s-19.666 44.5 -36.999 61.5s-39 30.167 -65 39.5
s-54.667 14 -86 14s-61.833 -4.5 -91.5 -13.5s-56.5 -21.833 -80.5 -38.5s-44.167 -36.334 -60.5 -59.001s-27.166 -47.667 -32.499 -75c-8 -42 -7.33301 -76.167 2 -102.5s21 -44.833 35 -55.5c-4 11.333 -7.33301 24 -10 38s-2 30.667 2 50
c3.33301 19.333 10.833 37.666 22.5 54.999s26 32.5 43 45.5s36 23.167 57 30.5s42.5 11 64.5 11c22.667 0 43 -4 61 -12s33 -19 45 -33s20.333 -31 25 -51s4.66699 -42 0 -66c-6 -28.667 -17.833 -56 -35.5 -82s-39.334 -48.833 -65.001 -68.5
s-54.167 -35.334 -85.5 -47.001s-63.666 -17.5 -96.999 -17.5c-34.667 0 -67.834 6.5 -99.501 19.5s-58.667 32.167 -81 57.5s-38.166 56.833 -47.499 94.5s-9 81.5 1 131.5c10 50.667 28.5 96.334 55.5 137.001s60.5 75.167 100.5 103.5s85 50 135 65s103 22.5 159 22.5
c62 0 115.833 -8.16699 161.5 -24.5s82.667 -39 111 -68s47.666 -63.667 57.999 -104s10.833 -84.833 1.5 -133.5zM425.999 215.002c3.33301 15.333 0.999023 28 -7.00098 38s-19.333 15 -34 15s-27.667 -5 -39 -15s-18.666 -22.667 -21.999 -38s-1 -28 7 -38
s19.333 -15 34 -15c14 0 26.833 5 38.5 15s19.167 22.667 22.5 38z" />
    <glyph glyph-name="uni0E52" unicode="&#xe52;" horiz-adv-x="1151" 
d="M1010 170c-11.333 -55.333 -35.501 -97.4971 -72.501 -126.497s-91.5 -43.5 -163.5 -43.5h-581c-70 0 -118.5 14.667 -145.5 44s-35.167 71.333 -24.5 126l92 475c4 22.667 0.5 43.667 -10.5 63s-34.167 33.333 -69.5 42l166 79
c20.667 -5.33301 37.5 -12.666 50.5 -21.999s22.667 -20.5 29 -33.5s9.83301 -27.333 10.5 -43s-0.666016 -32.5 -3.99902 -50.5l-94 -479c-5.33301 -24.667 -2.83301 -41.834 7.5 -51.501s30.833 -14.5 61.5 -14.5h496c30.667 0 52.667 4.83301 66 14.5
s22.666 26.834 27.999 51.501l47 243c3.33301 17.333 -0.333984 31 -11.001 41s-24.667 15 -42 15c-16.667 0 -31.667 -4.66699 -45 -14s-21.666 -21.666 -24.999 -36.999l-14 -72h-150l13 65c3.33301 17.333 -0.666992 33 -12 47s-31.333 21 -60 21
s-50.667 -6.16699 -66 -18.5s-24.666 -26.5 -27.999 -42.5l-2 -7c24 0.666992 44.667 -2.5 62 -9.5s31.166 -16.833 41.499 -29.5s17.333 -27.5 21 -44.5s3.83398 -34.833 0.500977 -53.5c-4 -18.667 -11.5 -36.334 -22.5 -53.001s-24.5 -31.334 -40.5 -44.001
s-33.5 -22.834 -52.5 -30.501s-38.5 -11.5 -58.5 -11.5c-24 0 -45.167 3.5 -63.5 10.5s-33.333 17.167 -45 30.5s-19.667 29.166 -24 47.499s-4.16602 39.166 0.500977 62.499l27 134c6 28.667 17 54.5 33 77.5s35.667 42.5 59 58.5s49.333 28.333 78 37s58.667 13 90 13
c46 0 81.5 -6 106.5 -18s42.833 -26.667 53.5 -44c16.667 17.333 40.167 32 70.5 44s61.5 18 93.5 18s60.333 -4.33301 85 -13s45 -20.5 61 -35.5s27.167 -32.667 33.5 -53s7.16602 -42.5 2.49902 -66.5zM482.999 305.003c2 13.333 -0.666016 24.833 -7.99902 34.5
s-17.666 14.5 -30.999 14.5s-26 -4.83301 -38 -14.5s-19 -21.167 -21 -34.5c-3.33301 -13.333 -1 -24.833 7 -34.5s18.667 -14.5 32 -14.5s25.666 4.83301 36.999 14.5s18.666 21.167 21.999 34.5z" />
    <glyph glyph-name="uni0E53" unicode="&#xe53;" horiz-adv-x="1014" 
d="M676 0l78.002 406.004c2 11.333 2.83301 22.166 2.5 32.499s-2.83301 19.5 -7.5 27.5s-11.667 14.333 -21 19s-22 7 -38 7c-24.667 0 -45.834 -7.16699 -63.501 -21.5s-28.5 -33.166 -32.5 -56.499l-80 -414h-156l80 408c2 8.66699 2 18 0 28s-6.33301 19.167 -13 27.5
s-15.834 15.166 -27.501 20.499s-26.167 8 -43.5 8c-30.667 0 -57.167 -7 -79.5 -21s-36.166 -34.333 -41.499 -61l-24 -123h16c22 0 41.5 -4 58.5 -12s31 -18.667 42 -32s18.5 -29 22.5 -47s4 -37 0 -57c-3.33301 -20 -10.666 -39 -21.999 -57s-25.333 -33.833 -42 -47.5
s-35.334 -24.5 -56.001 -32.5s-42 -12 -64 -12c-25.333 0 -48.166 4 -68.499 12s-37 19.167 -50 33.5s-21.833 31.833 -26.5 52.5s-4.33398 44 0.999023 70l52 264c6 32 17.667 60.833 35 86.5s38.666 47.167 63.999 64.5s54.333 30.666 87 39.999s67.334 14 104.001 14
c52.667 0 93.667 -8.16699 123 -24.5s48.666 -34.833 57.999 -55.5c8.66699 10 19.834 19.667 33.501 29s28.834 17.666 45.501 24.999s34.667 13.166 54 17.499s39 6.5 59 6.5c34.667 0 65 -4.66699 91 -14s47.167 -22.333 63.5 -39s27.666 -36.5 33.999 -59.5
s7.16602 -47.833 2.49902 -74.5l-86 -438h-164zM242.002 139.004c3.33301 14.667 0.833008 26.834 -7.5 36.501s-19.5 14.5 -33.5 14.5c-14.667 0 -27.834 -4.83301 -39.501 -14.5s-19.167 -21.834 -22.5 -36.501c-3.33301 -14 -0.833008 -26 7.5 -36s19.5 -15 33.5 -15
c14.667 0 27.834 5 39.501 15s19.167 22 22.5 36z" />
    <glyph glyph-name="uni0E54" unicode="&#xe54;" horiz-adv-x="877" 
d="M905 819c-6 -56.667 -20.9951 -105.675 -44.9951 -147.008s-54.833 -75.333 -92.5 -102s-81 -46.167 -130 -58.5s-101.833 -17.5 -158.5 -15.5c-33.333 0.666992 -65.5 -1 -96.5 -5s-59.167 -12.5 -84.5 -25.5s-47 -31.5 -65 -55.5s-30.667 -55.667 -38 -95
c-6.66699 -35.333 -6.66699 -64.833 0 -88.5s18.167 -42.167 34.5 -55.5s37.166 -21.666 62.499 -24.999s53.666 -2 84.999 4c-13.333 15.333 -24.333 33.333 -33 54s-10 47 -4 79c4.66699 23.333 13.5 44.666 26.5 63.999s28.667 35.833 47 49.5s38.5 24.334 60.5 32.001
s44.333 11.5 67 11.5s43.334 -3.83301 62.001 -11.5s34 -18.167 46 -31.5s20.5 -29.166 25.5 -47.499s5.5 -37.833 1.5 -58.5c-5.33301 -23.333 -15.833 -44.666 -31.5 -63.999s-35.167 -36.333 -58.5 -51c14.667 -4 30.5 -6.83301 47.5 -8.5s34.333 -3.66699 52 -6
s35.667 -5.83301 54 -10.5s36.166 -12 53.499 -22l-84 -139c-32.667 16 -66.334 26.167 -101.001 30.5s-66 6.5 -94 6.5c-16 0 -33 -1.66699 -51 -5l-59 -11.5c-21.333 -4.33301 -44 -8.16602 -68 -11.499s-50 -5 -78 -5c-44 0 -82.333 7.66699 -115 23
s-58.834 36.833 -78.501 64.5s-32.667 60.834 -39 99.501s-5.16602 81.334 3.50098 128.001c12 62.667 32.5 115 61.5 157s64.167 75.5 105.5 100.5s87.666 42.5 138.999 52.5s105 14 161 12c28.667 -1.33301 57.167 0.333984 85.5 5.00098s53.833 13.834 76.5 27.501
s41.167 33 55.5 58s22.166 57.5 23.499 97.5h168zM565.005 292.992c3.33301 14.667 1 26.834 -7 36.501s-19.333 14.5 -34 14.5c-14 0 -26.833 -4.83301 -38.5 -14.5s-19.167 -21.834 -22.5 -36.501s-1 -26.834 7 -36.501s19.333 -14.5 34 -14.5
c14 0 26.833 4.83301 38.5 14.5s19.167 21.834 22.5 36.501z" />
    <glyph glyph-name="uni0E55" unicode="&#xe55;" horiz-adv-x="877" 
d="M905 819c-11.333 -112.667 -51.9951 -196.509 -121.995 -251.509s-171.333 -80.167 -304 -75.5c-32.667 0.666992 -64.5 -1.16602 -95.5 -5.49902s-59.333 -13 -85 -26s-47.667 -31.167 -66 -54.5s-30.833 -53.666 -37.5 -90.999
c-6.66699 -35.333 -6.66699 -64.833 0 -88.5s18.167 -42.167 34.5 -55.5s37.166 -21.666 62.499 -24.999s53.666 -2 84.999 4c-13.333 14 -24.333 32.167 -33 54.5s-10 48.5 -4 78.5c4.66699 22.667 13.5 43.667 26.5 63s28.667 36 47 50s38.5 24.833 60.5 32.5
s44.333 11.5 67 11.5s43.334 -3.83301 62.001 -11.5s34 -18.167 46 -31.5s20.5 -29.166 25.5 -47.499s5.5 -37.833 1.5 -58.5c-5.33301 -23.333 -15.833 -44.666 -31.5 -63.999s-35.167 -36.333 -58.5 -51c14.667 -4 30.5 -6.83301 47.5 -8.5s34.333 -3.66699 52 -6
s35.667 -5.83301 54 -10.5s36.166 -12 53.499 -22l-84 -139c-32 15.333 -65.5 25.333 -100.5 30s-66.5 7 -94.5 7c-16 0 -33 -1.66699 -51 -5l-59 -11.5c-21.333 -4.33301 -44 -8.16602 -68 -11.499s-50 -5 -78 -5c-44 0 -82.333 7.66699 -115 23s-58.834 37 -78.501 65
s-32.5 61.333 -38.5 100s-4.33301 81.667 5 129c9.33301 48.667 23.333 89.834 42 123.501s40.5 61.834 65.5 84.501s52.167 40.834 81.5 54.501s59.666 24.5 90.999 32.5c-5.33301 11.333 -8.83301 23.5 -10.5 36.5s-0.833984 28.167 2.49902 45.5
c4 20.667 12.167 40.334 24.5 59.001s27.833 34.834 46.5 48.501s39.334 24.5 62.001 32.5s46.667 12 72 12c27.333 0 51.166 -3.83301 71.499 -11.5s36.666 -18.334 48.999 -32.001s20.833 -29.834 25.5 -48.501s5 -38.667 1 -60c-1.33301 -8 -3.83301 -16.833 -7.5 -26.5
s-8.5 -19.167 -14.5 -28.5c13.333 7.33301 26 17 38 29s22.667 26 32 42s16.833 33.667 22.5 53s8.83398 40 9.50098 62h170zM528.005 675.991c3.33301 14.667 1.00098 26.834 -6.99902 36.501s-19.333 14.5 -34 14.5c-14 0 -26.833 -4.83301 -38.5 -14.5
s-19.167 -21.834 -22.5 -36.501s-1 -26.834 7 -36.501s19.333 -14.5 34 -14.5s27.667 4.83301 39 14.5s18.666 21.834 21.999 36.501zM565.006 292.991c3.33301 14.667 1 26.834 -7 36.501s-19.333 14.5 -34 14.5c-14 0 -26.833 -4.83301 -38.5 -14.5
s-19.167 -21.834 -22.5 -36.501s-1 -26.834 7 -36.501s19.333 -14.5 34 -14.5c14 0 26.833 4.83301 38.5 14.5s19.167 21.834 22.5 36.501z" />
    <glyph glyph-name="uni0E56" unicode="&#xe56;" horiz-adv-x="811" 
d="M719 317c-8.66699 -44 -24.332 -85.8271 -46.999 -125.494s-51.834 -74.334 -87.501 -104.001s-77.5 -53.334 -125.5 -71.001s-101.333 -26.5 -160 -26.5c-50.667 0 -94.334 5.5 -131.001 16.5s-66.334 26.167 -89.001 45.5s-38.167 42.166 -46.5 68.499
s-9.5 54.5 -3.5 84.5c4 22 11.833 42 23.5 60s26 33.5 43 46.5s36 23 57 30s42.5 10.5 64.5 10.5s42.167 -3.83301 60.5 -11.5s33.5 -18.334 45.5 -32.001s20.5 -29.334 25.5 -47.001s5.5 -36.5 1.5 -56.5c-2 -12.667 -7 -27.167 -15 -43.5s-16.667 -29.166 -26 -38.499
c31.333 -1.33301 60.666 2.5 87.999 11.5s51.666 22 72.999 39s39.333 37.167 54 60.5s25 49 31 77c4.66699 26.667 5.33398 51.167 2.00098 73.5s-11.166 41.666 -23.499 57.999s-29.666 29 -51.999 38s-49.833 13.5 -82.5 13.5c-18.667 0 -37.167 -2.66699 -55.5 -8
s-35.833 -12.5 -52.5 -21.5s-31.667 -19.333 -45 -31s-24.333 -23.834 -33 -36.501l-135 17c0.666992 18 0.666992 40.333 0 67s-4.5 55.334 -11.5 86.001s-18.333 62 -34 94s-38.167 62.333 -67.5 91l162 79c20 -14 37.333 -31.833 52 -53.5s26.834 -44.5 36.501 -68.5
s16.667 -48 21 -72s6.16602 -45.333 5.49902 -64c9.33301 6.66699 20.666 13.5 33.999 20.5s28.5 13.5 45.5 19.5s35.5 10.833 55.5 14.5s41.667 5.5 65 5.5c56.667 0 104.834 -7.33301 144.501 -22s70.834 -35.834 93.501 -63.501s37.167 -61 43.5 -100
s4.83301 -82.5 -4.5 -130.5zM242.002 205.006c3.33301 14 0.833008 26 -7.5 36s-19.5 15 -33.5 15c-14.667 0 -27.834 -5 -39.501 -15s-19.167 -22 -22.5 -36c-2 -14.667 1.16699 -26.834 9.5 -36.501s19.5 -14.5 33.5 -14.5c14.667 0 27.834 4.83301 39.501 14.5
s18.5 21.834 20.5 36.501z" />
    <glyph glyph-name="uni0E57" unicode="&#xe57;" horiz-adv-x="1239" 
d="M1292 768c-29.333 -27.333 -51.832 -56.1611 -67.499 -86.4941s-27.667 -61.5 -36 -93.5s-14.333 -64.167 -18 -96.5s-8.16699 -63.833 -13.5 -94.5c-8 -52 -23.833 -101.167 -47.5 -147.5s-54.167 -87.5 -91.5 -123.5s-80.833 -66 -130.5 -90s-104.5 -40 -164.5 -48
l-102 75c28 19.333 49 39.833 63 61.5s23.667 45.167 29 70.5l41 211c2 11.333 2.83301 22.166 2.5 32.499s-2.83301 19.5 -7.5 27.5s-11.667 14.333 -21 19s-22 7 -38 7c-24.667 0 -45.834 -7.16699 -63.501 -21.5s-28.5 -33.166 -32.5 -56.499l-80 -414h-156l80 408
c2 8.66699 2 18 0 28s-6.33301 19.167 -13 27.5s-15.834 15.166 -27.501 20.499s-26.167 8 -43.5 8c-30.667 0 -57.167 -7 -79.5 -21s-36.166 -34.333 -41.499 -61l-24 -123h16c22 0 41.5 -4 58.5 -12s31 -18.667 42 -32s18.5 -29 22.5 -47s4 -37 0 -57
c-3.33301 -20 -10.666 -39 -21.999 -57s-25.333 -33.833 -42 -47.5s-35.334 -24.5 -56.001 -32.5s-42 -12 -64 -12c-25.333 0 -48.166 4 -68.499 12s-37 19.167 -50 33.5s-21.833 31.833 -26.5 52.5s-4.33398 44 0.999023 70l52 264c6 32 17.667 60.833 35 86.5
s38.666 47.167 63.999 64.5s54.333 30.666 87 39.999s67.334 14 104.001 14c52.667 0 93.667 -8.16699 123 -24.5s48.666 -34.833 57.999 -55.5c8.66699 10 19.834 19.667 33.501 29s28.834 17.666 45.501 24.999s34.667 13.166 54 17.499s39 6.5 59 6.5
c34.667 0 65 -4.66699 91 -14s47.167 -22.333 63.5 -39s27.666 -36.5 33.999 -59.5s7.16602 -47.833 2.49902 -74.5l-45 -229c-2 -10.667 -5 -20.167 -9 -28.5l-12 -24.5c16.667 10 32.834 22.833 48.501 38.5s29.834 35.167 42.501 58.5s23.667 50.666 33 81.999
s16 67.666 20 108.999c2.66699 34.667 5.83398 69 9.50098 103s10.167 67.333 19.5 100s22.666 64.5 39.999 95.5s40.666 60.5 69.999 88.5zM242.001 139.005c3.33301 14.667 0.833008 26.834 -7.5 36.501s-19.5 14.5 -33.5 14.5c-14.667 0 -27.834 -4.83301 -39.501 -14.5
s-19.167 -21.834 -22.5 -36.501c-3.33301 -14 -0.833008 -26 7.5 -36s19.5 -15 33.5 -15c14.667 0 27.834 5 39.501 15s19.167 22 22.5 36z" />
    <glyph glyph-name="uni0E58" unicode="&#xe58;" horiz-adv-x="938" 
d="M944 819c-5.33301 -68 -21.8291 -124.001 -49.4961 -168.001s-63.167 -78.5 -106.5 -103.5s-92.5 -41.833 -147.5 -50.5s-112.167 -12 -171.5 -10c-36 1.33301 -69.333 -0.833984 -100 -6.50098s-57.834 -16 -81.501 -31s-43.334 -35 -59.001 -60
s-26.834 -56.5 -33.501 -94.5c-4 -20 -6.66699 -39.333 -8 -58s-0.666016 -35.334 2.00098 -50.001s7.5 -26.334 14.5 -35.001s16.833 -13 29.5 -13c19.333 0 37.166 10.5 53.499 31.5s27.166 55.5 32.499 103.5h136c-8 -26 -11 -48.333 -9 -67s7.33301 -34 16 -46
s19.834 -21.167 33.501 -27.5s28.167 -9.83301 43.5 -10.5c8 -1.33301 17.167 -1.16602 27.5 0.500977s18.166 3.5 23.499 5.5c-30 8 -52.833 24.333 -68.5 49s-20.167 56 -13.5 94c4 22 12.167 42 24.5 60s27 33.333 44 46s35.667 22.5 56 29.5s40.833 10.5 61.5 10.5
c24 0 45.667 -4 65 -12s35.166 -19.833 47.499 -35.5s20.666 -34.834 24.999 -57.501s3.5 -48.334 -2.5 -77.001c-8 -42 -23.167 -78.5 -45.5 -109.5s-48 -56.5 -77 -76.5s-59.667 -35 -92 -45s-62.5 -15 -90.5 -15c-44 0 -79.333 6.33301 -106 19
s-46.667 29.334 -60 50.001c-8 -8 -17.333 -16.167 -28 -24.5s-22.5 -15.666 -35.5 -21.999s-27.167 -11.666 -42.5 -15.999s-31.666 -6.5 -48.999 -6.5c-40 0 -73 8.66699 -99 26s-45.833 40.333 -59.5 69s-21.667 61.667 -24 99s0.5 76.333 8.5 117
c12 64 32.167 117.333 60.5 160s62.5 76.667 102.5 102s84.667 42.833 134 52.5s101 13.5 155 11.5c38.667 -1.33301 75.667 0 111 4s66.333 12.833 93 26.5s47.834 33.334 63.501 59.001s23.5 59.834 23.5 102.501h172zM717.004 271.999c3.33301 14.667 1 27 -7 37
s-19.333 15 -34 15s-27.834 -5 -39.501 -15s-19.167 -22.333 -22.5 -37c-3.33301 -14 -0.833008 -26 7.5 -36s19.5 -15 33.5 -15c14.667 0 27.834 5 39.501 15s19.167 22 22.5 36z" />
    <glyph glyph-name="uni0E59" unicode="&#xe59;" horiz-adv-x="1057" 
d="M1112 745c-34 -20 -62.333 -41.999 -85 -65.999s-40.834 -48.5 -54.501 -73.5s-23.5 -49.833 -29.5 -74.5s-9.66699 -48 -11 -70l-152 -39c-4 21.333 -11.667 38.5 -23 51.5s-27.333 18.167 -48 15.5c-11.333 -1.33301 -22 -6.16602 -32 -14.499
s-18.5 -21.166 -25.5 -38.499s-12 -39.333 -15 -66s-2.83301 -58.667 0.5 -96c2 -19.333 5.83301 -39.333 11.5 -60s12.5 -40.5 20.5 -59.5s16.667 -35.833 26 -50.5s18.666 -25.334 27.999 -32.001l-170 -80c-15.333 18.667 -28.166 41 -38.499 67s-18.833 53.333 -25.5 82
s-12 57.667 -16 87s-7.33301 57 -10 83c-2 24.667 -5 48.167 -9 70.5s-10 42 -18 59s-18.5 30.5 -31.5 40.5s-29.167 15 -48.5 15c-17.333 0 -34.166 -4.33301 -50.499 -13s-31.5 -20.167 -45.5 -34.5s-26.167 -31.166 -36.5 -50.499s-17.833 -39.333 -22.5 -60
c-5.33301 -18.667 -8.33301 -36.667 -9 -54s-0.333984 -28 0.999023 -32c11.333 8 26.5 15.833 45.5 23.5s39.167 11.5 60.5 11.5c22 0 42.167 -3.5 60.5 -10.5s33.5 -17 45.5 -30s20.333 -28.5 25 -46.5s4.66699 -37.667 0 -59c-4 -21.333 -11.667 -41.166 -23 -59.499
s-25.666 -34.166 -42.999 -47.499s-37.333 -24 -60 -32s-47 -12 -73 -12c-30 0 -59.5 6.5 -88.5 19.5s-53.667 33.333 -74 61s-34.5 62.667 -42.5 105s-5.66699 93.166 7 152.499c10 44.667 26.167 85.667 48.5 123s49 69.666 80 96.999s65.333 48.666 103 63.999
s76.5 23 116.5 23c48 0 87 -8.83301 117 -26.5s51.667 -38.167 65 -61.5c6 12 13.5 23.667 22.5 35s19.5 21.666 31.5 30.999s25.5 17 40.5 23s31.5 9.66699 49.5 11c25.333 1.33301 47 -1.33398 65 -8.00098s29.667 -12.667 35 -18c5.33301 17.333 13.5 35.666 24.5 54.999
s24 38.333 39 57s31.667 36.334 50 53.001s37.833 31 58.5 43zM324 141.001c3.33301 14.667 0.833984 27 -7.49902 37s-19.5 15 -33.5 15c-14.667 0 -27.834 -5 -39.501 -15s-19.167 -22.333 -22.5 -37c-2 -14 1.16699 -26 9.5 -36s19.5 -15 33.5 -15
c14.667 0 27.667 5 39 15s18.333 22 21 36z" />
    <glyph glyph-name="uni0E5A" unicode="&#xe5a;" horiz-adv-x="1085" 
d="M711 0l119.996 617.998c-40 -28 -77.667 -48.333 -113 -61l-46 -16l-105 -541h-164l107 555c-18 -11.333 -37 -21.166 -57 -29.499s-41 -16.166 -63 -23.499c-38.667 -12.667 -79 -19 -121 -19c-61.333 0 -112.666 15.667 -153.999 47c-48 36.667 -66 84.667 -54 144
c8 44.667 32.333 82 73 112c36.667 28.667 78.334 43 125.001 43c45.333 0 81.333 -14.333 108 -43c28 -29.333 38 -66.666 30 -111.999l-12 -39c31.333 11.333 66 34.666 104 69.999c34 35.333 59.333 73.333 76 114h51c34.667 0 60.334 -12.333 77.001 -37
c12 -26 14 -59.333 6 -100c26.667 12 49 23.333 67 34s33.333 21.167 46 31.5s23.5 21.333 32.5 33s18.167 24.5 27.5 38.5h51c34.667 0 60.334 -12.333 77.001 -37c12.667 -26.667 15 -60 7 -100l-132 -682h-164zM282.996 673.998c6 30 -8.33301 47 -43 51
c-30 0 -50 -17 -60 -51c-6.66699 -30 7 -47 41 -51c30 0 50.667 17 62 51z" />
    <glyph glyph-name="uni0E5B" unicode="&#xe5b;" horiz-adv-x="1540" 
d="M1490 434c-5.33301 -26 -29.3389 -41.001 -72.0059 -45.001l-171 -16c-23.333 -36 -45 -54 -65 -54c-9.33301 0 -17.333 7.16699 -24 21.5l-20 42.5c-29.333 -57.333 -56.666 -86 -81.999 -86c-6 0 -11.333 2.83301 -16 8.5s-8.83398 13 -12.501 22
s-7.16699 18.667 -10.5 29s-7 20.5 -11 30.5c-33.333 -75.333 -65.333 -113 -96 -113c-7.33301 0 -13.333 3.66699 -18 11s-8.5 16.5 -11.5 27.5s-5.5 23.333 -7.5 37l-6 39.5c-44.667 -92.667 -88 -139 -130 -139c-15.333 0 -27 17 -35 51l-14 74
c-37.333 -84 -89.333 -155 -156 -213c-81.333 -68.667 -170 -103 -266 -103c-43.333 0 -81.166 8.66699 -113.499 26s-58.166 41.5 -77.499 72.5s-31.833 68.333 -37.5 112s-3.5 91.834 6.5 144.501c18.667 100.667 60.334 185.334 125.001 254.001
c65.333 69.333 136.666 104 213.999 104c32 0 60.333 -6.16699 85 -18.5s45.334 -31.5 62.001 -57.5c34.667 -50.667 44.667 -113.334 30 -188.001c-5.33301 -29.333 -14.166 -56.333 -26.499 -81s-27 -46 -44 -64s-35.667 -32.167 -56 -42.5s-41.5 -15.5 -63.5 -15.5
c-19.333 0 -36.5 3.66699 -51.5 11s-27.333 17.5 -37 30.5s-16.334 28.167 -20.001 45.5s-3.5 36.333 0.5 57c4 20 11.333 38.833 22 56.5s23.334 33.167 38.001 46.5s30.834 24 48.501 32s35.5 12 53.5 12h10c-6 44 -29.667 66 -71 66c-20.667 0 -41 -6.33301 -61 -19
s-38.833 -30 -56.5 -52s-33.167 -48.167 -46.5 -78.5s-23.333 -63.166 -30 -98.499c-14.667 -78 -10 -138.833 14 -182.5s63 -65.5 117 -65.5c34 0 67 8.33301 99 25s62 40.167 90 70.5s54 67.166 78 110.499s45 92 63 146c20.667 62.667 49.667 94 87 94
c38 0 63.667 -45 77 -135c20.667 76.667 48.667 115 84 115c24.667 0 47.667 -35.667 69 -107c14.667 46.667 35.334 70 62.001 70c26 0 50.333 -31.333 73 -94c22 43.333 45.333 65 70 65c22.667 0 40 -21.667 52 -65c13.333 12 24.5 21.167 33.5 27.5
s16.833 8.83301 23.5 7.5l175 -17c40.667 -4 58.667 -19 54 -45zM445.994 452.999c6 34 -7.33203 51 -39.999 51c-32 0 -51 -17 -57 -51c-6.66699 -34.667 5.66602 -52 36.999 -52c33.333 0 53.333 17.333 60 52z" />
    <glyph glyph-name="zerowidthnonjoiner" unicode="&#x200c;" 
 />
    <glyph glyph-name="zerowidthjoiner" unicode="&#x200d;" 
 />
    <glyph glyph-name="endash" unicode="&#x2013;" horiz-adv-x="745" 
d="M2 270l27 144h663l-26 -144h-664z" />
    <glyph glyph-name="emdash" unicode="&#x2014;" horiz-adv-x="1491" 
d="M2 270l27 144h1409l-27 -144h-1409z" />
    <glyph glyph-name="quoteleft" unicode="&#x2018;" horiz-adv-x="375" 
d="M385 944c-22.667 -12 -45 -26.668 -67 -44.001s-40.667 -37.333 -56 -60c15.333 0 29.333 -3 42 -9s23 -14.167 31 -24.5s13.667 -22.333 17 -36s3.33301 -28.167 0 -43.5c-3.33301 -14.667 -9.33301 -28.834 -18 -42.501s-19 -25.667 -31 -36
s-25.333 -18.666 -40 -24.999s-30 -9.5 -46 -9.5c-32.667 0 -58 11.667 -76 35s-24 53.333 -18 90c4 25.333 11.667 50.333 23 75s25.333 48.334 42 71.001s35.667 43.5 57 62.5s44 35.5 68 49.5l72 -53v0z" />
    <glyph glyph-name="quoteright" unicode="&#x2019;" horiz-adv-x="375" 
d="M377 872c-4 -25.333 -11.668 -50.1699 -23.001 -74.5029s-25.5 -47.666 -42.5 -69.999s-36.167 -43.166 -57.5 -62.499s-44 -36.333 -68 -51l-71 54c22.667 12 45 26.667 67 44s40.667 37.333 56 60c-15.333 0 -29.333 3 -42 9s-23.167 14.167 -31.5 24.5
s-14.166 22.333 -17.499 36s-3.33301 28.167 0 43.5c3.33301 14.667 9.5 28.834 18.5 42.501s19.5 25.667 31.5 36s25.5 18.5 40.5 24.5s30.167 9 45.5 9c32.667 0 58 -11.333 76 -34s24 -53 18 -91z" />
    <glyph glyph-name="quotedblleft" unicode="&#x201c;" horiz-adv-x="666" 
d="M678 944c-22.667 -12 -44.999 -26.668 -66.999 -44.001s-40.667 -37.333 -56 -60c15.333 0 29.166 -3 41.499 -9s22.5 -14.167 30.5 -24.5s13.667 -22.333 17 -36s3.66602 -28.167 0.999023 -43.5c-3.33301 -14.667 -9.33301 -28.834 -18 -42.501
s-19.167 -25.667 -31.5 -36s-25.833 -18.666 -40.5 -24.999s-29.667 -9.5 -45 -9.5c-16.667 0 -31.5 3.16699 -44.5 9.5s-23.667 15 -32 26s-14.166 24.167 -17.499 39.5s-3.33301 32 0 50c4 25.333 11.667 50.333 23 75s25.333 48.334 42 71.001s35.667 43.5 57 62.5
s44 35.5 68 49.5zM385.001 943.999c-22.667 -12 -45 -26.668 -67 -44.001s-40.667 -37.333 -56 -60c15.333 0 29.333 -3 42 -9s23 -14.167 31 -24.5s13.667 -22.333 17 -36s3.33301 -28.167 0 -43.5c-3.33301 -14.667 -9.33301 -28.834 -18 -42.501s-19 -25.667 -31 -36
s-25.333 -18.666 -40 -24.999s-30 -9.5 -46 -9.5c-32.667 0 -58 11.667 -76 35s-24 53.333 -18 90c4 25.333 11.667 50.333 23 75s25.333 48.334 42 71.001s35.667 43.5 57 62.5s44 35.5 68 49.5z" />
    <glyph glyph-name="quotedblright" unicode="&#x201d;" horiz-adv-x="666" 
d="M670 872c-4 -25.333 -11.6709 -50.1699 -23.0039 -74.5029s-25.5 -47.666 -42.5 -69.999s-36.167 -43.166 -57.5 -62.499s-44 -36.333 -68 -51l-71 54c22.667 12 44.834 26.667 66.501 44s40.167 37.333 55.5 60c-15.333 0 -29.166 3 -41.499 9
s-22.666 14.167 -30.999 24.5s-14.166 22.333 -17.499 36s-3.33301 28.167 0 43.5c3.33301 14.667 9.5 28.834 18.5 42.501s19.5 25.667 31.5 36s25.333 18.5 40 24.5s29.667 9 45 9c34 0 59.833 -11.333 77.5 -34s23.5 -53 17.5 -91zM376.996 871.996
c-4 -25.333 -11.668 -50.1699 -23.001 -74.5029s-25.5 -47.666 -42.5 -69.999s-36.167 -43.166 -57.5 -62.499s-44 -36.333 -68 -51l-71 54c22.667 12 45 26.667 67 44s40.667 37.333 56 60c-15.333 0 -29.333 3 -42 9s-23.167 14.167 -31.5 24.5s-14.166 22.333 -17.499 36
s-3.33301 28.167 0 43.5c3.33301 14.667 9.5 28.834 18.5 42.501s19.5 25.667 31.5 36s25.5 18.5 40.5 24.5s30.167 9 45.5 9c32.667 0 58 -11.333 76 -34s24 -53 18 -91z" />
    <glyph glyph-name="bullet" unicode="&#x2022;" horiz-adv-x="778" 
d="M684 410c-8 -42.667 -23.6689 -82.667 -47.002 -120s-51.666 -70 -84.999 -98s-70.166 -50 -110.499 -66s-81.833 -24 -124.5 -24s-81 8 -115 24s-62.167 38 -84.5 66s-37.833 60.667 -46.5 98s-9 77.333 -1 120s23.667 82.667 47 120s51.5 69.833 84.5 97.5
s69.667 49.5 110 65.5s81.833 24 124.5 24s81 -8 115 -24s62.167 -37.833 84.5 -65.5s38 -60.167 47 -97.5s9.5 -77.333 1.5 -120z" />
    <glyph glyph-name="ellipsis" unicode="&#x2026;" horiz-adv-x="1044" 
d="M899 92c-3.33301 -14 -8.99902 -27.167 -16.999 -39.5s-17.5 -23.166 -28.5 -32.499s-23.167 -16.666 -36.5 -21.999s-27 -8 -41 -8c-13.333 0 -25.833 2.66699 -37.5 8s-21.334 12.666 -29.001 21.999s-13 20.166 -16 32.499s-2.83301 25.5 0.5 39.5
c2.66699 14 7.83398 27.167 15.501 39.5s17 23.166 28 32.499s23.167 16.833 36.5 22.5s27 8.5 41 8.5s26.667 -2.83301 38 -8.5s20.833 -13.167 28.5 -22.5s13.167 -20.166 16.5 -32.499s3.66602 -25.5 0.999023 -39.5zM551.001 92
c-3.33301 -14 -8.99902 -27.167 -16.999 -39.5s-17.5 -23.166 -28.5 -32.499s-23.167 -16.666 -36.5 -21.999s-27 -8 -41 -8c-13.333 0 -25.833 2.66699 -37.5 8s-21.334 12.666 -29.001 21.999s-13 20.166 -16 32.499s-2.83301 25.5 0.5 39.5
c2.66699 14 7.83398 27.167 15.501 39.5s17 23.166 28 32.499s23.167 16.833 36.5 22.5s27 8.5 41 8.5s26.667 -2.83301 38 -8.5s20.833 -13.167 28.5 -22.5s13.167 -20.166 16.5 -32.499s3.66602 -25.5 0.999023 -39.5zM203.002 92
c-3.33301 -14 -8.99902 -27.167 -16.999 -39.5s-17.5 -23.166 -28.5 -32.499s-23.167 -16.666 -36.5 -21.999s-27 -8 -41 -8c-13.333 0 -25.833 2.66699 -37.5 8s-21.334 12.666 -29.001 21.999s-13 20.166 -16 32.499s-2.83301 25.5 0.5 39.5
c2.66699 14 7.83398 27.167 15.501 39.5s17 23.166 28 32.499s23.167 16.833 36.5 22.5s27 8.5 41 8.5s26.667 -2.83301 38 -8.5s20.833 -13.167 28.5 -22.5s13.167 -20.166 16.5 -32.499s3.66602 -25.5 0.999023 -39.5z" />
    <glyph glyph-name="thothannobasethai" unicode="&#xf700;" horiz-adv-x="778" 
d="M782 748c-63.333 -70 -127.326 -105.001 -191.993 -105.001c-20.667 0 -39.834 3 -57.501 9s-35.334 12.833 -53.001 20.5s-36.334 14.5 -56.001 20.5s-41.5 9 -65.5 9c-14 0 -27 -2 -39 -6s-22.833 -9 -32.5 -15s-17.834 -12.333 -24.501 -19
s-11.334 -12.334 -14.001 -17.001c154.667 -1.33301 267.334 -17.166 338.001 -47.499s100 -77.833 88 -142.5c-6.66699 -34.667 -18.167 -69.5 -34.5 -104.5l-53 -108.5c-19 -37.333 -37.5 -76 -55.5 -116s-32 -82 -42 -126h-178l-41 209
c-19.333 -6.66699 -38.333 -10 -57 -10c-23.333 0 -44.166 4 -62.499 12s-33.5 19.167 -45.5 33.5s-20.333 31 -25 50s-4.66699 39.5 0 61.5c4 20.667 12 40.334 24 59.001s26.833 35.167 44.5 49.5s37.167 25.833 58.5 34.5s43.666 13 66.999 13
c24.667 0 45.667 -3.66699 63 -11s31.666 -17.666 42.999 -30.999s20.166 -29.166 26.499 -47.499s10.833 -38.5 13.5 -60.5l6 -51c1.33301 -7.33301 1.33301 -18.166 0 -32.499l-4 -41.5l-6 -51h4l8 47c2.66699 13.333 5.83398 27.666 9.50098 42.999
s8.16699 29.666 13.5 42.999c2.66699 8 6.33398 16.833 11.001 26.5l15 31c5.33301 11 10.333 21.833 15 32.5s8 21 10 31c2.66699 15.333 -2 28.5 -14 39.5s-28 20.167 -48 27.5s-42.5 13 -67.5 17s-48.833 6.66699 -71.5 8c-46 3.33301 -95.333 4.83301 -148 4.5
s-103 -1.83301 -151 -4.5c11.333 34.667 29.666 70 54.999 106s55.5 68.667 90.5 98s73.667 53.333 116 72s86.166 28 131.499 28c20.667 0 40.5 -2.5 59.5 -7.5s37 -10.5 54 -16.5l48 -16.5c15 -5 28.833 -7.5 41.5 -7.5c10 0 22.667 4.66699 38 14
s28.666 20.666 39.999 33.999zM297.007 355.999c3.33301 15.333 0.833008 28.166 -7.5 38.499s-20.166 15.5 -35.499 15.5s-29 -5.16699 -41 -15.5s-19.667 -23.166 -23 -38.499s-0.833008 -28 7.5 -38s20.166 -15 35.499 -15s29 5 41 15s19.667 22.667 23 38z" />
    <glyph glyph-name="saraileftthai" unicode="&#xf701;" 
d="M-233 901c-41.333 16 -89 28.666 -143 37.999s-109.833 15.5 -167.5 18.5s-115.167 3 -172.5 0s-110 -8.83301 -158 -17.5c8 40.667 23 77.834 45 111.501s48.667 62.5 80 86.5s66.5 42.667 105.5 56s79.5 20 121.5 20c50 0 94.5 -7 133.5 -21s71.333 -34.5 97 -61.5
s43.667 -59.833 54 -98.5s11.833 -82.667 4.5 -132zM-399 1026c-4 12.667 -10.6641 23.832 -19.9971 33.499s-20.333 17.834 -33 24.501s-26.334 11.667 -41.001 15s-29.334 5 -44.001 5c-32.667 0 -62.334 -6.5 -89.001 -19.5s-46.667 -29.167 -60 -48.5
c21.333 4 44.5 6.83301 69.5 8.5s50.333 2.16699 76 1.5s50.667 -2.66699 75 -6s46.5 -8 66.5 -14z" />
    <glyph glyph-name="saraiileftthai" unicode="&#xf702;" 
d="M-233 901c-41.333 16 -89.001 28.666 -143.001 37.999s-109.833 15.5 -167.5 18.5s-115.167 3 -172.5 0s-110 -8.83301 -158 -17.5c8 40.667 23 77.834 45 111.501s48.667 62.5 80 86.5s66.5 42.667 105.5 56s79.5 20 121.5 20c34.667 0 67.334 -3.66699 98.001 -11
s56.667 -19.333 78 -36l20 113h164zM-399.001 1026c-4 12.667 -10.6641 23.832 -19.9971 33.499s-20.333 17.834 -33 24.501s-26.334 11.667 -41.001 15s-29.334 5 -44.001 5c-32.667 0 -62.334 -6.5 -89.001 -19.5s-46.667 -29.167 -60 -48.5
c21.333 4 44.5 6.83301 69.5 8.5s50.333 2.16699 76 1.5s50.667 -2.66699 75 -6s46.5 -8 66.5 -14z" />
    <glyph glyph-name="saraueleftthai" unicode="&#xf703;" 
d="M-123 1157c-6 -30 -19.001 -55.833 -39.001 -77.5s-46 -36.834 -78 -45.501c10.667 -37.333 13 -81.666 7 -132.999c-41.333 16 -89 28.667 -143 38s-109.833 15.5 -167.5 18.5s-115.167 3 -172.5 0s-110 -8.83301 -158 -17.5c8 40.667 23 77.834 45 111.501
s48.667 62.5 80 86.5s66.5 42.667 105.5 56s79.5 20 121.5 20c50 0 88.667 -8 116 -24c6 16 14.5 30.167 25.5 42.5s23.667 22.666 38 30.999s29.833 14.833 46.5 19.5s33.334 7 50.001 7c21.333 0 40.333 -3.5 57 -10.5s30.5 -16.667 41.5 -29s18.667 -26.5 23 -42.5
s4.83301 -33 1.5 -51zM-217.001 1157c3.33301 14.667 0.998047 26.834 -7.00195 36.501s-19.333 14.5 -34 14.5s-27.667 -4.83301 -39 -14.5s-18.666 -21.834 -21.999 -36.501s-1 -26.834 7 -36.501s19 -14.5 33 -14.5c14.667 0 27.834 4.83301 39.501 14.5
s19.167 21.834 22.5 36.501zM-399.003 1026c-4 12.667 -10.6641 23.832 -19.9971 33.499s-20.333 17.834 -33 24.501s-26.334 11.667 -41.001 15s-29.334 5 -44.001 5c-32.667 0 -62.334 -6.5 -89.001 -19.5s-46.667 -29.167 -60 -48.5c21.333 4 44.5 6.83301 69.5 8.5
s50.333 2.16699 76 1.5s50.667 -2.66699 75 -6s46.5 -8 66.5 -14z" />
    <glyph glyph-name="saraueeleftthai" unicode="&#xf704;" 
d="M-233 901c-41.333 16 -89.001 28.666 -143.001 37.999s-109.833 15.5 -167.5 18.5s-115.167 3 -172.5 0s-110 -8.83301 -158 -17.5c8 40.667 23 77.834 45 111.501s48.667 62.5 80 86.5s66.5 42.667 105.5 56s79.5 20 121.5 20h21c6.66699 0 13.334 -0.666992 20.001 -2
l12 68h123l-16 -94c10 -4 19.5 -9 28.5 -15s17.167 -12 24.5 -18l24 127h123zM-399.001 1026c-4 12.667 -10.6641 23.832 -19.9971 33.499s-20.333 17.834 -33 24.501s-26.334 11.667 -41.001 15s-29.334 5 -44.001 5c-32.667 0 -62.334 -6.5 -89.001 -19.5
s-46.667 -29.167 -60 -48.5c21.333 4 44.5 6.83301 69.5 8.5s50.333 2.16699 76 1.5s50.667 -2.66699 75 -6s46.5 -8 66.5 -14z" />
    <glyph glyph-name="maieklowleftthai" unicode="&#xf705;" 
d="M-412 942l62 307h164l-62 -307h-164z" />
    <glyph glyph-name="maitholowleftthai" unicode="&#xf706;" 
d="M53 1282c-18 -50.667 -44.002 -96.6641 -78.002 -137.997s-74 -77.333 -120 -108s-96.833 -55.667 -152.5 -75s-114.167 -32.333 -175.5 -39l-82 51c23.333 14 43.333 28 60 42s30 26.667 40 38c-18 1.33301 -34 5.66602 -48 12.999s-25.333 16.666 -34 27.999
s-14.667 24.166 -18 38.499s-3.33301 29.5 0 45.5c2.66699 17.333 9 34 19 50s22.5 30.167 37.5 42.5s32.333 22.166 52 29.499s40.834 11 63.501 11c24 0 44.667 -3.66699 62 -11s31.166 -17.5 41.499 -30.5s17.333 -28.167 21 -45.5s3.83398 -35.666 0.500977 -54.999
c-4 -18 -10.167 -35 -18.5 -51s-16.5 -30.333 -24.5 -43c22.667 10 44.834 22.667 66.501 38s41.5 32 59.5 50s34 37.167 48 57.5s25 40.833 33 61.5h147zM-369.002 1182c3.33301 13.333 1.83203 23.833 -4.50098 31.5s-15.5 11.5 -27.5 11.5
c-27.333 0 -44.666 -14.333 -51.999 -43c-2 -12.667 0 -22.667 6 -30s15.667 -11 29 -11c12.667 0 23.5 3.66699 32.5 11s14.5 17.333 16.5 30z" />
    <glyph glyph-name="maitrilowleftthai" unicode="&#xf707;" 
d="M37 1255c-0.666992 -45.333 -10.8301 -86.9951 -30.4971 -124.995s-45 -71.167 -76 -99.5s-65.5 -51.833 -103.5 -70.5s-75.333 -31.334 -112 -38.001l-63 57c15.333 14.667 29 30.5 41 47.5s20 37.167 24 60.5c4 21.333 3.16699 41.166 -2.5 59.499
s-12.167 30.166 -19.5 35.499l-94 -62l-88 66c-6.66699 -2 -13.834 -6.33301 -21.501 -13s-14.167 -12.667 -19.5 -18c32 -4 56.667 -16.833 74 -38.5s23.333 -47.167 18 -76.5c-8 -34 -25.833 -62.167 -53.5 -84.5s-60.5 -33.5 -98.5 -33.5c-19.333 0 -37 3.5 -53 10.5
s-29.167 17 -39.5 30s-17.333 28.833 -21 47.5s-3.16699 39.667 1.5 63c6 30.667 17.167 58.5 33.5 83.5s35.5 46.833 57.5 65.5s45.833 34.167 71.5 46.5s51.167 21.5 76.5 27.5l80 -61l105 61c24 -4.66699 45.833 -12.834 65.5 -24.501s35.667 -26 48 -43
s20.166 -36.5 23.499 -58.5s0.666016 -46 -8.00098 -72c8.66699 10 16.5 21.667 23.5 35s12.5 27.166 16.5 41.499s6 28.5 6 42.5s-2.66699 26.667 -8 38h146zM-523.996 1040c1.33301 9.33301 -1.49707 17.833 -8.49707 25.5s-15.167 11.5 -24.5 11.5
c-12.667 0 -23.334 -3.83301 -32.001 -11.5s-13.667 -16.167 -15 -25.5c-3.33301 -12 -1.83301 -21.5 4.5 -28.5s15.833 -10.5 28.5 -10.5c9.33301 0 18.666 3.5 27.999 10.5s15.666 16.5 18.999 28.5z" />
    <glyph glyph-name="maichattawalowleftthai" unicode="&#xf708;" 
d="M-346 1067l-25 -125h-164l25 125h-143l24 119h144l22 125h164l-23 -125h144l-25 -119h-143z" />
    <glyph glyph-name="thanthakhatlowleftthai" unicode="&#xf709;" 
d="M-10 1313c-9.33301 -27.333 -22.333 -50.5 -39 -69.5s-35 -34.833 -55 -47.5s-40.667 -22.667 -62 -30s-41 -13 -59 -17c20.667 -24 28 -54 22 -90c-4 -19.333 -11.333 -37.333 -22 -54s-23.834 -31.167 -39.501 -43.5s-33.334 -22 -53.001 -29
s-40.167 -10.5 -61.5 -10.5c-16.667 0 -33.167 3.33301 -49.5 10s-30.666 16.5 -42.999 29.5s-21.333 29 -27 48s-6.16699 40.833 -1.5 65.5c9.33301 50 33.333 89.833 72 119.5s89.334 49.167 152.001 58.5c76.667 12.667 123.667 49.667 141 111zM-305 1059
c3.33301 12 1.83301 22.167 -4.5 30.5s-15.833 12.5 -28.5 12.5c-12 0 -23 -4.16699 -33 -12.5s-16.667 -18.5 -20 -30.5c-2 -12.667 0.166992 -23 6.5 -31s15.833 -12 28.5 -12c12 0 23 4 33 12s16 18.333 18 31z" />
    <glyph glyph-name="maieklowrightthai" unicode="&#xf70a;" 
d="M-166 942l62 307h163l-61 -307h-164z" />
    <glyph glyph-name="maitholowrightthai" unicode="&#xf70b;" 
d="M176 1282c-18.667 -50.667 -45.001 -96.6641 -79.001 -137.997s-73.833 -77.333 -119.5 -108s-96.334 -55.667 -152.001 -75s-114.167 -32.333 -175.5 -39l-82 51c23.333 14 43.333 28 60 42s30 26.667 40 38c-18 1.33301 -34 5.66602 -48 12.999
s-25.333 16.666 -34 27.999s-14.667 24.166 -18 38.499s-3.33301 29.5 0 45.5c2.66699 17.333 9 34 19 50s22.5 30.167 37.5 42.5s32.333 22.166 52 29.499s40.834 11 63.501 11c24 0 44.667 -3.66699 62 -11s31.166 -17.5 41.499 -30.5s17.333 -28.167 21 -45.5
s3.83398 -35.666 0.500977 -54.999c-4 -18 -10.167 -35 -18.5 -51s-16.5 -30.333 -24.5 -43c22.667 10 44.834 22.667 66.501 38s41.5 32 59.5 50s34 37.167 48 57.5s25 40.833 33 61.5h147zM-246.001 1182c3.33301 13.333 1.83301 23.833 -4.5 31.5
s-15.833 11.5 -28.5 11.5c-26.667 0 -43.667 -14.333 -51 -43c-2 -12.667 0 -22.667 6 -30s15.667 -11 29 -11c12.667 0 23.5 3.66699 32.5 11s14.5 17.333 16.5 30z" />
    <glyph glyph-name="maitrilowrightthai" unicode="&#xf70c;" 
d="M152 1255c-0.666992 -45.333 -10.8291 -86.9951 -30.4961 -124.995s-45 -71.167 -76 -99.5s-65.5 -51.833 -103.5 -70.5s-75.333 -31.334 -112 -38.001l-63 57c15.333 14.667 29 30.5 41 47.5s20 37.167 24 60.5c4 21.333 3.16699 41.166 -2.5 59.499
s-12.167 30.166 -19.5 35.499l-95 -62l-88 66c-6 -2 -13 -6.33301 -21 -13s-14.667 -12.667 -20 -18c32 -4 56.667 -16.667 74 -38s23.333 -47 18 -77c-3.33301 -16.667 -9.5 -32.167 -18.5 -46.5s-20.333 -26.833 -34 -37.5s-28.834 -19 -45.501 -25s-34.334 -9 -53.001 -9
c-19.333 0 -37 3.5 -53 10.5s-29.167 17 -39.5 30s-17.5 28.833 -21.5 47.5s-3.66699 39.667 1 63c6 30.667 17.167 58.5 33.5 83.5s35.666 46.833 57.999 65.5s46.333 34.167 72 46.5s51.167 21.5 76.5 27.5l80 -61l104 61c24 -4.66699 46 -12.834 66 -24.501
s36.167 -26.167 48.5 -43.5s20.166 -37 23.499 -59s0.333008 -45.667 -9 -71c9.33301 10 17.5 21.667 24.5 35s12.5 27.166 16.5 41.499s6 28.5 6 42.5s-2.66699 26.667 -8 38h146zM-409.995 1040c1.33301 9.33301 -1.33008 17.833 -7.99707 25.5s-14.667 11.5 -24 11.5
c-12.667 0 -23.334 -3.83301 -32.001 -11.5s-13.667 -16.167 -15 -25.5c-3.33301 -12 -1.83301 -21.5 4.5 -28.5s15.5 -10.5 27.5 -10.5c9.33301 0 18.666 3.5 27.999 10.5s15.666 16.5 18.999 28.5z" />
    <glyph glyph-name="maichattawalowrightthai" unicode="&#xf70d;" 
d="M23 1067l-25 -125h-164l25 125h-144l25 119h143l23 125h164l-23 -125h143l-24 -119h-143z" />
    <glyph glyph-name="thanthakhatlowrightthai" unicode="&#xf70e;" 
d="M170 1313c-9.33301 -27.333 -22.3301 -50.5 -38.9971 -69.5s-35 -34.833 -55 -47.5s-40.5 -22.667 -61.5 -30s-40.833 -13 -59.5 -17c10 -11.333 17 -24.833 21 -40.5s4.33301 -32.167 1 -49.5c-4 -19.333 -11.333 -37.333 -22 -54s-23.834 -31.167 -39.501 -43.5
s-33.334 -22 -53.001 -29s-40.167 -10.5 -61.5 -10.5c-16.667 0 -33.167 3.33301 -49.5 10s-30.5 16.5 -42.5 29.5s-20.833 29 -26.5 48s-6.16699 40.833 -1.5 65.5c9.33301 50 33.166 89.833 71.499 119.5s88.833 49.167 151.5 58.5c78 12.667 125 49.667 141 111z
M-124.997 1059c3.33301 12 1.83301 22.167 -4.5 30.5s-15.833 12.5 -28.5 12.5c-12 0 -23 -4.16699 -33 -12.5s-16.667 -18.5 -20 -30.5c-2 -12.667 0.166992 -23 6.5 -31s15.833 -12 28.5 -12c12 0 23 4 33 12s16 18.333 18 31z" />
    <glyph glyph-name="yoyingnobasethai" unicode="&#xf70f;" horiz-adv-x="1167" 
d="M1024 213c-7.33301 -36 -17.0049 -67.3369 -29.0049 -94.0039s-28.167 -48.834 -48.5 -66.501s-45.666 -30.834 -75.999 -39.501s-67.166 -13 -110.499 -13h-371l27 133c31.333 0 53.5 4 66.5 12s21.5 24 25.5 48l70 360c4.66699 24.667 4.66699 46.334 0 65.001
s-12.667 34.5 -24 47.5s-25.833 22.833 -43.5 29.5s-37.5 10 -59.5 10c-40 0 -75 -6.66699 -105 -20s-53.333 -27.333 -70 -42c26 -13.333 48 -27.5 66 -42.5s33.667 -32.833 47 -53.5c-36 -10.667 -66 -28 -90 -52s-39 -52.333 -45 -85l-21 -107
c3.33301 1.33301 6.5 2 9.5 2h9.5c22.667 0 43.167 -4 61.5 -12s33.166 -19 44.499 -33s19.333 -30.5 24 -49.5s5 -39.167 1 -60.5c-4 -22 -12 -42.667 -24 -62s-26.833 -36.166 -44.5 -50.499s-37.5 -25.833 -59.5 -34.5s-45 -13 -69 -13c-27.333 0 -51 4.16699 -71 12.5
s-36.333 19.833 -49 34.5s-21.167 32.334 -25.5 53.001s-4.16602 43.334 0.500977 68.001l49 258c2.66699 16 8.16699 31.333 16.5 46s18.333 28 30 40s24.334 22.5 38.001 31.5s27.167 16.167 40.5 21.5c-8.66699 7.33301 -19 14.5 -31 21.5s-24.667 13.833 -38 20.5
s-27 12.667 -41 18s-27 10 -39 14c24 28.667 50.833 55.667 80.5 81s61.834 47.333 96.501 66s71.667 33.334 111 44.001s81 16 125 16c43.333 0 83 -5.66699 119 -17s66.333 -28.166 91 -50.499s42.167 -50 52.5 -83s11.5 -71.167 3.5 -114.5l-83 -434h67
c22.667 0 41.834 1.16699 57.501 3.5s28.5 6.83301 38.5 13.5s18 16.167 24 28.5s11 28.5 15 48.5l115 588h164zM273.995 149.996c3.33301 15.333 0.833008 28 -7.5 38s-20.166 15 -35.499 15s-28.833 -5 -40.5 -15s-19.167 -22.667 -22.5 -38
s-0.833008 -28.166 7.5 -38.499s20.166 -15.5 35.499 -15.5s28.833 5.16699 40.5 15.5s19.167 23.166 22.5 38.499z" />
    <glyph glyph-name="maihanakatleftthai" unicode="&#xf710;" 
d="M80 1239c-11.333 -48.667 -31.665 -91.499 -60.998 -128.499s-64 -68 -104 -93s-83.833 -43.833 -131.5 -56.5s-95.5 -19 -143.5 -19c-40 0 -76.5 4.33301 -109.5 13s-60.667 21.167 -83 37.5s-38.333 36 -48 59s-11.5 49.167 -5.5 78.5
c4 19.333 11.5 37.666 22.5 54.999s24.667 32.5 41 45.5s35 23.167 56 30.5s43.167 11 66.5 11s43.666 -3.83301 60.999 -11.5s31.333 -18 42 -31s18 -27.667 22 -44s4.66699 -33.166 2 -50.499c-2 -10.667 -6 -23.334 -12 -38.001s-12.333 -26 -19 -34
c27.333 -1.33301 54 1.83398 80 9.50098s49.667 19.167 71 34.5s39.666 34.166 54.999 56.499s26 47.5 32 75.5h166zM-396.999 1135c2 13.333 -1 24.833 -9 34.5s-18.667 14.5 -32 14.5s-25.833 -4.83301 -37.5 -14.5s-18.5 -21.167 -20.5 -34.5
c-3.33301 -13.333 -1 -25 7 -35s18.667 -15 32 -15s25.833 5 37.5 15s19.167 21.667 22.5 35z" />
    <glyph glyph-name="nikhahitleftthai" unicode="&#xf711;" 
d="M-90 1102c-5.33301 -24 -14.499 -46.667 -27.499 -68s-29.167 -40 -48.5 -56s-41.333 -28.667 -66 -38s-51 -14 -79 -14s-52.667 4.66699 -74 14s-38.666 22 -51.999 38s-22.333 34.667 -27 56s-4.33398 44 0.999023 68c4.66699 24 13.5 46.667 26.5 68s29 40 48 56
s40.833 28.667 65.5 38s51 14 79 14s52.667 -4.66699 74 -14s38.666 -22 51.999 -38s22.5 -34.667 27.5 -56s5.16699 -44 0.5 -68zM-204.999 1102c3.33301 18.667 -0.332031 34.5 -10.999 47.5s-26.667 19.5 -48 19.5s-39.833 -6.5 -55.5 -19.5s-25.167 -28.833 -28.5 -47.5
c-4 -18.667 -0.833008 -34.667 9.5 -48s26.166 -20 47.499 -20s40 6.66699 56 20s26 29.333 30 48z" />
    </font>
</defs>
</svg>
