<?xml version="1.0" standalone="no"?>
<!DOCTYPE svg PUBLIC "-//W3C//DTD SVG 1.1//EN" "http://www.w3.org/Graphics/SVG/1.1/DTD/svg11.dtd" >
<svg>
<metadata>
Created by FontForge 20090914 at Tue Jan  9 10:51:48 2018
 By www-data
Copyright (c) Phanlop Thongsuk, 1995-2009. All rights reserved.
</metadata>
<defs>
<font id="PSLTextProItalic" horiz-adv-x="0" >
  <font-face 
    font-family="PSL Text Pro (เท็กซ์)"
    font-weight="400"
    font-style="italic"
    font-stretch="normal"
    units-per-em="2048"
    panose-1="2 0 5 6 5 0 0 2 0 4"
    ascent="1638"
    descent="-410"
    x-height="698"
    cap-height="965"
    bbox="-831.002 -891 1499 1634"
    underline-thickness="72"
    underline-position="-123"
    unicode-range="U+0020-U+F880"
  />
<missing-glyph horiz-adv-x="1599" 
d="M100 1599h1399v-1599h-1399v1599zM1401 1499h-1200v-1399h1200v1399z" />
    <glyph glyph-name="saraueesp1" unicode="&#xe37;&#xe48;" 
d="M-29 901c-33.333 17.333 -73.166 30.499 -119.499 39.499s-95.333 14.833 -147 17.5s-104.334 2.83398 -158.001 0.500977s-104.5 -5.83301 -152.5 -10.5c6.66699 37.333 19.834 71.666 39.501 102.999s43.667 58.333 72 81s60.166 40.334 95.499 53.001s72 19 110 19
c14.667 0 29 -0.5 43 -1.5s27 -3.16699 39 -6.5l10 61h72l-16 -83l28.5 -19.5c9 -6.33301 17.167 -13.5 24.5 -21.5l25 124h102zM-113 1006c-3.33301 16 -9.66699 30.999 -19 44.999s-21.666 26.5 -36.999 37.5s-34 19.667 -56 26s-47.333 9.5 -76 9.5
c-42 0 -79.333 -8.83301 -112 -26.5s-56.667 -41.5 -72 -71.5c26 6 56.167 10 90.5 12s68.666 2.16699 102.999 0.5s67.333 -5.16699 99 -10.5s58.167 -12.666 79.5 -21.999zM-74.001 1565h103l-47 -246h-103z" />
    <glyph glyph-name=".notdef" horiz-adv-x="1599" 
d="M100 1599h1399v-1599h-1399v1599zM1401 1499h-1200v-1399h1200v1399z" />
    <glyph glyph-name="space" unicode=" " horiz-adv-x="532" 
 />
    <glyph glyph-name="space" unicode="&#xa0;" horiz-adv-x="532" 
 />
    <glyph glyph-name="exclam" unicode="!" horiz-adv-x="350" 
d="M166 252h-68l54 436l55 277h129l-55 -277zM8 0l31 154h149l-30 -154h-150z" />
    <glyph glyph-name="quotedbl" unicode="&#x22;" horiz-adv-x="575" 
d="M365 608l69 357h96l-69 -357h-96zM168 608l70 357h96l-70 -357h-96z" />
    <glyph glyph-name="numbersign" unicode="#" horiz-adv-x="737" 
d="M580 573l-66 -202h123l-19 -92h-137l-92 -279h-90l92 279h-166l-90 -279h-92l90 279h-131l18 92h146l67 202h-139l19 93h151l90 276h92l-92 -276h164l92 276h92l-92 -276h123l-18 -93h-135zM258 371h164l65 202h-163z" />
    <glyph glyph-name="dollar" unicode="$" horiz-adv-x="737" 
d="M600 719c2.66699 88 -36.3301 140.666 -116.997 157.999l-63 -334c17.333 -4 36 -9 56 -15s39.667 -13.833 59 -23.5s37.5 -21.167 54.5 -34.5s31.333 -29.333 43 -48s19.834 -40.5 24.501 -65.5s4 -53.833 -2 -86.5c-8.66699 -43.333 -23.667 -82.333 -45 -117
s-47.166 -64.5 -77.499 -89.5s-64.5 -44.833 -102.5 -59.5s-78.333 -23.667 -121 -27l-22 -110h-72l23 110c-88.667 8 -153.834 40.333 -195.501 97s-56.5 131.667 -44.5 225h115c-5.33301 -30 -5.5 -57.333 -0.5 -82s14 -46 27 -64s29.667 -32.667 50 -44
s43.166 -19 68.499 -23l70 356c-44.667 12 -82.834 25 -114.501 39s-56.834 31 -75.501 51s-30.834 44 -36.501 72s-4.83398 61.667 2.49902 101c8 40.667 22.333 77.834 43 111.501s45.834 62.834 75.501 87.501s62.5 44.167 98.5 58.5s73.667 22.5 113 24.5l21 111h71
l-20 -111c34.667 -4.66699 65.667 -14.334 93 -29.001s50 -33.5 68 -56.5s31 -50 39 -81s10.333 -64.833 7 -101.5h-113zM414.003 880.999c-22 -2.66699 -43.166 -7.99902 -63.499 -15.999s-38.666 -18.667 -54.999 -32s-30.5 -29.666 -42.5 -48.999
s-20.667 -41.666 -26 -66.999c-4.66699 -24 -4.83398 -44.333 -0.500977 -61s12.166 -30.834 23.499 -42.501s25.5 -21.334 42.5 -29.001s36.167 -14.834 57.5 -21.501zM532.004 258c5.33301 26 5.50098 47.832 0.500977 65.499s-13.833 32.667 -26.5 45
s-28.667 22.833 -48 31.5s-40.333 16.667 -63 24l-65 -338c24.667 2 48.167 6.66699 70.5 14s42.333 17.833 60 31.5s32.667 30.834 45 51.501s21.166 45.667 26.499 75z" />
    <glyph glyph-name="percent" unicode="%" horiz-adv-x="1161" 
d="M1077 256c-6.66699 -35.333 -16.9961 -69.3291 -30.9961 -101.996s-31.833 -61.667 -53.5 -87s-47.334 -45.5 -77.001 -60.5s-63.834 -22.5 -102.501 -22.5c-40 0 -72.333 7 -97 21s-43 33.167 -55 57.5s-18.5 52.666 -19.5 84.999s2.16699 67.166 9.5 104.499
c7.33301 36 17.833 70.5 31.5 103.5s31.167 62.167 52.5 87.5s47.166 45.5 77.499 60.5s66.166 22.5 107.499 22.5c40.667 0 73.167 -7.16699 97.5 -21.5s42 -33.833 53 -58.5s16.667 -53.334 17 -86.001s-3.16699 -67.334 -10.5 -104.001zM70.0039 -30.9961l907 1008h113
l-908 -1008h-112zM508.004 688.004c-6.66699 -35.333 -17.1602 -69.333 -31.4932 -102s-32.333 -61.667 -54 -87s-47.334 -45.5 -77.001 -60.5s-63.5 -22.5 -101.5 -22.5c-40.667 0 -73.334 7.16699 -98.001 21.5s-43 33.666 -55 57.999s-18.333 52.833 -19 85.5
s2.66602 67 9.99902 103s17.666 70.667 30.999 104s30.666 62.5 51.999 87.5s47.166 45 77.499 60s66.166 22.5 107.499 22.5c40 0 72.167 -7.16699 96.5 -21.5s42.333 -33.666 54 -57.999s17.667 -53 18 -86s-3.16699 -67.833 -10.5 -104.5zM979.011 256.004
c4 20 7 41.3311 9 63.998s1 43.834 -3 63.501s-12.167 35.834 -24.5 48.501s-30.833 19 -55.5 19s-45.834 -6.5 -63.501 -19.5s-32.667 -29.167 -45 -48.5s-22.166 -40.5 -29.499 -63.5s-13 -44.833 -17 -65.5c-4 -19.333 -7.16699 -40.5 -9.5 -63.5s-1.5 -44.333 2.5 -64
s12.167 -36.167 24.5 -49.5s30.833 -20 55.5 -20c25.333 0 47 6.33301 65 19s33 28.834 45 48.501s21.667 41.167 29 64.5s13 45.666 17 66.999zM410.011 688.002c4 20 7.00098 41.5 9.00098 64.5s1 44.333 -3 64s-12.167 36 -24.5 49s-30.833 19.5 -55.5 19.5
s-45.834 -6.5 -63.501 -19.5s-32.667 -29.333 -45 -49s-22.333 -41.167 -30 -64.5s-13.5 -45.333 -17.5 -66c-3.33301 -19.333 -6 -40.333 -8 -63s-1 -43.667 3 -63s12.167 -35.5 24.5 -48.5s31.166 -19.5 56.499 -19.5c24.667 0 45.834 6.33301 63.501 19
s32.5 28.5 44.5 47.5s21.667 40 29 63s13 45.167 17 66.5z" />
    <glyph glyph-name="ampersand" unicode="&#x26;" horiz-adv-x="836" 
d="M543 117c-18.667 -22 -39.8311 -41.3281 -63.498 -57.9951s-48.5 -30.5 -74.5 -41.5s-52.5 -19.333 -79.5 -25s-52.833 -8.5 -77.5 -8.5c-42.667 0 -78.667 4.66699 -108 14s-53.666 21.5 -72.999 36.5s-34 32.167 -44 51.5s-17 38.666 -21 57.999
s-5.66699 38.166 -5 56.499s2.33398 34.166 5.00098 47.499c7.33301 38 19.5 71.5 36.5 100.5s37.667 55 62 78s51.5 43.5 81.5 61.5s61.333 35 94 51c-8.66699 18.667 -17.5 36.5 -26.5 53.5s-16.833 34.167 -23.5 51.5s-11.167 35.833 -13.5 55.5
s-0.833008 41.834 4.5 66.501c5.33301 26.667 15.166 52 29.499 76s32.333 45.167 54 63.5s46.667 32.833 75 43.5s59.5 16 93.5 16c30 0 57.833 -4.16699 83.5 -12.5s47.5 -20.666 65.5 -36.999s30.833 -36.833 38.5 -61.5s8.5 -53.334 2.5 -86.001
c-5.33301 -28.667 -15.333 -55.334 -30 -80.001s-32.334 -47.334 -53.001 -68.001s-43.334 -39.5 -68.001 -56.5s-49.334 -32.167 -74.001 -45.5l129 -213c13.333 23.333 25 47.666 35 72.999s18.333 51 25 77h108c-12 -46.667 -26 -89.167 -42 -127.5
s-37.333 -76.5 -64 -114.5l137 -213h-148zM545.003 762.005c5.33301 28 0.667969 52.002 -13.999 72.002s-39.334 30 -74.001 30c-12.667 0 -26 -2 -40 -6s-27.167 -10.333 -39.5 -19s-23 -19.334 -32 -32.001s-14.833 -27.667 -17.5 -45
c-3.33301 -14.667 -3.5 -29.334 -0.5 -44.001s7.5 -29 13.5 -43s13 -27.833 21 -41.5l23 -39.5c16.667 8.66699 33.5 18.5 50.5 29.5s33 23.333 48 37s28 29 39 46s18.5 35.5 22.5 55.5zM326.005 467.007c-24.667 -12.667 -48.333 -25.667 -71 -39
s-43.167 -28.5 -61.5 -45.5s-34 -36.333 -47 -58s-22.167 -47.167 -27.5 -76.5c-5.33301 -24 -5 -46 1 -66s16 -37 30 -51s31.167 -25 51.5 -33s42.5 -12 66.5 -12c44 0 84.333 10.167 121 30.5s71 48.5 103 84.5z" />
    <glyph glyph-name="quotesingle" unicode="'" horiz-adv-x="375" 
d="M166 608l70 357h96l-70 -357h-96z" />
    <glyph glyph-name="parenleft" unicode="(" horiz-adv-x="432" 
d="M514 1036c-84 -101.333 -149.83 -203.669 -197.497 -307.002s-82.167 -209.666 -103.5 -318.999c-11.333 -57.333 -18.833 -112.5 -22.5 -165.5s-3.33398 -105 0.999023 -156s13 -101.667 26 -152s30.5 -101.5 52.5 -153.5h-84
c-23.333 50.667 -43.5 100.834 -60.5 150.501s-29.833 100 -38.5 151s-12.834 103.167 -12.501 156.5s6.16602 109.666 17.499 168.999c10 52.667 25 106.334 45 161.001s44.333 108.834 73 162.501s61.5 106.167 98.5 157.5s77.5 99.666 121.5 144.999h84v0z" />
    <glyph glyph-name="parenright" unicode=")" horiz-adv-x="432" 
d="M315 410c-11.333 -59.333 -27.1699 -115.664 -47.5029 -168.997s-44.666 -105.5 -72.999 -156.5s-61 -101.333 -98 -151s-77.5 -99.834 -121.5 -150.501h-84c42.667 52 80.334 103.167 113.001 153.5s61.334 101 86.001 152s45.5 103 62.5 156s31.167 108.167 42.5 165.5
c21.333 110 28 216.5 20 319.5s-34.667 205.167 -80 306.5h84c26.667 -46 48.5 -94.5 65.5 -145.5s29.5 -103.333 37.5 -157s11.333 -107.834 10 -162.501s-7 -108.334 -17 -161.001z" />
    <glyph glyph-name="asterisk" unicode="*" horiz-adv-x="518" 
d="M453 625l-84 -56l-62 148l-112 -148l-72 56l129 125l-150 45l50 88l135 -70l22 164h94l-43 -164l166 70l15 -88l-164 -45z" />
    <glyph glyph-name="plus" unicode="+" horiz-adv-x="737" 
d="M379 297l-55 -283h-91l56 283h-283l19 90h282l55 283h91l-56 -283h283l-18 -90h-283z" />
    <glyph glyph-name="comma" unicode="," horiz-adv-x="307" 
d="M160 49c-3.33301 -21.333 -9.50098 -42.167 -18.501 -62.5s-20.167 -39.5 -33.5 -57.5s-28.166 -34.667 -44.499 -50s-33.5 -28.333 -51.5 -39l-43 31c28 17.333 50.333 35.5 67 54.5s28.667 37.833 36 56.5c-4 -1.33301 -9 -2 -15 -2
c-22.667 0 -40.167 7.83301 -52.5 23.5s-16.5 34.834 -12.5 57.501c2 11.333 6.16699 22 12.5 32s14 18.667 23 26s18.833 13.166 29.5 17.499s21.667 6.5 33 6.5c24.667 0 43.5 -8.66699 56.5 -26s17.5 -40 13.5 -68z" />
    <glyph glyph-name="hyphen" unicode="-" horiz-adv-x="526" 
d="M41 338l16 82h392l-17 -82h-391z" />
    <glyph glyph-name="period" unicode="." horiz-adv-x="307" 
d="M158 72c-2 -11.333 -6.16797 -22 -12.501 -32s-14 -18.667 -23 -26s-19 -13.166 -30 -17.499s-22.167 -6.5 -33.5 -6.5c-22.667 0 -40.167 8 -52.5 24s-16.5 35.333 -12.5 58c2 11.333 6.16699 22 12.5 32s14 18.667 23 26s18.833 13.166 29.5 17.499s21.667 6.5 33 6.5
c22.667 0 40.334 -8 53.001 -24s17 -35.333 13 -58z" />
    <glyph glyph-name="slash" unicode="/" horiz-adv-x="471" 
d="M-111 -23l596 1010h101l-598 -1010h-99z" />
    <glyph glyph-name="zero" unicode="0" horiz-adv-x="737" 
d="M688 475c-32 -163.333 -82.8311 -286 -152.498 -368s-157.5 -123 -263.5 -123c-104.667 0 -175.834 41.5 -213.501 124.5s-40.834 205.167 -9.50098 366.5c32 163.333 82.833 286.166 152.5 368.499s157.5 123.5 263.5 123.5s177.667 -41.167 215 -123.5
s40 -205.166 8 -368.499zM575.002 475c12 61.333 19.3301 116.5 21.9971 165.5s-0.666016 90.5 -9.99902 124.5s-25.5 60 -48.5 78s-53.833 27 -92.5 27c-39.333 0 -73.833 -9 -103.5 -27s-56 -44 -79 -78s-42.667 -75.5 -59 -124.5s-30.5 -104.167 -42.5 -165.5
s-19.167 -116.5 -21.5 -165.5s1.33398 -90.5 11.001 -124.5s26 -60 49 -78s53.833 -27 92.5 -27c39.333 0 73.833 9 103.5 27s55.834 44 78.501 78s42 75.5 58 124.5s30 104.167 42 165.5z" />
    <glyph glyph-name="one" unicode="1" horiz-adv-x="737" 
d="M272 0l136.001 691.999h-250l16 84c32.667 0 65 4 97 12s61.667 19.833 89 35.5s51.166 35.334 71.499 59.001s35.5 51.167 45.5 82.5h90l-188 -965h-107z" />
    <glyph glyph-name="two" unicode="2" horiz-adv-x="737" 
d="M698 682c-10.667 -55.333 -30.499 -102.334 -59.499 -141.001s-63 -72.667 -102 -102s-81 -55.833 -126 -79.5s-88.333 -48 -130 -73s-80 -52.667 -115 -83s-62.167 -66.833 -81.5 -109.5h489l-18 -94h-616c10.667 50 27.334 94 50.001 132s49 71.667 79 101
s62.667 55.5 98 78.5s71 44.833 107 65.5l105.5 61c34.333 20 65.666 41.833 93.999 65.5s52.5 50 72.5 79s33.667 62.833 41 101.5c4.66699 24.667 4.83398 48.334 0.500977 71.001s-12.833 42.5 -25.5 59.5s-29.334 30.5 -50.001 40.5s-45 15 -73 15
c-32 0 -61.5 -6.66699 -88.5 -20s-51.333 -31.166 -73 -53.499s-39.834 -48.333 -54.501 -78s-25.334 -60.834 -32.001 -93.501h-104c4.66699 44.667 18.167 87.667 40.5 129s50.5 77.5 84.5 108.5s72.333 55.833 115 74.5s86.334 28 131.001 28c42 0 79.667 -7 113 -21
s60.833 -33.5 82.5 -58.5s36.667 -54.833 45 -89.5s8.5 -72.667 0.5 -114z" />
    <glyph glyph-name="three" unicode="3" horiz-adv-x="737" 
d="M686 717c-9.33301 -48 -29.167 -89.1689 -59.5 -123.502s-68.5 -62.833 -114.5 -85.5c23.333 -6.66699 44.333 -16.667 63 -30s33.834 -30.166 45.501 -50.499s19.334 -43.833 23.001 -70.5s2.16699 -57 -4.5 -91c-8 -43.333 -24 -82.5 -48 -117.5
s-53.333 -64.667 -88 -89s-73.334 -43 -116.001 -56s-87 -19.5 -133 -19.5c-45.333 0 -85.833 7 -121.5 21s-65 34.333 -88 61s-38.5 58.834 -46.5 96.501s-6.66699 80.5 4 128.5h104c-5.33301 -30.667 -5.5 -59.167 -0.5 -85.5s14.833 -49 29.5 -68s33.667 -34 57 -45
s50.666 -16.5 81.999 -16.5c29.333 0 57.833 4.66699 85.5 14s52.667 22.5 75 39.5s41.5 37.167 57.5 60.5s26.667 48.666 32 75.999c6.66699 34 5.16699 64 -4.5 90s-25.334 47.167 -47.001 63.5s-48.334 27.5 -80.001 33.5s-66.167 6 -103.5 0l18 92
c31.333 -2 61.5 -0.333008 90.5 5s55.167 14.666 78.5 27.999s43.166 30.833 59.499 52.5s27.5 47.834 33.5 78.501c4.66699 24.667 4.33398 46.834 -0.999023 66.501s-14.333 36.5 -27 50.5s-28.667 24.833 -48 32.5s-40.333 11.5 -63 11.5c-28 0 -54.667 -5.5 -80 -16.5
s-48.166 -26 -68.499 -45s-37.666 -41.667 -51.999 -68s-24.5 -54.833 -30.5 -85.5h-105c9.33301 46.667 25.5 89.167 48.5 127.5s50.5 71 82.5 98s67.333 47.833 106 62.5s78.667 22 120 22c40.667 0 77.167 -6 109.5 -18s59 -29 80 -51s35.667 -48.167 44 -78.5
s8.83301 -63.833 1.5 -100.5z" />
    <glyph glyph-name="four" unicode="4" horiz-adv-x="737" 
d="M510 225l-43 -225h-105l44 225h-420l20 105l551 635h98l-125 -643h127l-20 -97h-127zM426 322l90 469l-399 -469h309z" />
    <glyph glyph-name="five" unicode="5" horiz-adv-x="737" 
d="M313 856l-108.002 -287.003c30.667 20.667 62.167 36.5 94.5 47.5s68.5 16.5 108.5 16.5c42.667 0 80.834 -7.5 114.501 -22.5s61.5 -36.167 83.5 -63.5s37 -60.666 45 -99.999s7.33301 -83.333 -2 -132c-10 -48.667 -26.667 -93.167 -50 -133.5
s-52 -75.166 -86 -104.499s-72.5 -52.166 -115.5 -68.499s-89.5 -24.5 -139.5 -24.5c-41.333 0 -79 5.83301 -113 17.5s-62.833 28.834 -86.5 51.501s-40.667 50.667 -51 84s-12.166 71.666 -5.49902 114.999h104c-3.33301 -56.667 10.667 -99.834 42 -129.501
s76.333 -44.5 135 -44.5c32.667 0 63 6.33301 91 19s53 29.834 75 51.501s40.333 47 55 76s25 59.833 31 92.5c6 31.333 6.16699 60.5 0.5 87.5s-16.167 50.5 -31.5 70.5s-34.833 35.667 -58.5 47s-50.5 17 -80.5 17c-35.333 0 -71.833 -8 -109.5 -24
s-70.167 -39.667 -97.5 -71l-88 19l182 489h465l-19 -96h-385z" />
    <glyph glyph-name="six" unicode="6" horiz-adv-x="737" 
d="M604 719c3.33301 24.667 2.17285 46.501 -3.49414 65.501s-14.667 35 -27 48s-27.333 22.833 -45 29.5s-36.834 10 -57.501 10c-32 0 -61.333 -6 -88 -18s-50.834 -28 -72.501 -48s-40.834 -43.167 -57.501 -69.5s-31.334 -53.833 -44.001 -82.5
s-23.334 -57.667 -32.001 -87s-15.667 -56.666 -21 -81.999c11.333 14 26.166 28.667 44.499 44s39.166 29.166 62.499 41.499s48.666 22.666 75.999 30.999s55.666 12.5 84.999 12.5c48 0 88.667 -8.16699 122 -24.5s59.666 -38.833 78.999 -67.5
s31.666 -62.167 36.999 -100.5s3.66602 -79.833 -5.00098 -124.5c-8 -43.333 -22.833 -83.833 -44.5 -121.5s-48.667 -70.834 -81 -99.501s-69.666 -51.167 -111.999 -67.5s-87.833 -24.5 -136.5 -24.5c-58 0 -105.833 10.167 -143.5 30.5s-66.167 50.5 -85.5 90.5
s-29.666 89.333 -30.999 148s5.33398 126 20.001 202c12.667 65.333 31.334 128.833 56.001 190.5s55.334 116.334 92.001 164.001s79.667 85.834 129 114.501s105 43 167 43c38.667 0 73.167 -5.33301 103.5 -16s55.333 -26.5 75 -47.5s33.334 -46.833 41.001 -77.5
s8.5 -66.334 2.5 -107.001h-105zM545.007 299.001c6.66699 32 7.83203 61.5 3.49902 88.5s-13.333 50.167 -27 69.5s-31.667 34.333 -54 45s-48.5 16 -78.5 16s-58.167 -5.33301 -84.5 -16s-50.333 -25.667 -72 -45s-40 -42.5 -55 -69.5s-25.833 -56.5 -32.5 -88.5
c-6 -32 -6.66699 -61.667 -2 -89s13.834 -50.666 27.501 -69.999s31.667 -34.5 54 -45.5s48.5 -16.5 78.5 -16.5c29.333 0 57.333 5.5 84 16.5s50.667 26.167 72 45.5s39.5 42.666 54.5 69.999s25.5 57 31.5 89z" />
    <glyph glyph-name="seven" unicode="7" horiz-adv-x="737" 
d="M754 850c-78 -68 -147.167 -140.167 -207.5 -216.5s-112.5 -152.333 -156.5 -228s-80 -148.5 -108 -218.5s-49 -132.333 -63 -187h-123c17.333 64 40.833 130.333 70.5 199s66.5 139 110.5 211s96 144.833 156 218.5s129.333 147.5 208 221.5h-502l19 102h614l-18 -102v0
z" />
    <glyph glyph-name="eight" unicode="8" horiz-adv-x="737" 
d="M700 719c-4 -21.333 -11.6621 -42.332 -22.9951 -62.999s-25 -39.834 -41 -57.501s-33.833 -33.667 -53.5 -48s-39.834 -25.833 -60.501 -34.5c53.333 -19.333 90.666 -51.166 111.999 -95.499s26.333 -95.166 15 -152.499c-8 -43.333 -23.833 -82.5 -47.5 -117.5
s-52.5 -64.833 -86.5 -89.5s-71.833 -43.667 -113.5 -57s-84.834 -20 -129.501 -20s-85.167 6.66699 -121.5 20s-66.5 32.333 -90.5 57s-41 54.5 -51 89.5s-11 74.167 -3 117.5c11.333 57.333 37.166 107.166 77.499 149.499s89.5 75.166 147.5 98.499
c-42 22.667 -71.167 51.167 -87.5 85.5s-20.5 73.5 -12.5 117.5c7.33301 36 21.5 69.167 42.5 99.5s46.5 56.5 76.5 78.5s63.5 39.167 100.5 51.5s75.167 18.5 114.5 18.5s75.166 -6.16699 107.499 -18.5s59.166 -29.5 80.499 -51.5s36.333 -48.167 45 -78.5
s9.33398 -63.5 2.00098 -99.5zM586.005 711.001c4.66699 24 4.50098 45.833 -0.499023 65.5s-13.833 36.334 -26.5 50.001s-28.667 24.334 -48 32.001s-41 11.5 -65 11.5c-23.333 0 -46.166 -3.83301 -68.499 -11.5s-42.666 -18.334 -60.999 -32.001
s-34.166 -30.334 -47.499 -50.001s-22.333 -41.5 -27 -65.5s-4.33398 -45.833 0.999023 -65.5s14.5 -36.5 27.5 -50.5s29.167 -24.833 48.5 -32.5s40.666 -11.5 63.999 -11.5s46.166 3.83301 68.499 11.5s42.666 18.5 60.999 32.5s34 30.833 47 50.5s21.833 41.5 26.5 65.5z
M532.006 268.001c6 28 6.00098 53.667 0.000976562 77s-16.5 43.5 -31.5 60.5s-34 30.167 -57 39.5s-48.5 14 -76.5 14s-55.5 -4.66699 -82.5 -14s-51.5 -22.5 -73.5 -39.5s-40.833 -37.167 -56.5 -60.5s-26.167 -49 -31.5 -77
c-5.33301 -27.333 -4.83301 -52.666 1.5 -75.999s17.166 -43.5 32.499 -60.5s34.5 -30.167 57.5 -39.5s48.5 -14 76.5 -14s55.333 4.66699 82 14s51 22.5 73 39.5s40.5 37.167 55.5 60.5s25.167 48.666 30.5 75.999z" />
    <glyph glyph-name="nine" unicode="9" horiz-adv-x="737" 
d="M690 496c-14.667 -75.333 -34.335 -144.331 -59.002 -206.998s-55.167 -116.667 -91.5 -162s-78.666 -80.5 -126.999 -105.5s-103.833 -37.5 -166.5 -37.5c-39.333 0 -74.333 5.16699 -105 15.5s-56.167 25.833 -76.5 46.5s-34.833 46.334 -43.5 77.001
s-10.334 66.667 -5.00098 108h105c-3.33301 -24.667 -2 -46.5 4 -65.5s15.5 -35 28.5 -48s28.833 -22.833 47.5 -29.5s39 -10 61 -10c32 0 61.333 5.5 88 16.5s50.667 26.167 72 45.5s40.333 41.666 57 66.999s31.334 52.333 44.001 81s23.5 58.167 32.5 88.5
s16.5 59.833 22.5 88.5c-11.333 -14 -26.333 -28.5 -45 -43.5s-39.667 -28.833 -63 -41.5s-48.833 -23.167 -76.5 -31.5s-55.834 -12.5 -84.501 -12.5c-47.333 0 -87.833 8.16699 -121.5 24.5s-60.167 38.666 -79.5 66.999s-31.666 61.833 -36.999 100.5
s-3.66602 80.334 5.00098 125.001c8 42.667 22.833 83.167 44.5 121.5s48.834 71.666 81.501 99.999s70 50.833 112 67.5s87.667 25 137 25c58 0 105.833 -10.5 143.5 -31.5s66 -51.5 85 -91.5s29.167 -89.333 30.5 -148s-5.33398 -125.334 -20.001 -200.001z
M587.999 651.002c6 32 6.66797 61.667 2.00098 89s-13.834 50.666 -27.501 69.999s-31.667 34.5 -54 45.5s-48.5 16.5 -78.5 16.5c-29.333 0 -57.333 -5.5 -84 -16.5s-50.667 -26.167 -72 -45.5s-39.5 -42.666 -54.5 -69.999s-25.5 -57 -31.5 -89s-6.83301 -61.5 -2.5 -88.5
s13.333 -50.167 27 -69.5s31.5 -34.333 53.5 -45s48 -16 78 -16c29.333 0 57.5 5.33301 84.5 16s51.333 25.667 73 45s40 42.5 55 69.5s25.5 56.5 31.5 88.5z" />
    <glyph glyph-name="colon" unicode=":" horiz-adv-x="307" 
d="M264 627c-4 -22.667 -15.333 -42 -34 -58s-39.334 -24 -62.001 -24s-40.667 8 -54 24s-18 35.333 -14 58c5.33301 22.667 17.5 42 36.5 58s39.833 24 62.5 24s40.334 -8 53.001 -24s16.667 -35.333 12 -58zM158 72c-2 -11.333 -6.16797 -22 -12.501 -32
s-14 -18.667 -23 -26s-19 -13.166 -30 -17.499s-22.167 -6.5 -33.5 -6.5c-22.667 0 -40.167 8 -52.5 24s-16.5 35.333 -12.5 58c2 11.333 6.16699 22 12.5 32s14 18.667 23 26s18.833 13.166 29.5 17.499s21.667 6.5 33 6.5c22.667 0 40.334 -8 53.001 -24
s17 -35.333 13 -58z" />
    <glyph glyph-name="semicolon" unicode=";" horiz-adv-x="307" 
d="M264 627c-4 -22.667 -15.333 -42 -34 -58s-39.334 -24 -62.001 -24s-40.667 8 -54 24s-18 35.333 -14 58c5.33301 22.667 17.5 42 36.5 58s39.833 24 62.5 24s40.334 -8 53.001 -24s16.667 -35.333 12 -58zM160 49c-3.33301 -21.333 -9.50098 -42.167 -18.501 -62.5
s-20.167 -39.5 -33.5 -57.5s-28.166 -34.667 -44.499 -50s-33.5 -28.333 -51.5 -39l-43 31c28 17.333 50.333 35.5 67 54.5s28.667 37.833 36 56.5c-4 -1.33301 -9 -2 -15 -2c-22.667 0 -40.167 7.83301 -52.5 23.5s-16.5 34.834 -12.5 57.501c2 11.333 6.16699 22 12.5 32
s14 18.667 23 26s18.833 13.166 29.5 17.499s21.667 6.5 33 6.5c24.667 0 43.5 -8.66699 56.5 -26s17.5 -40 13.5 -68z" />
    <glyph glyph-name="less" unicode="&#x3c;" horiz-adv-x="737" 
d="M131 342l475 -260l-18 -92l-565 311l14 82l688 311l-18 -92z" />
    <glyph glyph-name="equal" unicode="=" horiz-adv-x="737" 
d="M29 412l18 92h664l-19 -92h-663zM-16 180l18 92h664l-19 -92h-663z" />
    <glyph glyph-name="greater" unicode="&#x3e;" horiz-adv-x="737" 
d="M-39 -10l19 92l573 260l-473 260l18 92l566 -311l-15 -82z" />
    <glyph glyph-name="question" unicode="?" horiz-adv-x="752" 
d="M709 717c-7.33301 -37.333 -19.5 -69.6631 -36.5 -96.9961s-36.167 -51.833 -57.5 -73.5s-44 -41.834 -68 -60.501s-46.5 -37.5 -67.5 -56.5s-39.5 -39.833 -55.5 -62.5s-27 -48.667 -33 -78l-10 -53h-115l13 63c6.66699 36 18 66.667 34 92s34.5 48.166 55.5 68.499
s43 39.166 66 56.499s45 35.833 66 55.5s39.5 41.667 55.5 66s27.333 53.5 34 87.5c9.33301 49.333 1.5 88.666 -23.5 117.999s-61.5 44 -109.5 44c-32 0 -61 -5.83301 -87 -17.5s-48.667 -27.5 -68 -47.5s-35.5 -43.667 -48.5 -71s-22.5 -56.333 -28.5 -87h-114
c8 46 22.667 88.667 44 128s48 73.5 80 102.5s68.5 51.667 109.5 68s85.167 24.5 132.5 24.5c41.333 0 78.166 -6.16699 110.499 -18.5s58.833 -30 79.5 -53s34.834 -51.167 42.501 -84.5s7.5 -71.333 -0.5 -114zM373 70.0029c-5.33301 -22.667 -17.001 -41.667 -35.001 -57
s-38.667 -23 -62 -23c-22.667 0 -40.167 7.66699 -52.5 23s-15.833 34.333 -10.5 57c4 22.667 15 41.667 33 57s38.333 23 61 23s40.334 -7.66699 53.001 -23s17 -34.333 13 -57z" />
    <glyph glyph-name="at" unicode="@" horiz-adv-x="1081" 
d="M1040 571c-11.333 -58.667 -32.1631 -112.002 -62.4961 -160.002s-64.5 -89.167 -102.5 -123.5s-77.167 -60.833 -117.5 -79.5s-76.5 -28 -108.5 -28c-23.333 0 -41.833 7.16699 -55.5 21.5s-18.834 36.5 -15.501 66.5h-5c-12 -12 -25 -23.5 -39 -34.5
s-29 -20.667 -45 -29s-32.5 -15.166 -49.5 -20.499s-33.833 -8 -50.5 -8c-28.667 0 -53.834 5.66699 -75.501 17s-39 26.666 -52 45.999s-21.667 42 -26 68s-3.5 54 2.5 84c8.66699 46.667 25 92.834 49 138.501s53.333 86.667 88 123s73.667 65.666 117 87.999
s89 33.5 137 33.5c16 0 31.333 -2.16699 46 -6.5s28 -11 40 -20s22 -20.5 30 -34.5s13 -30.333 15 -49l45 86h88l-188 -385c-6.66699 -13.333 -12.667 -26.666 -18 -39.999s-8.83301 -25.333 -10.5 -36s-0.833984 -19.167 2.49902 -25.5s10.333 -9.5 21 -9.5
c20.667 0 44.834 8.5 72.501 25.5s54.667 39.667 81 68s50 60.5 71 96.5s35.167 73 42.5 111c10 48.667 9.66699 94.834 -1 138.501s-30 81.834 -58 114.501s-64 58.667 -108 78s-94.333 29 -151 29c-59.333 0 -117.5 -11.333 -174.5 -34s-108.833 -53.5 -155.5 -92.5
s-86.5 -84.833 -119.5 -137.5s-55.167 -108.667 -66.5 -168c-12 -59.333 -11.667 -115.166 1 -167.499s34.834 -98.166 66.501 -137.499s71.5 -70.333 119.5 -93s101.667 -34 161 -34c68.667 0 135.167 14.833 199.5 44.5s121.5 69.5 171.5 119.5h88
c-28.667 -36 -61 -68.333 -97 -97s-74.333 -53.334 -115 -74.001s-83.167 -36.5 -127.5 -47.5s-88.833 -16.5 -133.5 -16.5c-69.333 0 -132.166 13.167 -188.499 39.5s-103 62.166 -140 107.499s-62.667 98.666 -77 159.999s-14.5 126.666 -0.5 195.999
c13.333 70 39.333 135.5 78 196.5s85.334 114.333 140.001 160s115.167 81.667 181.5 108s134.166 39.5 203.499 39.5c59.333 0 114.666 -9.83301 165.999 -29.5s94.666 -47.667 129.999 -84s60.666 -80.166 75.999 -131.499s16.666 -108.333 3.99902 -171zM698.003 556.998
c3.33301 16.667 3.50098 32.501 0.500977 47.501s-8.5 28.167 -16.5 39.5s-18 20.5 -30 27.5s-25.333 10.5 -40 10.5c-32 0 -63 -9.16699 -93 -27.5s-57 -41.5 -81 -69.5s-44.5 -58.5 -61.5 -91.5s-28.5 -64.5 -34.5 -94.5c-7.33301 -38 -3 -69.333 13 -94s41 -37 75 -37
c29.333 0 58.833 9.83301 88.5 29.5s57 44.167 82 73.5s46.167 60.666 63.5 93.999s28.666 64 33.999 92z" />
    <glyph glyph-name="A" unicode="A" horiz-adv-x="858" 
d="M592 291h-399l-164 -291h-131l559 965h139l180 -965h-137zM500 844l-248 -445h319l-69 445h-2z" />
    <glyph glyph-name="B" unicode="B" horiz-adv-x="907" 
d="M858 725c-10 -50 -31.333 -93.3301 -64 -129.997s-72 -64.334 -118 -83.001l-2 -2c56.667 -12.667 96.5 -39.834 119.5 -81.501s28.167 -93.834 15.5 -156.501c-7.33301 -35.333 -20.5 -69.333 -39.5 -102s-43.333 -61.667 -73 -87s-64.167 -45.5 -103.5 -60.5
s-82.666 -22.5 -129.999 -22.5h-453l189 965h403c55.333 0 101.166 -5.66699 137.499 -17s64.5 -27.5 84.5 -48.5s32.5 -46.333 37.5 -76s3.83301 -62.5 -3.5 -98.5zM729 717.003c6 30 5.00098 54.167 -2.99902 72.5s-20.5 32.5 -37.5 42.5s-37.333 16.5 -61 19.5
s-47.834 4.5 -72.501 4.5h-252l-59 -305h262c70.667 0 123 13.5 157 40.5s56 68.833 66 125.5zM684.001 276.003c6 32 5.66699 58.5 -1 79.5s-18.167 38 -34.5 51s-36.5 22.167 -60.5 27.5s-50 8 -78 8h-287l-65 -333h305c58.667 0 107.667 14.833 147 44.5
s64 70.5 74 122.5z" />
    <glyph glyph-name="C" unicode="C" horiz-adv-x="956" 
d="M807 670c0.666992 35.333 -4.3291 66.166 -14.9961 92.499s-26.334 48.333 -47.001 66s-45.334 30.834 -74.001 39.501s-60.667 13 -96 13c-54.667 0 -103.834 -11.167 -147.501 -33.5s-81.834 -52 -114.501 -89s-59.834 -79.5 -81.501 -127.5s-37.5 -97.333 -47.5 -148
c-11.333 -56.667 -14.833 -109.167 -10.5 -157.5s16.166 -90.333 35.499 -126s46.333 -63.5 81 -83.5s76.667 -30 126 -30c46.667 0 88.5 7 125.5 21s69.333 33.5 97 58.5s51.167 54.5 70.5 88.5s35 71 47 111h127c-18 -60.667 -42.167 -115 -72.5 -163
s-66 -88.667 -107 -122s-87.5 -58.833 -139.5 -76.5s-108.333 -26.5 -169 -26.5c-73.333 0 -134.666 13 -183.999 39s-87.833 61.667 -115.5 107s-44.5 98.833 -50.5 160.5s-2 128.167 12 199.5c13.333 70 36.166 135.667 68.499 197s71.833 114.833 118.5 160.5
s99.834 81.5 159.501 107.5s123.834 39 192.501 39c52 0 99.5 -6.66699 142.5 -20s79.5 -33.166 109.5 -59.499s52.5 -59.333 67.5 -99s20.5 -85.834 16.5 -138.501h-125v0z" />
    <glyph glyph-name="D" unicode="D" horiz-adv-x="934" 
d="M885 481c-14 -70.667 -35.5 -135.5 -64.5 -194.5s-66 -109.667 -111 -152s-98.333 -75.333 -160 -99s-132.167 -35.5 -211.5 -35.5h-328l189 965h327c154 0 260.167 -39.5 318.5 -118.5s71.833 -200.833 40.5 -365.5zM758 483
c11.333 57.333 16.334 108.999 15.001 154.999s-11.5 85.167 -30.5 117.5s-47.833 57.166 -86.5 74.499s-89.334 26 -152.001 26h-201l-145 -747h200c14.667 0 33 1 55 3s45.833 7 71.5 15s52.167 19.833 79.5 35.5s53.333 37.334 78 65.001s47.167 62.334 67.5 104.001
s36.5 92.167 48.5 151.5z" />
    <glyph glyph-name="E" unicode="E" horiz-adv-x="805" 
d="M303 856l-59 -305h481l-20 -109h-482l-65 -333h526l-20 -109h-654l189 965h649l-23 -109h-522z" />
    <glyph glyph-name="F" unicode="F" horiz-adv-x="756" 
d="M303 856l-59 -305h438l-20 -109h-439l-86 -442h-127l189 965h618l-22 -109h-492z" />
    <glyph glyph-name="G" unicode="G" horiz-adv-x="1006" 
d="M825 668c2 36.667 -2.66602 68.333 -13.999 95s-27.666 48.834 -48.999 66.501s-47 30.667 -77 39s-62.333 12.5 -97 12.5c-56 0 -106.833 -11.5 -152.5 -34.5s-85.667 -53.333 -120 -91s-62.666 -80.834 -84.999 -129.501s-38.5 -99 -48.5 -151
c-10 -51.333 -12.5 -100.5 -7.5 -147.5s17.833 -88.333 38.5 -124s49.167 -64.167 85.5 -85.5s80.833 -32 133.5 -32c48.667 0 93.667 8.16699 135 24.5s77.833 38.666 109.5 66.999s57.667 61.5 78 99.5s33.833 78.667 40.5 122h-306l21 109h420l-99 -508h-79l-11 121
c-22.667 -26 -47.334 -48 -74.001 -66s-54.334 -32.833 -83.001 -44.5s-57.667 -20.167 -87 -25.5s-57.666 -8 -84.999 -8c-72.667 0 -134.334 13.833 -185.001 41.5s-90.834 64.5 -120.501 110.5s-48.667 99 -57 159s-6.5 122.333 5.5 187c13.333 68.667 36 134 68 196
s71.667 116.333 119 163s101.833 83.834 163.5 111.501s129.167 41.5 202.5 41.5c50.667 0 97.667 -6 141 -18s80.333 -31 111 -57s54.167 -59.167 70.5 -99.5s22.833 -88.5 19.5 -144.5h-125v0z" />
    <glyph glyph-name="H" unicode="H" horiz-adv-x="952" 
d="M631 0l86 442h-494l-86 -442h-127l189 965h127l-82 -414h493l82 414h125l-188 -965h-125z" />
    <glyph glyph-name="I" unicode="I" horiz-adv-x="348" 
d="M18 0l189 965h127l-189 -965h-127z" />
    <glyph glyph-name="J" unicode="J" horiz-adv-x="690" 
d="M545 258c-37.333 -187.333 -148.666 -281 -333.999 -281c-90 0 -154.833 23.333 -194.5 70s-49.834 115.667 -30.501 207l12 57h123l-8 -39c-6 -27.333 -8.83301 -52.5 -8.5 -75.5s4.83301 -42.667 13.5 -59s22.167 -29 40.5 -38s42.5 -13.5 72.5 -13.5
c28 0 52.5 3.5 73.5 10.5s39 18.333 54 34s27.667 35.667 38 60s18.833 53.833 25.5 88.5l135 686h127l-139 -707v0z" />
    <glyph glyph-name="K" unicode="K" horiz-adv-x="877" 
d="M788 0h-151l-252 483l-184 -157l-64 -326h-127l189 965h127l-95 -482l562 482h161l-467 -398z" />
    <glyph glyph-name="L" unicode="L" horiz-adv-x="729" 
d="M10 0l189 965h127l-168 -856h493l-20 -109h-621z" />
    <glyph glyph-name="M" unicode="M" horiz-adv-x="1149" 
d="M834 0l153 795h-4l-448 -795h-107l-137 795h-4l-154 -795h-119l189 965h172l137 -801h4l451 801h174l-189 -965h-118z" />
    <glyph glyph-name="N" unicode="N" horiz-adv-x="956" 
d="M627 0l-344 772h-4l-150 -772h-119l189 965h133l346 -781h2l154 781h116l-188 -965h-135z" />
    <glyph glyph-name="O" unicode="O" horiz-adv-x="1004" 
d="M958 483c-12.667 -65.333 -34.333 -128.5 -65 -189.5s-69.5 -115 -116.5 -162s-101.5 -84.5 -163.5 -112.5s-131 -42 -207 -42s-139.833 14 -191.5 42s-92 65.5 -121 112.5s-47.167 101 -54.5 162s-4.66602 124.167 8.00098 189.5s34.5 128.333 65.5 189
s70.167 114.334 117.5 161.001s102.166 84 164.499 112s131.5 42 207.5 42s139.667 -14 191 -42s91.333 -65.333 120 -112s46.5 -100.334 53.5 -161.001s4.16699 -123.667 -8.5 -189zM831.001 483c9.33301 48.667 12.501 96.834 9.50098 144.501s-14 90.167 -33 127.5
s-46.833 67.666 -83.5 90.999s-84 35 -142 35c-58.667 0 -111.167 -11.667 -157.5 -35s-86.5 -53.666 -120.5 -90.999s-61.833 -79.833 -83.5 -127.5s-37.167 -95.834 -46.5 -144.501c-10 -48.667 -13.333 -96.667 -10 -144s14.666 -89.833 33.999 -127.5
s47.666 -68 84.999 -91s85 -34.5 143 -34.5s110 11.5 156 34.5s85.833 53.333 119.5 91s61.334 80.167 83.001 127.5s37.167 95.333 46.5 144z" />
    <glyph glyph-name="P" unicode="P" horiz-adv-x="856" 
d="M848 678c-8 -44 -21.334 -83.667 -40.001 -119s-43.167 -65.5 -73.5 -90.5s-66.5 -44.167 -108.5 -57.5s-90.333 -20 -145 -20h-268l-76 -391h-127l189 965h395c54.667 0 100.334 -6.66699 137.001 -20s65 -32.333 85 -57s32.5 -54.667 37.5 -90
s3.16699 -75.333 -5.5 -120zM720.999 678c10.667 60 1.66699 104.667 -27 134s-84 44 -166 44h-225l-70 -356h226c82 0 143.167 14.333 183.5 43s66.5 73.667 78.5 135z" />
    <glyph glyph-name="Q" unicode="Q" horiz-adv-x="1004" 
d="M958 483c-14 -74.667 -39 -145 -75 -211s-83.333 -123.333 -142 -172l97 -96l-78 -82l-117 113c-36 -18.667 -73.5 -33 -112.5 -43s-80.5 -15 -124.5 -15c-76 0 -139.833 14 -191.5 42s-92 65.5 -121 112.5s-47.167 101 -54.5 162s-4.66602 124.167 8.00098 189.5
s34.5 128.333 65.5 189s70.167 114.334 117.5 161.001s102.166 84 164.499 112s131.5 42 207.5 42s139.667 -14 191 -42s91.333 -65.333 120 -112s46.5 -100.334 53.5 -161.001s4.16699 -123.667 -8.5 -189zM834 483c8.66699 48.667 11.3369 96.833 8.00391 144.5
s-14.5 90.167 -33.5 127.5s-46.833 67.666 -83.5 90.999s-84.334 35 -143.001 35s-111.167 -11.667 -157.5 -35s-86.5 -53.666 -120.5 -90.999s-61.833 -79.833 -83.5 -127.5s-37.167 -95.834 -46.5 -144.501c-10 -48.667 -13.333 -96.667 -10 -144
s14.666 -89.833 33.999 -127.5s47.666 -68 84.999 -91s85 -34.5 143 -34.5c25.333 0 49.5 2.33301 72.5 7s45.167 11.334 66.5 20.001l-84 80l82 79l103 -98c46 40 82.667 87 110 141s46.666 110 57.999 168z" />
    <glyph glyph-name="R" unicode="R" horiz-adv-x="903" 
d="M877 702c-4.66699 -24 -12.5 -48.1689 -23.5 -72.502s-25.167 -47.166 -42.5 -68.499s-37.833 -40.333 -61.5 -57s-50.167 -29 -79.5 -37v-2c26 -6 46.167 -15.667 60.5 -29s24.5 -29.166 30.5 -47.499s9.16699 -38.333 9.5 -60s-0.5 -43.834 -2.5 -66.501
c-2.66699 -23.333 -5.83398 -47 -9.50098 -71s-6.16699 -47.5 -7.5 -70.5s-0.666016 -44.833 2.00098 -65.5s9 -39 19 -55h-139c-7.33301 10 -11.333 24.167 -12 42.5s0.333008 38.333 3 60s6 44 10 67s7 44.167 9 63.5c2.66699 24 3.83398 46.667 3.50098 68
s-4.83301 40.333 -13.5 57s-22.334 29.834 -41.001 39.501s-44.667 14.5 -78 14.5h-297l-80 -412h-127l189 965h436c51.333 0 94 -6.5 128 -19.5s60.667 -31.167 80 -54.5s31.5 -51 36.5 -83s4.16699 -67.333 -2.5 -106zM750 691.998c4.66699 23.333 5.66699 45 3 65
s-9.66699 37.333 -21 52s-27.333 26.167 -48 34.5s-46.667 12.5 -78 12.5h-303l-65 -336h251c30.667 0 60.167 2.33301 88.5 7s54 13.334 77 26.001s42.833 30.167 59.5 52.5s28.667 51.166 36 86.499z" />
    <glyph glyph-name="S" unicode="S" horiz-adv-x="858" 
d="M692 684c4 34.667 2.00586 64.4961 -5.99414 89.4961s-20.5 45.5 -37.5 61.5s-38 27.667 -63 35s-52.833 11 -83.5 11c-30 0 -59 -3.5 -87 -10.5s-53.333 -17.5 -76 -31.5s-41.667 -31 -57 -51s-25.333 -43 -30 -69c-6 -31.333 -2.33301 -56.333 11 -75s33 -34 59 -46
s56.5 -21.833 91.5 -29.5s71.167 -16.167 108.5 -25.5c24 -6 47.667 -12.5 71 -19.5s45.166 -15.333 65.499 -25s38.666 -21.5 54.999 -35.5s29.5 -30.667 39.5 -50s16.333 -42 19 -68s0.666992 -56.333 -6 -91c-9.33301 -48 -27.333 -89.5 -54 -124.5
s-59.334 -63.833 -98.001 -86.5s-81.667 -39.334 -129 -50.001s-96.333 -16 -147 -16c-52 0 -100 6.83301 -144 20.5s-80.833 34.5 -110.5 62.5s-50.834 63.333 -63.501 106s-13.334 93 -2.00098 151h119c-8 -40 -7.16699 -74.5 2.5 -103.5s25.334 -53 47.001 -72
s47.834 -33 78.501 -42s63 -13.5 97 -13.5c28 0 57.167 2.66699 87.5 8s58.666 14.5 84.999 27.5s49.166 30.333 68.499 52s32 48.5 38 80.5c6 32.667 3.66699 59.5 -7 80.5s-27.834 38.5 -51.501 52.5s-53.167 25.833 -88.5 35.5s-74.333 19.167 -117 28.5
c-36.667 7.33301 -72 16.5 -106 27.5s-63.333 26 -88 45s-42.834 42.833 -54.501 71.5s-13.5 64.334 -5.5 107.001c9.33301 48.667 26.833 90.834 52.5 126.501s56.667 65.334 93 89.001s76.5 41.167 120.5 52.5s89 17 135 17c47.333 0 90.333 -5.83301 129 -17.5
s70.834 -29.667 96.501 -54s44 -55.666 55 -93.999s12.5 -84.166 4.5 -137.499h-117v0z" />
    <glyph glyph-name="T" unicode="T" horiz-adv-x="754" 
d="M514 856l-166 -856h-127l166 856h-311l22 109h750l-23 -109h-311z" />
    <glyph glyph-name="U" unicode="U" horiz-adv-x="961" 
d="M840 360c-13.333 -68.667 -33.6689 -127.167 -61.002 -175.5s-60.333 -87.833 -99 -118.5s-82.5 -53.167 -131.5 -67.5s-101.5 -21.5 -157.5 -21.5c-61.333 0 -114.666 7.16699 -159.999 21.5s-81.666 36.833 -108.999 67.5s-45.166 70.167 -53.499 118.5
s-5.83301 106.833 7.5 175.5l119 605h127l-119 -605c-18.667 -94 -9.33398 -163.167 27.999 -207.5s97.666 -66.5 180.999 -66.5c80 0 145.833 22 197.5 66s86.834 113.333 105.501 208l119 605h124l-118 -605v0z" />
    <glyph glyph-name="V" unicode="V" horiz-adv-x="809" 
d="M242 0l-150 965h137l111 -826h2l436 826h133l-528 -965h-141z" />
    <glyph glyph-name="W" unicode="W" horiz-adv-x="1223" 
d="M743 0l-67 801h-4l-375 -801h-131l-53 965h129l30 -791h4l365 791h135l58 -791h4l338 791h129l-431 -965h-131z" />
    <glyph glyph-name="X" unicode="X" horiz-adv-x="805" 
d="M717 0h-144l-186 393l-338 -393h-143l426 496l-217 469h149l162 -371l309 371h150l-402 -469z" />
    <glyph glyph-name="Y" unicode="Y" horiz-adv-x="858" 
d="M401 0h-127l78 395l-254 570h150l188 -453h4l365 453h149l-475 -570z" />
    <glyph glyph-name="Z" unicode="Z" horiz-adv-x="809" 
d="M106 109h603l-21 -109h-749l20 109l741 747h-557l23 109h702l-22 -109z" />
    <glyph glyph-name="bracketleft" unicode="[" horiz-adv-x="369" 
d="M207 1036h250l-17 -90h-143l-209 -1071h143l-18 -92h-250z" />
    <glyph glyph-name="backslash" unicode="\" horiz-adv-x="451" 
d="M76 987h98l205 -1010h-100z" />
    <glyph glyph-name="bracketright" unicode="]" horiz-adv-x="369" 
d="M-96 -125h143l209 1071h-143l16 90h250l-244 -1253h-250z" />
    <glyph glyph-name="asciicircum" unicode="^" horiz-adv-x="737" 
d="M442 844h-4l-311 -488h-88l381 586h78l155 -586h-88z" />
    <glyph glyph-name="underscore" unicode="_" horiz-adv-x="737" 
d="M-129 -193l16 91h738l-17 -91h-737z" />
    <glyph glyph-name="grave" unicode="`" horiz-adv-x="301" 
d="M70 987h147l78 -192h-88z" />
    <glyph glyph-name="a" unicode="a" horiz-adv-x="760" 
d="M475 0l25.0029 114.999h-4c-13.333 -21.333 -29.166 -39.833 -47.499 -55.5s-38 -28.5 -59 -38.5s-42.667 -17.333 -65 -22s-44.5 -7 -66.5 -7c-50.667 0 -93 9.5 -127 28.5s-60.5 44.833 -79.5 77.5s-30.5 70.5 -34.5 113.5s-1.33301 88.5 8 136.5
c8 40.667 21.5 82.834 40.5 126.501s44.167 83.167 75.5 118.5s69.166 64.5 113.499 87.5s96.166 34.5 155.499 34.5c20.667 0 40.667 -2.16699 60 -6.5s37.166 -10.833 53.499 -19.5s30.666 -20 42.999 -34s21.5 -30.333 27.5 -49h-2h4l16 92h107l-137 -698h-107z
M541.003 359.999c6 32 8.49902 63.3311 7.49902 93.998s-6.83301 57.834 -17.5 81.501s-27 42.667 -49 57s-51 21.5 -87 21.5s-68 -7 -96 -21s-52.5 -32.667 -73.5 -56s-38.333 -50.333 -52 -81s-23.834 -62.667 -30.501 -96c-7.33301 -37.333 -10.5 -72.166 -9.5 -104.499
s7.33301 -60.5 19 -84.5s29 -42.833 52 -56.5s53.167 -20.5 90.5 -20.5c34 0 64.833 7.66699 92.5 23s51.834 35.5 72.501 60.5s37.834 53.333 51.501 85s23.5 64.167 29.5 97.5z" />
    <glyph glyph-name="b" unicode="b" horiz-adv-x="784" 
d="M715 350c-10 -49.333 -25.8311 -96.168 -47.498 -140.501s-48.834 -83.166 -81.501 -116.499s-70.5 -59.833 -113.5 -79.5s-90.5 -29.5 -142.5 -29.5c-18 0 -36.833 1.83301 -56.5 5.5s-38.5 9.5 -56.5 17.5s-34.667 18.667 -50 32s-28 29.666 -38 48.999h-4l-16 -88
h-113l188 965h113l-70 -353h4c30 36 65.833 62.167 107.5 78.5s86.5 24.5 134.5 24.5c51.333 0 94.666 -9.83301 129.999 -29.5s63 -46.167 83 -79.5s32.333 -72.166 37 -116.499s2 -90.833 -8 -139.5zM594.002 349.998c6.66699 34 8.83105 67.0029 6.49805 99.0029
s-9.66602 60.167 -21.999 84.5s-30 43.833 -53 58.5s-51.5 22 -85.5 22c-40 0 -75.333 -7.66699 -106 -23s-56.834 -35.333 -78.501 -60s-39.334 -52.834 -53.001 -84.501s-23.834 -63.834 -30.501 -96.501c-6.66699 -34 -9.16699 -67 -7.5 -99
s8.83398 -60.167 21.501 -84.5s31.334 -43.833 56.001 -58.5s56.667 -22 96 -22c36.667 0 69.334 7.16699 98.001 21.5s53.667 33.666 75 57.999s38.833 52.333 52.5 84s23.834 65.167 30.501 100.5z" />
    <glyph glyph-name="c" unicode="c" horiz-adv-x="711" 
d="M551 471c0 46 -12.168 80.9961 -36.501 104.996s-60.5 36 -108.5 36c-38.667 0 -72.834 -7.16699 -102.501 -21.5s-55.5 -33.666 -77.5 -57.999s-40 -52.5 -54 -84.5s-24.333 -65.333 -31 -100c-6 -32 -8.5 -63.667 -7.5 -95s7 -59.333 18 -84s28 -44.667 51 -60
s53.167 -23 90.5 -23c26.667 0 51.834 4.33301 75.501 13s44.834 20.5 63.501 35.5s34.834 32.833 48.501 53.5s24.167 43.334 31.5 68.001h115c-11.333 -41.333 -28 -78.666 -50 -111.999s-48.333 -61.833 -79 -85.5s-65.167 -42 -103.5 -55s-79.166 -19.5 -122.499 -19.5
c-50.667 0 -94 8.33301 -130 25s-64.5 40.834 -85.5 72.501s-34.167 70 -39.5 115s-2.66602 95.5 8.00098 151.5c9.33301 51.333 24.833 99.333 46.5 144s49.167 83.5 82.5 116.5s72.666 59 117.999 78s96.666 28.5 153.999 28.5c36 0 69.667 -5 101 -15
s58.166 -25 80.499 -45s38.833 -45.333 49.5 -76s13.667 -66.667 9 -108h-115v0z" />
    <glyph glyph-name="d" unicode="d" horiz-adv-x="784" 
d="M492 0l18.002 90.0049h-4c-15.333 -21.333 -33.166 -38.833 -53.499 -52.5s-41.666 -24.5 -63.999 -32.5s-44.5 -13.5 -66.5 -16.5s-42 -4.5 -60 -4.5c-50.667 0 -93.334 9.83301 -128.001 29.5s-61.834 46.167 -81.501 79.5s-31.667 72.166 -36 116.499
s-1.5 91.166 8.5 140.499c9.33301 48.667 24.666 95.167 45.999 139.5s48.166 83.166 80.499 116.499s69.833 59.833 112.5 79.5s90 29.5 142 29.5c22.667 0 44.667 -2 66 -6s40.833 -10.333 58.5 -19s33 -19.834 46 -33.501s22.833 -29.834 29.5 -48.501h4l70 357h113
l-189 -965h-112zM563.002 350.005c6.66699 32.667 9.33301 64.832 8 96.499s-8.16602 59.834 -20.499 84.501s-30.833 44.667 -55.5 60s-57.334 23 -98.001 23c-36 0 -68.333 -7.5 -97 -22.5s-53.667 -34.667 -75 -59s-39 -52.333 -53 -84s-24.333 -64.5 -31 -98.5
s-8.83398 -67 -6.50098 -99s9.66602 -60.167 21.999 -84.5s30 -43.833 53 -58.5s51.5 -22 85.5 -22c40.667 0 76.334 7.33301 107.001 22s56.667 34.167 78 58.5s38.833 52.5 52.5 84.5s23.834 65 30.501 99z" />
    <glyph glyph-name="e" unicode="e" horiz-adv-x="711" 
d="M135 315c-6 -30.667 -7.50195 -59.8311 -4.50195 -87.498s11.167 -52 24.5 -73s32.166 -37.667 56.499 -50s54.833 -18.5 91.5 -18.5c48 0 89.833 11.5 125.5 34.5s62.167 56.5 79.5 100.5h110c-30 -76.667 -74.167 -135.334 -132.5 -176.001s-125.833 -61 -202.5 -61
c-55.333 0 -101.833 9 -139.5 27s-67 43.167 -88 75.5s-33.833 70.833 -38.5 115.5s-2 94 8 148c10 52.667 27.333 101.334 52 146.001s54.334 83.167 89.001 115.5s73.334 57.666 116.001 75.999s87.334 27.5 134.001 27.5c60.667 0 109.167 -12 145.5 -36
s63 -55.167 80 -93.5s25.5 -81.333 25.5 -129s-6 -94.834 -18 -141.501h-514zM548.998 416.003c4.66699 28 4.33203 54 -1.00098 78s-14.833 45 -28.5 63s-31 32 -52 42s-44.5 15 -70.5 15c-30.667 0 -59.167 -5.33301 -85.5 -16s-49.833 -25 -70.5 -43
s-38.167 -39 -52.5 -63s-25.166 -49.333 -32.499 -76h393z" />
    <glyph glyph-name="f" unicode="f" horiz-adv-x="391" 
d="M469 862c-9.33301 4 -20 7 -32 9s-23.333 3 -34 3c-28 0 -49.5 -6.16699 -64.5 -18.5s-26.167 -35.5 -33.5 -69.5l-18 -88h131l-19 -100h-131l-116 -598h-113l117 598h-119l18 100h119l19 95c24 122.667 98.333 184 223 184c10 0 21.833 -1.33301 35.5 -4
s25.5 -6 35.5 -10l-18 -101v0z" />
    <glyph glyph-name="g" unicode="g" horiz-adv-x="760" 
d="M594 53c-10 -52 -25.3311 -99.0029 -45.998 -141.003s-46.667 -77.5 -78 -106.5s-68 -51.333 -110 -67s-89.667 -23.5 -143 -23.5c-33.333 0 -66.166 3.33301 -98.499 10s-60.833 17.834 -85.5 33.501s-43.334 36.834 -56.001 63.501s-16 60 -10 100h113
c-2.66699 -22 0 -40.333 8 -55s19.333 -26.5 34 -35.5s31.334 -15.333 50.001 -19s37.667 -5.5 57 -5.5c74 0 131.833 22 173.5 66s70.5 107.333 86.5 190l11 52h-4c-13.333 -21.333 -29.166 -39.833 -47.499 -55.5s-38 -28.5 -59 -38.5s-42.667 -17.333 -65 -22
s-44.5 -7 -66.5 -7c-50.667 0 -93 9.5 -127 28.5s-60.5 44.833 -79.5 77.5s-30.5 70.5 -34.5 113.5s-1.33301 88.5 8 136.5c8 40.667 21.5 82.834 40.5 126.501s44.167 83.167 75.5 118.5s69.166 64.5 113.499 87.5s96.166 34.5 155.499 34.5
c20.667 0 40.667 -2.16699 60 -6.5s37.166 -10.833 53.499 -19.5s30.666 -20 42.999 -34s21.5 -30.333 27.5 -49h-2h4l16 92h107zM541.002 359.997c6 32 8.49902 63.3311 7.49902 93.998s-6.83301 57.834 -17.5 81.501s-27 42.667 -49 57s-51 21.5 -87 21.5s-68 -7 -96 -21
s-52.5 -32.667 -73.5 -56s-38.333 -50.333 -52 -81s-23.834 -62.667 -30.501 -96c-7.33301 -37.333 -10.5 -72.166 -9.5 -104.499s7.33301 -60.5 19 -84.5s29 -42.833 52 -56.5s53.167 -20.5 90.5 -20.5c34 0 64.833 7.66699 92.5 23s51.834 35.5 72.501 60.5
s37.834 53.333 51.501 85s23.5 64.167 29.5 97.5z" />
    <glyph glyph-name="h" unicode="h" horiz-adv-x="741" 
d="M453 0l89.999 462.999c10 50 3.83301 87.667 -18.5 113s-56.5 38 -102.5 38c-34 0 -64.333 -5.66699 -91 -17s-50.167 -27.166 -70.5 -47.499s-37.166 -44.5 -50.499 -72.5s-23.333 -58.667 -30 -92l-76 -385h-112l188 965h113l-70 -359h4c14 18.667 30.333 35 49 49
s38.334 25.333 59.001 34s41.667 15.167 63 19.5s41.666 6.5 60.999 6.5c47.333 0 85.5 -6.33301 114.5 -19s50.5 -30.5 64.5 -53.5s21.667 -51 23 -84s-2 -69.5 -10 -109.5l-88 -449h-110z" />
    <glyph glyph-name="i" unicode="i" horiz-adv-x="299" 
d="M164 829l26 136h113l-27 -136h-112zM2 0l135 698h113l-135 -698h-113z" />
    <glyph glyph-name="j" unicode="j" horiz-adv-x="299" 
d="M164 829l26 136h113l-27 -136h-112zM98 -80c-12 -64.667 -34 -112.167 -66 -142.5s-74 -45.5 -126 -45.5c-15.333 0 -29 0.833008 -41 2.5s-21.667 3.5 -29 5.5l21 102c12 -5.33301 29 -8 51 -8c23.333 0 41 8.33301 53 25s21.667 44 29 82l147 757h113z" />
    <glyph glyph-name="k" unicode="k" horiz-adv-x="684" 
d="M592 0h-139l-168 367l-121 -107l-51 -260h-113l188 965h113l-113 -572l361 307h151l-315 -260z" />
    <glyph glyph-name="l" unicode="l" horiz-adv-x="299" 
d="M2 0l188 965h113l-188 -965h-113z" />
    <glyph glyph-name="m" unicode="m" horiz-adv-x="1126" 
d="M838 0l88 449.001c4.66699 24 7 46.167 7 66.5s-3.66699 37.666 -11 51.999s-19 25.666 -35 33.999s-37.333 12.5 -64 12.5c-54 0 -100.167 -16.167 -138.5 -48.5s-63.166 -78.833 -74.499 -139.5l-82 -426h-114l88 449c4.66699 25.333 7.16699 48.166 7.5 68.499
s-3 37.666 -10 51.999s-18 25.333 -33 33s-35.167 11.5 -60.5 11.5c-33.333 0 -62.833 -6.83301 -88.5 -20.5s-47.667 -30.334 -66 -50.001s-33 -40.167 -44 -61.5s-18.167 -40 -21.5 -56l-82 -426h-112l135 698h106l-18 -100h2c67.333 78 149.333 117 246 117
c20.667 0 40 -2 58 -6s34 -10.667 48 -20s25.667 -21.5 35 -36.5s15.666 -33.167 18.999 -54.5h2c14.667 20 32 37.333 52 52s40.667 26.834 62 36.501s42.5 16.834 63.5 21.501s40.167 7 57.5 7c33.333 0 63.333 -3.66699 90 -11s48.5 -19.166 65.5 -35.499
s28.667 -38.166 35 -65.499s5.83301 -61 -1.5 -101l-99 -502h-112z" />
    <glyph glyph-name="n" unicode="n" horiz-adv-x="741" 
d="M453 0l89.999 463c4 21.333 5.33301 41.166 4 59.499s-6 34.333 -14 48s-20 24.334 -36 32.001s-36.333 11.5 -61 11.5c-40 0 -74.667 -6 -104 -18s-54.166 -28.5 -74.499 -49.5s-36.833 -45.333 -49.5 -73s-22 -57.167 -28 -88.5l-76 -385h-112l135 698h106l-20 -108h2
c34 42 72.333 73.333 115 94s89 31 139 31c82 0 137 -21.333 165 -64s34.333 -104 19 -184l-90 -467h-110z" />
    <glyph glyph-name="o" unicode="o" horiz-adv-x="758" 
d="M690 348c-10 -50.667 -26.498 -98.167 -49.498 -142.5s-52 -82.833 -87 -115.5s-75.333 -58.5 -121 -77.5s-96.167 -28.5 -151.5 -28.5s-101.833 9.5 -139.5 28.5s-67.167 44.833 -88.5 77.5s-34.833 71.167 -40.5 115.5s-3.83398 91.833 5.49902 142.5
c10 52 26.5 100.333 49.5 145s51.833 83.5 86.5 116.5s74.667 58.833 120 77.5s95.333 28 150 28c55.333 0 102.166 -9.33301 140.499 -28s68.5 -44.5 90.5 -77.5s35.833 -71.833 41.5 -116.5s3.5 -93 -6.5 -145zM567.002 348c8 42.667 9.66309 80.5 4.99609 113.5
s-14.5 60.833 -29.5 83.5s-34.5 39.834 -58.5 51.501s-51 17.5 -81 17.5c-29.333 0 -58.166 -5.83301 -86.499 -17.5s-54.333 -28.834 -78 -51.501s-44.167 -50.5 -61.5 -83.5s-30 -70.833 -38 -113.5c-8 -42 -9.66699 -79.333 -5 -112s14.334 -60 29.001 -82
s33.834 -38.833 57.501 -50.5s50.5 -17.5 80.5 -17.5s59.333 5.83301 88 17.5s54.834 28.5 78.501 50.5s44.167 49.333 61.5 82s30 70 38 112z" />
    <glyph glyph-name="p" unicode="p" horiz-adv-x="784" 
d="M715 348c-10 -49.333 -25.832 -96.167 -47.499 -140.5s-48.834 -83 -81.501 -116s-70.5 -59.167 -113.5 -78.5s-90.5 -29 -142.5 -29c-18 0 -37 1.5 -57 4.5s-39.167 8.5 -57.5 16.5s-35 18.833 -50 32.5s-26.5 31.167 -34.5 52.5h-4l-70 -358h-112l186 966h113l-17 -90
h4c30 36 65.833 62.833 107.5 80.5s86.5 26.5 134.5 26.5c52 0 95.667 -9.83301 131 -29.5s63 -46.334 83 -80.001s32.167 -72.667 36.5 -117s1.5 -91.166 -8.5 -140.499zM596.001 349.999c6.66699 34 8.83496 67.002 6.50195 99.002s-9.83301 60.167 -22.5 84.5
s-30.834 43.833 -54.501 58.5s-53.5 22 -89.5 22c-38 0 -71.833 -7.66699 -101.5 -23s-55.334 -35.333 -77.001 -60s-39.334 -52.834 -53.001 -84.501s-23.834 -63.834 -30.501 -96.501c-6.66699 -34 -9.16699 -67 -7.5 -99s8.83398 -60.167 21.501 -84.5
s31.334 -43.833 56.001 -58.5s56.667 -22 96 -22c38.667 0 72.5 7.66699 101.5 23s54 35.5 75 60.5s38 53.333 51 85s22.5 63.5 28.5 95.5z" />
    <glyph glyph-name="q" unicode="q" horiz-adv-x="784" 
d="M440 -268l70 358.001h-4c-16.667 -21.333 -35.334 -38.833 -56.001 -52.5s-42 -24.5 -64 -32.5s-43.667 -13.5 -65 -16.5s-41 -4.5 -59 -4.5c-52 0 -95.667 9.66699 -131 29s-62.833 45.5 -82.5 78.5s-31.667 71.667 -36 116s-1.83301 91.166 7.5 140.499
c10 49.333 25.833 96.166 47.5 140.499s48.834 83.333 81.501 117s70.5 60.334 113.5 80.001s90.833 29.5 143.5 29.5c48 0 89.833 -8.83301 125.5 -26.5s60.5 -44.5 74.5 -80.5h4l17 90h112l-186 -966h-113zM561 350.001c6.66699 32.667 9.33496 64.832 8.00195 96.499
s-8 59.834 -20 84.501s-30 44.667 -54 60s-55.333 23 -94 23c-36 0 -68.5 -7.33301 -97.5 -22s-54.667 -34.167 -77 -58.5s-40.833 -52.5 -55.5 -84.5s-25.334 -65 -32.001 -99c-6 -32 -8.5 -63.833 -7.5 -95.5s7 -60 18 -85s28 -45.167 51 -60.5s53.833 -23 92.5 -23
c39.333 0 74.166 7.33301 104.499 22s56.5 34.167 78.5 58.5s40 52.5 54 84.5s24.333 65 31 99z" />
    <glyph glyph-name="r" unicode="r" horiz-adv-x="442" 
d="M465 594c-46 0 -86.166 -7.33301 -120.499 -22s-63.833 -35 -88.5 -61s-44.834 -56.833 -60.501 -92.5s-27.5 -74.834 -35.5 -117.501l-60 -301h-112l135 698h113l-27 -139h2c32.667 56.667 71.667 97.334 117 122.001s99 36 161 34l-24 -121v0z" />
    <glyph glyph-name="s" unicode="s" horiz-adv-x="662" 
d="M483 496c2.66699 22.667 0.672852 41.4961 -5.99414 56.4961s-16.5 27 -29.5 36s-28.167 15.5 -45.5 19.5s-35.333 6 -54 6c-19.333 0 -38.166 -1.66699 -56.499 -5s-35 -8.66602 -50 -15.999s-27.667 -17 -38 -29s-17.5 -26.667 -21.5 -44
c-3.33301 -19.333 0.666992 -35.166 12 -47.499s27 -22.666 47 -30.999s42.667 -15.333 68 -21l76 -17.5c27.333 -6.66699 53.5 -14.334 78.5 -23.001s46.5 -20.5 64.5 -35.5s31 -34 39 -57s8.66699 -51.833 2 -86.5c-7.33301 -40.667 -22.333 -74.834 -45 -102.501
s-49.667 -50 -81 -67s-65.166 -29.167 -101.499 -36.5s-71.5 -11 -105.5 -11c-39.333 0 -75.5 4.33301 -108.5 13s-60.833 22.334 -83.5 41.001s-38.834 43 -48.501 73s-10.834 66.667 -3.50098 110h117c-4.66699 -25.333 -3.83398 -46.666 2.49902 -63.999
s16.666 -31.333 30.999 -42s31.5 -18.167 51.5 -22.5s41.333 -6.5 64 -6.5c17.333 0 36.166 1.16699 56.499 3.5s39.666 7.16602 57.999 14.499s34.5 18 48.5 32s23.333 33 28 57c4 20.667 0.833008 37.667 -9.5 51s-25.333 24.5 -45 33.5s-42.334 16.5 -68.001 22.5
l-78.5 19c-26 6 -51.5 13.333 -76.5 22s-46.667 20.5 -65 35.5s-31.833 34 -40.5 57s-9.66699 51.833 -3 86.5c7.33301 34.667 21.5 64.334 42.5 89.001s45.5 44.834 73.5 60.501s58.167 27.167 90.5 34.5s63.166 11 92.499 11c37.333 0 71.5 -3.5 102.5 -10.5
s57 -19 78 -36s36.333 -39.5 46 -67.5s12.167 -63 7.5 -105h-113v0z" />
    <glyph glyph-name="t" unicode="t" horiz-adv-x="418" 
d="M266 598l-82.001 -414c-4 -19.333 -5.83301 -35 -5.5 -47s3.83301 -21 10.5 -27s16.667 -9.83301 30 -11.5s31 -1.83398 53 -0.500977l33 2l-20 -100l-66 -2c-37.333 -1.33301 -67.166 1.16699 -89.499 7.5s-38.833 16.833 -49.5 31.5s-16.167 33.334 -16.5 56.001
s2.5 49.667 8.5 81l82 424h-117l18 100h117l41 211h113l-41 -211h135l-19 -100h-135z" />
    <glyph glyph-name="u" unicode="u" horiz-adv-x="737" 
d="M455 0l19.998 102h-2c-34 -42 -72.333 -72.167 -115 -90.5s-89 -27.5 -139 -27.5c-43.333 0 -78.666 6.5 -105.999 19.5s-47.833 31 -61.5 54s-21.167 50.5 -22.5 82.5s2 67.333 10 106l88 452h113l-90 -467c-4 -21.333 -5.16699 -40.833 -3.5 -58.5s7 -33 16 -46
s22.167 -23 39.5 -30s39.333 -10.5 66 -10.5c32.667 0 62.334 5.5 89.001 16.5s50.167 26.5 70.5 46.5s37.333 43.667 51 71s23.5 57 29.5 89l76 389h110l-135 -698h-104z" />
    <glyph glyph-name="v" unicode="v" horiz-adv-x="662" 
d="M178 0l-119 698h127l76 -571h2l297 571h127l-389 -698h-121z" />
    <glyph glyph-name="w" unicode="w" horiz-adv-x="1004" 
d="M553 0l-35 545h-2l-246 -545h-118l-86 698h124l46 -561h4l245 561h123l35 -561h2l262 561h117l-352 -698h-119z" />
    <glyph glyph-name="x" unicode="x" horiz-adv-x="680" 
d="M575 0h-137l-135 283l-246 -283h-137l326 369l-172 329h143l121 -237l211 237h143l-299 -329z" />
    <glyph glyph-name="y" unicode="y" horiz-adv-x="662" 
d="M250 -90c-21.333 -37.333 -40.832 -68.1689 -58.499 -92.502s-35.5 -43.833 -53.5 -58.5s-37.167 -25 -57.5 -31s-43.833 -9 -70.5 -9c-12 0 -24.833 1.5 -38.5 4.5s-26.834 6.5 -39.501 10.5l21 106c3.33301 -3.33301 11.833 -7.16602 25.5 -11.499s27.5 -6.5 41.5 -6.5
c23.333 0 43 5.33301 59 16s31.333 28.334 46 53.001l65 113l-137 694h127l92 -561h4l291 561h127l-444 -788v0z" />
    <glyph glyph-name="z" unicode="z" horiz-adv-x="637" 
d="M96 100h439l-21 -100h-575l20 100l522 498h-399l18 100h537l-19 -100z" />
    <glyph glyph-name="braceleft" unicode="{" horiz-adv-x="438" 
d="M457 954c-29.333 0 -51.332 -8.16602 -65.999 -24.499s-26.334 -44.833 -35.001 -85.5l-49 -252c-6 -32 -15.667 -59 -29 -81s-27.833 -40 -43.5 -54s-30.667 -24.5 -45 -31.5s-25.5 -11.5 -33.5 -13.5v-4c6.66699 -1.33301 15.834 -5 27.501 -11s22.5 -16 32.5 -30
s17.5 -32.5 22.5 -55.5s4.16699 -51.833 -2.5 -86.5l-48 -250c-8 -40.667 -8.16699 -69.167 -0.5 -85.5s26.5 -24.5 56.5 -24.5h55l-16 -82h-84c-18 0 -36 1.16699 -54 3.5s-33.5 9.33301 -46.5 21s-22 29.334 -27 53.001s-3.5 57.167 4.5 100.5l47 244
c4.66699 24.667 5.66699 46.667 3 66s-7.83398 35.666 -15.501 48.999s-17.334 23.666 -29.001 30.999s-24.5 11 -38.5 11l18 93c14 0 28.333 3.83301 43 11.5s28.5 18.5 41.5 32.5s24.667 30.833 35 50.5s17.833 41.167 22.5 64.5l47 244c8 42.667 19.333 76 34 100
s30.834 41.833 48.501 53.5s36 18.667 55 21s37.167 3.5 54.5 3.5h84l-14 -82h-55z" />
    <glyph glyph-name="bar" unicode="|" horiz-adv-x="297" 
d="M102 987h93v-1010h-93v1010z" />
    <glyph glyph-name="braceright" unicode="}" horiz-adv-x="438" 
d="M350 362c-14 0 -28.3359 -3.66797 -43.0029 -11.001s-28.5 -17.666 -41.5 -30.999s-24.5 -29.666 -34.5 -48.999s-17.333 -41.333 -22 -66l-47 -244c-8 -43.333 -19.333 -76.833 -34 -100.5s-30.834 -41.334 -48.501 -53.001s-36.167 -18.667 -55.5 -21
s-37.666 -3.5 -54.999 -3.5h-84l17 82h55c29.333 0 51.333 8.16699 66 24.5s26 44.833 34 85.5l47 250c6.66699 34.667 16.834 63.5 30.501 86.5s28.334 41.5 44.001 55.5s30.834 24 45.501 30s26 9.66699 34 11v4c-7.33301 2 -16.833 6.5 -28.5 13.5s-22.5 17.5 -32.5 31.5
s-17.5 32 -22.5 54s-4.5 49 1.5 81l49 252c8.66699 41.333 8.83398 70 0.500977 86s-26.833 24 -55.5 24h-55l14 82h84c18 0 36 -1.16699 54 -3.5s33.5 -9.33301 46.5 -21s22 -29.5 27 -53.5s3.5 -57.333 -4.5 -100l-47 -244
c-4.66699 -23.333 -5.83398 -44.833 -3.50098 -64.5s7.33301 -36.5 15 -50.5s17.5 -24.833 29.5 -32.5s25 -11.5 39 -11.5l-19 -93v0z" />
    <glyph glyph-name="asciitilde" unicode="~" horiz-adv-x="774" 
d="M676 365c-10 -13.333 -21.6689 -26.833 -35.002 -40.5s-28 -26.167 -44 -37.5s-33.5 -20.666 -52.5 -27.999s-38.833 -11 -59.5 -11c-30.667 0 -56.834 5 -78.501 15s-42.167 21 -61.5 33s-39.333 23 -60 33s-45.334 15 -74.001 15c-14.667 0 -28.5 -3.33301 -41.5 -10
s-25.167 -15.167 -36.5 -25.5s-21.833 -21.5 -31.5 -33.5s-18.167 -23 -25.5 -33l-35 67c10 14.667 21.333 29 34 43s26.834 26.5 42.501 37.5s32.834 19.833 51.501 26.5s39.334 10 62.001 10c30.667 0 58.167 -5.16699 82.5 -15.5s47 -21.5 68 -33.5l60 -33.5
c19 -10.333 39.167 -15.5 60.5 -15.5c12.667 0 25.5 3.33301 38.5 10s25.5 15 37.5 25s23.333 21.167 34 33.5s20.334 24.166 29.001 35.499l35 -67v0z" />
    <glyph glyph-name="currency" unicode="&#xa4;" horiz-adv-x="840" 
d="M422 729c-64 0 -117.334 -22.333 -160.001 -67c-43.333 -49.333 -65 -102.666 -65 -159.999c0 -62.667 21 -117.334 63 -164.001c43.333 -45.333 97.333 -68 162 -68c61.333 0 114 22.667 158 68c42 42 63 96.667 63 164c0 30.667 -5.5 59.667 -16.5 87
s-26.167 51.333 -45.5 72s-42.666 37.167 -69.999 49.5s-57 18.5 -89 18.5zM155.999 309c-41.333 55.333 -62.001 119.666 -62.001 192.999c0 76 20.667 138.667 62 188l-148 150l76 71l145 -145c53.333 39.333 117.666 59 192.999 59c36.667 0 71.834 -5.33301 105.501 -16
s61.167 -25 82.5 -43l150 145l71 -71l-145 -150c39.333 -53.333 59 -116 59 -188c0 -75.333 -19.667 -139.666 -59 -192.999l145 -145l-71 -76l-150 148c-10 -8.66699 -22 -16.5 -36 -23.5s-29.667 -13.833 -47 -20.5c-35.333 -12 -70.333 -18 -105 -18
c-73.333 0 -137.666 20.667 -192.999 62l-145 -148l-76 76z" />
    <glyph glyph-name="FL00A9h" unicode="&#xa9;" horiz-adv-x="1081" 
d="M1051 481c-26.667 -138 -99.999 -257.334 -219.999 -358.001c-116.667 -98.667 -245 -148 -385 -148c-120.667 0 -221 39 -301 117c-77.333 79.333 -116 177 -116 293c0 15.333 0.833008 31.166 2.5 47.499s4.16699 32.5 7.5 48.5
c13.333 70.667 38.166 135.334 74.499 194.001s83.833 113 142.5 163c118.667 99.333 247.667 149 387 149c121.333 0 221 -39 299 -117c79.333 -76.667 119 -174 119 -292c0 -15.333 -0.833008 -31.166 -2.5 -47.499s-4.16699 -32.833 -7.5 -49.5zM977.001 480.999
c3.33301 13.333 5.49902 27 6.49902 41s1.5 27.667 1.5 41c0 100 -33.333 183.333 -100 250s-152 100 -256 100c-119.333 0 -229.333 -42.333 -330 -127c-50 -42 -90.667 -88.167 -122 -138.5s-52.666 -105.833 -63.999 -166.5c-3.33301 -13.333 -5.66602 -27 -6.99902 -41
s-2 -27.667 -2 -41c0 -98.667 33.667 -181.667 101 -249s152.666 -101 255.999 -101c118.667 0 228.667 42.333 330 127c101.333 85.333 163.333 187 186 305zM723 591.999c2 79.333 -40.9971 119 -128.997 119c-74.667 0 -133.334 -33 -176.001 -99
c-37.333 -57.333 -56 -124.666 -56 -201.999c0 -102.667 45.333 -154 136 -154c95.333 0 158.666 47.667 189.999 143h88c-18 -66 -52 -119 -102 -159c-52.667 -42.667 -116.334 -64 -191.001 -64c-142 0 -213 73 -213 219c0 27.333 3.66699 57.333 11 90
c18 92 53.333 164.333 106 217c59.333 59.333 133.666 89 222.999 89c28.667 0 55.334 -3.66699 80.001 -11s46 -18 64 -32s32 -31.333 42 -52s15 -44.334 15 -71.001v-16.5c0 -5.66699 -0.666992 -11.167 -2 -16.5h-86z" />
    <glyph glyph-name="guillemotleft" unicode="&#xab;" horiz-adv-x="627" 
d="M385 375l115 -105l-23 -116l-176 161l23 121l239 162l-22 -117zM119 375l114 -105l-22 -116l-174 161l22 121l238 162l-23 -117z" />
    <glyph glyph-name="logicalnot" unicode="&#xac;" horiz-adv-x="737" 
d="M619 297h-584v90h666v-268h-82v178z" />
    <glyph glyph-name="minus" unicode="&#xad;" horiz-adv-x="737" 
d="M41 387h655v-90h-655v90z" />
    <glyph glyph-name="registered" unicode="&#xae;" horiz-adv-x="1081" 
d="M1051 481c-26.667 -138 -99.999 -257.334 -219.999 -358.001c-116.667 -98.667 -245 -148 -385 -148c-120.667 0 -221 39 -301 117c-77.333 79.333 -116 177 -116 293c0 15.333 0.833008 31.166 2.5 47.499s4.16699 32.5 7.5 48.5
c13.333 70.667 38.166 135.334 74.499 194.001s83.833 113 142.5 163c118.667 99.333 247.667 149 387 149c121.333 0 221 -39 299 -117c79.333 -76.667 119 -174 119 -292c0 -15.333 -0.833008 -31.166 -2.5 -47.499s-4.16699 -32.833 -7.5 -49.5zM977.001 480.999
c3.33301 13.333 5.49902 27 6.49902 41s1.5 27.667 1.5 41c0 100 -33.333 183.333 -100 250s-152 100 -256 100c-119.333 0 -229.333 -42.333 -330 -127c-50 -42 -90.667 -88.167 -122 -138.5s-52.666 -105.833 -63.999 -166.5c-3.33301 -13.333 -5.66602 -27 -6.99902 -41
s-2 -27.667 -2 -41c0 -98.667 33.667 -181.667 101 -249s152.666 -101 255.999 -101c118.667 0 228.667 42.333 330 127c101.333 85.333 163.333 187 186 305zM807 609.999c-19.333 -95.333 -81.333 -149.001 -186 -161.001l116 -261h-102l-107 254h-102l-49 -254h-88
l114 590h230c118.667 0 178 -41.667 178 -125c0 -13.333 -1.33301 -27.666 -4 -42.999zM719 613.998c1.33301 4.66699 2 8.83301 2 12.5v10.5c0 45.333 -37.667 68 -113 68h-131l-37 -189h105c51.333 0 88 4.66699 110 14c17.333 7.33301 31.333 17.833 42 31.5
s18 31.167 22 52.5z" />
    <glyph glyph-name="degree" unicode="&#xb0;" horiz-adv-x="541" 
d="M266 915c28.667 0 55.5 -5.33398 80.5 -16.001s46.667 -25 65 -43s32.833 -39.333 43.5 -64s16 -51 16 -79s-5.33301 -54.333 -16 -79s-25.167 -46.167 -43.5 -64.5s-40 -32.833 -65 -43.5s-51.833 -16 -80.5 -16c-27.333 0 -53 5.16699 -77 15.5
s-45.167 24.666 -63.5 42.999s-32.833 39.833 -43.5 64.5s-16 51.334 -16 80.001c0 26.667 5.16699 52.334 15.5 77.001s24.5 46.167 42.5 64.5s39.167 33 63.5 44s50.5 16.5 78.5 16.5zM266 857.999c-20.667 0 -39.833 -3.66602 -57.5 -10.999s-33 -17.5 -46 -30.5
s-23.167 -28.333 -30.5 -46s-11 -36.834 -11 -57.501c0 -20 3.83301 -39 11.5 -57s18 -33.667 31 -47s28.333 -24 46 -32s36.5 -12 56.5 -12c41.333 0 76.333 14.333 105 43c30 30.667 45 65.667 45 105c0 20 -4 38.833 -12 56.5s-18.833 33 -32.5 46s-29.5 23.333 -47.5 31
s-37.333 11.5 -58 11.5z" />
    <glyph glyph-name="paragraph" unicode="&#xb6;" horiz-adv-x="727" 
d="M567 -244v1356h-145v-1356h-55v805c-112 0 -199.667 20.667 -263 62c-69.333 49.333 -104 127.666 -104 234.999c-0 102 31.333 178.333 94 229c60 44 142.667 66 248 66h389v-41h-102v-1356h-62z" />
    <glyph glyph-name="periodcentered" unicode="&#xb7;" horiz-adv-x="338" 
d="M170 520c20.667 0 37.832 -7.16699 51.499 -21.5s20.5 -30.833 20.5 -49.5c0 -20.667 -7.16699 -38.167 -21.5 -52.5s-31.166 -21.5 -50.499 -21.5c-22 0 -39.833 6.83301 -53.5 20.5s-20.5 31.5 -20.5 53.5c0 20 6.83301 36.833 20.5 50.5s31.5 20.5 53.5 20.5z" />
    <glyph glyph-name="periodcentered" unicode="&#x2219;" horiz-adv-x="338" 
d="M170 520c20.667 0 37.832 -7.16699 51.499 -21.5s20.5 -30.833 20.5 -49.5c0 -20.667 -7.16699 -38.167 -21.5 -52.5s-31.166 -21.5 -50.499 -21.5c-22 0 -39.833 6.83301 -53.5 20.5s-20.5 31.5 -20.5 53.5c0 20 6.83301 36.833 20.5 50.5s31.5 20.5 53.5 20.5z" />
    <glyph glyph-name="guillemotright" unicode="&#xbb;" horiz-adv-x="627" 
d="M291 154l22 116l156 105l-115 106l23 117l174 -162l-23 -121zM27 154l22 116l156 105l-115 106l23 117l172 -162l-23 -121z" />
    <glyph glyph-name="multiply" unicode="&#xd7;" horiz-adv-x="737" 
d="M602 98l-76 -63l-196 244l-291 -244l-51 63l291 244l-195 244l76 63l194 -243l293 243l51 -63l-292 -244z" />
    <glyph glyph-name="divide" unicode="&#xf7;" horiz-adv-x="737" 
d="M469 592c-2 -10 -6 -19.5 -12 -28.5s-13.167 -17 -21.5 -24s-17.333 -12.667 -27 -17s-19.5 -6.5 -29.5 -6.5c-10.667 0 -20.5 2 -29.5 6s-16.5 9.5 -22.5 16.5s-10.333 15.167 -13 24.5s-3 19 -1 29c2 10.667 6.16699 20.834 12.5 30.501s14 18 23 25
s18.667 12.5 29 16.5s20.5 6 30.5 6c20.667 0 37 -7.83301 49 -23.5s16 -33.834 12 -54.501zM6 297l19 90h655l-18 -90h-656zM373 92c-2 -10 -6.16602 -19.6699 -12.499 -29.0029s-13.833 -17.666 -22.5 -24.999s-18 -13.166 -28 -17.499s-19.667 -6.5 -29 -6.5
c-21.333 0 -38.333 7.83301 -51 23.5s-17 33.834 -13 54.501c2 10 6 19.667 12 29s13.167 17.5 21.5 24.5s17.666 12.5 27.999 16.5s20.5 6 30.5 6s19.333 -2.16699 28 -6.5s16 -10 22 -17s10.333 -15 13 -24s3 -18.5 1 -28.5z" />
    <glyph glyph-name="uni0E00" unicode="&#xe00;" horiz-adv-x="205" 
 />
    <glyph glyph-name="uni0E01" unicode="&#xe01;" horiz-adv-x="788" 
d="M481 0l115 586c5.33301 28 4.33301 52.667 -3 74s-18.666 39 -33.999 53s-33.5 24.667 -54.5 32s-42.5 11 -64.5 11c-40 0 -77.667 -6.66699 -113 -20s-68 -34 -98 -62c16.667 -8 36.167 -19.833 58.5 -35.5s41.166 -33.167 56.499 -52.5
c-76 -25.333 -121 -73.333 -135 -144l-86 -442h-103l86 444c8 36.667 22.833 67.334 44.5 92.001s45.167 41.334 70.5 50.001c-8 7.33301 -18 14.666 -30 21.999s-24.167 14.166 -36.5 20.499s-24 12 -35 17l-25.5 11.5c48 56.667 102.333 100.667 163 132s128 47 202 47
c38 0 73.333 -5.33301 106 -16s60 -26.5 82 -47.5s37.667 -47.167 47 -78.5s10 -68 2 -110l-112 -584h-103z" />
    <glyph glyph-name="uni0E02" unicode="&#xe02;" horiz-adv-x="784" 
d="M616 193c-6 -32.667 -14.3301 -61.0039 -24.9971 -85.0039s-24.834 -44 -42.501 -60s-39.667 -28 -66 -36s-58.166 -12 -95.499 -12h-319l14 78c30 0 53.333 1 70 3s29.667 6.16699 39 12.5s16 15.666 20 27.999s8 29.166 12 50.499l56 283
c3.33301 19.333 12.166 36.5 26.499 51.5s30 29.333 47 43s32.667 27.334 47 41.001s23.166 29.167 26.499 46.5c2.66699 12.667 2.16699 25.834 -1.5 39.501s-10.334 26.334 -20.001 38.001s-22.334 21.167 -38.001 28.5s-34.167 11 -55.5 11
c-24.667 0 -45.167 -3.66699 -61.5 -11s-27.166 -12.666 -32.499 -15.999c18 -1.33301 33.333 -6 46 -14s22.667 -18 30 -30s12.166 -25.333 14.499 -40s2.16602 -29 -0.500977 -43c-3.33301 -19.333 -10.166 -37.166 -20.499 -53.499s-23 -30.833 -38 -43.5
s-31.667 -22.5 -50 -29.5s-36.833 -10.5 -55.5 -10.5c-18 0 -35.167 3.16699 -51.5 9.5s-30 16 -41 29s-18.667 29.167 -23 48.5s-3.83301 42 1.5 68c4 22 13.667 45.5 29 70.5s36.333 47.833 63 68.5s58.667 37.834 96 51.501s79.666 20.5 126.999 20.5
c32 0 60.333 -5.83301 85 -17.5s44.834 -26.667 60.501 -45s26.5 -39.166 32.5 -62.499s6.66699 -46.333 2 -69c-4 -21.333 -13.167 -39.833 -27.5 -55.5s-29.666 -30.667 -45.999 -45s-31.666 -29.5 -45.999 -45.5s-23.5 -35 -27.5 -57l-68 -350h37
c29.333 0 53.833 1.66699 73.5 5s36 9.66602 49 18.999s23.167 22.5 30.5 39.5s13.666 39.5 18.999 67.5l119 606h102zM233.003 597.996c3.33301 17.333 0.000976562 32.333 -9.99902 45s-23.667 19 -41 19s-33.5 -6.33301 -48.5 -19s-24.167 -27.667 -27.5 -45
c-4 -17.333 -0.666992 -32.166 10 -44.499s24.667 -18.5 42 -18.5s33.166 6.16699 47.499 18.5s23.5 27.166 27.5 44.499z" />
    <glyph glyph-name="uni0E03" unicode="&#xe03;" horiz-adv-x="791" 
d="M623 193c-6 -31.333 -14.335 -58.9951 -25.002 -82.9951s-24.667 -44.167 -42 -60.5s-39 -28.666 -65 -36.999s-57.333 -12.5 -94 -12.5h-334l15 78c30 0 53.333 1 70 3s29.667 6.16699 39 12.5s16 15.666 20 27.999s8 29.166 12 50.499l57 287
c2.66699 14 8.66699 26.667 18 38s20.166 22.166 32.499 32.499s25.666 20.5 39.999 30.5s27.666 20.167 39.999 30.5s23.166 21 32.499 32s15.333 23.167 18 36.5c1.33301 8.66699 0.666016 17.167 -2.00098 25.5s-6 15.833 -10 22.5s-8.16699 12 -12.5 16
s-7.83301 6 -10.5 6c-2 0 -6.33301 -2.5 -13 -7.5l-22 -16l-22 -16c-6.66699 -5 -11 -7.5 -13 -7.5c-4 4 -10.333 9.83301 -19 17.5l-26 23.5l-16.5 14c-5.66699 4.66699 -11.167 9.66699 -16.5 15c-3.33301 -1.33301 -6.5 -3 -9.5 -5s-6.16699 -3.66699 -9.5 -5
c-5.33301 -3.33301 -11 -6.66602 -17 -9.99902s-11.667 -7 -17 -11c34 -6.66699 57.5 -22 70.5 -46s16.833 -51 11.5 -81c-3.33301 -19.333 -10.166 -37.166 -20.499 -53.499s-23 -30.833 -38 -43.5s-31.667 -22.5 -50 -29.5s-36.833 -10.5 -55.5 -10.5
c-42 0 -73.5 13.333 -94.5 40s-26.833 63 -17.5 109c4 22 12.833 44.333 26.5 67s31.834 44.167 54.501 64.5s49.334 38.5 80.001 54.5s65 28.333 103 37c4 0 9.33301 -2.5 16 -7.5s13.834 -10.667 21.501 -17s14.834 -12.666 21.501 -18.999s11.667 -10.833 15 -13.5
c4.66699 2.66699 11.5 7.16699 20.5 13.5s18.5 12.666 28.5 18.999s19.5 12 28.5 17s15.833 7.5 20.5 7.5c7.33301 0 17 -4.83301 29 -14.5s23.333 -22.334 34 -38.001s19.167 -33.334 25.5 -53.001s7.5 -39.5 3.5 -59.5c-4.66699 -24.667 -16 -46.334 -34 -65.001
s-37.167 -36.334 -57.5 -53.001s-39.166 -33.167 -56.499 -49.5s-28 -34.5 -32 -54.5l-70 -360h43c32.667 0 59.167 1.66699 79.5 5s36.833 9.66602 49.5 18.999s22.334 22.5 29.001 39.5s12.667 39.5 18 67.5l119 606h102zM228.998 594.005
c4.66699 17.333 1.66699 32.166 -9 44.499s-24.667 18.5 -42 18.5s-33.166 -6.16699 -47.499 -18.5s-23.833 -27.166 -28.5 -44.499c-3.33301 -17.333 0.166992 -32.333 10.5 -45s24.166 -19 41.499 -19s33.333 6.33301 48 19s23.667 27.667 27 45z" />
    <glyph glyph-name="uni0E04" unicode="&#xe04;" horiz-adv-x="848" 
d="M541 0l104.002 534.996c6 27.333 7.66699 54.333 5 81s-10.834 50.334 -24.501 71.001s-33.5 37.334 -59.5 50.001s-59.667 19 -101 19c-38 0 -72.667 -5.83301 -104 -17.5s-58.833 -27.167 -82.5 -46.5s-43.167 -41.666 -58.5 -66.999s-26 -51.333 -32 -78
c-8 -40 -11.833 -80.333 -11.5 -121s-0.5 -83 -2.5 -127c-0.666992 -5.33301 -2.33398 -14.5 -5.00098 -27.5s-5.66699 -26.5 -9 -40.5l-13 -53h5l15 55.5c6 21.667 13.667 44.167 23 67.5c8 22 16.833 44.167 26.5 66.5s19.334 43.5 29.001 63.5s19.167 38.333 28.5 55
s17.666 30.667 24.999 42c20.667 32 43 55.833 67 71.5s53 23.5 87 23.5c18.667 0 35.667 -3.66699 51 -11s28 -17.166 38 -29.499s17 -27 21 -44s4 -34.833 0 -53.5c-3.33301 -18.667 -10.166 -36.334 -20.499 -53.001s-23 -31.167 -38 -43.5s-31.667 -22.166 -50 -29.499
s-36.833 -11 -55.5 -11c-17.333 0 -33.333 3.16699 -48 9.5s-26.667 14.166 -36 23.499c-12.667 -23.333 -26.834 -52 -42.501 -86l-47 -105l-45 -105l-35.5 -85h-108l24 129c8 42.667 12.333 81.167 13 115.5s0.5 67.5 -0.5 99.5s-1.16699 64.167 -0.5 96.5
s5 67.833 13 106.5c7.33301 38 21.333 74.333 42 109s47.667 65.334 81 92.001s72.833 48 118.5 64s97.5 24 155.5 24c54 0 99.667 -7.5 137 -22.5s67 -35.333 89 -61s36.333 -55.5 43 -89.5s6.66699 -70 0 -108l-109 -555h-102zM489.002 484.996
c3.33301 17.333 0.000976562 32.333 -9.99902 45s-23.667 19 -41 19s-33.5 -6.33301 -48.5 -19s-24.167 -27.667 -27.5 -45s0.166992 -32.166 10.5 -44.499s24.166 -18.5 41.499 -18.5s33.5 6.16699 48.5 18.5s23.833 27.166 26.5 44.499z" />
    <glyph glyph-name="uni0E05" unicode="&#xe05;" horiz-adv-x="842" 
d="M535 0l116.001 597.998c4.66699 22.667 5.66699 42.334 3 59.001s-7.5 30.667 -14.5 42s-15.167 20.5 -24.5 27.5s-18.333 12.5 -27 16.5l-139 -94l-113 94c-35.333 -10 -65.666 -30.833 -90.999 -62.5s-42.666 -67.5 -51.999 -107.5
c-9.33301 -44 -14.833 -89.667 -16.5 -137s-4.5 -93 -8.5 -137c0 -4.66699 -1.5 -13.5 -4.5 -26.5l-9.5 -40.5l-13 -54h4c4.66699 15.333 10 33.833 16 55.5s13.667 44.167 23 67.5c8 22 16.833 44.167 26.5 66.5s19.334 43.5 29.001 63.5s19.167 38.333 28.5 55
s17.666 30.667 24.999 42c20.667 32 43.167 55.833 67.5 71.5s52.833 23.5 85.5 23.5c18.667 0 35.667 -3.66699 51 -11s28 -17.166 38 -29.499s17 -27 21 -44s4.33301 -34.833 1 -53.5s-10.166 -36.334 -20.499 -53.001s-23 -31.167 -38 -43.5s-31.667 -22.166 -50 -29.499
s-36.833 -11 -55.5 -11c-17.333 0 -33.333 3.16699 -48 9.5s-26.667 14.166 -36 23.499c-12.667 -23.333 -26.834 -52 -42.501 -86l-47 -105l-45 -105l-35.5 -85h-108l24 129c8 42.667 12.833 82.334 14.5 119.001s2.66699 72.167 3 106.5s1.33301 68.833 3 103.5
s6.5 71 14.5 109c7.33301 36.667 20.166 70.834 38.499 102.501s40.166 59.167 65.499 82.5s53.166 42.333 83.499 57s61.5 23.667 93.5 27l98 -82l129 82c17.333 -4 36.833 -10.5 58.5 -19.5s41 -22 58 -39s30 -38.833 39 -65.5s9.83301 -59.334 2.5 -98.001l-119 -614
h-102zM483.001 484.998c3.33301 17.333 0.000976562 32.333 -9.99902 45s-23.667 19 -41 19s-33.5 -6.33301 -48.5 -19s-24.167 -27.667 -27.5 -45s0.166992 -32.166 10.5 -44.499s24.166 -18.5 41.499 -18.5s33.333 6.16699 48 18.5s23.667 27.166 27 44.499z" />
    <glyph glyph-name="uni0E06" unicode="&#xe06;" horiz-adv-x="864" 
d="M676 86c-6 -34 -17.499 -56.8262 -34.499 -68.4932s-40.5 -17.5 -70.5 -17.5h-41c-3.33301 22 -10.666 44.667 -21.999 68s-25.666 45.166 -42.999 65.499s-37.5 38.166 -60.5 53.499s-47.833 26 -74.5 32l-19 -94c-3.33301 -18.667 -9.66602 -36 -18.999 -52
s-21 -29.833 -35 -41.5s-30 -20.834 -48 -27.501s-37 -10 -57 -10c-20.667 0 -39.667 3.5 -57 10.5s-31.833 17.333 -43.5 31s-19.834 30.167 -24.501 49.5s-4.66699 41 0 65c4.66699 23.333 14.167 44.666 28.5 63.999s31.5 36 51.5 50s42 24.833 66 32.5
s47.667 11.167 71 10.5l30 152c2.66699 14 8.66699 26.667 18 38s20.166 22.166 32.499 32.499s25.666 20.5 39.999 30.5s27.666 20.167 39.999 30.5s23.166 21 32.499 32s15.333 23.167 18 36.5c1.33301 8.66699 0.666016 17.167 -2.00098 25.5s-6 15.833 -10 22.5
s-8.16699 12 -12.5 16s-7.83301 6 -10.5 6c-2 0 -6.83301 -2.5 -14.5 -7.5l-23.5 -15.5l-32 -22l-82 68l-21 -10l-18.5 -10.5c-6.33301 -3.66699 -12.166 -7.83398 -17.499 -12.501c19.333 -4 35.333 -10.5 48 -19.5s22.334 -19.167 29.001 -30.5s10.834 -23.5 12.501 -36.5
s1.16699 -25.833 -1.5 -38.5c-3.33301 -19.333 -10.166 -37.166 -20.499 -53.499s-22.833 -30.5 -37.5 -42.5s-31 -21.5 -49 -28.5s-36.333 -10.5 -55 -10.5c-16.667 0 -32.667 3.16699 -48 9.5s-28.333 15.666 -39 27.999s-18.334 27.666 -23.001 45.999
s-4.66699 39.5 0 63.5c4.66699 25.333 14.5 49.666 29.5 72.999s33.833 44.833 56.5 64.5s48.667 36.834 78 51.501s60.666 26 93.999 34c4 0 9.5 -2.5 16.5 -7.5s14.5 -10.667 22.5 -17s15.5 -12.666 22.5 -18.999s12.167 -10.833 15.5 -13.5
c4.66699 2.66699 11.667 7.16699 21 13.5l29 19c10 6.33301 19.5 12 28.5 17s15.833 7.5 20.5 7.5c6.66699 0 16 -4.83301 28 -14.5s23.5 -22.334 34.5 -38.001s19.667 -33.334 26 -53.001s7.5 -39.5 3.5 -59.5c-4.66699 -25.333 -16 -47.166 -34 -65.499
s-37.333 -35.833 -58 -52.5s-39.667 -33.167 -57 -49.5s-27.666 -34.5 -30.999 -54.5l-27 -139c22 -2.66699 44.167 -8 66.5 -16s44 -18.833 65 -32.5s40.667 -30.167 59 -49.5s34.166 -41.333 47.499 -66l133 680h102zM225.001 594.007
c4 17.333 0.833008 32.166 -9.5 44.499s-24.166 18.5 -41.499 18.5s-33.333 -6.16699 -48 -18.5s-24 -27.166 -28 -44.499c-3.33301 -17.333 0.166992 -32.333 10.5 -45s24.166 -19 41.499 -19s33.333 6.33301 48 19s23.667 27.667 27 45zM227.001 225.007
c-28 2.66699 -52.999 -3.83203 -74.999 -19.499s-35.667 -37.167 -41 -64.5c-3.33301 -18.667 -1 -34.834 7 -48.501s21.333 -20.5 40 -20.5c14 0 25.167 5 33.5 15s14.166 23.333 17.499 40z" />
    <glyph glyph-name="uni0E07" unicode="&#xe07;" horiz-adv-x="686" 
d="M516 176c-6 -30 -13.835 -56.1689 -23.502 -78.502s-22.334 -40.666 -38.001 -54.999s-34.667 -25 -57 -32s-49.166 -10.5 -80.499 -10.5h-104c-7.33301 38.667 -17 81.834 -29 129.501s-26.5 96 -43.5 145s-36 97 -57 144s-44.167 89.167 -69.5 126.5l101 47
c24.667 -38 46.667 -78.333 66 -121s36.333 -85.667 51 -129s27.5 -85.833 38.5 -127.5s20.5 -80.5 28.5 -116.5h23c30.667 0 52.334 7.5 65.001 22.5s22.334 39.167 29.001 72.5l71 368c-6 -3.33301 -14.167 -5.5 -24.5 -6.5s-19.166 -1.5 -26.499 -1.5
c-19.333 0 -36.5 3.5 -51.5 10.5s-27.333 16.667 -37 29s-16.334 26.666 -20.001 42.999s-3.5 33.833 0.5 52.5c3.33301 18.667 10.333 36.667 21 54s23.667 32.333 39 45s32.333 22.834 51 30.501s37.667 11.5 57 11.5c46 0 79.333 -13.833 100 -41.5
s26.667 -63.5 18 -107.5zM525.998 687.998c4.66699 17.333 1.66699 32.333 -9 45s-24.667 19 -42 19s-33.166 -6.33301 -47.499 -19s-23.833 -27.667 -28.5 -45c-3.33301 -17.333 0.166992 -32.166 10.5 -44.499s24.166 -18.5 41.499 -18.5s33.333 6.16699 48 18.5
s23.667 27.166 27 44.499z" />
    <glyph glyph-name="uni0E08" unicode="&#xe08;" horiz-adv-x="709" 
d="M662 600c-11.333 -45.333 -26.165 -90.833 -44.498 -136.5l-59.5 -141.5l-65 -152.5c-22 -53 -42.333 -109.5 -61 -169.5h-127l-6 348c-27.333 -16 -54.666 -24 -81.999 -24c-19.333 0 -36.5 3.5 -51.5 10.5s-27.5 16.833 -37.5 29.5s-17 27.167 -21 43.5
s-4.33301 34.166 -1 53.499c4 18.667 11.167 36.334 21.5 53.001s23 31.167 38 43.5s31.333 22.166 49 29.499s36.167 11 55.5 11c42 0 73.333 -12.167 94 -36.5s31 -56.5 31 -96.5v-229c0 -11.333 -0.833008 -24.666 -2.5 -39.999s-3.16699 -30.666 -4.5 -45.999
c-1.33301 -8.66699 -2.5 -17.5 -3.5 -26.5s-2.16699 -18.167 -3.5 -27.5h4c0.666992 6 2 14.5 4 25.5s4.5 23 7.5 36s6.5 26.5 10.5 40.5s8.33301 27.333 13 40c12 32 24.833 63.5 38.5 94.5l40 92c13 30.333 24.667 60.166 35 89.499s18.166 58 23.499 86
c3.33301 18.667 2.33301 37.167 -3 55.5s-15 35 -29 50s-32.333 27.167 -55 36.5s-49.667 14 -81 14c-25.333 0 -50.833 -2.66699 -76.5 -8s-50 -13.833 -73 -25.5s-43.833 -26.334 -62.5 -44.001s-34 -38.5 -46 -62.5h-102c14 30.667 33 59.5 57 86.5
s52.167 50.333 84.5 70s68.666 35.167 108.999 46.5s83.833 17 130.5 17c48 0 89.5 -6.83301 124.5 -20.5s63 -31.5 84 -53.5s35.167 -47.167 42.5 -75.5s7.66602 -57.166 0.999023 -86.499zM307.001 461c3.33301 17.333 0.000976562 32.166 -9.99902 44.499
s-23.667 18.5 -41 18.5s-33.5 -6.16699 -48.5 -18.5s-24.167 -27.166 -27.5 -44.499c-4 -17.333 -0.833008 -32.333 9.5 -45s24.166 -19 41.499 -19s33.333 6.33301 48 19s24 27.667 28 45z" />
    <glyph glyph-name="uni0E09" unicode="&#xe09;" horiz-adv-x="807" 
d="M643 262c20.667 -12 36.002 -29.1689 46.002 -51.502s12.333 -47.5 7 -75.5c-4 -19.333 -11.5 -37.666 -22.5 -54.999s-24.167 -32.333 -39.5 -45s-32.333 -22.667 -51 -30s-37.667 -11 -57 -11s-37.333 4.16699 -54 12.5s-30.334 19.833 -41.001 34.5
s-17.334 32.167 -20.001 52.5s0.333008 42.5 9 66.5c-12 -6 -26.5 -15 -43.5 -27s-34.667 -25.333 -53 -40s-36 -30.167 -53 -46.5s-31.5 -31.833 -43.5 -46.5h-135l51 264c-7.33301 -3.33301 -15.833 -5.5 -25.5 -6.5s-18.167 -1.5 -25.5 -1.5
c-19.333 0 -36.5 3.5 -51.5 10.5s-27.333 16.667 -37 29s-16.334 26.666 -20.001 42.999s-3.5 33.833 0.5 52.5c3.33301 18.667 10.333 36.667 21 54s23.667 32.333 39 45s32.333 22.834 51 30.501s37.667 11.5 57 11.5c46 0 79 -13.833 99 -41.5s25.667 -63.5 17 -107.5
l-55 -287c16.667 18 37.5 36.833 62.5 56.5s52.333 38.334 82 56.001s60.5 33 92.5 46s63.667 21.833 95 26.5l57 299c5.33301 26.667 5.16602 51 -0.500977 73s-16.167 40.5 -31.5 55.5s-34.666 26.667 -57.999 35s-50 12.5 -80 12.5c-25.333 0 -51 -3.16699 -77 -9.5
s-50.667 -16 -74 -29s-44.5 -29.5 -63.5 -49.5s-34.167 -44 -45.5 -72h-102c13.333 36 32.333 68.667 57 98s53.5 54.5 86.5 75.5s69.167 37.333 108.5 49s80.666 17.5 123.999 17.5c46.667 0 87.834 -5.83301 123.501 -17.5s64.834 -28.167 87.501 -49.5
s38.5 -47.5 47.5 -78.5s9.83301 -65.833 2.5 -104.5zM618.002 138.998c4.66699 17.333 1.66602 32.333 -9.00098 45s-24.667 19 -42 19s-33.166 -6.33301 -47.499 -19s-23.5 -27.667 -27.5 -45c-3.33301 -17.333 0 -32.166 10 -44.499s23.667 -18.5 41 -18.5
s33.333 6.16699 48 18.5s23.667 27.166 27 44.499zM182.001 390.998c3.33301 17.333 0 32.333 -10 45s-23.667 19 -41 19s-33.5 -6.33301 -48.5 -19s-24.167 -27.667 -27.5 -45s0 -32.166 10 -44.499s23.667 -18.5 41 -18.5s33.5 6.16699 48.5 18.5
s24.167 27.166 27.5 44.499z" />
    <glyph glyph-name="uni0E0A" unicode="&#xe0a;" horiz-adv-x="825" 
d="M825 840c-10 -50.667 -28.166 -94.3369 -54.499 -131.004s-64.833 -69 -115.5 -97c22.667 -6 40.334 -18.833 53.001 -38.5s16.334 -42.834 11.001 -69.501l-62 -311c-6 -32.667 -14.333 -61 -25 -85s-24.834 -44 -42.501 -60s-39.667 -28 -66 -36
s-58.166 -12 -95.499 -12h-360l14 78c30 0 53.333 1 70 3s29.667 6.16699 39 12.5s16 15.666 20 27.999s8 29.166 12 50.499l56 283c3.33301 19.333 12.166 36.5 26.499 51.5s30 29.333 47 43s32.667 27.334 47 41.001s23.166 29.167 26.499 46.5
c2.66699 12.667 2.16699 25.834 -1.5 39.501s-10.334 26.334 -20.001 38.001s-22.334 21.167 -38.001 28.5s-34.167 11 -55.5 11c-24.667 0 -45.167 -3.66699 -61.5 -11s-27.166 -12.666 -32.499 -15.999c18 -1.33301 33.333 -6 46 -14s22.667 -18 30 -30
s12.166 -25.333 14.499 -40s2.16602 -29 -0.500977 -43c-3.33301 -19.333 -10.166 -37.166 -20.499 -53.499s-23 -30.833 -38 -43.5s-31.667 -22.5 -50 -29.5s-36.833 -10.5 -55.5 -10.5c-18 0 -35.167 3.16699 -51.5 9.5s-30 16 -41 29s-18.667 29.167 -23 48.5
s-3.83301 42 1.5 68c4 22 13.667 45.5 29 70.5s36.333 47.833 63 68.5s58.667 37.834 96 51.501s79.666 20.5 126.999 20.5c32 0 60.333 -5.83301 85 -17.5s44.834 -26.667 60.501 -45s26.5 -39.166 32.5 -62.499s6.66699 -46.333 2 -69
c-4 -21.333 -13.167 -39.833 -27.5 -55.5s-29.666 -30.667 -45.999 -45s-31.666 -29.5 -45.999 -45.5s-23.5 -35 -27.5 -57l-68 -350h78c30 0 54.833 1.66699 74.5 5s35.834 9.66602 48.501 18.999s22.667 22.5 30 39.5s13.666 39.5 18.999 67.5l51 264
c5.33301 26.667 1.16602 48.334 -12.501 65.001s-37.5 25 -71.5 25l13 70c44 14.667 82.667 39.167 116 73.5s55.333 77.5 66 129.5h104zM233.001 597.997c3.33301 17.333 0.000976562 32.333 -9.99902 45s-23.667 19 -41 19s-33.5 -6.33301 -48.5 -19
s-24.167 -27.667 -27.5 -45c-4 -17.333 -0.666992 -32.166 10 -44.499s24.667 -18.5 42 -18.5s33.166 6.16699 47.499 18.5s23.5 27.166 27.5 44.499z" />
    <glyph glyph-name="uni0E0B" unicode="&#xe0b;" horiz-adv-x="831" 
d="M831 840c-10 -50.667 -28.1699 -94.3281 -54.5029 -130.995s-64.5 -69 -114.5 -97c22.667 -6 40.167 -18.833 52.5 -38.5s15.833 -42.834 10.5 -69.501l-61 -311c-6 -31.333 -14.333 -59 -25 -83s-24.667 -44.167 -42 -60.5s-39 -28.666 -65 -36.999
s-57.333 -12.5 -94 -12.5h-375l15 78c28 0 50.333 1 67 3s29.834 6.16699 39.501 12.5s16.834 15.666 21.501 27.999s9 29.166 13 50.499l57 287c2.66699 14 8.66699 26.667 18 38s20.166 22.166 32.499 32.499s25.666 20.5 39.999 30.5s27.666 20.167 39.999 30.5
s23.166 21 32.499 32s15.333 23.167 18 36.5c1.33301 8.66699 0.666016 17.167 -2.00098 25.5s-6 15.833 -10 22.5s-8.16699 12 -12.5 16s-7.83301 6 -10.5 6c-2 0 -6.33301 -2.5 -13 -7.5l-22 -16l-22 -16c-6.66699 -5 -11 -7.5 -13 -7.5c-4 4 -10.333 9.83301 -19 17.5
l-26 23.5l-16.5 14c-5.66699 4.66699 -11.167 9.66699 -16.5 15c-3.33301 -1.33301 -6.5 -3 -9.5 -5s-6.16699 -3.66699 -9.5 -5c-5.33301 -3.33301 -11 -6.66602 -17 -9.99902s-11.667 -7 -17 -11c34 -6.66699 57.5 -22 70.5 -46s16.833 -51 11.5 -81
c-3.33301 -19.333 -10.166 -37.166 -20.499 -53.499s-23 -30.833 -38 -43.5s-31.667 -22.5 -50 -29.5s-36.833 -10.5 -55.5 -10.5c-42 0 -73.5 13.333 -94.5 40s-26.833 63 -17.5 109c4 22 12.833 44.333 26.5 67s31.834 44.167 54.501 64.5s49.334 38.5 80.001 54.5
s65 28.333 103 37c4 0 9.33301 -2.5 16 -7.5s13.834 -10.667 21.501 -17s14.834 -12.666 21.501 -18.999s11.667 -10.833 15 -13.5c4.66699 2.66699 11.5 7.16699 20.5 13.5s18.5 12.666 28.5 18.999s19.5 12 28.5 17s15.833 7.5 20.5 7.5c7.33301 0 17 -4.83301 29 -14.5
s23.333 -22.334 34 -38.001s19.167 -33.334 25.5 -53.001s7.5 -39.5 3.5 -59.5c-4.66699 -24.667 -16 -46.334 -34 -65.001s-37.167 -36.334 -57.5 -53.001s-39.166 -33.167 -56.499 -49.5s-28 -34.5 -32 -54.5l-70 -360h84c32.667 0 59.334 1.66699 80.001 5
s37.167 9.66602 49.5 18.999s21.833 22.5 28.5 39.5s12.667 39.5 18 67.5l51 264c5.33301 26.667 1.16602 48.334 -12.501 65.001s-37.5 25 -71.5 25l13 70c44 14.667 82.833 39.167 116.5 73.5s55.5 77.5 65.5 129.5h104zM228.997 594.006
c4.66699 17.333 1.66699 32.166 -9 44.499s-24.667 18.5 -42 18.5s-33.166 -6.16699 -47.499 -18.5s-23.833 -27.166 -28.5 -44.499c-3.33301 -17.333 0.166992 -32.333 10.5 -45s24.166 -19 41.499 -19s33.333 6.33301 48 19s23.667 27.667 27 45z" />
    <glyph glyph-name="uni0E0C" unicode="&#xe0c;" horiz-adv-x="1165" 
d="M977 86c-6 -34 -17.501 -56.835 -34.501 -68.502s-40.5 -17.5 -70.5 -17.5h-41c-6 12 -14.667 24.667 -26 38s-23.833 26.5 -37.5 39.5s-27.834 25 -42.501 36s-28.334 20.167 -41.001 27.5c0 -4 -0.666992 -8 -2 -12c-3.33301 -19.333 -10.333 -37.333 -21 -54
s-23.5 -31.334 -38.5 -44.001s-31.833 -22.667 -50.5 -30s-37.334 -11 -56.001 -11c-19.333 0 -36.666 3.66699 -51.999 11s-28 17.333 -38 30s-17.167 27.334 -21.5 44.001s-4.83301 34.667 -1.5 54c3.33301 16 9.16602 31.333 17.499 46s18.333 27.834 30 39.501
s24.5 21.834 38.5 30.501s28.333 15 43 19l64 322c5.33301 28 4.33301 52.667 -3 74s-18.666 39 -33.999 53s-33.5 24.667 -54.5 32s-42.5 11 -64.5 11c-40 0 -77.667 -6.66699 -113 -20s-68 -34 -98 -62c16.667 -8 36.167 -19.833 58.5 -35.5s41.166 -33.167 56.499 -52.5
c-76 -25.333 -121 -73.333 -135 -144l-37 -184c7.33301 3.33301 15.833 5.5 25.5 6.5s18.167 1.5 25.5 1.5c19.333 0 36.5 -3.5 51.5 -10.5s27.333 -16.667 37 -29s16.334 -26.666 20.001 -42.999s3.83398 -33.833 0.500977 -52.5c-4 -19.333 -11.167 -37.5 -21.5 -54.5
s-23 -31.833 -38 -44.5s-31.667 -22.834 -50 -30.501s-37.166 -11.5 -56.499 -11.5c-46 0 -79.333 13.833 -100 41.5s-27 63.5 -19 107.5l59 305c8 36.667 22.833 67.334 44.5 92.001s45.167 41.334 70.5 50.001c-8 7.33301 -18 14.666 -30 21.999
s-24.167 14.166 -36.5 20.499s-24 12 -35 17l-25.5 11.5c48 56.667 102.333 100.667 163 132s128 47 202 47c38 0 73.333 -5.33301 106 -16s60 -26.5 82 -47.5s37.667 -47.167 47 -78.5s10 -68 2 -110l-61 -322c24 -6 48.167 -15 72.5 -27s47.5 -25.5 69.5 -40.5
s41.833 -30.5 59.5 -46.5s31.834 -30.667 42.501 -44l139 715h102zM605.999 128.998c4 17.333 0.832031 32.333 -9.50098 45s-24.166 19 -41.499 19s-33.333 -6.33301 -48 -19s-24 -27.667 -28 -45c-3.33301 -17.333 0 -32.166 10 -44.499s23.667 -18.5 41 -18.5
s33.5 6.16699 48.5 18.5s24.167 27.166 27.5 44.499zM259.998 130.998c4 17.333 0.832031 32.333 -9.50098 45s-24.166 19 -41.499 19s-33.333 -6.33301 -48 -19s-24 -27.667 -28 -45c-3.33301 -17.333 0 -32.166 10 -44.499s23.667 -18.5 41 -18.5s33.5 6.16699 48.5 18.5
s24.167 27.166 27.5 44.499z" />
    <glyph glyph-name="uni0E0D" unicode="&#xe0d;" horiz-adv-x="1137" 
d="M969 193c-6 -32.667 -14.335 -60.999 -25.002 -84.999s-25 -44 -43 -60s-40.167 -28 -66.5 -36s-58.166 -12 -95.499 -12h-360l14 78c23.333 0 42 0.833008 56 2.5s25.167 5.66699 33.5 12s14.666 15.833 18.999 28.5s8.5 29.667 12.5 51l82 414
c5.33301 28 4.33301 52.667 -3 74s-18.666 39 -33.999 53s-33.5 24.667 -54.5 32s-42.5 11 -64.5 11c-40 0 -77.667 -6.66699 -113 -20s-68 -34 -98 -62c16.667 -8 36.167 -19.833 58.5 -35.5s41.166 -33.167 56.499 -52.5c-76 -25.333 -121 -73.333 -135 -144l-37 -184
c7.33301 3.33301 15.833 5.5 25.5 6.5s18.167 1.5 25.5 1.5c19.333 0 36.5 -3.5 51.5 -10.5s27.333 -16.667 37 -29s16.334 -26.666 20.001 -42.999s3.83398 -33.833 0.500977 -52.5c-4 -19.333 -11.167 -37.5 -21.5 -54.5s-23 -31.833 -38 -44.5
s-31.667 -22.834 -50 -30.501s-37.166 -11.5 -56.499 -11.5c-46 0 -79.333 13.833 -100 41.5s-27 63.5 -19 107.5l59 305c8 36.667 22.833 67.334 44.5 92.001s45.167 41.334 70.5 50.001c-8 7.33301 -18 14.666 -30 21.999s-24.167 14.166 -36.5 20.499s-24 12 -35 17
l-25.5 11.5c48 56.667 102.333 100.667 163 132s128 47 202 47c38 0 73.333 -5.33301 106 -16s60 -26.5 82 -47.5s37.667 -47.167 47 -78.5s10 -68 2 -110l-96 -502h98c29.333 0 53.833 1.66699 73.5 5s36 9.66602 49 18.999s23.167 22.5 30.5 39.5s13.666 39.5 18.999 67.5
l119 606h103zM900.998 -157.999c-52 -46.667 -105.995 -83.8311 -161.995 -111.498s-117.333 -40.834 -184 -39.501c-46.667 1.33301 -82.334 14 -107.001 38s-33.334 55.667 -26.001 95c3.33301 17.333 9.83301 33.666 19.5 48.999s21.167 28.666 34.5 39.999
s28.166 20.166 44.499 26.499s33.166 9.5 50.499 9.5s33 -3.16699 47 -9.5s25.667 -15.166 35 -26.499s15.666 -24.666 18.999 -39.999s3.33301 -31.666 0 -48.999c-1.33301 -7.33301 -3 -14.5 -5 -21.5s-5.33301 -13.5 -10 -19.5c16 2.66699 33.5 8 52.5 16
s37.833 17.5 56.5 28.5s36.167 23.167 52.5 36.5s29.5 26.666 39.5 39.999zM602.003 -175.996c3.33301 14.667 0.666992 27.5 -8 38.5s-20.334 16.5 -35.001 16.5s-28.667 -5.5 -42 -16.5s-21.666 -23.833 -24.999 -38.5c-2.66699 -14.667 0.5 -27.5 9.5 -38.5
s20.833 -16.5 35.5 -16.5c14 0 27.833 5.5 41.5 16.5s21.5 23.833 23.5 38.5zM260.004 131.004c4 17.333 0.832031 32.333 -9.50098 45s-24.166 19 -41.499 19s-33.333 -6.33301 -48 -19s-24 -27.667 -28 -45c-3.33301 -17.333 0 -32.166 10 -44.499s23.667 -18.5 41 -18.5
s33.5 6.16699 48.5 18.5s24.167 27.166 27.5 44.499z" />
    <glyph glyph-name="uni0E0E" unicode="&#xe0e;" horiz-adv-x="840" 
d="M586 -250c-10.667 -56 -29.8359 -96.665 -57.5029 -121.998s-64.5 -38 -110.5 -38h-41c-3.33301 10 -7.66602 21.167 -12.999 33.5s-11.5 24.833 -18.5 37.5s-14.5 25 -22.5 37s-16 22 -24 30c-13.333 -19.333 -28.833 -37 -46.5 -53s-36.667 -29.667 -57 -41
s-41.5 -20 -63.5 -26s-44 -9 -66 -9c-22.667 0 -43.834 2.83301 -63.501 8.5s-36.167 14.167 -49.5 25.5s-23 25.5 -29 42.5s-6.66699 37.167 -2 60.5c4 20.667 12.667 40 26 58s29.833 33.667 49.5 47s42 24 67 32s51.167 12 78.5 12c26 0 48.833 -2 68.5 -6
s37.834 -10 54.501 -18c2.66699 7.33301 4.66699 14.666 6 21.999l4 21l3 22h102l-8 -41c-2.66699 -11.333 -6 -23.5 -10 -36.5s-8.33301 -24.5 -13 -34.5c20.667 -18 38.167 -39 52.5 -63s24.833 -45.333 31.5 -64c16.667 0 28 5.5 34 16.5s11.667 30.5 17 58.5l162 824
c6 28 5.33301 52.667 -2 74s-18.666 39 -33.999 53s-33.5 24.667 -54.5 32s-42.5 11 -64.5 11c-40 0 -77.667 -6.66699 -113 -20s-68 -34 -98 -62c16.667 -8.66699 36 -20.667 58 -36s40.667 -32.666 56 -51.999c-76 -25.333 -121 -73.333 -135 -144l-45 -235
c10 -23.333 12 -49.333 6 -78c-3.33301 -19.333 -10.333 -37.333 -21 -54s-23.5 -31.334 -38.5 -44.001s-31.833 -22.667 -50.5 -30s-37.334 -11 -56.001 -11s-35.667 3.66699 -51 11s-28.166 17.333 -38.499 30s-17.666 27.334 -21.999 44.001s-4.5 34.667 -0.5 54
c3.33301 18.667 10.333 36.5 21 53.5s23.5 31.833 38.5 44.5s31.667 22.667 50 30s37.166 11 56.499 11h14l35 176c7.33301 36.667 22 67.5 44 92.5s45.333 41.5 70 49.5c-8 7.33301 -18 14.666 -30 21.999s-24.167 14.166 -36.5 20.499s-24 12 -35 17l-25.5 11.5
c48.667 56.667 103.5 100.667 164.5 132s127.833 47 200.5 47c38.667 0 74.334 -5.33301 107.001 -16s60 -26.5 82 -47.5s37.667 -47.167 47 -78.5s10 -68 2 -110zM144.998 129.002c4.66699 17.333 1.66699 32.333 -9 45s-24.667 19 -42 19s-33.166 -6.33301 -47.499 -19
s-23.833 -27.667 -28.5 -45c-3.33301 -17.333 0.166992 -32.166 10.5 -44.499s24.166 -18.5 41.499 -18.5s33.333 6.16699 48 18.5s23.667 27.166 27 44.499zM230.998 -224.998c-8 8 -20.666 15 -37.999 21s-36.666 9 -57.999 9c-30.667 0 -57.834 -7 -81.501 -21
s-37.5 -31.333 -41.5 -52c-3.33301 -17.333 1.5 -30.666 14.5 -39.999s30.167 -14 51.5 -14c17.333 0 34.166 3.16699 50.499 9.5s31.333 14.166 45 23.499s25.5 19.833 35.5 31.5s17.333 22.5 22 32.5z" />
    <glyph glyph-name="uni0E0F" unicode="&#xe0f;" horiz-adv-x="840" 
d="M586 -248c-6 -32 -14.6689 -58.3311 -26.002 -78.998s-24.5 -37.167 -39.5 -49.5s-31.333 -21 -49 -26s-35.5 -7.5 -53.5 -7.5h-41c-6 18.667 -13.167 37.667 -21.5 57s-17.5 37.333 -27.5 54l-25.5 -26l-26 -28l-24 -26.5l-19.5 -21.5h-63l-9 21l-24 42
c-20.667 -19.333 -44.667 -36.166 -72 -50.499s-60 -21.5 -98 -21.5c-16.667 0 -33.167 2.66699 -49.5 8s-30.666 13.5 -42.999 24.5s-21.333 24.833 -27 41.5s-6.16699 36.667 -1.5 60c4 19.333 11.5 37.166 22.5 53.499s24.5 30.333 40.5 42s34.167 20.834 54.5 27.501
s41.5 10 63.5 10c24.667 0 46 -3.66699 64 -11s32 -16 42 -26c3.33301 7.33301 5.66602 15.333 6.99902 24l4 25l3 29h103c-2.66699 -18 -6.66699 -36.333 -12 -55c-4 -15.333 -9.16699 -32 -15.5 -50s-14.166 -33.667 -23.499 -47l28 -43c7.33301 8 15 15.833 23 23.5
l23 22.5l41 39c14 13.333 26.667 24.666 38 33.999c19.333 -22.667 36.166 -45.834 50.499 -69.501s25.5 -44.167 33.5 -61.5c16.667 0 28 5 34 15s11.667 29.333 17 58l160 822c6 28 5.33301 52.667 -2 74s-18.666 39 -33.999 53s-33.5 24.667 -54.5 32s-42.5 11 -64.5 11
c-40 0 -77.667 -6.66699 -113 -20s-68 -34 -98 -62c16.667 -8.66699 36 -20.667 58 -36s40.667 -32.666 56 -51.999c-76 -25.333 -121 -73.333 -135 -144l-45 -235c10 -23.333 12 -49.333 6 -78c-3.33301 -19.333 -10.333 -37.333 -21 -54s-23.5 -31.334 -38.5 -44.001
s-31.833 -22.667 -50.5 -30s-37.334 -11 -56.001 -11s-35.667 3.66699 -51 11s-28.166 17.333 -38.499 30s-17.666 27.334 -21.999 44.001s-4.5 34.667 -0.5 54c3.33301 18.667 10.333 36.5 21 53.5s23.5 31.833 38.5 44.5s31.667 22.667 50 30s37.166 11 56.499 11h14
l35 176c7.33301 36.667 22 67.5 44 92.5s45.333 41.5 70 49.5c-8 7.33301 -18 14.666 -30 21.999s-24.167 14.166 -36.5 20.499s-24 12 -35 17l-25.5 11.5c48.667 56.667 103.5 100.667 164.5 132s127.833 47 200.5 47c38.667 0 74.334 -5.33301 107.001 -16
s60 -26.5 82 -47.5s37.667 -47.167 47 -78.5s10 -68 2 -110zM144.998 129.002c4.66699 17.333 1.66699 32.333 -9 45s-24.667 19 -42 19s-33.166 -6.33301 -47.499 -19s-23.833 -27.667 -28.5 -45c-3.33301 -17.333 0.166992 -32.166 10.5 -44.499
s24.166 -18.5 41.499 -18.5s33.333 6.16699 48 18.5s23.667 27.166 27 44.499zM85.998 -269.998c-4 12 -12.999 22.501 -26.999 31.501s-30.333 13.5 -49 13.5c-6.66699 0 -14.167 -1.16699 -22.5 -3.5s-16.166 -5.83301 -23.499 -10.5s-14 -10.334 -20 -17.001
s-10 -14.334 -12 -23.001c-2.66699 -16 1.66602 -28.5 12.999 -37.5s25.666 -13.5 42.999 -13.5c22.667 0 43.167 6.33301 61.5 19s30.5 26.334 36.5 41.001z" />
    <glyph glyph-name="uni0E10" unicode="&#xe10;" horiz-adv-x="709" 
d="M711 768c-22.667 -21.333 -44.9941 -38.9922 -66.9941 -52.9922s-47 -21 -75 -21c-21.333 0 -41.5 2.83301 -60.5 8.5s-37.667 12 -56 19s-36.666 13.667 -54.999 20s-37.5 9.83301 -57.5 10.5c-22.667 0 -42.834 -2 -60.501 -6s-33.334 -9.33301 -47.001 -16
s-25 -14.334 -34 -23.001s-16.5 -17 -22.5 -25c36 -1.33301 74.667 -3.5 116 -6.5s84 -7.5 128 -13.5c30.667 -4.66699 59.167 -10.834 85.5 -18.501s48.833 -17.834 67.5 -30.501s32.5 -28.167 41.5 -46.5s11.167 -40.5 6.5 -66.5
c-6.66699 -35.333 -17.167 -71.5 -31.5 -108.5s-30.333 -75.833 -48 -116.5l-55.5 -129c-19.333 -45.333 -37.333 -94 -54 -146h-127l-31 287c-12 -8.66699 -25 -15 -39 -19s-28 -6 -42 -6c-19.333 0 -36.5 3.66699 -51.5 11s-27.5 17.166 -37.5 29.499s-17 26.833 -21 43.5
s-4.33301 34.334 -1 53.001s10.166 36.5 20.499 53.5s23 31.667 38 44s31.5 22.166 49.5 29.499s36.667 11 56 11c20.667 0 38.5 -3.5 53.5 -10.5s27.667 -16.5 38 -28.5s18.166 -26.167 23.499 -42.5s8.66602 -33.833 9.99902 -52.5l14 -178
c0.666992 -9.33301 1 -19.833 1 -31.5s-0.333008 -22.5 -1 -32.5l-2 -36h4c0.666992 4.66699 1.83398 11 3.50098 19s3.5 16.333 5.5 25s4.33301 17.5 7 26.5s5.66699 17.5 9 25.5c8.66699 22.667 18 45.667 28 69l29 68.5c9.33301 22.333 17.666 44 24.999 65
s12.666 40.833 15.999 59.5c4 21.333 0.333008 38.666 -11 51.999s-27.333 24.166 -48 32.499s-44.334 14.666 -71.001 18.999s-53 8.16602 -79 11.499c-23.333 2.66699 -47.333 4.66699 -72 6s-49 2.33301 -73 3s-47 1.16699 -69 1.5s-42 0.833008 -60 1.5
c32 71.333 75.5 126.833 130.5 166.5s124.167 59.5 207.5 59.5c20 0 39.5 -2.66699 58.5 -8s37 -11 54 -17l48 -17c15 -5.33301 28.833 -8 41.5 -8c14.667 0 27.667 4 39 12l37 27zM504.006 -259.992c-10.667 -54 -28.1602 -93.5059 -52.4932 -118.506
s-57.5 -37.5 -99.5 -37.5h-37l-59 58l-72 -50h-57l-31 52c-21.333 -20.667 -43.5 -36.5 -66.5 -47.5s-51.167 -16.5 -84.5 -16.5c-16 0 -31.333 2.83301 -46 8.5s-27.334 13.834 -38.001 24.501s-18.334 23.834 -23.001 39.501s-5.33398 33.167 -2.00098 52.5
c4 20 11.167 38.333 21.5 55s23 30.834 38 42.501s31.667 20.834 50 27.501s37.833 10 58.5 10c19.333 0 37.166 -3.33301 53.499 -10s29.166 -15.667 38.499 -27c3.33301 7.33301 6 15.5 8 24.5s3.66699 17.5 5 25.5c1.33301 4.66699 2.16602 9.33398 2.49902 14.001
s0.833008 9.33398 1.5 14.001h92c-2 -9.33301 -4.16699 -18.833 -6.5 -28.5s-4.83301 -19.167 -7.5 -28.5c-4.66699 -16 -10.167 -32.667 -16.5 -50s-13.166 -32 -20.499 -44l36 -60l84 58l62 -60c16.667 0 30.167 3.16699 40.5 9.5s16.5 15.5 18.5 27.5
c0 3.33301 0.333008 6 1 8l3 13c-4 -1.33301 -7.66699 -2 -11 -2h-11c-17.333 0 -33.166 2.83301 -47.499 8.5s-26.333 13.5 -36 23.5s-16.5 21.833 -20.5 35.5s-4.33301 28.5 -1 44.5c3.33301 15.333 9.66602 29.833 18.999 43.5s20.666 25.667 33.999 36
s28.166 18.5 44.499 24.5s33.166 9 50.499 9s33 -3 47 -9s25.667 -14.167 35 -24.5s15.833 -22.333 19.5 -36s3.83398 -28.167 0.500977 -43.5zM283.013 399.002c3.33301 17.333 -0.167969 32.333 -10.501 45s-24.166 19 -41.499 19s-33.333 -6.33301 -48 -19
s-23.667 -27.667 -27 -45s0 -32.166 10 -44.499s23.667 -18.5 41 -18.5s33.5 6.16699 48.5 18.5s24.167 27.166 27.5 44.499zM455.012 -163.998c2 13.333 -1.49902 24.833 -10.499 34.5s-21.167 14.5 -36.5 14.5s-30 -4.83301 -44 -14.5s-22 -21.167 -24 -34.5
c-3.33301 -14.667 0.166992 -26.5 10.5 -35.5s23.166 -13.5 38.499 -13.5s29.333 4.5 42 13.5s20.667 20.833 24 35.5zM51.0127 -284.998c-8.66699 28.667 -29.6641 42.999 -62.9971 42.999c-14.667 0 -29.167 -4.66699 -43.5 -14s-23.166 -21.666 -26.499 -36.999
c-2.66699 -15.333 1.16602 -27 11.499 -35s22.166 -12 35.499 -12c17.333 0 34.166 5.16699 50.499 15.5s28.166 23.5 35.499 39.5z" />
    <glyph glyph-name="uni0E11" unicode="&#xe11;" horiz-adv-x="969" 
d="M662 0l120 622.997c7.33301 36.667 6.66602 65.5 -2.00098 86.5s-25.667 31.5 -51 31.5c-10 0 -18.667 -4.83301 -26 -14.5s-13.666 -19.167 -18.999 -28.5l-377 -698h-112l96 494c4 20 13.167 37.5 27.5 52.5s29.5 29.167 45.5 42.5s30.833 26.5 44.5 39.5
s22.167 28.167 25.5 45.5c2.66699 16 1.66699 30.167 -3 42.5s-9.66699 18.5 -15 18.5c-1.33301 0 -5.33301 -2.5 -12 -7.5l-22 -16l-22 -16c-6.66699 -5 -10.667 -7.5 -12 -7.5l-37 37l-28 27l-41 -23c12 -4.66699 22.167 -11.5 30.5 -20.5s15 -19 20 -30
s8.16699 -22.833 9.5 -35.5s1 -25 -1 -37c-3.33301 -19.333 -10.166 -37.166 -20.499 -53.499s-23 -30.833 -38 -43.5s-31.667 -22.5 -50 -29.5s-36.833 -10.5 -55.5 -10.5s-35.667 3.33301 -51 10s-28 16.167 -38 28.5s-17 26.833 -21 43.5s-4 35 0 55
c3.33301 17.333 11.333 36.666 24 57.999s30.167 42.333 52.5 63s49.666 40 81.999 58s70.166 32.667 113.499 44l28 -23l21 -18c6.66699 -6 11.334 -10.667 14.001 -14c6 2.66699 13.333 7 22 13l26.5 18.5c9 6.33301 17.5 11.833 25.5 16.5s13.667 7 17 7
c8.66699 0 18 -4.5 28 -13.5s19 -20.5 27 -34.5s14.167 -29.5 18.5 -46.5s4.83301 -33.833 1.5 -50.5c-4 -21.333 -12.667 -40.166 -26 -56.499s-27.5 -31.833 -42.5 -46.5s-29.167 -29.667 -42.5 -45s-22 -33 -26 -53l-26 -139
c-2.66699 -11.333 -6.66699 -26.666 -12 -45.999s-11 -38.333 -17 -57l-23 -69h2l23 60l21 49c7.33301 16.667 14 30.334 20 41.001l227 417c15.333 28 34.833 50 58.5 66s53.5 24 89.5 24c24.667 0 46.667 -3.33301 66 -10s35.333 -17.5 48 -32.5s21 -34.167 25 -57.5
s2.66699 -52 -4 -86l-125 -643h-102zM227 605.997c3.33301 17.333 0.000976562 32.333 -9.99902 45s-23.667 19 -41 19s-33.5 -6.33301 -48.5 -19s-24.167 -27.667 -27.5 -45c-4 -17.333 -0.666992 -32.166 10 -44.499s24.667 -18.5 42 -18.5s33.166 6.16699 47.499 18.5
s23.5 27.166 27.5 44.499z" />
    <glyph glyph-name="uni0E12" unicode="&#xe12;" horiz-adv-x="1219" 
d="M1030 86c-6 -33.333 -17.167 -56 -33.5 -68s-39.833 -18 -70.5 -18h-33c-6 12 -15 25.167 -27 39.5s-25.167 28.166 -39.5 41.499s-29.333 25.666 -45 36.999s-30.5 20.333 -44.5 27v-7c0 -2 -0.666992 -5 -2 -9c-3.33301 -19.333 -10.333 -37.333 -21 -54
s-23.5 -31.334 -38.5 -44.001s-31.833 -22.667 -50.5 -30s-37.334 -11 -56.001 -11s-35.667 3.66699 -51 11s-28.166 17.333 -38.499 30s-17.666 27.334 -21.999 44.001s-4.5 34.667 -0.5 54c2.66699 16 8.16699 31.333 16.5 46s18.333 27.834 30 39.501
s24.667 21.834 39 30.501s28.833 15 43.5 19l65 334c4.66699 22.667 5.66699 42.334 3 59.001s-7.5 30.667 -14.5 42s-15.167 20.5 -24.5 27.5s-18.333 12.5 -27 16.5l-139 -94l-113 94c-38 -17.333 -69.5 -42.5 -94.5 -75.5s-41.167 -68.5 -48.5 -106.5
c-5.33301 -26.667 -9 -57 -11 -91s-3.66699 -69 -5 -105s-3.16602 -72 -5.49902 -108s-6.16602 -69 -11.499 -99l49 56c16 18 34.333 37.333 55 58c17.333 18.667 32.5 34.167 45.5 46.5l36.5 33.5c-28 7.33301 -49.5 23.333 -64.5 48s-19.5 53 -13.5 85
c4 18.667 11.167 36.5 21.5 53.5s22.833 31.667 37.5 44s31 22.166 49 29.499s36.667 11 56 11c18.667 0 35.667 -3.66699 51 -11s28 -17.166 38 -29.499s17 -27 21 -44s4.33301 -34.833 1 -53.5c-5.33301 -28.667 -15.833 -52.834 -31.5 -72.501
s-31.834 -37.834 -48.501 -54.501l-36 -35.5l-34 -33.5l-36 -36.5l-42 -43.5l-54.5 -60l-49 -57.5l-40.5 -51l-30 -40.5h-110l24 129c8 43.333 12.833 83.333 14.5 120s2.66699 72.334 3 107.001s1.33301 69 3 103s6.5 70 14.5 108
c7.33301 36.667 20.166 70.834 38.499 102.501s40.166 59.167 65.499 82.5s53.166 42.333 83.499 57s61.5 23.667 93.5 27l98 -82l129 82c17.333 -4 36.833 -10.5 58.5 -19.5s41 -22 58 -39s30 -38.833 39 -65.5s9.83301 -59.334 2.5 -98.001l-68 -352
c24 -6 48.167 -15 72.5 -27s47.5 -25.5 69.5 -40.5s41.833 -30.5 59.5 -46.5s31.834 -30.667 42.501 -44l139 715h103zM469 485c3.33301 17.333 0.000976562 32.333 -9.99902 45s-23.667 19 -41 19s-33.5 -6.33301 -48.5 -19s-24.167 -27.667 -27.5 -45
s0 -32.166 10 -44.499s23.667 -18.5 41 -18.5s33.666 6.16699 48.999 18.5s24.333 27.166 27 44.499zM659.001 129c4.66699 17.333 1.66699 32.333 -9 45s-24.667 19 -42 19s-33.166 -6.33301 -47.499 -19s-23.833 -27.667 -28.5 -45
c-3.33301 -17.333 0.166992 -32.166 10.5 -44.499s24.166 -18.5 41.499 -18.5s33.333 6.16699 48 18.5s23.667 27.166 27 44.499z" />
    <glyph glyph-name="uni0E13" unicode="&#xe13;" horiz-adv-x="1176" 
d="M1012 262c20.667 -12 35.999 -29.1641 45.999 -51.4971s12.333 -47.5 7 -75.5c-4 -19.333 -11.5 -37.666 -22.5 -54.999s-24.167 -32.333 -39.5 -45s-32.333 -22.667 -51 -30s-37.667 -11 -57 -11s-36.833 3.66699 -52.5 11s-28.667 17.333 -39 30s-17.5 27.667 -21.5 45
s-4 35.666 0 54.999c-22.667 -14.667 -49.5 -33.334 -80.5 -56.001s-61.5 -49 -91.5 -79h-129l115 586c5.33301 28 4.33301 52.667 -3 74s-18.666 39 -33.999 53s-33.5 24.667 -54.5 32s-42.5 11 -64.5 11c-40 0 -77.667 -6.66699 -113 -20s-68 -34 -98 -62
c16.667 -8 36.167 -19.833 58.5 -35.5s41.166 -33.167 56.499 -52.5c-76 -25.333 -121 -73.333 -135 -144l-37 -184c7.33301 3.33301 15.833 5.5 25.5 6.5s18.167 1.5 25.5 1.5c19.333 0 36.5 -3.5 51.5 -10.5s27.333 -16.667 37 -29s16.334 -26.666 20.001 -42.999
s3.83398 -33.833 0.500977 -52.5c-4 -19.333 -11.167 -37.5 -21.5 -54.5s-23 -31.833 -38 -44.5s-31.667 -22.834 -50 -30.501s-37.166 -11.5 -56.499 -11.5c-46 0 -79.333 13.833 -100 41.5s-27 63.5 -19 107.5l59 305c8 36.667 22.833 67.334 44.5 92.001
s45.167 41.334 70.5 50.001c-8 7.33301 -18 14.666 -30 21.999s-24.167 14.166 -36.5 20.499s-24 12 -35 17l-25.5 11.5c48 56.667 102.333 100.667 163 132s128 47 202 47c38 0 73.333 -5.33301 106 -16s60 -26.5 82 -47.5s37.667 -47.167 47 -78.5s10 -68 2 -110l-94 -486
c18 14.667 39.833 31.167 65.5 49.5s52.667 36.166 81 53.499s56.666 33.166 84.999 47.499s54.166 24.5 77.499 30.5l107 540h102zM986.999 139.003c4 17.333 0.832031 32.333 -9.50098 45s-24.166 19 -41.499 19s-33.333 -6.33301 -48 -19s-24 -27.667 -28 -45
c-3.33301 -17.333 0 -32.166 10 -44.499s23.667 -18.5 41 -18.5s33.5 6.16699 48.5 18.5s24.167 27.166 27.5 44.499zM259.998 131.003c4 17.333 0.832031 32.333 -9.50098 45s-24.166 19 -41.499 19s-33.333 -6.33301 -48 -19s-24 -27.667 -28 -45
c-3.33301 -17.333 0 -32.166 10 -44.499s23.667 -18.5 41 -18.5s33.5 6.16699 48.5 18.5s24.167 27.166 27.5 44.499z" />
    <glyph glyph-name="uni0E14" unicode="&#xe14;" horiz-adv-x="842" 
d="M535 0l104.001 535.003c6 28.667 7.16699 56.167 3.5 82.5s-12.834 49.833 -27.501 70.5s-35.167 37.167 -61.5 49.5s-59.166 18.5 -98.499 18.5c-32.667 0 -64.167 -5.5 -94.5 -16.5s-57.666 -26 -81.999 -45s-45 -41.5 -62 -67.5s-28.5 -54 -34.5 -84
c-6 -32 -9.5 -64.833 -10.5 -98.5s-1.5 -67.167 -1.5 -100.5s-0.333008 -66 -1 -98s-3.66699 -62 -9 -90c5.33301 7.33301 12 15.666 20 24.999l25.5 29.5c9 10.333 18.5 20.666 28.5 30.999l30 30.5l45.5 45.5c13 13 25.167 24.5 36.5 34.5
c-28 7.33301 -49.5 23.333 -64.5 48s-19.5 53 -13.5 85c4 18.667 11.167 36.5 21.5 53.5s22.833 31.667 37.5 44s31 22.166 49 29.499s36.667 11 56 11c18.667 0 35.667 -3.66699 51 -11s28 -17.166 38 -29.499s17 -27 21 -44s4.33301 -34.833 1 -53.5
c-5.33301 -28.667 -15.833 -52.834 -31.5 -72.501s-31.834 -37.834 -48.501 -54.501l-36 -35.5l-34 -33.5l-36 -36.5l-42 -43.5l-54.5 -60l-49 -57.5l-40.5 -51l-30 -40.5h-110l22 119c7.33301 38 11.333 74.333 12 109s0.833984 69.167 0.500977 103.5s0 69 1 104
s5.5 72.167 13.5 111.5c7.33301 38 21.666 74.5 42.999 109.5s48.833 65.833 82.5 92.5s73 47.834 118 63.501s94.833 23.5 149.5 23.5c54 0 99.833 -7.5 137.5 -22.5s67.667 -35.333 90 -61s37.166 -55.5 44.499 -89.5s7.33301 -70 0 -108l-108 -555h-102zM469.001 485.003
c3.33301 17.333 0.000976562 32.333 -9.99902 45s-23.667 19 -41 19s-33.5 -6.33301 -48.5 -19s-24.167 -27.667 -27.5 -45s0 -32.166 10 -44.499s23.667 -18.5 41 -18.5s33.666 6.16699 48.999 18.5s24.333 27.166 27 44.499z" />
    <glyph glyph-name="uni0E15" unicode="&#xe15;" horiz-adv-x="842" 
d="M535 0l116.002 598c4.66699 22.667 5.66699 42.334 3 59.001s-7.5 30.667 -14.5 42s-15.167 20.5 -24.5 27.5s-18.333 12.5 -27 16.5l-139 -94l-113 94c-38 -17.333 -69.5 -42.5 -94.5 -75.5s-41.167 -68.5 -48.5 -106.5c-5.33301 -26.667 -9 -57 -11 -91
s-3.66699 -69 -5 -105s-3.16602 -72 -5.49902 -108s-6.16602 -69 -11.499 -99l49 56c16 18 34.333 37.333 55 58c17.333 18.667 32.5 34.167 45.5 46.5l36.5 33.5c-28 7.33301 -49.5 23.333 -64.5 48s-19.5 53 -13.5 85c4 18.667 11.167 36.5 21.5 53.5
s22.833 31.667 37.5 44s31 22.166 49 29.499s36.667 11 56 11c18.667 0 35.667 -3.66699 51 -11s28 -17.166 38 -29.499s17 -27 21 -44s4.33301 -34.833 1 -53.5c-5.33301 -28.667 -15.833 -52.834 -31.5 -72.501s-31.834 -37.834 -48.501 -54.501l-36 -35.5l-34 -33.5
l-36 -36.5l-42 -43.5l-54.5 -60l-49 -57.5l-40.5 -51l-30 -40.5h-110l24 129c8 43.333 12.833 83.333 14.5 120s2.66699 72.334 3 107.001s1.33301 69 3 103s6.5 70 14.5 108c7.33301 36.667 20.166 70.834 38.499 102.501s40.166 59.167 65.499 82.5
s53.166 42.333 83.499 57s61.5 23.667 93.5 27l98 -82l129 82c17.333 -4 36.833 -10.5 58.5 -19.5s41 -22 58 -39s30 -38.833 39 -65.5s9.83301 -59.334 2.5 -98.001l-119 -614h-102zM469.002 485c3.33301 17.333 0.000976562 32.333 -9.99902 45s-23.667 19 -41 19
s-33.5 -6.33301 -48.5 -19s-24.167 -27.667 -27.5 -45s0 -32.166 10 -44.499s23.667 -18.5 41 -18.5s33.666 6.16699 48.999 18.5s24.333 27.166 27 44.499z" />
    <glyph glyph-name="uni0E16" unicode="&#xe16;" horiz-adv-x="788" 
d="M481 0l114.997 586c5.33301 28 4.33301 52.667 -3 74s-18.666 39 -33.999 53s-33.5 24.667 -54.5 32s-42.5 11 -64.5 11c-40 0 -77.667 -6.66699 -113 -20s-68 -34 -98 -62c16.667 -8 36.167 -19.833 58.5 -35.5s41.166 -33.167 56.499 -52.5
c-76 -25.333 -121 -73.333 -135 -144l-37 -184c7.33301 3.33301 15.833 5.5 25.5 6.5s18.167 1.5 25.5 1.5c19.333 0 36.5 -3.5 51.5 -10.5s27.333 -16.667 37 -29s16.334 -26.666 20.001 -42.999s3.83398 -33.833 0.500977 -52.5c-4 -19.333 -11.167 -37.5 -21.5 -54.5
s-23 -31.833 -38 -44.5s-31.667 -22.834 -50 -30.501s-37.166 -11.5 -56.499 -11.5c-46 0 -79.333 13.833 -100 41.5s-27 63.5 -19 107.5l59 305c8 36.667 22.833 67.334 44.5 92.001s45.167 41.334 70.5 50.001c-8 7.33301 -18 14.666 -30 21.999
s-24.167 14.166 -36.5 20.499s-24 12 -35 17l-25.5 11.5c48 56.667 102.333 100.667 163 132s128 47 202 47c38 0 73.333 -5.33301 106 -16s60 -26.5 82 -47.5s37.667 -47.167 47 -78.5s10 -68 2 -110l-112 -584h-103zM259.997 131c4 17.333 0.832031 32.333 -9.50098 45
s-24.166 19 -41.499 19s-33.333 -6.33301 -48 -19s-24 -27.667 -28 -45c-3.33301 -17.333 0 -32.166 10 -44.499s23.667 -18.5 41 -18.5s33.5 6.16699 48.5 18.5s24.167 27.166 27.5 44.499z" />
    <glyph glyph-name="uni0E17" unicode="&#xe17;" horiz-adv-x="846" 
d="M539 0l120.002 620.999c7.33301 36.667 6.66602 65.5 -2.00098 86.5s-25.667 31.5 -51 31.5c-10 0 -18.5 -4.33301 -25.5 -13s-13.5 -18.667 -19.5 -30l-356 -696h-113l109 561c-6.66699 -3.33301 -15 -5.5 -25 -6.5s-18.667 -1.5 -26 -1.5
c-19.333 0 -36.5 3.5 -51.5 10.5s-27.333 16.667 -37 29s-16.334 26.666 -20.001 42.999s-3.83398 33.833 -0.500977 52.5s10.333 36.667 21 54s23.667 32.333 39 45s32.333 22.834 51 30.501s37.667 11.5 57 11.5c46 0 79.333 -13.833 100 -41.5s27 -63.5 19 -107.5
l-56 -281c-3.33301 -15.333 -8.5 -35.666 -15.5 -60.999l-21.5 -75l-28 -91h4l29 68l24.5 57c8.33301 19.333 15.833 35 22.5 47l196 393c15.333 30 34.833 52.833 58.5 68.5s53.5 23.5 89.5 23.5c24.667 0 46.834 -3.5 66.501 -10.5s35.667 -18 48 -33
s20.5 -34.333 24.5 -58s2.66699 -52.5 -4 -86.5l-125 -641h-102zM240.002 687.999c4 17.333 0.666016 32.333 -10.001 45s-24.667 19 -42 19s-33.166 -6.33301 -47.499 -19s-23.5 -27.667 -27.5 -45c-3.33301 -17.333 0 -32.166 10 -44.499s23.667 -18.5 41 -18.5
s33.5 6.16699 48.5 18.5s24.167 27.166 27.5 44.499z" />
    <glyph glyph-name="uni0E18" unicode="&#xe18;" horiz-adv-x="727" 
d="M700 768c-22.667 -21.333 -44.8408 -39.002 -66.5078 -53.002s-46.5 -21 -74.5 -21c-19.333 0 -36.166 2.83301 -50.499 8.5s-28.333 12 -42 19s-28 13.667 -43 20s-32.5 9.83301 -52.5 10.5c-21.333 0.666992 -40.833 -1.33301 -58.5 -6s-33.5 -11 -47.5 -19
s-26 -16.833 -36 -26.5s-18 -19.167 -24 -28.5c18 0 38.167 -0.333008 60.5 -1s45.166 -2 68.499 -4s46.5 -4.66699 69.5 -8s44.167 -7.33301 63.5 -12c56.667 -13.333 97.334 -34.166 122.001 -62.499s32.334 -67.5 23.001 -117.5l-53 -274c-6 -32.667 -14.333 -61 -25 -85
s-24.834 -44 -42.501 -60s-39.667 -28 -66 -36s-58.166 -12 -95.499 -12h-381l14 78c22.667 0 40.834 0.666992 54.501 2s24.667 5 33 11s14.833 15.333 19.5 28s9.33398 30.334 14.001 53.001l43 219c6 34 15.333 59.833 28 77.5s29.334 32.167 50.001 43.5h114
c-17.333 -9.33301 -35 -23.833 -53 -43.5s-30.333 -45.5 -37 -77.5l-59 -309h119c30 0 54.667 1.66699 74 5s35.333 9.66602 48 18.999s22.667 22.5 30 39.5s14 39.5 20 67.5l51 262c3.33301 18 0.333008 33.333 -9 46s-22.333 23.167 -39 31.5s-36 15 -58 20
s-44 8.83301 -66 11.5c-23.333 2.66699 -47.666 4.66699 -72.999 6s-50.5 2.33301 -75.5 3s-49.333 1 -73 1h-65.5c15.333 34 34 65.833 56 95.5s47.333 55.334 76 77.001s60.5 38.667 95.5 51s73.167 18.5 114.5 18.5c18.667 0 36.334 -2.66699 53.001 -8s32 -11 46 -17
s26.333 -11.667 37 -17s19.334 -8 26.001 -8c14.667 0 27.667 4 39 12l37 27l67 -57v0z" />
    <glyph glyph-name="uni0E19" unicode="&#xe19;" horiz-adv-x="868" 
d="M684 262c20.667 -12 36.002 -29.166 46.002 -51.499s12.333 -47.5 7 -75.5c-4 -19.333 -11.5 -37.666 -22.5 -54.999s-24.167 -32.333 -39.5 -45s-32.333 -22.667 -51 -30s-37.667 -11 -57 -11s-36.833 3.66699 -52.5 11s-28.5 17.333 -38.5 30s-17 27.667 -21 45
s-4 35.666 0 54.999c2 9.33301 5 18.5 9 27.5s7 16.167 9 21.5c-16 -3.33301 -35.333 -10.833 -58 -22.5s-46 -26 -70 -43s-47 -35.833 -69 -56.5s-40.333 -41.334 -55 -62.001h-129l109 561c-6.66699 -3.33301 -15 -5.5 -25 -6.5s-18.667 -1.5 -26 -1.5
c-19.333 0 -36.5 3.5 -51.5 10.5s-27.333 16.667 -37 29s-16.334 26.666 -20.001 42.999s-3.83398 33.833 -0.500977 52.5s10.333 36.667 21 54s23.667 32.333 39 45s32.333 22.834 51 30.501s37.667 11.5 57 11.5c46 0 79.333 -13.833 100 -41.5s27 -63.5 19 -107.5
l-113 -574c50 50 107.167 90.667 171.5 122s130.833 49 199.5 53l104 538h103zM240.002 688.001c4 17.333 0.666016 32.333 -10.001 45s-24.667 19 -42 19s-33.166 -6.33301 -47.499 -19s-23.5 -27.667 -27.5 -45c-3.33301 -17.333 0 -32.166 10 -44.499
s23.667 -18.5 41 -18.5s33.5 6.16699 48.5 18.5s24.167 27.166 27.5 44.499zM659.001 139.001c4.66699 17.333 1.66699 32.333 -9 45s-24.667 19 -42 19s-33.166 -6.33301 -47.499 -19s-23.833 -27.667 -28.5 -45c-3.33301 -17.333 0.166992 -32.166 10.5 -44.499
s24.166 -18.5 41.499 -18.5s33.333 6.16699 48 18.5s23.667 27.166 27 44.499z" />
    <glyph glyph-name="uni0E1A" unicode="&#xe1a;" horiz-adv-x="850" 
d="M682 193c-6 -32.667 -14.332 -61 -24.999 -85s-25 -44 -43 -60s-40.167 -28 -66.5 -36s-57.833 -12 -94.5 -12h-463l14 78c22.667 0 40.834 0.666992 54.501 2s24.667 5 33 11s14.833 15.333 19.5 28s9.33398 30.334 14.001 53.001l76 389
c-6.66699 -3.33301 -15 -5.5 -25 -6.5s-18.667 -1.5 -26 -1.5c-19.333 0 -36.5 3.5 -51.5 10.5s-27.333 16.667 -37 29s-16.334 26.666 -20.001 42.999s-3.83398 33.833 -0.500977 52.5s10.333 36.667 21 54s23.667 32.333 39 45s32.333 22.834 51 30.501
s37.667 11.5 57 11.5c46 0 79.333 -13.833 100 -41.5s27 -63.5 19 -107.5l-117 -598h201c30 0 54.667 1.66699 74 5s35.166 9.66602 47.499 18.999s22.333 22.5 30 39.5s14.5 39.5 20.5 67.5l118 606h103zM240.001 688c4 17.333 0.666016 32.333 -10.001 45
s-24.667 19 -42 19s-33.166 -6.33301 -47.499 -19s-23.5 -27.667 -27.5 -45c-3.33301 -17.333 0 -32.166 10 -44.499s23.667 -18.5 41 -18.5s33.5 6.16699 48.5 18.5s24.167 27.166 27.5 44.499z" />
    <glyph glyph-name="uni0E1B" unicode="&#xe1b;" horiz-adv-x="850" 
d="M682 193c-6 -32.667 -14.332 -61 -24.999 -85s-25 -44 -43 -60s-40.167 -28 -66.5 -36s-57.833 -12 -94.5 -12h-463l14 78c22.667 0 40.834 0.666992 54.501 2s24.667 5 33 11s14.833 15.333 19.5 28s9.33398 30.334 14.001 53.001l76 389
c-6.66699 -3.33301 -15 -5.5 -25 -6.5s-18.667 -1.5 -26 -1.5c-19.333 0 -36.5 3.5 -51.5 10.5s-27.333 16.667 -37 29s-16.334 26.666 -20.001 42.999s-3.83398 33.833 -0.500977 52.5s10.333 36.667 21 54s23.667 32.333 39 45s32.333 22.834 51 30.501
s37.667 11.5 57 11.5c46 0 79.333 -13.833 100 -41.5s27 -63.5 19 -107.5l-117 -598h201c30 0 54.667 1.66699 74 5s35.166 9.66602 47.499 18.999s22.333 22.5 30 39.5s14.5 39.5 20.5 67.5l178 913h102zM240.001 688c4 17.333 0.666016 32.333 -10.001 45
s-24.667 19 -42 19s-33.166 -6.33301 -47.499 -19s-23.5 -27.667 -27.5 -45c-3.33301 -17.333 0 -32.166 10 -44.499s23.667 -18.5 41 -18.5s33.5 6.16699 48.5 18.5s24.167 27.166 27.5 44.499z" />
    <glyph glyph-name="uni0E1C" unicode="&#xe1c;" horiz-adv-x="848" 
d="M659 86c-6 -34 -17.666 -56.833 -34.999 -68.5s-40.333 -17.5 -69 -17.5h-47l-102 381l-250 -381h-47c-30 -0 -51 5.83301 -63 17.5s-15 34.5 -9 68.5l117 594c4 22 11.167 42.167 21.5 60.5s23.166 34 38.499 47s32.833 23.167 52.5 30.5s40.834 11 63.501 11
c19.333 0 36.666 -3.83301 51.999 -11.5s28 -17.834 38 -30.501s16.833 -27.667 20.5 -45s3.5 -35.333 -0.5 -54c-3.33301 -18.667 -10 -36.167 -20 -52.5s-22.333 -30.666 -37 -42.999s-31 -22 -49 -29s-36.333 -10.5 -55 -10.5c-7.33301 0 -15.5 0.5 -24.5 1.5
s-16.833 3.16699 -23.5 6.5l-79 -414l243 365h74l100 -365l131 672h103zM369.001 688c4 17.333 0.666016 32.333 -10.001 45s-24.667 19 -42 19s-33.166 -6.33301 -47.499 -19s-23.5 -27.667 -27.5 -45c-3.33301 -17.333 0 -32.166 10 -44.499s23.667 -18.5 41 -18.5
s33.5 6.16699 48.5 18.5s24.167 27.166 27.5 44.499z" />
    <glyph glyph-name="uni0E1D" unicode="&#xe1d;" horiz-adv-x="848" 
d="M659 86c-6 -34 -17.666 -56.833 -34.999 -68.5s-40.333 -17.5 -69 -17.5h-47l-102 381l-250 -381h-47c-30 -0 -51 5.83301 -63 17.5s-15 34.5 -9 68.5l117 594c4 22 11.167 42.167 21.5 60.5s23.166 34 38.499 47s32.833 23.167 52.5 30.5s40.834 11 63.501 11
c19.333 0 36.666 -3.83301 51.999 -11.5s28 -17.834 38 -30.501s16.833 -27.667 20.5 -45s3.5 -35.333 -0.5 -54c-3.33301 -18.667 -10 -36.167 -20 -52.5s-22.333 -30.666 -37 -42.999s-31 -22 -49 -29s-36.333 -10.5 -55 -10.5c-7.33301 0 -15.5 0.5 -24.5 1.5
s-16.833 3.16699 -23.5 6.5l-79 -414l243 365h74l100 -365l191 979h102zM369.001 688c4 17.333 0.666016 32.333 -10.001 45s-24.667 19 -42 19s-33.166 -6.33301 -47.499 -19s-23.5 -27.667 -27.5 -45c-3.33301 -17.333 0 -32.166 10 -44.499s23.667 -18.5 41 -18.5
s33.5 6.16699 48.5 18.5s24.167 27.166 27.5 44.499z" />
    <glyph glyph-name="uni0E1E" unicode="&#xe1e;" horiz-adv-x="946" 
d="M760 90c-4 -20.667 -9.5 -37.001 -16.5 -49.001s-15.5 -21 -25.5 -27s-21.333 -9.83301 -34 -11.5s-27 -2.5 -43 -2.5h-35l-61 627c-1.33301 14 -1.33301 25.667 0 35l2 14h-4c-0.666992 -2 -1.16699 -4.16699 -1.5 -6.5s-1.16602 -4.83301 -2.49902 -7.5
c-3.33301 -10.667 -8.33301 -22.334 -15 -35.001l-299 -627h-32c-16 0 -30 0.833008 -42 2.5s-21.667 5.5 -29 11.5s-12 15 -14 27s-1 28.333 3 49l90 471c-6.66699 -3.33301 -15 -5.5 -25 -6.5s-18.667 -1.5 -26 -1.5c-19.333 0 -36.5 3.5 -51.5 10.5
s-27.333 16.667 -37 29s-16.334 26.666 -20.001 42.999s-3.83398 33.833 -0.500977 52.5s10.333 36.667 21 54s23.667 32.333 39 45s32.333 22.834 51 30.501s37.667 11.5 57 11.5c46 0 79.333 -13.833 100 -41.5s27 -63.5 19 -107.5l-58 -295
c-2.66699 -14 -7 -33.833 -13 -59.5s-12.333 -51.167 -19 -76.5c-3.33301 -15.333 -7.16602 -30.833 -11.499 -46.5l-13.5 -48.5h4l23 54l20.5 46c7 15.333 13.167 28.333 18.5 39l251 526h86l56 -528c1.33301 -11.333 2.16602 -24.666 2.49902 -39.999
s0.833008 -30.333 1.5 -45l2 -52h4l13 94l10.5 76.5c3.66699 25.667 6.83398 45.834 9.50098 60.501l84 434h102zM240 687.999c4 17.333 0.666016 32.333 -10.001 45s-24.667 19 -42 19s-33.166 -6.33301 -47.499 -19s-23.5 -27.667 -27.5 -45
c-3.33301 -17.333 0 -32.166 10 -44.499s23.667 -18.5 41 -18.5s33.5 6.16699 48.5 18.5s24.167 27.166 27.5 44.499z" />
    <glyph glyph-name="uni0E1F" unicode="&#xe1f;" horiz-adv-x="946" 
d="M760 90c-4 -20.667 -9.5 -37.001 -16.5 -49.001s-15.5 -21 -25.5 -27s-21.333 -9.83301 -34 -11.5s-27 -2.5 -43 -2.5h-35l-61 627c-1.33301 14 -1.33301 25.667 0 35l2 14h-4c-0.666992 -2 -1.16699 -4.16699 -1.5 -6.5s-1.16602 -4.83301 -2.49902 -7.5
c-3.33301 -10.667 -8.33301 -22.334 -15 -35.001l-299 -627h-32c-16 0 -30 0.833008 -42 2.5s-21.667 5.5 -29 11.5s-12 15 -14 27s-1 28.333 3 49l90 471c-6.66699 -3.33301 -15 -5.5 -25 -6.5s-18.667 -1.5 -26 -1.5c-19.333 0 -36.5 3.5 -51.5 10.5
s-27.333 16.667 -37 29s-16.334 26.666 -20.001 42.999s-3.83398 33.833 -0.500977 52.5s10.333 36.667 21 54s23.667 32.333 39 45s32.333 22.834 51 30.501s37.667 11.5 57 11.5c46 0 79.333 -13.833 100 -41.5s27 -63.5 19 -107.5l-58 -295
c-2.66699 -14 -7 -33.833 -13 -59.5s-12.333 -51.167 -19 -76.5c-3.33301 -15.333 -7.16602 -30.833 -11.499 -46.5l-13.5 -48.5h4l23 54l20.5 46c7 15.333 13.167 28.333 18.5 39l251 526h86l56 -528c1.33301 -11.333 2.16602 -24.666 2.49902 -39.999
s0.833008 -30.333 1.5 -45l2 -52h4l13 94l10.5 76.5c3.66699 25.667 6.83398 45.834 9.50098 60.501l143 741h103zM240 687.999c4 17.333 0.666016 32.333 -10.001 45s-24.667 19 -42 19s-33.166 -6.33301 -47.499 -19s-23.5 -27.667 -27.5 -45
c-3.33301 -17.333 0 -32.166 10 -44.499s23.667 -18.5 41 -18.5s33.5 6.16699 48.5 18.5s24.167 27.166 27.5 44.499z" />
    <glyph glyph-name="uni0E20" unicode="&#xe20;" horiz-adv-x="840" 
d="M532 0l114.998 586.001c6 28 5.33301 52.667 -2 74s-18.666 39 -33.999 53s-33.5 24.667 -54.5 32s-42.5 11 -64.5 11c-40 0 -77.667 -6.66699 -113 -20s-68 -34 -98 -62c16.667 -8.66699 36 -20.667 58 -36s40.667 -32.666 56 -51.999
c-76 -25.333 -121 -73.333 -135 -144l-45 -235c10 -23.333 12 -49.333 6 -78c-3.33301 -19.333 -10.333 -37.333 -21 -54s-23.5 -31.334 -38.5 -44.001s-31.833 -22.667 -50.5 -30s-37.334 -11 -56.001 -11s-35.667 3.66699 -51 11s-28.166 17.333 -38.499 30
s-17.666 27.334 -21.999 44.001s-4.5 34.667 -0.5 54c3.33301 18.667 10.333 36.5 21 53.5s23.5 31.833 38.5 44.5s31.667 22.667 50 30s37.166 11 56.499 11h14l35 176c7.33301 36.667 22 67.5 44 92.5s45.333 41.5 70 49.5c-8 7.33301 -18 14.666 -30 21.999
s-24.167 14.166 -36.5 20.499s-24 12 -35 17l-25.5 11.5c48.667 56.667 103.5 100.667 164.5 132s127.833 47 200.5 47c38.667 0 74.334 -5.33301 107.001 -16s60 -26.5 82 -47.5s37.667 -47.167 47 -78.5s10 -68 2 -110l-113 -584h-103zM144.998 129.001
c4.66699 17.333 1.66699 32.333 -9 45s-24.667 19 -42 19s-33.166 -6.33301 -47.499 -19s-23.833 -27.667 -28.5 -45c-3.33301 -17.333 0.166992 -32.166 10.5 -44.499s24.166 -18.5 41.499 -18.5s33.333 6.16699 48 18.5s23.667 27.166 27 44.499z" />
    <glyph glyph-name="uni0E21" unicode="&#xe21;" horiz-adv-x="834" 
d="M647 94c-7.33301 -36 -19.666 -60.667 -36.999 -74s-42.333 -20 -75 -20h-35c-4 22 -12.167 46 -24.5 72s-28 51 -47 75s-40.667 45.333 -65 64s-50.5 31.667 -78.5 39l-25 -125c-3.33301 -18.667 -9.66602 -36 -18.999 -52s-21.166 -29.833 -35.499 -41.5
s-30.5 -20.834 -48.5 -27.501s-37 -10 -57 -10c-20.667 0 -39.667 3.83301 -57 11.5s-31.833 18.667 -43.5 33s-19.667 32 -24 53s-3.83301 44.5 1.5 70.5c5.33301 24.667 15.333 47.834 30 69.501s32.167 40.5 52.5 56.5s42.666 28.667 66.999 38s48.5 14 72.5 14l43 221
c-6.66699 -3.33301 -15.167 -5.5 -25.5 -6.5s-19.166 -1.5 -26.499 -1.5c-19.333 0 -36.333 3.5 -51 10.5s-26.834 16.667 -36.501 29s-16.334 26.666 -20.001 42.999s-3.83398 33.833 -0.500977 52.5s10.333 36.667 21 54s23.667 32.333 39 45s32.333 22.834 51 30.501
s37.667 11.5 57 11.5c46 0 79.333 -13.833 100 -41.5s27 -63.5 19 -107.5l-68 -346c22 -2.66699 45.167 -9.66699 69.5 -21s48 -25.666 71 -42.999s44.333 -37.333 64 -60s35.5 -46.334 47.5 -71.001l133 680h102zM281 688c4 17.333 0.666016 32.333 -10.001 45
s-24.667 19 -42 19s-33.166 -6.33301 -47.499 -19s-23.5 -27.667 -27.5 -45c-3.33301 -17.333 0 -32.166 10 -44.499s23.667 -18.5 41 -18.5s33.5 6.16699 48.5 18.5s24.167 27.166 27.5 44.499zM183.999 258c-14 0.666992 -27.499 -1.66699 -40.499 -7
s-24.833 -12.833 -35.5 -22.5s-19.667 -20.667 -27 -33s-12.333 -25.5 -15 -39.5c-5.33301 -22.667 -3 -40.667 7 -54s22.667 -20 38 -20c14 0 25.167 5 33.5 15s14.166 22.667 17.499 38z" />
    <glyph glyph-name="uni0E22" unicode="&#xe22;" horiz-adv-x="809" 
d="M641 193c-6 -32.667 -14.3311 -60.999 -24.998 -84.999s-25 -44 -43 -60s-40.167 -28 -66.5 -36s-57.833 -12 -94.5 -12h-392l56 289c4.66699 24 11.334 44 20.001 60s18.167 29.167 28.5 39.5s20.833 18.666 31.5 24.999l28 16.5c-12 3.33301 -23.5 8.33301 -34.5 15
s-20.333 14.834 -28 24.501s-13 21.334 -16 35.001s-2.83301 29.167 0.5 46.5l27 129c4.66699 22 12.334 42.167 23.001 60.5s23.667 34 39 47s32.666 23.167 51.999 30.5s40 11 62 11c44 0 76.167 -13 96.5 -39s26.5 -60 18.5 -102
c-3.33301 -19.333 -10.333 -37.166 -21 -53.499s-23.5 -30.5 -38.5 -42.5s-31.833 -21.5 -50.5 -28.5s-37.334 -10.5 -56.001 -10.5c-7.33301 0 -15.666 0.5 -24.999 1.5s-16.666 3.16699 -21.999 6.5c-2 -10 -1.33301 -20.333 2 -31s9.66602 -20.334 18.999 -29.001
s22.166 -15.834 38.499 -21.501s36.166 -8.5 59.499 -8.5h82l-17 -82h-84c-40 0 -70.667 -9.5 -92 -28.5s-35 -44.833 -41 -77.5l-39 -201h232c30 0 54.667 1.66699 74 5s35.166 9.66602 47.499 18.999s22.333 22.5 30 39.5s14.5 39.5 20.5 67.5l119 606h102z
M348.002 688.001c4 17.333 0.832031 32.333 -9.50098 45s-24.166 19 -41.499 19s-33.333 -6.33301 -48 -19s-24 -27.667 -28 -45c-3.33301 -17.333 0 -32.166 10 -44.499s23.667 -18.5 41 -18.5s33.5 6.16699 48.5 18.5s24.167 27.166 27.5 44.499z" />
    <glyph glyph-name="uni0E23" unicode="&#xe23;" horiz-adv-x="655" 
d="M670 768c-22.667 -21.333 -45.0039 -39.0039 -67.0039 -53.0039s-47 -21 -75 -21c-18.667 0 -35.167 2.83301 -49.5 8.5s-28.5 12 -42.5 19s-28.5 13.667 -43.5 20s-32.5 9.83301 -52.5 10.5c-22.667 0.666992 -43.167 -2.16602 -61.5 -8.49902
s-34.5 -14.166 -48.5 -23.499s-25.833 -19.333 -35.5 -30s-17.167 -20 -22.5 -28c14.667 0 31.834 -0.166992 51.501 -0.5s40.334 -1.33301 62.001 -3s43.834 -4.16699 66.501 -7.5s44.667 -8 66 -14c50 -14.667 84.833 -37.167 104.5 -67.5s24.5 -71.5 14.5 -123.5
l-60 -307c-4 -22 -11.167 -42.167 -21.5 -60.5s-23.166 -34 -38.499 -47s-32.833 -23.167 -52.5 -30.5s-40.834 -11 -63.501 -11c-19.333 0 -36.833 3.83301 -52.5 11.5s-28.5 17.834 -38.5 30.501s-17 27.5 -21 44.5s-4.33301 35.167 -1 54.5c4 18.667 11 36.167 21 52.5
s22.333 30.666 37 42.999s30.834 22 48.501 29s36.167 10.5 55.5 10.5c7.33301 0 15.666 -0.5 24.999 -1.5s16.666 -3.16699 21.999 -6.5l39 197c4 18.667 2.5 35.334 -4.5 50.001s-17.5 27.167 -31.5 37.5s-30.833 18.833 -50.5 25.5s-40.5 11.334 -62.5 14.001
c-23.333 2.66699 -47.166 4.5 -71.499 5.5s-48 1.66699 -71 2s-45 0.5 -66 0.5h-55.5c16 35.333 35 68 57 98s47.167 56 75.5 78s60 39.167 95 51.5s73.167 18.5 114.5 18.5c18 0 35.333 -2.66699 52 -8s32 -11 46 -17s26.333 -11.667 37 -17s19.334 -8 26.001 -8
c14.667 0 27.667 4 39 12l37 27zM386.996 130.996c4 17.333 0.832031 32.333 -9.50098 45s-24.166 19 -41.499 19s-33.333 -6.33301 -48 -19s-24 -27.667 -28 -45c-3.33301 -17.333 0 -32.166 10 -44.499s23.667 -18.5 41 -18.5s33.5 6.16699 48.5 18.5
s24.167 27.166 27.5 44.499z" />
    <glyph glyph-name="uni0E24" unicode="&#xe24;" horiz-adv-x="788" 
d="M422 -307l173.997 893c5.33301 28 4.33301 52.667 -3 74s-18.666 39 -33.999 53s-33.5 24.667 -54.5 32s-42.5 11 -64.5 11c-40 0 -77.667 -6.66699 -113 -20s-68 -34 -98 -62c16.667 -8 36.167 -19.833 58.5 -35.5s41.166 -33.167 56.499 -52.5
c-76 -25.333 -121 -73.333 -135 -144l-37 -184c7.33301 3.33301 15.833 5.5 25.5 6.5s18.167 1.5 25.5 1.5c19.333 0 36.5 -3.5 51.5 -10.5s27.333 -16.667 37 -29s16.334 -26.666 20.001 -42.999s3.83398 -33.833 0.500977 -52.5c-4 -19.333 -11.167 -37.5 -21.5 -54.5
s-23 -31.833 -38 -44.5s-31.667 -22.834 -50 -30.501s-37.166 -11.5 -56.499 -11.5c-46 0 -79.333 13.833 -100 41.5s-27 63.5 -19 107.5l59 305c8 36.667 22.833 67.334 44.5 92.001s45.167 41.334 70.5 50.001c-8 7.33301 -18 14.666 -30 21.999
s-24.167 14.166 -36.5 20.499s-24 12 -35 17l-25.5 11.5c48 56.667 102.333 100.667 163 132s128 47 202 47c38 0 73.333 -5.33301 106 -16s60 -26.5 82 -47.5s37.667 -47.167 47 -78.5s10 -68 2 -110l-172 -891h-102zM259.997 131c4 17.333 0.832031 32.333 -9.50098 45
s-24.166 19 -41.499 19s-33.333 -6.33301 -48 -19s-24 -27.667 -28 -45c-3.33301 -17.333 0 -32.166 10 -44.499s23.667 -18.5 41 -18.5s33.5 6.16699 48.5 18.5s24.167 27.166 27.5 44.499z" />
    <glyph glyph-name="uni0E25" unicode="&#xe25;" horiz-adv-x="807" 
d="M621 90c-4 -20.667 -9.50488 -37 -16.5049 -49s-15.5 -21 -25.5 -27s-21.333 -9.83301 -34 -11.5s-27 -2.5 -43 -2.5h-35l-82 449c-3.33301 16 -12.833 30.167 -28.5 42.5s-36.167 16.5 -61.5 12.5c-24.667 -4 -44.834 -14.167 -60.501 -30.5
s-26.167 -36.833 -31.5 -61.5l-31 -154c7.33301 3.33301 15.833 5.5 25.5 6.5s18.167 1.5 25.5 1.5c19.333 0 36.5 -3.5 51.5 -10.5s27.333 -16.667 37 -29s16.334 -26.666 20.001 -42.999s3.83398 -33.833 0.500977 -52.5c-4 -19.333 -11.167 -37.5 -21.5 -54.5
s-23 -31.833 -38 -44.5s-31.667 -22.834 -50 -30.501s-37.166 -11.5 -56.499 -11.5c-46 0 -79.333 13.833 -100 41.5s-27 63.5 -19 107.5l55 283c4.66699 23.333 12.834 44 24.501 62s25.167 33.667 40.5 47s32 24.166 50 32.499s35.667 14.5 53 18.5
c26 4.66699 50.667 6.66699 74 6s44.333 -4.5 63 -11.5s34.167 -17.167 46.5 -30.5s20.166 -30 23.499 -50l45 -248c2 -10.667 3.5 -23 4.5 -37s2.16699 -27.667 3.5 -41l2 -47h5c0.666992 9.33301 1.16699 18.833 1.5 28.5s1.16602 19.167 2.49902 28.5
c1.33301 16 3 32.5 5 49.5s4.33301 31.833 7 44.5l61 312c4.66699 24.667 3.83398 47.334 -2.49902 68.001s-17 38.5 -32 53.5s-33.667 26.833 -56 35.5s-47.166 13 -74.499 13s-53.833 -3 -79.5 -9s-49.5 -15 -71.5 -27s-41.667 -26.833 -59 -44.5
s-31.333 -38.167 -42 -61.5h-107c17.333 38 39.333 71 66 99s56.5 51 89.5 69s68.5 31.5 106.5 40.5s77 13.5 117 13.5c40.667 0 77.834 -5.33301 111.501 -16s61.834 -26 84.501 -46s39 -44.333 49 -73s11.667 -61 5 -97zM259.995 131
c4 17.333 0.832031 32.333 -9.50098 45s-24.166 19 -41.499 19s-33.333 -6.33301 -48 -19s-24 -27.667 -28 -45c-3.33301 -17.333 0 -32.166 10 -44.499s23.667 -18.5 41 -18.5s33.5 6.16699 48.5 18.5s24.167 27.166 27.5 44.499z" />
    <glyph glyph-name="uni0E26" unicode="&#xe26;" horiz-adv-x="840" 
d="M473 -307l173.998 893.001c6 28 5.33301 52.667 -2 74s-18.666 39 -33.999 53s-33.5 24.667 -54.5 32s-42.5 11 -64.5 11c-40 0 -77.667 -6.66699 -113 -20s-68 -34 -98 -62c16.667 -8.66699 36 -20.667 58 -36s40.667 -32.666 56 -51.999
c-76 -25.333 -121 -73.333 -135 -144l-45 -235c10 -23.333 12 -49.333 6 -78c-3.33301 -19.333 -10.333 -37.333 -21 -54s-23.5 -31.334 -38.5 -44.001s-31.833 -22.667 -50.5 -30s-37.334 -11 -56.001 -11s-35.667 3.66699 -51 11s-28.166 17.333 -38.499 30
s-17.666 27.334 -21.999 44.001s-4.5 34.667 -0.5 54c3.33301 18.667 10.333 36.5 21 53.5s23.5 31.833 38.5 44.5s31.667 22.667 50 30s37.166 11 56.499 11h14l35 176c7.33301 36.667 22 67.5 44 92.5s45.333 41.5 70 49.5c-8 7.33301 -18 14.666 -30 21.999
s-24.167 14.166 -36.5 20.499s-24 12 -35 17l-25.5 11.5c48.667 56.667 103.5 100.667 164.5 132s127.833 47 200.5 47c38.667 0 74.334 -5.33301 107.001 -16s60 -26.5 82 -47.5s37.667 -47.167 47 -78.5s10 -68 2 -110l-173 -891h-102zM144.998 129.001
c4.66699 17.333 1.66699 32.333 -9 45s-24.667 19 -42 19s-33.166 -6.33301 -47.499 -19s-23.833 -27.667 -28.5 -45c-3.33301 -17.333 0.166992 -32.166 10.5 -44.499s24.166 -18.5 41.499 -18.5s33.333 6.16699 48 18.5s23.667 27.166 27 44.499z" />
    <glyph glyph-name="uni0E27" unicode="&#xe27;" horiz-adv-x="702" 
d="M524 139c-4 -22 -11.166 -42.165 -21.499 -60.498s-23.166 -34 -38.499 -47s-32.833 -23.167 -52.5 -30.5s-40.834 -11 -63.501 -11c-19.333 0 -36.833 3.83301 -52.5 11.5s-28.5 17.834 -38.5 30.501s-17 27.5 -21 44.5s-4 35.167 0 54.5
c3.33301 18.667 10 36.167 20 52.5s22.333 30.666 37 42.999s31 22 49 29s36.333 10.5 55 10.5c7.33301 0 15.666 -0.5 24.999 -1.5s16.666 -3.16699 21.999 -6.5l66 328c4.66699 24.667 4.33398 47.334 -0.999023 68.001s-15 38.5 -29 53.5s-31.667 26.833 -53 35.5
s-45.666 13 -72.999 13c-25.333 0 -50.333 -3.5 -75 -10.5s-47.834 -17.5 -69.501 -31.5s-41.167 -31 -58.5 -51s-31.333 -43 -42 -69h-107c15.333 39.333 36.166 74.166 62.499 104.499s56 55.666 89 75.999s68.5 35.666 106.5 45.999s76.333 15.5 115 15.5
s74.167 -5.33301 106.5 -16s59.5 -26 81.5 -46s37.833 -44.333 47.5 -73s10.834 -61 3.50098 -97zM434.001 131.002c4 17.333 0.832031 32.333 -9.50098 45s-24.166 19 -41.499 19s-33.333 -6.33301 -48 -19s-24 -27.667 -28 -45c-3.33301 -17.333 0 -32.166 10 -44.499
s23.667 -18.5 41 -18.5s33.5 6.16699 48.5 18.5s24.167 27.166 27.5 44.499z" />
    <glyph glyph-name="uni0E28" unicode="&#xe28;" horiz-adv-x="856" 
d="M883 850c-22.667 -25.333 -49.9971 -46.0049 -81.9971 -62.0049s-63.333 -26.667 -94 -32c22.667 -25.333 37.667 -55.166 45 -89.499s7.33301 -71.5 0 -111.5l-109 -555h-102l104 535c6 27.333 7.66699 54.333 5 81s-10.834 50.334 -24.501 71.001
s-33.5 37.334 -59.5 50.001s-59.667 19 -101 19c-38 0 -72.667 -5.83301 -104 -17.5s-58.833 -27.167 -82.5 -46.5s-43.167 -41.666 -58.5 -66.999s-26 -51.333 -32 -78c-8 -40 -11.833 -80.333 -11.5 -121s-0.5 -83 -2.5 -127
c-0.666992 -5.33301 -2.33398 -14.5 -5.00098 -27.5s-5.66699 -26.5 -9 -40.5l-13 -53h5l15 55.5c6 21.667 13.667 44.167 23 67.5c8 22 16.833 44.167 26.5 66.5s19.334 43.5 29.001 63.5s19.167 38.333 28.5 55s17.666 30.667 24.999 42c20.667 32 43 55.833 67 71.5
s53 23.5 87 23.5c18.667 0 35.667 -3.66699 51 -11s28 -17.166 38 -29.499s17 -27 21 -44s4 -34.833 0 -53.5c-3.33301 -18.667 -10.166 -36.334 -20.499 -53.001s-23 -31.167 -38 -43.5s-31.667 -22.166 -50 -29.499s-36.833 -11 -55.5 -11
c-17.333 0 -33.333 3.16699 -48 9.5s-26.667 14.166 -36 23.499c-12.667 -23.333 -26.834 -52 -42.501 -86l-47 -105l-45 -105l-35.5 -85h-108l24 129c8 42.667 12.333 81.167 13 115.5s0.5 67.5 -0.5 99.5s-1.16699 64.167 -0.5 96.5s5 67.833 13 106.5
c7.33301 38 21.333 74.333 42 109s47.667 65.334 81 92.001s72.833 48 118.5 64s97.5 24 155.5 24c24 0 43.667 -1.33301 59 -4s28.666 -5.5 39.999 -8.5s21.166 -5.83301 29.499 -8.5s17.5 -4 27.5 -4c30 0 58.833 9.16699 86.5 27.5s50.834 42.5 69.501 72.5z
M489.003 484.995c3.33301 17.333 0.000976562 32.333 -9.99902 45s-23.667 19 -41 19s-33.5 -6.33301 -48.5 -19s-24.167 -27.667 -27.5 -45s0.166992 -32.166 10.5 -44.499s24.166 -18.5 41.499 -18.5s33.5 6.16699 48.5 18.5s23.833 27.166 26.5 44.499z" />
    <glyph glyph-name="uni0E29" unicode="&#xe29;" horiz-adv-x="870" 
d="M850 471c-40.667 -34.667 -83.6621 -63.3301 -128.995 -85.9971l-39 -192c-6.66699 -32.667 -15.334 -61 -26.001 -85s-24.834 -44 -42.501 -60s-39.5 -28 -65.5 -36s-57.667 -12 -95 -12h-463l14 78c22 0 39.833 0.5 53.5 1.5s24.667 4.5 33 10.5s15 15.333 20 28
s9.83301 30.667 14.5 54l76 389c-6.66699 -3.33301 -15 -5.5 -25 -6.5s-18.667 -1.5 -26 -1.5c-19.333 0 -36.5 3.5 -51.5 10.5s-27.333 16.667 -37 29s-16.334 26.666 -20.001 42.999s-3.83398 33.833 -0.500977 52.5s10.333 36.667 21 54s23.667 32.333 39 45
s32.333 22.834 51 30.501s37.667 11.5 57 11.5c46 0 79.333 -13.833 100 -41.5s27 -63.5 19 -107.5l-117 -598h201c29.333 0 53.833 1.66699 73.5 5s36 9.66602 49 18.999s23.167 22.5 30.5 39.5s13.666 39.5 18.999 67.5l22 119c-18.667 -8.66699 -42.5 -16.667 -71.5 -24
s-57.5 -10.333 -85.5 -9c-19.333 0.666992 -37.5 4.16699 -54.5 10.5s-31.167 15.166 -42.5 26.499s-19.5 25 -24.5 41s-5.5 34.333 -1.5 55c3.33301 17.333 9.83301 33.666 19.5 48.999s21.167 28.666 34.5 39.999s28.166 20.166 44.499 26.499s33.166 9.5 50.499 9.5
c16.667 0 32.167 -3.16699 46.5 -9.5s26 -15.166 35 -26.499s15.333 -24.666 19 -39.999s3.5 -31.666 -0.5 -48.999c-1.33301 -7.33301 -3.16602 -14.5 -5.49902 -21.5s-5.16602 -13.5 -8.49902 -19.5c9.33301 2 20.166 5.66699 32.499 11s22.833 10.666 31.5 15.999l77 401
h103l-34 -170c-4.66699 -21.333 -8.83398 -42.333 -12.501 -63s-7.16699 -39 -10.5 -55c-3.33301 -19.333 -7 -37.333 -11 -54c12.667 8.66699 24.834 17.5 36.501 26.5s22.834 18.5 33.501 28.5zM508.005 432.004c3.33301 16.667 0.5 30.334 -8.5 41.001
s-21.833 16 -38.5 16s-31.334 -5.33301 -44.001 -16s-20.667 -24.334 -24 -41.001s-0.333008 -30.334 9 -41.001s22 -16 38 -16c16.667 0 31.334 5.33301 44.001 16s20.667 24.334 24 41.001zM240.005 688.004c4 17.333 0.666016 32.333 -10.001 45s-24.667 19 -42 19
s-33.166 -6.33301 -47.499 -19s-23.5 -27.667 -27.5 -45c-3.33301 -17.333 0 -32.166 10 -44.499s23.667 -18.5 41 -18.5s33.5 6.16699 48.5 18.5s24.167 27.166 27.5 44.499z" />
    <glyph glyph-name="uni0E2A" unicode="&#xe2a;" horiz-adv-x="817" 
d="M862 850c-22.667 -25.333 -50.1689 -46.667 -82.502 -64s-63.5 -28 -93.5 -32c15.333 -19.333 26.166 -41.166 32.499 -65.499s6.5 -52.5 0.5 -84.5l-98 -514c-4 -20.667 -9.5 -37 -16.5 -49s-15.5 -21 -25.5 -27s-21.333 -9.83301 -34 -11.5s-27 -2.5 -43 -2.5h-35
l-82 449c-3.33301 16 -12.833 30.167 -28.5 42.5s-36.167 16.5 -61.5 12.5c-24.667 -4 -44.834 -14.167 -60.501 -30.5s-26.167 -36.833 -31.5 -61.5l-31 -154c7.33301 3.33301 15.833 5.5 25.5 6.5s18.167 1.5 25.5 1.5c19.333 0 36.5 -3.5 51.5 -10.5
s27.333 -16.667 37 -29s16.334 -26.666 20.001 -42.999s3.83398 -33.833 0.500977 -52.5c-4 -19.333 -11.167 -37.5 -21.5 -54.5s-23 -31.833 -38 -44.5s-31.667 -22.834 -50 -30.501s-37.166 -11.5 -56.499 -11.5c-46 0 -79.333 13.833 -100 41.5s-27 63.5 -19 107.5
l55 283c4.66699 23.333 12.834 44 24.501 62s25.167 33.667 40.5 47s32 24.166 50 32.499s35.667 14.5 53 18.5c26 4.66699 50.667 6.66699 74 6s44.333 -4.5 63 -11.5s34.167 -17.167 46.5 -30.5s20.166 -30 23.499 -50l45 -248c2 -10.667 3.5 -23 4.5 -37
s2.16699 -27.667 3.5 -41l2 -47h5c0.666992 9.33301 1.16699 18.833 1.5 28.5s1.16602 19.167 2.49902 28.5c1.33301 16 3 32.5 5 49.5s4.33301 31.833 7 44.5l61 312c4.66699 24.667 3.83398 47.334 -2.49902 68.001s-17 38.5 -32 53.5s-33.667 26.833 -56 35.5
s-47.166 13 -74.499 13s-53.833 -3 -79.5 -9s-49.5 -15 -71.5 -27s-41.667 -26.833 -59 -44.5s-31.333 -38.167 -42 -61.5h-107c17.333 38 39.333 71 66 99s56.5 51 89.5 69s68.5 31.5 106.5 40.5s77 13.5 117 13.5c19.333 0 36.666 -1.33301 51.999 -4
s29 -5.83398 41 -9.50098l31.5 -9.5c9 -2.66699 17.167 -4 24.5 -4c32 0 61.333 9.5 88 28.5s49.334 43.5 68.001 73.5zM259.998 130.999c4 17.333 0.832031 32.333 -9.50098 45s-24.166 19 -41.499 19s-33.333 -6.33301 -48 -19s-24 -27.667 -28 -45
c-3.33301 -17.333 0 -32.166 10 -44.499s23.667 -18.5 41 -18.5s33.5 6.16699 48.5 18.5s24.167 27.166 27.5 44.499z" />
    <glyph glyph-name="uni0E2B" unicode="&#xe2b;" horiz-adv-x="856" 
d="M811 696c-5.33301 -26.667 -16.3271 -49.9971 -32.9941 -69.9971s-36.334 -36 -59.001 -48c4.66699 -5.33301 9 -11.333 13 -18s7.16699 -14.667 9.5 -24s3.66602 -20.333 3.99902 -33s-1.16699 -27.334 -4.5 -44.001l-90 -459h-102l90 459
c3.33301 15.333 4.33301 29.166 3 41.499s-7 21.5 -17 27.5c-27.333 -15.333 -55.333 -35.166 -84 -59.499s-57 -51.333 -85 -81s-55.167 -61.334 -81.5 -95.001s-50.666 -67.5 -72.999 -101.5s-42.333 -67.333 -60 -100s-31.834 -63 -42.501 -91h-107l109 561
c-6.66699 -3.33301 -15 -5.5 -25 -6.5s-18.667 -1.5 -26 -1.5c-19.333 0 -36.5 3.5 -51.5 10.5s-27.333 16.667 -37 29s-16.334 26.666 -20.001 42.999s-3.83398 33.833 -0.500977 52.5s10.333 36.667 21 54s23.667 32.333 39 45s32.333 22.834 51 30.501
s37.667 11.5 57 11.5c46 0 79.333 -13.833 100 -41.5s27 -63.5 19 -107.5l-78 -395c-1.33301 -8.66699 -3.33301 -17.5 -6 -26.5s-5.33398 -17.167 -8.00098 -24.5l-9 -27h2c3.33301 7.33301 7 14.5 11 21.5s7.66699 13.833 11 20.5c6 11.333 12.5 22.833 19.5 34.5
s13.167 20.834 18.5 27.501c15.333 21.333 33 44.5 53 69.5s41.667 49.667 65 74s48.5 47.666 75.5 69.999s55.167 41.5 84.5 57.5c-15.333 10 -27 25.167 -35 45.5s-9.33301 43.166 -4 68.499c4 19.333 11.167 37.5 21.5 54.5s23 31.833 38 44.5s31.667 22.667 50 30
s37.166 11 56.499 11c21.333 0 40 -3.66699 56 -11s29 -17.333 39 -30s17 -27.5 21 -44.5s4.33301 -35.167 1 -54.5zM733.006 694.003c3.33301 17.333 0 32.333 -10 45s-23.667 19 -41 19s-33.5 -6.33301 -48.5 -19s-24.167 -27.667 -27.5 -45s0 -32.166 10 -44.499
s23.667 -18.5 41 -18.5s33.5 6.16699 48.5 18.5s24.167 27.166 27.5 44.499zM240.006 688.003c4 17.333 0.666016 32.333 -10.001 45s-24.667 19 -42 19s-33.166 -6.33301 -47.499 -19s-23.5 -27.667 -27.5 -45c-3.33301 -17.333 0 -32.166 10 -44.499
s23.667 -18.5 41 -18.5s33.5 6.16699 48.5 18.5s24.167 27.166 27.5 44.499z" />
    <glyph glyph-name="uni0E2C" unicode="&#xe2c;" horiz-adv-x="946" 
d="M977 901c-13.333 -18.667 -27.8301 -36.168 -43.4971 -52.501s-33.167 -32.166 -52.5 -47.499c2 -15.333 3 -31.333 3 -48s-1.66699 -33.667 -5 -51l-119 -612c-4 -20.667 -9.5 -37 -16.5 -49s-15.5 -21 -25.5 -27s-21.333 -9.83301 -34 -11.5s-27 -2.5 -43 -2.5h-35
l-92 465c-0.666992 3.33301 -1 7.33301 -1 12v13c0 6 0.333008 10.667 1 14h-4c-0.666992 -2.66699 -1.33398 -5 -2.00098 -7s-1.66699 -4.33301 -3 -7c-1.33301 -4 -3 -8.33301 -5 -13s-4 -8.66699 -6 -12l-269 -465h-32c-16 -0 -30 0.833008 -42 2.5s-21.667 5.5 -29 11.5
s-12 15 -14 27s-1 28.333 3 49l90 471c-6.66699 -3.33301 -15 -5.5 -25 -6.5s-18.667 -1.5 -26 -1.5c-19.333 0 -36.5 3.5 -51.5 10.5s-27.333 16.667 -37 29s-16.334 26.666 -20.001 42.999s-3.83398 33.833 -0.500977 52.5s10.333 36.667 21 54s23.667 32.333 39 45
s32.333 22.834 51 30.501s37.667 11.5 57 11.5c46 0 79.333 -13.833 100 -41.5s27 -63.5 19 -107.5l-101 -516l265 461h86l94 -461l96 504c2 10 3.5 20.5 4.5 31.5s1.5 21.5 1.5 31.5c-28 -14.667 -56.167 -25.5 -84.5 -32.5s-54.833 -11.167 -79.5 -12.5
c-27.333 -1.33301 -52.5 1 -75.5 7s-42.5 15 -58.5 27s-27.667 26.5 -35 43.5s-9 35.5 -5 55.5c4 18.667 12.333 36.334 25 53.001s28.834 31.167 48.501 43.5s42.167 22.166 67.5 29.499s52.666 11 81.999 11c48 0 87.667 -7.5 119 -22.5s55.333 -33.833 72 -56.5
c20.667 20.667 39 43 55 67zM762.003 806.999c-9.33301 20.667 -23.834 37.834 -43.501 51.501s-48.167 20.5 -85.5 20.5c-30 0 -54.167 -5.83301 -72.5 -17.5s-29.833 -25.167 -34.5 -40.5c-2.66699 -10 -1.5 -18.333 3.5 -25s12.167 -12.334 21.5 -17.001
s19.833 -8 31.5 -10s22.834 -3 33.501 -3c30 0 56.167 3.66699 78.5 11s44.833 17.333 67.5 30zM240.002 687.999c4 17.333 0.666016 32.333 -10.001 45s-24.667 19 -42 19s-33.166 -6.33301 -47.499 -19s-23.5 -27.667 -27.5 -45c-3.33301 -17.333 0 -32.166 10 -44.499
s23.667 -18.5 41 -18.5s33.5 6.16699 48.5 18.5s24.167 27.166 27.5 44.499z" />
    <glyph glyph-name="uni0E2D" unicode="&#xe2d;" horiz-adv-x="795" 
d="M627 193c-6 -32.667 -14.3418 -61 -25.0088 -85s-25 -44 -43 -60s-40.167 -28 -66.5 -36s-58.166 -12 -95.499 -12h-377l84 434c4 22 11.167 42.167 21.5 60.5s23.333 34.166 39 47.499s33.334 23.666 53.001 30.999s40.834 11 63.501 11
c18.667 0 35.834 -3.83301 51.501 -11.5s28.667 -18 39 -31s17.5 -28.167 21.5 -45.5s4 -35.333 0 -54c-3.33301 -18 -10.166 -35.167 -20.499 -51.5s-22.833 -30.666 -37.5 -42.999s-31 -22.166 -49 -29.499s-36.333 -11 -55 -11c-7.33301 0 -15.666 0.5 -24.999 1.5
s-16.666 3.16699 -21.999 6.5l-45 -233h217c29.333 0 53.833 1.66699 73.5 5s36 9.66602 49 18.999s23.167 22.5 30.5 39.5s13.666 39.5 18.999 67.5l74 373c4.66699 24.667 3.83398 47.334 -2.49902 68.001s-17.166 38.5 -32.499 53.5s-34.166 26.833 -56.499 35.5
s-47.166 13 -74.499 13c-54 0 -103 -12.167 -147 -36.5s-79 -59.5 -105 -105.5h-106c18 34.667 40 65.667 66 93s55.167 50.5 87.5 69.5s67.5 33.667 105.5 44s78 15.5 120 15.5c39.333 0 75.833 -5.33301 109.5 -16s62 -26 85 -46s39.667 -44.333 50 -73
s12.166 -61 5.49902 -97zM321.991 442c3.33301 17.333 -0.167969 32.333 -10.501 45s-24.166 19 -41.499 19s-33.333 -6.33301 -48 -19s-23.667 -27.667 -27 -45s0 -32.166 10 -44.499s23.667 -18.5 41 -18.5s33.5 6.16699 48.5 18.5s24.167 27.166 27.5 44.499z" />
    <glyph glyph-name="uni0E2E" unicode="&#xe2e;" horiz-adv-x="791" 
d="M799 786c-15.333 -19.333 -30.8389 -36.666 -46.5059 -51.999s-33.167 -31.333 -52.5 -48c8.66699 -22 9.33398 -49.333 2.00098 -82l-79 -411c-6 -32.667 -14.333 -61 -25 -85s-25 -44 -43 -60s-40.167 -28 -66.5 -36s-58.166 -12 -95.499 -12h-377l72 373
c4 22 11.333 42.167 22 60.5s23.834 34 39.501 47s33.334 23.167 53.001 30.5s40.834 11 63.501 11c19.333 0 36.666 -3.83301 51.999 -11.5s28 -17.834 38 -30.501s16.833 -27.667 20.5 -45s3.83398 -35.333 0.500977 -54c-4 -18.667 -11 -36.167 -21 -52.5
s-22.333 -30.666 -37 -42.999s-30.834 -22 -48.501 -29s-36.167 -10.5 -55.5 -10.5c-7.33301 0 -15.5 0.5 -24.5 1.5s-16.5 3.16699 -22.5 6.5l-33 -172h217c29.333 0 53.833 1.66699 73.5 5s36 9.66602 49 18.999s23.167 22.5 30.5 39.5s13.666 39.5 18.999 67.5l74 373
c2 8 2.83301 15 2.5 21s-0.5 10.667 -0.5 14c-36 -18.667 -72 -33.334 -108 -44.001s-73 -18 -111 -22c-30 -3.33301 -60.833 -3.5 -92.5 -0.5s-60.167 9.16699 -85.5 18.5s-45.166 22.333 -59.499 39s-19.166 37.334 -14.499 62.001c4.66699 24 15.667 46 33 66
s39.166 37 65.499 51s56.5 25 90.5 33s70 12 108 12c52 0 97.833 -6.83301 137.5 -20.5s70.834 -32.167 93.501 -55.5c14.667 13.333 28.334 27.5 41.001 42.5s23.667 30.833 33 47.5zM572.994 696c-14 17.333 -36.667 31.667 -68 43s-66 17 -104 17
c-19.333 0 -38.5 -2 -57.5 -6s-36.333 -9.33301 -52 -16s-28.834 -14.667 -39.501 -24s-17 -19.333 -19 -30c-2 -9.33301 -0.166992 -17 5.5 -23s13.834 -11 24.501 -15s23.167 -6.83301 37.5 -8.5s29.5 -2.5 45.5 -2.5c44 0 85.667 6 125 18s73.333 27.667 102 47z
M304.994 381.001c3.33301 17.333 0 32.166 -10 44.499s-23.667 18.5 -41 18.5s-33.5 -6.16699 -48.5 -18.5s-24.167 -27.166 -27.5 -44.499s0 -32.333 10 -45s23.667 -19 41 -19s33.5 6.33301 48.5 19s24.167 27.667 27.5 45z" />
    <glyph glyph-name="uni0E2F" unicode="&#xe2f;" horiz-adv-x="688" 
d="M381 0l123.001 637.001c-19.333 -19.333 -41 -36.333 -65 -51s-48.5 -26.834 -73.5 -36.501s-49.833 -17 -74.5 -22s-47.334 -7.5 -68.001 -7.5c-28 0 -54.167 4.16699 -78.5 12.5s-45 20 -62 35s-29.167 33.167 -36.5 54.5s-8.33301 44.666 -3 69.999
c3.33301 18.667 10.166 36.334 20.499 53.001s23 31.334 38 44.001s31.5 22.5 49.5 29.5s36.667 10.5 56 10.5c18.667 0 35.667 -3.66699 51 -11s28 -17.166 38 -29.499s17 -26.833 21 -43.5s4 -34.334 0 -53.001c-3.33301 -15.333 -8.83301 -30.5 -16.5 -45.5
s-17.167 -27.833 -28.5 -38.5c18.667 0 41.334 5 68.001 15s53 24.167 79 42.5s50 40.5 72 66.5s38 55 48 87h45c21.333 0 35.5 -4.83301 42.5 -14.5s8.5 -23.834 4.5 -42.501l-148 -762h-102zM246.001 692.001c3.33301 17.333 0.000976562 32.333 -9.99902 45
s-23.667 19 -41 19s-33.5 -6.33301 -48.5 -19s-24.167 -27.667 -27.5 -45c-4 -17.333 -0.833008 -32.166 9.5 -44.499s24.166 -18.5 41.499 -18.5s33.333 6.16699 48 18.5s24 27.166 28 44.499z" />
    <glyph glyph-name="uni0E30" unicode="&#xe30;" horiz-adv-x="696" 
d="M700 813c-8 -48 -24.1699 -90.499 -48.5029 -127.499s-53.333 -68.333 -87 -94s-70.167 -45 -109.5 -58s-78.333 -19.5 -117 -19.5c-42 0 -78.833 4.33301 -110.5 13s-57.5 20.667 -77.5 36s-34.167 33.666 -42.5 54.999s-10.166 44.666 -5.49902 69.999
c4 18.667 11 36 21 52s21.833 29.833 35.5 41.5s28.834 20.834 45.501 27.501s34 10 52 10c16.667 0 31.834 -3.16699 45.501 -9.5s25 -15.166 34 -26.499s15.167 -24.5 18.5 -39.5s3.33301 -30.833 0 -47.5c-3.33301 -18.667 -10.5 -35.834 -21.5 -51.501
s-24.167 -29.167 -39.5 -40.5c12 -4 30.333 -6 55 -6c28.667 0 56.5 4.83301 83.5 14.5s51.833 23.667 74.5 42s42 40.833 58 67.5s27.333 57 34 91h102zM599.997 299.001c-8 -48 -24.168 -90.668 -48.501 -128.001s-53.5 -68.666 -87.5 -93.999s-70.667 -44.5 -110 -57.5
s-78 -19.5 -116 -19.5c-42 0 -78.833 4.33301 -110.5 13s-57.5 20.667 -77.5 36s-34 33.666 -42 54.999s-9.33301 44.666 -4 69.999c3.33301 18.667 9.83301 36 19.5 52s21.5 29.833 35.5 41.5s29.333 20.834 46 27.501s33.667 10 51 10c16.667 0 31.667 -3.16699 45 -9.5
s24.333 -15.166 33 -26.499s14.834 -24.5 18.501 -39.5s4.16699 -30.833 1.5 -47.5c-8 -37.333 -27.667 -68 -59 -92c10.667 -4 28.334 -6 53.001 -6c28.667 0 56.5 4.83301 83.5 14.5s51.667 23.667 74 42s41.666 40.833 57.999 67.5s27.833 57 34.5 91h102zM284.996 696
c3.33301 15.333 0.833008 28.166 -7.5 38.499s-20.166 15.5 -35.499 15.5s-29 -5.16699 -41 -15.5s-19.667 -23.166 -23 -38.499s-0.833008 -28 7.5 -38s20.166 -15 35.499 -15s29 5 41 15s19.667 22.667 23 38zM183.996 182c3.33301 15.333 0.833008 28.166 -7.5 38.499
s-20.166 15.5 -35.499 15.5s-28.833 -5.16699 -40.5 -15.5s-19.167 -23.166 -22.5 -38.499s-0.833008 -28 7.5 -38s20.166 -15 35.499 -15s28.833 5 40.5 15s19.167 22.667 22.5 38z" />
    <glyph glyph-name="uni0E31" unicode="&#xe31;" 
d="M262 1192c-14 -41.333 -34.665 -78.667 -61.998 -112s-58.833 -61.666 -94.5 -84.999s-74.334 -41.333 -116.001 -54s-83.834 -19 -126.501 -19c-34.667 0 -66.334 4.33301 -95.001 13s-52.834 20.667 -72.501 36s-34 33.666 -43 54.999s-11.167 44.666 -6.5 69.999
c2.66699 18 8.83398 35 18.501 51s21.5 30 35.5 42s29.333 21.333 46 28s33.667 10 51 10s32.833 -3.33301 46.5 -10s25 -15.5 34 -26.5s15.333 -24 19 -39s4.16699 -30.833 1.5 -47.5c-4.66699 -18.667 -13 -36.5 -25 -53.5s-25.667 -30.5 -41 -40.5
c26.667 -6.66699 56.667 -8.16699 90 -4.5s65.833 12.834 97.5 27.501s60.334 35.167 86.001 61.5s44.5 58.833 56.5 97.5h100zM-171.998 1104c3.33301 15.333 0.833008 28 -7.5 38s-20.166 15 -35.499 15s-29 -5 -41 -15s-19.667 -22.667 -23 -38s-0.833008 -28 7.5 -38
s20.166 -15 35.499 -15s29 5 41 15s19.667 22.667 23 38z" />
    <glyph glyph-name="uni0E32" unicode="&#xe32;" horiz-adv-x="641" 
d="M334 0l114.999 586.001c10 50 3.33301 90.833 -20 122.5s-61.333 47.5 -114 47.5c-22.667 0 -44.667 -3.16699 -66 -9.5s-41.166 -15.5 -59.499 -27.5s-34.5 -26.833 -48.5 -44.5s-24.667 -37.834 -32 -60.501h-103c10.667 32 26.667 61.667 48 89s46.5 50.833 75.5 70.5
s60.667 35 95 46s70.166 16.5 107.499 16.5c38.667 0 73.167 -5.5 103.5 -16.5s55.333 -26.5 75 -46.5s33.334 -44.333 41.001 -73s8.16699 -60.667 1.5 -96l-117 -604h-102z" />
    <glyph glyph-name="uni0E33" unicode="&#xe33;" horiz-adv-x="641" 
d="M113 1098c-4 -21.333 -12 -41.5 -24 -60.5s-26.5 -35.5 -43.5 -49.5s-35.833 -25.167 -56.5 -33.5s-41.667 -12.5 -63 -12.5s-40.666 4.16699 -57.999 12.5s-31.666 19.5 -42.999 33.5s-19.166 30.5 -23.499 49.5s-4.5 39.167 -0.5 60.5s12 41.5 24 60.5
s26.5 35.5 43.5 49.5s35.833 25 56.5 33s41.667 12 63 12s40.666 -4 57.999 -12s31.666 -19 42.999 -33s19.166 -30.5 23.499 -49.5s4.5 -39.167 0.5 -60.5zM334 0l114.999 586.001c10 50 3.33301 90.833 -20 122.5s-61.333 47.5 -114 47.5
c-22.667 0 -44.667 -3.16699 -66 -9.5s-41.166 -15.5 -59.499 -27.5s-34.5 -26.833 -48.5 -44.5s-24.667 -37.834 -32 -60.501h-103c10.667 32 26.667 61.667 48 89s46.5 50.833 75.5 70.5s60.667 35 95 46s70.166 16.5 107.499 16.5c38.667 0 73.167 -5.5 103.5 -16.5
s55.333 -26.5 75 -46.5s33.334 -44.333 41.001 -73s8.16699 -60.667 1.5 -96l-117 -604h-102zM32.999 1098c4 21.333 0.331055 39.666 -11.002 54.999s-27.666 23 -48.999 23s-41 -7.66699 -59 -23s-29 -33.666 -33 -54.999c-4 -20.667 0.166992 -38.5 12.5 -53.5
s28.833 -22.5 49.5 -22.5s39.834 7.5 57.501 22.5s28.5 32.833 32.5 53.5z" />
    <glyph glyph-name="uni0E34" unicode="&#xe34;" 
d="M-29 901c-33.333 17.333 -73.167 30.5 -119.5 39.5s-95.333 14.833 -147 17.5s-104.334 2.83398 -158.001 0.500977s-104.5 -5.83301 -152.5 -10.5c6.66699 37.333 19.834 71.666 39.501 102.999s43.667 58.333 72 81s60.166 40.334 95.499 53.001s72 19 110 19
c52.667 0 97 -8 133 -24s64.333 -37.833 85 -65.5s34.334 -59.834 41.001 -96.501s7 -75.667 1 -117zM-113.001 1006c-3.33301 16 -9.66699 30.999 -19 44.999s-21.666 26.5 -36.999 37.5s-34 19.667 -56 26s-47.333 9.5 -76 9.5c-42 0 -79.333 -8.83301 -112 -26.5
s-56.667 -41.5 -72 -71.5c26 6 56.167 10 90.5 12s68.666 2.16699 102.999 0.5s67.333 -5.16699 99 -10.5s58.167 -12.666 79.5 -21.999z" />
    <glyph glyph-name="uni0E35" unicode="&#xe35;" 
d="M-29 901c-33.333 17.333 -73.165 30.499 -119.498 39.499s-95.333 14.833 -147 17.5s-104.334 2.83398 -158.001 0.500977s-104.5 -5.83301 -152.5 -10.5c6.66699 37.333 19.834 71.666 39.501 102.999s43.667 58.333 72 81s60.166 40.334 95.499 53.001s72 19 110 19
c46 0 85.667 -6.83301 119 -20.5s60.666 -32.167 81.999 -55.5l25 129h102zM-112.999 1006c-3.33301 16 -9.66699 30.999 -19 44.999s-21.666 26.5 -36.999 37.5s-34 19.667 -56 26s-47.333 9.5 -76 9.5c-42 0 -79.333 -8.83301 -112 -26.5s-56.667 -41.5 -72 -71.5
c26 6 56.167 10 90.5 12s68.666 2.16699 102.999 0.5s67.333 -5.16699 99 -10.5s58.167 -12.666 79.5 -21.999z" />
    <glyph glyph-name="uni0E36" unicode="&#xe36;" 
d="M90 1143c-6.66699 -30 -21.335 -56.334 -44.002 -79.001s-48.334 -36.667 -77.001 -42c3.33301 -18.667 5.33301 -38.167 6 -58.5s-0.666016 -41.166 -3.99902 -62.499c-33.333 17.333 -73.166 30.333 -119.499 39s-95.333 14.167 -147 16.5s-104.334 2.5 -158.001 0.5
s-104.5 -5 -152.5 -9c6.66699 37.333 19.834 71.666 39.501 102.999s43.667 58.333 72 81s60.166 40.334 95.499 53.001s72 19 110 19c60 0 108.667 -10 146 -30c4.66699 14 11.834 26.667 21.501 38s20.667 21 33 29s25.5 14.167 39.5 18.5s27.667 6.5 41 6.5
c16.667 0 31.667 -3.33301 45 -10s24.333 -15.5 33 -26.5s14.834 -24 18.501 -39s4.16699 -30.833 1.5 -47.5zM19.999 1143c3.33301 15.333 1.33301 28 -6 38s-18.666 15 -33.999 15s-29.333 -5 -42 -15s-20.667 -22.667 -24 -38c-2 -15.333 0.833008 -28 8.5 -38
s19.167 -15 34.5 -15s29.166 5 41.499 15s19.5 22.667 21.5 38zM-113.001 1006c-3.33301 16 -9.66699 30.999 -19 44.999s-21.666 26.5 -36.999 37.5s-34 19.667 -56 26s-47.333 9.5 -76 9.5c-42 0 -79.333 -8.83301 -112 -26.5s-56.667 -41.5 -72 -71.5
c26 6 56.167 10 90.5 12s68.666 2.16699 102.999 0.5s67.333 -5.16699 99 -10.5s58.167 -12.666 79.5 -21.999z" />
    <glyph glyph-name="uni0E37" unicode="&#xe37;" 
d="M-29 901c-33.333 17.333 -73.166 30.499 -119.499 39.499s-95.333 14.833 -147 17.5s-104.334 2.83398 -158.001 0.500977s-104.5 -5.83301 -152.5 -10.5c6.66699 37.333 19.834 71.666 39.501 102.999s43.667 58.333 72 81s60.166 40.334 95.499 53.001s72 19 110 19
c14.667 0 29 -0.5 43 -1.5s27 -3.16699 39 -6.5l10 61h72l-16 -83l28.5 -19.5c9 -6.33301 17.167 -13.5 24.5 -21.5l25 124h102zM-113 1006c-3.33301 16 -9.66699 30.999 -19 44.999s-21.666 26.5 -36.999 37.5s-34 19.667 -56 26s-47.333 9.5 -76 9.5
c-42 0 -79.333 -8.83301 -112 -26.5s-56.667 -41.5 -72 -71.5c26 6 56.167 10 90.5 12s68.666 2.16699 102.999 0.5s67.333 -5.16699 99 -10.5s58.167 -12.666 79.5 -21.999z" />
    <glyph glyph-name="uni0E38" unicode="&#xe38;" 
d="M-403 -492l30 157.996c-12 -4 -25.667 -6 -41 -6c-18 0 -34.167 3.33301 -48.5 10s-26.166 15.834 -35.499 27.501s-15.833 25.334 -19.5 41.001s-3.83398 32.5 -0.500977 50.5s9.83301 34.833 19.5 50.5s21.5 29.334 35.5 41.001s29.333 20.834 46 27.501s34 10 52 10
c20.667 0 39 -3.5 55 -10.5s29.333 -16.667 40 -29s18 -26.833 22 -43.5s4 -34.667 0 -54l-53 -273h-102zM-330 -211.004c3.33301 16.667 0.5 30.667 -8.5 42s-21.833 17 -38.5 17s-32 -5.66699 -46 -17s-22.667 -25.333 -26 -42s-0.333008 -30.667 9 -42s22.333 -17 39 -17
c16 0 31 5.66699 45 17s22.667 25.333 26 42z" />
    <glyph glyph-name="uni0E39" unicode="&#xe39;" 
d="M-272 -350c-4.66699 -24 -11.6719 -43.8379 -21.0049 -59.5049s-21.166 -28 -35.499 -37s-31 -15.333 -50 -19s-40.833 -5.5 -65.5 -5.5h-181l27 137c-12 -4 -25.667 -6 -41 -6c-18 0 -34.167 3.33301 -48.5 10s-26.333 15.834 -36 27.501s-16.334 25.334 -20.001 41.001
s-3.5 32.5 0.5 50.5c3.33301 18 9.83301 34.833 19.5 50.5s21.334 29.334 35.001 41.001s29 20.834 46 27.501s34.5 10 52.5 10c20.667 0 39 -3.5 55 -10.5s29.333 -16.667 40 -29s18 -26.833 22 -43.5s4 -34.667 0 -54l-35 -176h49c14.667 0 26.834 0.5 36.501 1.5
s17.834 3.33301 24.501 7s11.834 9.33398 15.501 17.001s6.83398 18.167 9.50098 31.5l49 250h103zM-555.005 -211.005c3.33301 16.667 0.5 30.667 -8.5 42s-21.833 17 -38.5 17s-32 -5.66699 -46 -17s-22.667 -25.333 -26 -42s-0.333008 -30.667 9 -42s22 -17 38 -17
c16.667 0 32 5.66699 46 17s22.667 25.333 26 42z" />
    <glyph glyph-name="uni0E3A" unicode="&#xe3a;" 
d="M-207 -164c-4 -22.667 -15.333 -42 -34 -58s-39.334 -24 -62.001 -24s-40.667 8 -54 24s-18 35.333 -14 58c5.33301 22.667 17.5 42 36.5 58s39.833 24 62.5 24s40.334 -8 53.001 -24s16.667 -35.333 12 -58z" />
    <glyph glyph-name="uni0E3F" unicode="&#xe3f;" horiz-adv-x="907" 
d="M858 729c-10 -52 -31.334 -96.4971 -64.001 -133.497s-72 -64.833 -118 -83.5l-2 -2c56.667 -12 96 -39.167 118 -81.5s27.667 -93.166 17 -152.499c-7.33301 -35.333 -20.333 -69.5 -39 -102.5s-42.5 -62.333 -71.5 -88s-63 -46.334 -102 -62.001
s-82.167 -23.5 -129.5 -23.5h-74l-26 -133h-72l27 133h-312l189 965h311l25 133h71l-24 -133c18.667 0 37.834 -0.5 57.501 -1.5s38.5 -2.83301 56.5 -5.5s34.667 -6.33398 50 -11.001s28 -10.334 38 -17.001c28 -18.667 49.667 -44.834 65 -78.501s18.333 -74.5 9 -122.5z
M726.999 705.003c6 32.667 5.66797 59 -0.999023 79s-17.834 35.333 -33.501 46s-35.167 17.667 -58.5 21s-48.333 5 -75 5l-59 -305c70.667 0 123.667 12.667 159 38s58 64 68 116zM244 551.003h184l59 305h-184zM686 281.003c6 32 5.33203 58.333 -2.00098 79
s-19.5 37 -36.5 49s-37.5 20.5 -61.5 25.5s-49.333 7.5 -76 7.5h-31l-65 -333h59c26.667 0 51.834 4 75.501 12s44.667 19.5 63 34.5s34 33.167 47 54.5s22.167 45 27.5 71zM157.999 109.003h184l66 333h-185z" />
    <glyph glyph-name="uni0E40" unicode="&#xe40;" horiz-adv-x="481" 
d="M373 131c-4 -19.333 -11.1699 -37.5 -21.5029 -54.5s-23 -31.833 -38 -44.5s-31.667 -22.834 -50 -30.501s-37.166 -11.5 -56.499 -11.5c-46 0 -79.333 13.833 -100 41.5s-27 63.5 -19 107.5l133 680h103l-111 -561c7.33301 3.33301 15.833 5.5 25.5 6.5
s18.167 1.5 25.5 1.5c19.333 0 36.5 -3.5 51.5 -10.5s27.333 -16.667 37 -29s16.334 -26.666 20.001 -42.999s3.83398 -33.833 0.500977 -52.5zM300.997 131c4 17.333 0.832031 32.333 -9.50098 45s-24.166 19 -41.499 19s-33.333 -6.33301 -48 -19s-24 -27.667 -28 -45
c-3.33301 -17.333 0 -32.166 10 -44.499s23.667 -18.5 41 -18.5s33.5 6.16699 48.5 18.5s24.167 27.166 27.5 44.499z" />
    <glyph glyph-name="uni0E41" unicode="&#xe41;" horiz-adv-x="870" 
d="M762 131c-3.33301 -19.333 -10.334 -37.501 -21.001 -54.501s-23.5 -32 -38.5 -45s-31.833 -23.167 -50.5 -30.5s-37.334 -11 -56.001 -11c-46 0 -79.333 13.833 -100 41.5s-27 63.5 -19 107.5l133 680h103l-111 -561c7.33301 3.33301 15.833 5.5 25.5 6.5
s18.167 1.5 25.5 1.5c19.333 0 36.5 -3.5 51.5 -10.5s27.333 -16.667 37 -29s16.334 -26.666 20.001 -42.999s3.83398 -33.833 0.500977 -52.5zM372.999 130.999c-4 -19.333 -11.1699 -37.5 -21.5029 -54.5s-23 -31.833 -38 -44.5s-31.667 -22.834 -50 -30.501
s-37.166 -11.5 -56.499 -11.5c-46 0 -79.333 13.833 -100 41.5s-27 63.5 -19 107.5l133 680h103l-111 -561c7.33301 3.33301 15.833 5.5 25.5 6.5s18.167 1.5 25.5 1.5c19.333 0 36.5 -3.5 51.5 -10.5s27.333 -16.667 37 -29s16.334 -26.666 20.001 -42.999
s3.83398 -33.833 0.500977 -52.5zM689.996 130.999c4 17.333 0.832031 32.333 -9.50098 45s-24.166 19 -41.499 19s-33.333 -6.33301 -48 -19s-24 -27.667 -28 -45c-3.33301 -17.333 0 -32.166 10 -44.499s23.667 -18.5 41 -18.5s33.5 6.16699 48.5 18.5
s24.167 27.166 27.5 44.499zM300.995 130.999c4 17.333 0.832031 32.333 -9.50098 45s-24.166 19 -41.499 19s-33.333 -6.33301 -48 -19s-24 -27.667 -28 -45c-3.33301 -17.333 0 -32.166 10 -44.499s23.667 -18.5 41 -18.5s33.5 6.16699 48.5 18.5
s24.167 27.166 27.5 44.499z" />
    <glyph glyph-name="uni0E42" unicode="&#xe42;" horiz-adv-x="522" 
d="M723 1364c-17.333 -16.667 -38.666 -31.834 -63.999 -45.501s-54 -20.5 -86 -20.5c-18.667 0 -36 2.83301 -52 8.5s-32 11.834 -48 18.501s-32.5 12.834 -49.5 18.501s-35.833 8.5 -56.5 8.5c-28 0 -53.833 -6.83301 -77.5 -20.5s-40.834 -28.167 -51.501 -43.5
c36 -3.33301 66.833 -8.83301 92.5 -16.5s46.167 -19 61.5 -34s25.166 -34.167 29.499 -57.5s3.16602 -52 -3.50098 -86l-164 -836c7.33301 3.33301 15.833 5.5 25.5 6.5s18.167 1.5 25.5 1.5c19.333 0 36.5 -3.5 51.5 -10.5s27.333 -16.667 37 -29
s16.334 -26.666 20.001 -42.999s3.83398 -33.833 0.500977 -52.5c-4 -19.333 -11.167 -37.5 -21.5 -54.5s-23 -31.833 -38 -44.5s-31.667 -22.834 -50 -30.501s-37.166 -11.5 -56.499 -11.5c-46 0 -79.333 13.833 -100 41.5s-27 63.5 -19 107.5l184 948
c6 32 3.5 56.5 -7.5 73.5s-27.5 29.667 -49.5 38s-47.833 13.333 -77.5 15s-60.5 2.83398 -92.5 3.50098c12 28 28 55.167 48 81.5s43.167 49.666 69.5 69.999s55.166 36.5 86.499 48.5s64.333 17.667 99 17c20.667 -0.666992 39.167 -3.5 55.5 -8.5
s31.833 -10.5 46.5 -16.5s28.834 -11.333 42.501 -16s28.5 -7 44.5 -7s31.167 4.16699 45.5 12.5s27.166 17.166 38.499 26.499zM342 131c4 17.333 0.832031 32.333 -9.50098 45s-24.166 19 -41.499 19s-33.333 -6.33301 -48 -19s-24 -27.667 -28 -45
c-3.33301 -17.333 0 -32.166 10 -44.499s23.667 -18.5 41 -18.5s33.5 6.16699 48.5 18.5s24.167 27.166 27.5 44.499z" />
    <glyph glyph-name="uni0E43" unicode="&#xe43;" horiz-adv-x="522" 
d="M532 1231c-6.66699 -34 -16.835 -62.8311 -30.502 -86.498s-28 -46 -43 -67s-29.167 -42.333 -42.5 -64s-23 -47.5 -29 -77.5l-133 -678c7.33301 3.33301 15.833 5.5 25.5 6.5s18.167 1.5 25.5 1.5c19.333 0 36.5 -3.5 51.5 -10.5s27.333 -16.667 37 -29
s16.334 -26.666 20.001 -42.999s3.83398 -33.833 0.500977 -52.5c-4 -19.333 -11.167 -37.5 -21.5 -54.5s-23 -31.833 -38 -44.5s-31.667 -22.834 -50 -30.501s-37.166 -11.5 -56.499 -11.5c-46 0 -79.333 13.833 -100 41.5s-27 63.5 -19 107.5l160 819
c5.33301 28.667 14.833 53.5 28.5 74.5s28 41.167 43 60.5s29.333 39.5 43 60.5s23.167 45.5 28.5 73.5c3.33301 18 3.33301 34.667 0 50s-10 28.666 -20 39.999s-23.167 20.333 -39.5 27s-35.5 10 -57.5 10c-11.333 0 -22.666 -1.5 -33.999 -4.5
s-21.833 -6.83301 -31.5 -11.5s-18.334 -10 -26.001 -16s-13.167 -11.667 -16.5 -17c16 0.666992 31.333 -1.5 46 -6.5s27.334 -12.667 38.001 -23s18.334 -23 23.001 -38s5 -32.167 1 -51.5c-3.33301 -17.333 -9.83301 -33.333 -19.5 -48s-21.334 -27.334 -35.001 -38.001
s-28.667 -19.167 -45 -25.5s-32.833 -9.5 -49.5 -9.5c-17.333 0 -33.666 3.5 -48.999 10.5s-28.333 17.167 -39 30.5s-18.334 29.333 -23.001 48s-4.66699 39.667 0 63c6 28.667 18 56.167 36 82.5s39.667 49.5 65 69.5s53.166 35.833 83.499 47.5s61.166 17.5 92.499 17.5
s60.5 -4.5 87.5 -13.5s49.833 -22 68.5 -39s32.167 -38.167 40.5 -63.5s9.5 -54.333 3.5 -87zM243.999 1186c2 14 -1.16699 26.333 -9.5 37s-19.5 16 -33.5 16c-14.667 0 -28.5 -5.33301 -41.5 -16s-20.5 -23 -22.5 -37c-3.33301 -14.667 -0.833008 -27.167 7.5 -37.5
s19.5 -15.5 33.5 -15.5c14.667 0 28.5 5.16699 41.5 15.5s21.167 22.833 24.5 37.5zM341.999 131.002c4 17.333 0.832031 32.333 -9.50098 45s-24.166 19 -41.499 19s-33.333 -6.33301 -48 -19s-24 -27.667 -28 -45c-3.33301 -17.333 0 -32.166 10 -44.499
s23.667 -18.5 41 -18.5s33.5 6.16699 48.5 18.5s24.167 27.166 27.5 44.499z" />
    <glyph glyph-name="uni0E44" unicode="&#xe44;" horiz-adv-x="522" 
d="M567 1262c-18 -6.66699 -35.3418 -15.835 -52.0088 -27.502s-31.667 -24.834 -45 -39.501s-24.666 -30.167 -33.999 -46.5s-15.333 -32.5 -18 -48.5l-164 -842c7.33301 3.33301 15.833 5.5 25.5 6.5s18.167 1.5 25.5 1.5c19.333 0 36.5 -3.5 51.5 -10.5
s27.333 -16.667 37 -29s16.334 -26.666 20.001 -42.999s3.83398 -33.833 0.500977 -52.5c-4 -19.333 -11.167 -37.5 -21.5 -54.5s-23 -31.833 -38 -44.5s-31.667 -22.834 -50 -30.501s-37.166 -11.5 -56.499 -11.5c-46 0 -79.333 13.833 -100 41.5s-27 63.5 -19 107.5
l188 971c6.66699 34 22.834 65 48.501 93s57.5 49.667 95.5 65c-1.33301 9.33301 -7 17 -17 23s-24.333 9 -43 9c-14 0 -28.167 -2.83301 -42.5 -8.5s-28.166 -13 -41.499 -22s-26.333 -19.167 -39 -30.5s-24 -22.333 -34 -33
c-7.33301 14.667 -17.166 29.334 -29.499 44.001s-26.666 28.834 -42.999 42.501s-34.333 26 -54 37s-39.834 19.833 -60.501 26.5l93 61c14.667 -4.66699 28.667 -11 42 -19s25.333 -17 36 -27s19.667 -20.5 27 -31.5s12.333 -21.833 15 -32.5
c21.333 22.667 47 40.834 77 54.501s60.333 20.5 91 20.5c22 0 41.667 -3.16699 59 -9.5s31.833 -15 43.5 -26s19.834 -23.833 24.501 -38.5s5.33398 -30 2.00098 -46zM341.991 130.999c4 17.333 0.832031 32.333 -9.50098 45s-24.166 19 -41.499 19
s-33.333 -6.33301 -48 -19s-24 -27.667 -28 -45c-3.33301 -17.333 0 -32.166 10 -44.499s23.667 -18.5 41 -18.5s33.5 6.16699 48.5 18.5s24.167 27.166 27.5 44.499z" />
    <glyph glyph-name="uni0E45" unicode="&#xe45;" horiz-adv-x="662" 
d="M295 -307l173.998 893.001c10 50 3.33301 90.833 -20 122.5s-61 47.5 -113 47.5c-22.667 0 -44.667 -3.16699 -66 -9.5s-41.166 -15.5 -59.499 -27.5s-34.5 -26.833 -48.5 -44.5s-25 -37.834 -33 -60.501h-102c10.667 32 26.667 61.667 48 89s46.5 50.833 75.5 70.5
s60.667 35 95 46s69.833 16.5 106.5 16.5c38.667 0 73.334 -5.5 104.001 -16.5s55.667 -26.5 75 -46.5s32.833 -44.333 40.5 -73s8.16699 -60.667 1.5 -96l-176 -911h-102z" />
    <glyph glyph-name="uni0E46" unicode="&#xe46;" horiz-adv-x="694" 
d="M676 645c-4 -21.333 -12.999 -40.166 -26.999 -56.499s-28.833 -31.833 -44.5 -46.5s-30.334 -29.334 -44.001 -44.001s-22.167 -31 -25.5 -49l-148 -756h-102l149 774c4 20.667 13 39.334 27 56.001s29 31.834 45 45.501l44.5 38.5c13.667 12 21.834 24 24.501 36
c0.666992 2.66699 -1 8.66699 -5 18s-8.66699 19.166 -14 29.499s-10.5 19.666 -15.5 27.999s-8.5 12.5 -10.5 12.5c-1.33301 0 -9.66602 -4.16699 -24.999 -12.5l-49.5 -27.5l-49.5 -27.5c-15.333 -8.33301 -23.666 -12.5 -24.999 -12.5s-8.83301 4.33301 -22.5 13
s-27.834 18.667 -42.501 30c-9.33301 6 -18.833 12.5 -28.5 19.5l-31.5 23.5c-3.33301 -2.66699 -7 -5.16699 -11 -7.5s-7.66699 -5.16602 -11 -8.49902l-21.5 -17c-7.66699 -6 -15.167 -12.667 -22.5 -20c16 -0.666992 30.833 -4.66699 44.5 -12s25.334 -17 35.001 -29
s16.5 -26.167 20.5 -42.5s4.33301 -34.166 1 -53.499c-4 -19.333 -11.167 -37.166 -21.5 -53.499s-22.833 -30.833 -37.5 -43.5s-31 -22.5 -49 -29.5s-36.667 -10.5 -56 -10.5c-18.667 0 -35.834 3.66699 -51.501 11s-28.834 17.666 -39.501 30.999
s-18.167 29.666 -22.5 48.999s-4.16602 40.666 0.500977 63.999c5.33301 28 16.5 55 33.5 81s37.167 50.5 60.5 73.5s48.666 44.333 75.999 64s54 37.167 80 52.5c4 0 12.833 -4.66699 26.5 -14s28.167 -19.833 43.5 -31.5l42.5 -31.5c13 -9.33301 20.5 -14 22.5 -14
s7.16699 2.16699 15.5 6.5s18.5 10 30.5 17l38 22l38 22c12 7 22.333 12.667 31 17s14.334 6.5 17.001 6.5c6.66699 0 16.5 -7.66699 29.5 -23s25.667 -33.5 38 -54.5s22.666 -42.167 30.999 -63.5s11.166 -38 8.49902 -50zM219.001 547c3.33301 17.333 0 32.166 -10 44.499
s-23.667 18.5 -41 18.5s-33.5 -6.16699 -48.5 -18.5s-24.167 -27.166 -27.5 -44.499s0 -32.333 10 -45s23.667 -19 41 -19s33.5 6.33301 48.5 19s24.167 27.667 27.5 45z" />
    <glyph glyph-name="uni0E47" unicode="&#xe47;" 
d="M70 1360c-5.33301 -26 -16.501 -49.5049 -33.501 -70.5049s-37.167 -39 -60.5 -54s-48.833 -26.333 -76.5 -34s-54.834 -10.834 -81.501 -9.50098c-21.333 1.33301 -42.666 1.83301 -63.999 1.5s-39.666 -1.5 -54.999 -3.5
c-13.333 -1.33301 -26.666 -4.66602 -39.999 -9.99902s-25.666 -12.333 -36.999 -21s-21.166 -19.167 -29.499 -31.5s-13.833 -25.833 -16.5 -40.5s-2.33398 -27.167 0.999023 -37.5s7.83301 -18.666 13.5 -24.999s11.667 -11 18 -14s11.166 -4.5 14.499 -4.5l94 104l15 -23
c4.66699 -6.66699 9.83398 -13.667 15.501 -21s11.167 -13.666 16.5 -18.999c4.66699 12.667 11.5 25 20.5 37s19.5 22.5 31.5 31.5s25 16.167 39 21.5s28.333 8 43 8c15.333 0 29.166 -3 41.499 -9s22.5 -14 30.5 -24s13.667 -21.833 17 -35.5
s3.66602 -27.834 0.999023 -42.501c-3.33301 -15.333 -9.33301 -29.833 -18 -43.5s-19.5 -25.5 -32.5 -35.5s-27.667 -18 -44 -24s-33.5 -9 -51.5 -9c-32.667 0 -61 8.16699 -85 24.5s-42.667 34.5 -56 54.5l-59 -69h-58c-16 0 -31.333 3.33301 -46 10
s-27.167 16.334 -37.5 29.001s-17.5 28.334 -21.5 47.001s-3.66699 40.334 1 65.001c4.66699 22.667 13.5 44.167 26.5 64.5s29.167 38.333 48.5 54s41.5 28.667 66.5 39s51.5 16.833 79.5 19.5c20.667 2 42.167 2.16699 64.5 0.5s43.833 -1.83398 64.5 -0.500977
c14.667 0.666992 29.5 2.83398 44.5 6.50098s28.667 9.16699 41 16.5s22.833 17.333 31.5 30s14.667 28.334 18 47.001h105zM-78.001 1034c3.33301 14.667 1.66797 26.167 -4.99902 34.5s-17.334 12.5 -32.001 12.5c-14 0 -26.167 -4.16699 -36.5 -12.5
s-17.166 -19.833 -20.499 -34.5c-3.33301 -14 -1.33301 -25.333 6 -34s18.333 -13 33 -13s26.667 4.33301 36 13s15.666 20 18.999 34z" />
    <glyph glyph-name="uni0E48" unicode="&#xe48;" 
d="M-51 1319l47 246h102l-47 -246h-102z" />
    <glyph glyph-name="uni0E49" unicode="&#xe49;" 
d="M293 1595c-17.333 -45.333 -40.6748 -85.833 -70.0078 -121.5s-63 -66 -101 -91s-79.667 -44.667 -125 -59s-92.666 -22.833 -141.999 -25.5l-35 29c20.667 13.333 40.334 28.333 59.001 45s33 33.667 43 51c-4 -1.33301 -7.5 -2 -10.5 -2h-9.5
c-15.333 0 -29 2.83301 -41 8.5s-22 13.167 -30 22.5s-13.667 20.5 -17 33.5s-3.33301 27.167 0 42.5c2.66699 14.667 8.16699 28.5 16.5 41.5s18.333 24.167 30 33.5s24.667 16.833 39 22.5s28.833 8.5 43.5 8.5c18 0 33.333 -3 46 -9s22.834 -14.333 30.501 -25
s12.834 -22.834 15.501 -36.501s2.66699 -28.167 0 -43.5c-1.33301 -12 -4.16602 -24.667 -8.49902 -38s-9.83301 -26.166 -16.5 -38.499s-13.667 -23.833 -21 -34.5s-14.666 -19 -21.999 -25c28.667 6 55.834 16.333 81.501 31s48.834 31.834 69.501 51.501
s38.167 40.667 52.5 63s24.5 44.166 30.5 65.499h92zM-33.0088 1528c2 12 -0.500977 22.5 -7.50098 31.5s-16.833 13.5 -29.5 13.5c-13.333 0 -25.333 -4.5 -36 -13.5s-17 -19.5 -19 -31.5c-3.33301 -13.333 -1 -24.5 7 -33.5s18.667 -13.5 32 -13.5
c12.667 0 23.834 4.5 33.501 13.5s16.167 20.167 19.5 33.5z" />
    <glyph glyph-name="uni0E4A" unicode="&#xe4a;" 
d="M332 1597c-1.33301 -48.667 -10.3359 -91.0039 -27.0029 -127.004s-36.834 -66.167 -60.501 -90.5s-48.667 -43.166 -75 -56.499s-49.5 -21.666 -69.5 -24.999l-43 35c9.33301 9.33301 19.166 22.833 29.499 40.5s17.833 37.834 22.5 60.501
c4.66699 25.333 3 46.5 -5 63.5s-16 28.5 -24 34.5l-80 -51l-80 57c-10 -3.33301 -19.833 -9.16602 -29.5 -17.499s-16.167 -15.5 -19.5 -21.5c2 0 3.66699 0.333008 5 1c1.33301 0 2.83301 0.166992 4.5 0.5s3.16699 0.5 4.5 0.5c30.667 0 54.334 -10 71.001 -30
s22.334 -44 17.001 -72c-2.66699 -14 -8 -27.167 -16 -39.5s-17.667 -23 -29 -32s-24.166 -16.167 -38.499 -21.5s-28.833 -8 -43.5 -8c-32 0 -57 11.5 -75 34.5s-23 55.5 -15 97.5c4.66699 25.333 13.667 48.333 27 69s28.833 38.667 46.5 54s36.5 28 56.5 38s39 17 57 21
l71 -58l86 56c32 -8.66699 56.5 -25.334 73.5 -50.001s21.833 -56 14.5 -94c-3.33301 -16 -7.16602 -31 -11.499 -45s-9.16602 -26.333 -14.499 -37c10.667 8 21.5 19.833 32.5 35.5s20.5 33.167 28.5 52.5s13.833 39.833 17.5 61.5s4.16699 42.834 1.5 63.501h90z
M-90.0029 1399c2 12 -0.166016 22.167 -6.49902 30.5s-15.833 12.5 -28.5 12.5s-23.834 -4.16699 -33.501 -12.5s-15.5 -18.5 -17.5 -30.5c-2 -11.333 0.166992 -21 6.5 -29s15.833 -12 28.5 -12c12 0 23 4 33 12s16 17.667 18 29z" />
    <glyph glyph-name="uni0E4B" unicode="&#xe4b;" 
d="M68 1430l-23 -111h-90l22 111h-120l14 73h121l20 111h90l-20 -111h121l-15 -73h-120z" />
    <glyph glyph-name="uni0E4C" unicode="&#xe4c;" 
d="M195 1583c-8 -23.333 -19.832 -43.165 -35.499 -59.498s-33.167 -29.666 -52.5 -39.999s-39.166 -18 -59.499 -23s-38.833 -7.83301 -55.5 -8.5c14 -4 25 -14.833 33 -32.5s10 -36.167 6 -55.5c-3.33301 -16 -9.33301 -30.833 -18 -44.5s-19.167 -25.334 -31.5 -35.001
s-26.333 -17.334 -42 -23.001s-31.834 -8.5 -48.501 -8.5c-14 0 -27.667 2.66699 -41 8s-25 13.333 -35 24s-17.333 23.667 -22 39s-5.33398 32.666 -2.00098 51.999c8 40 29 71.667 63 95s76 38.333 126 45c36 5.33301 65.667 16.333 89 33s39.333 39 48 67zM-40.999 1364
c3.33301 13.333 1.16602 24.5 -6.50098 33.5s-17.834 13.5 -30.501 13.5c-13.333 0 -25.666 -4.5 -36.999 -13.5s-18.666 -20.167 -21.999 -33.5c-2 -13.333 1 -24.5 9 -33.5s18.667 -13.5 32 -13.5c12 0 23.667 4.5 35 13.5s18 20.167 20 33.5z" />
    <glyph glyph-name="uni0E4D" unicode="&#xe4d;" 
d="M113 1098c-4 -21.333 -12 -41.5 -24 -60.5s-26.5 -35.5 -43.5 -49.5s-35.833 -25.167 -56.5 -33.5s-41.667 -12.5 -63 -12.5s-40.666 4.16699 -57.999 12.5s-31.666 19.5 -42.999 33.5s-19.166 30.5 -23.499 49.5s-4.5 39.167 -0.5 60.5s12 41.5 24 60.5
s26.5 35.5 43.5 49.5s35.833 25 56.5 33s41.667 12 63 12s40.666 -4 57.999 -12s31.666 -19 42.999 -33s19.166 -30.5 23.499 -49.5s4.5 -39.167 0.5 -60.5zM33 1098c4 21.333 0.331055 39.666 -11.002 54.999s-27.666 23 -48.999 23s-41 -7.66699 -59 -23
s-29 -33.666 -33 -54.999c-4 -20.667 0.166992 -38.5 12.5 -53.5s28.833 -22.5 49.5 -22.5s39.834 7.5 57.501 22.5s28.5 32.833 32.5 53.5z" />
    <glyph glyph-name="uni0E4E" unicode="&#xe4e;" 
d="M177 1344c-13.333 1.33301 -25.9971 2.33301 -37.9971 3s-24.333 1 -37 1c-64.667 0 -118 -8.33301 -160 -25c-47.333 -18.667 -74.666 -43.667 -81.999 -75c-8 -40.667 28.333 -60 109 -58l-12 -63c-61.333 2 -118 -5.66699 -170 -23c-61.333 -19.333 -95 -46 -101 -80
c-6 -26 12 -39 54 -39c19.333 0 39.166 2.66699 59.499 8s41.166 13 62.499 23l21 -53c-52 -24.667 -103.667 -37 -155 -37c-91.333 0 -131 31.333 -119 94c3.33301 18.667 11.166 36 23.499 52s27.833 30.5 46.5 43.5s39.667 24 63 33s47.666 15.5 72.999 19.5
c-28.667 16.667 -39.667 44 -33 82c10 48 48.667 86.667 116 116c32 15.333 67.333 26.333 106 33s80 10 124 10h30.5c10.333 0 20.5 -0.666992 30.5 -2l-12 -63v0z" />
    <glyph glyph-name="uni0E4F" unicode="&#xe4f;" horiz-adv-x="1024" 
d="M920 410c-11.333 -58 -32.9971 -112.5 -64.9971 -163.5s-70.833 -95.5 -116.5 -133.5s-96 -68 -151 -90s-111.5 -33 -169.5 -33s-110.333 11 -157 33s-85.334 52 -116.001 90s-52 82.5 -64 133.5s-12.333 105.5 -1 163.5s33 112.333 65 163s70.667 95 116 133
s95.666 68 150.999 90s112 33 170 33s110.333 -11 157 -33s85.167 -52 115.5 -90s51.666 -82.333 63.999 -133s12.833 -105 1.5 -163zM858.003 410c10 48.667 9.83398 94.834 -0.499023 138.501s-28.833 81.667 -55.5 114s-60 58 -100 77s-84.333 28.5 -133 28.5
c-49.333 0 -97.5 -9.5 -144.5 -28.5s-89.833 -44.667 -128.5 -77s-71.667 -70.333 -99 -114s-46 -89.834 -56 -138.501c-10 -49.333 -9.83301 -95.833 0.5 -139.5s28.666 -81.667 54.999 -114s59.5 -58 99.5 -77s84.667 -28.5 134 -28.5s97.5 9.5 144.5 28.5
s89.833 44.667 128.5 77s71.667 70.333 99 114s46 90.167 56 139.5zM756.004 410c-7.33301 -35.333 -20.8389 -68.666 -40.5059 -99.999s-43.167 -58.5 -70.5 -81.5s-57.666 -41.167 -90.999 -54.5s-67.666 -20 -102.999 -20s-67.333 6.66699 -96 20s-52.5 31.5 -71.5 54.5
s-32.167 50.167 -39.5 81.5s-7.33301 64.666 0 99.999c6.66699 35.333 19.667 68.5 39 99.5s42.833 58.167 70.5 81.5s58.334 41.666 92.001 54.999s68.167 20 103.5 20c34.667 0 66.334 -6.66699 95.001 -20s52.334 -31.666 71.001 -54.999s31.834 -50.5 39.501 -81.5
s8.16699 -64.167 1.5 -99.5zM693.998 410c5.33301 26.667 5.16602 51.667 -0.500977 75s-15.667 43.833 -30 61.5s-32.333 31.667 -54 42s-45.834 15.5 -72.501 15.5s-52.834 -5.16699 -78.501 -15.5s-49 -24.333 -70 -42s-38.833 -38.167 -53.5 -61.5
s-24.667 -48.333 -30 -75s-5.16602 -51.834 0.500977 -75.501s15.5 -44.334 29.5 -62.001s31.833 -31.667 53.5 -42s45.834 -15.5 72.501 -15.5s52.834 5.16699 78.501 15.5s49 24.333 70 42s39 38.334 54 62.001s25.167 48.834 30.5 75.501z" />
    <glyph glyph-name="uni0E50" unicode="&#xe50;" horiz-adv-x="803" 
d="M698 307c-8.66699 -44 -25.3359 -85.333 -50.0029 -124s-54.667 -72.167 -90 -100.5s-74.666 -50.833 -117.999 -67.5s-87.666 -25 -132.999 -25c-46 0 -87.5 8.33301 -124.5 25s-67.5 39.167 -91.5 67.5s-40.833 61.833 -50.5 100.5s-10.167 80 -1.5 124
s25.334 85.333 50.001 124s54.5 72.334 89.5 101.001s74.167 51.334 117.5 68.001s88 25 134 25c45.333 0 86.5 -8.33301 123.5 -25s67.667 -39.334 92 -68.001s41.333 -62.334 51 -101.001s10.167 -80 1.5 -124zM595.998 307
c6.66699 34.667 6.49902 66.334 -0.500977 95.001s-19 53.167 -36 73.5s-38.167 36 -63.5 47s-52.666 16.5 -81.999 16.5c-30 0 -59.833 -5.5 -89.5 -16.5s-57 -26.667 -82 -47s-46.5 -44.833 -64.5 -73.5s-30.333 -60.334 -37 -95.001s-6.5 -66.167 0.5 -94.5
s19 -52.666 36 -72.999s38.167 -36 63.5 -47s53 -16.5 83 -16.5c29.333 0 58.833 5.5 88.5 16.5s57 26.667 82 47s46.5 44.666 64.5 72.999s30.333 59.833 37 94.5z" />
    <glyph glyph-name="uni0E51" unicode="&#xe51;" horiz-adv-x="823" 
d="M717 295c-7.33301 -37.333 -20.333 -73.832 -39 -109.499s-41 -69.167 -67 -100.5s-54.833 -60.5 -86.5 -87.5s-64.5 -50.833 -98.5 -71.5l-47 58c24.667 14 49.5 31.667 74.5 53s48.167 45.333 69.5 72s40 55.334 56 86.001s27 62 33 94
c7.33301 36.667 7.83301 70 1.5 100s-18.166 55.5 -35.499 76.5s-39.166 37.333 -65.499 49s-55.833 17.5 -88.5 17.5c-32 0 -63.5 -5.83301 -94.5 -17.5s-59.5 -27.5 -85.5 -47.5s-48.167 -43.667 -66.5 -71s-30.5 -57 -36.5 -89c-7.33301 -38 -7.83301 -71.5 -1.5 -100.5
s16.833 -53.167 31.5 -72.5s31.834 -33.5 51.501 -42.5s39.167 -12.167 58.5 -9.5c-19.333 9.33301 -35.333 24 -48 44s-16 45 -10 75c4 18 11 34.5 21 49.5s21.667 28.167 35 39.5s28.166 20.166 44.499 26.499s32.833 9.5 49.5 9.5c18 0 34.5 -3.5 49.5 -10.5
s27.5 -16.667 37.5 -29s17 -27 21 -44s4 -35.167 0 -54.5c-5.33301 -26.667 -15.833 -51.667 -31.5 -75s-34.834 -43.833 -57.501 -61.5s-47.667 -31.667 -75 -42s-55.333 -15.5 -84 -15.5c-31.333 0 -60.833 7 -88.5 21s-51 34.333 -70 61s-32.167 59.167 -39.5 97.5
s-6 82.166 4 131.499c8.66699 44.667 26.167 86.5 52.5 125.5s57.833 73 94.5 102s76.667 51.667 120 68s86.666 24.5 129.999 24.5c50.667 0 95.5 -8.16699 134.5 -24.5s71 -39 96 -68s42 -63.667 51 -104s8.83301 -84.833 -0.5 -133.5zM403 195.001
c3.33301 15.333 0.832031 28.666 -7.50098 39.999s-20.166 17 -35.499 17s-29.833 -5.66699 -43.5 -17s-22.167 -24.666 -25.5 -39.999c-2 -15.333 1.5 -28.833 10.5 -40.5s21.167 -17.5 36.5 -17.5s29.5 5.83301 42.5 17.5s20.5 25.167 22.5 40.5z" />
    <glyph glyph-name="uni0E52" unicode="&#xe52;" horiz-adv-x="997" 
d="M172 0c-29.333 0 -54.0029 4.49609 -74.0029 13.4961s-35.5 21.167 -46.5 36.5s-18 33.5 -21 54.5s-2.16699 43.5 2.5 67.5l96 494c5.33301 25.333 4.5 47 -2.5 65s-23.833 31.667 -50.5 41l106 57c27.333 -10 44.666 -28 51.999 -54s8 -55 2 -87l-95 -487
c-3.33301 -19.333 -4.66602 -36.166 -3.99902 -50.499s4.33398 -26.333 11.001 -36s16.667 -16.834 30 -21.501s31 -7 53 -7h496l72 369c5.33301 26.667 2.5 47.667 -8.5 63s-28.833 23 -53.5 23c-10 0 -20 -1.66699 -30 -5s-19.5 -8.16602 -28.5 -14.499
s-16.667 -14.333 -23 -24s-10.5 -20.5 -12.5 -32.5l-12 -68h-96l10 60c4 21.333 0 40.333 -12 57s-30.667 25 -56 25c-28 0 -50.333 -8 -67 -24s-27 -34.667 -31 -56l-12 -64c14 5.33301 28.333 8 43 8c18 0 34.333 -3.5 49 -10.5s26.834 -16.667 36.501 -29
s16.5 -26.5 20.5 -42.5s4.66699 -33 2 -51c-3.33301 -18 -10.166 -35 -20.499 -51s-22.833 -30 -37.5 -42s-30.834 -21.667 -48.501 -29s-35.5 -11 -53.5 -11c-21.333 0 -40.166 3.5 -56.499 10.5s-29.833 16.833 -40.5 29.5s-17.834 27.334 -21.501 44.001s-3.5 35 0.5 55
l39 199c4.66699 24.667 13.834 46.334 27.501 65.001s30.167 34.334 49.5 47.001s40.333 22.167 63 28.5s45.334 9.5 68.001 9.5c30 0 55.667 -5.33301 77 -16s36.666 -26.667 45.999 -48c20.667 22.667 44.667 39 72 49s55.333 15 84 15c24 0 45.5 -3.83301 64.5 -11.5
s34.833 -18 47.5 -31s21.667 -28.167 27 -45.5s6 -35.333 2 -54l-94 -483h-641zM443.997 269.996c3.33301 16.667 0.166992 30.834 -9.5 42.501s-22.834 17.5 -39.501 17.5s-31.5 -5.83301 -44.5 -17.5s-21.167 -25.834 -24.5 -42.501c-3.33301 -16 -0.5 -29.833 8.5 -41.5
s21.833 -17.5 38.5 -17.5s31.834 5.83301 45.501 17.5s22.167 25.5 25.5 41.5z" />
    <glyph glyph-name="uni0E53" unicode="&#xe53;" horiz-adv-x="913" 
d="M627 0l84.0029 432.001c6 34 1.66699 60.333 -13 79s-36.334 28 -65.001 28c-32 0 -58.5 -9.66699 -79.5 -29s-34.167 -42 -39.5 -68l-86 -442h-96l82 424c2 12 2.16699 24.667 0.5 38s-6 25.666 -13 36.999s-16.667 20.833 -29 28.5s-28.5 11.5 -48.5 11.5
c-36 0 -66.667 -10.333 -92 -31s-41.333 -48 -48 -82l-32 -178c14 5.33301 28.333 8 43 8c18 0 34.333 -3.5 49 -10.5s26.834 -16.667 36.501 -29s16.5 -26.5 20.5 -42.5s4.66699 -33 2 -51c-3.33301 -18 -10.166 -35 -20.499 -51s-22.833 -30.167 -37.5 -42.5
s-30.834 -22 -48.501 -29s-35.5 -10.5 -53.5 -10.5c-21.333 0 -40.166 3.5 -56.499 10.5s-29.833 16.667 -40.5 29s-17.834 27 -21.501 44s-3.5 35.5 0.5 55.5l59 305c5.33301 30 16.166 56.833 32.499 80.5s36 43.834 59 60.501s48 29.5 75 38.5s54.167 13.5 81.5 13.5
c25.333 0 47.166 -3 65.499 -9s33.5 -13.833 45.5 -23.5s21 -20.5 27 -32.5s9.66699 -24 11 -36c16.667 26 40.667 49 72 69s69 30 113 30c27.333 0 51.666 -4.33301 72.999 -13s38.666 -20.834 51.999 -36.501s22.333 -34.167 27 -55.5s4.33398 -44.333 -0.999023 -69
l-88 -451h-102zM229.003 123.001c3.33301 16.667 0.167969 30.667 -9.49902 42s-22.834 17 -39.501 17s-31.5 -5.66699 -44.5 -17s-21.167 -25.333 -24.5 -42s-0.5 -30.834 8.5 -42.501s21.833 -17.5 38.5 -17.5c16 0 31 5.83301 45 17.5s22.667 25.834 26 42.501z" />
    <glyph glyph-name="uni0E54" unicode="&#xe54;" horiz-adv-x="860" 
d="M901 819c-2.66699 -50 -15.6709 -93.8242 -39.0039 -131.491s-54.333 -68.834 -93 -93.501s-83.5 -42.834 -134.5 -54.501s-105.5 -16.834 -163.5 -15.501c-42 0.666992 -81.333 -4.5 -118 -15.5s-69.334 -27 -98.001 -48s-52.667 -46.333 -72 -76
s-32.666 -62.834 -39.999 -99.501c-8.66699 -43.333 -7.5 -80.5 3.5 -111.5s28.5 -54.667 52.5 -71s53 -24.833 87 -25.5s69.667 7.66602 107 24.999c-13.333 16 -24.166 37 -32.499 63s-9.16602 57.667 -2.49902 95c4 21.333 11.667 40.833 23 58.5s25 32.667 41 45
s33.5 22 52.5 29s38.167 10.5 57.5 10.5c18.667 0 35.5 -3.5 50.5 -10.5s27.333 -16.5 37 -28.5s16.5 -26 20.5 -42s4.33301 -33.333 1 -52c-3.33301 -18 -10.166 -35.167 -20.499 -51.5s-22.666 -30.5 -36.999 -42.5s-30.333 -21.5 -48 -28.5s-35.834 -10.5 -54.501 -10.5
c11.333 -19.333 26.333 -34.333 45 -45s38.334 -17.334 59.001 -20.001s40.667 -1.83398 60 2.49902s35.666 12.166 48.999 23.499l31 -71c-22.667 -13.333 -47 -22.833 -73 -28.5s-50.667 -8.5 -74 -8.5c-28 0 -53.5 4.16699 -76.5 12.5s-42.167 21.833 -57.5 40.5
c-24.667 -17.333 -53 -30.5 -85 -39.5s-69 -13.5 -111 -13.5c-38.667 0 -73 7.16699 -103 21.5s-54.5 34.833 -73.5 61.5s-31.667 58.667 -38 96s-5.16602 78.666 3.50098 123.999c10 48.667 28.167 93.167 54.5 133.5s58.833 74.666 97.5 102.999s82.167 50 130.5 65
s99.5 21.5 153.5 19.5c36 -1.33301 72.833 0.833984 110.5 6.50098s72 16.167 103 31.5s56.667 36.5 77 63.5s30.833 61.5 31.5 103.5h106zM566.996 270.009c3.33301 16.667 0.167969 30.834 -9.49902 42.501s-22.834 17.5 -39.501 17.5s-31.5 -5.83301 -44.5 -17.5
s-21.167 -25.834 -24.5 -42.501c-3.33301 -16 -0.5 -29.833 8.5 -41.5s21.833 -17.5 38.5 -17.5c16 0 31 5.83301 45 17.5s22.667 25.5 26 41.5z" />
    <glyph glyph-name="uni0E55" unicode="&#xe55;" horiz-adv-x="860" 
d="M901 819c-2.66699 -50 -15.6699 -93.8291 -39.0029 -131.496s-54.333 -68.834 -93 -93.501s-83.5 -42.834 -134.5 -54.501s-105.5 -16.834 -163.5 -15.501c-42 0.666992 -81.333 -4.5 -118 -15.5s-69.334 -27 -98.001 -48s-52.667 -46.333 -72 -76
s-32.666 -62.834 -39.999 -99.501c-8.66699 -43.333 -7.5 -80.5 3.5 -111.5s28.5 -54.667 52.5 -71s53 -24.833 87 -25.5s69.667 7.66602 107 24.999c-13.333 16 -24.166 37 -32.499 63s-9.16602 57.667 -2.49902 95c4 21.333 11.667 40.833 23 58.5s25 32.667 41 45
s33.5 22 52.5 29s38.167 10.5 57.5 10.5c18.667 0 35.5 -3.5 50.5 -10.5s27.333 -16.5 37 -28.5s16.5 -26 20.5 -42s4.33301 -33.333 1 -52c-3.33301 -18 -10.166 -35.167 -20.499 -51.5s-22.666 -30.5 -36.999 -42.5s-30.333 -21.5 -48 -28.5s-35.834 -10.5 -54.501 -10.5
c11.333 -19.333 26.333 -34.333 45 -45s38.334 -17.334 59.001 -20.001s40.667 -1.83398 60 2.49902s35.666 12.166 48.999 23.499l31 -71c-22.667 -13.333 -47 -22.833 -73 -28.5s-50.667 -8.5 -74 -8.5c-28 0 -53.5 4.16699 -76.5 12.5s-42.167 21.833 -57.5 40.5
c-24.667 -17.333 -53 -30.5 -85 -39.5s-69 -13.5 -111 -13.5c-38.667 0 -73.167 7.16699 -103.5 21.5s-55 34.833 -74 61.5s-31.667 58.667 -38 96s-4.83301 78.666 4.5 123.999c7.33301 36.667 19.5 71.167 36.5 103.5s37.833 61.5 62.5 87.5s52.834 48.5 84.501 67.5
s66.167 33.833 103.5 44.5c-8.66699 12.667 -14.834 26.5 -18.501 41.5s-3.83398 31.167 -0.500977 48.5c3.33301 19.333 10.5 37.5 21.5 54.5s24.833 31.667 41.5 44s35.167 22.166 55.5 29.499s41.5 11 63.5 11s41.833 -3.66699 59.5 -11s32.334 -17.166 44.001 -29.499
s19.834 -27 24.501 -44s5 -35.167 1 -54.5c-2 -11.333 -5.83301 -22.666 -11.5 -33.999s-12.5 -21.666 -20.5 -30.999c27.333 4.66699 53.666 11.834 78.999 21.501s47.666 22.334 66.999 38.001s34.833 34.834 46.5 57.501s17.834 49.667 18.501 81h106zM525.997 676.004
c4.66699 18.667 1.83301 33.834 -8.5 45.501s-25.166 17.5 -44.499 17.5s-36.166 -5.83301 -50.499 -17.5s-23.5 -26.834 -27.5 -45.501c-3.33301 -18.667 0 -34 10 -46s24.667 -18 44 -18s36.166 6 50.499 18s23.166 27.333 26.499 46zM566.996 270.004
c3.33301 16.667 0.167969 30.834 -9.49902 42.501s-22.834 17.5 -39.501 17.5s-31.5 -5.83301 -44.5 -17.5s-21.167 -25.834 -24.5 -42.501c-3.33301 -16 -0.5 -29.833 8.5 -41.5s21.833 -17.5 38.5 -17.5c16 0 31 5.83301 45 17.5s22.667 25.5 26 41.5z" />
    <glyph glyph-name="uni0E56" unicode="&#xe56;" horiz-adv-x="774" 
d="M672 313c-8.66699 -44 -24.3379 -85.4941 -47.0049 -124.494s-50.667 -73.333 -84 -103s-71.666 -53 -114.999 -70s-90.333 -25.5 -141 -25.5c-44 0 -82.667 5.33301 -116 16s-60.666 25.167 -81.999 43.5s-36.333 39.833 -45 64.5s-10.334 51 -5.00098 79
c3.33301 18 10.166 35.167 20.499 51.5s22.666 30.5 36.999 42.5s30.333 21.5 48 28.5s35.834 10.5 54.501 10.5c18 0 34.333 -3.5 49 -10.5s26.834 -16.5 36.501 -28.5s16.334 -26.167 20.001 -42.5s3.83398 -33.5 0.500977 -51.5c-4 -21.333 -12 -41 -24 -59
s-27.333 -33.333 -46 -46c9.33301 -3.33301 18.666 -5.5 27.999 -6.5s18.666 -1.5 27.999 -1.5c30.667 0 61 5.66699 91 17s57.5 27.166 82.5 47.499s46.333 44.666 64 72.999s29.834 59.5 36.501 93.5c5.33301 28 6.33301 55.667 3 83s-11.666 51.833 -24.999 73.5
s-31.833 39 -55.5 52s-53.167 19.5 -88.5 19.5c-21.333 0 -42.5 -3.16699 -63.5 -9.5s-40.667 -14.333 -59 -24s-35 -20.667 -50 -33s-27.167 -24.5 -36.5 -36.5l-88 19c1.33301 21.333 2 42.166 2 62.499s-1.33301 40.166 -4 59.499c-2 16.667 -5 34 -9 52
s-9.5 35.667 -16.5 53s-15.333 33.666 -25 48.999s-21.5 29 -35.5 41l103 59c25.333 -25.333 43.833 -54 55.5 -86s20.167 -62.333 25.5 -91c2.66699 -16.667 4.66699 -33.334 6 -50.001s1.66602 -33.667 0.999023 -51c28 19.333 61 36.5 99 51.5s82 22.5 132 22.5
c48 0 88.833 -8.66699 122.5 -26s60.334 -40.5 80.001 -69.5s32.334 -62.5 38.001 -100.5s4.83398 -77.333 -2.49902 -118zM232.996 193.006c3.33301 16 0.498047 29.833 -8.50195 41.5s-21.833 17.5 -38.5 17.5c-16 0 -31 -5.83301 -45 -17.5s-22.667 -25.5 -26 -41.5
c-3.33301 -16.667 -0.166016 -30.834 9.50098 -42.501s22.834 -17.5 39.501 -17.5s31.5 5.83301 44.5 17.5s21.167 25.834 24.5 42.501z" />
    <glyph glyph-name="uni0E57" unicode="&#xe57;" horiz-adv-x="1102" 
d="M1124 788c-23.333 -16.667 -41.5 -39.3311 -54.5 -67.998s-23.167 -60.5 -30.5 -95.5s-13.166 -71.833 -17.499 -110.5s-9.5 -76.334 -15.5 -113.001c-8.66699 -53.333 -22.834 -103.666 -42.501 -150.999s-45.167 -89.166 -76.5 -125.499s-68.5 -66.5 -111.5 -90.5
s-91.833 -39.333 -146.5 -46l-66 59c14 6 28 14.667 42 26c11.333 9.33301 22.166 21.5 32.499 36.5s17.5 33.833 21.5 56.5l52 266c6 34 1.66699 60.333 -13 79s-36.334 28 -65.001 28c-32 0 -58.5 -9.66699 -79.5 -29s-34.167 -42 -39.5 -68l-86 -442h-96l82 424
c2 12 2.16699 24.667 0.5 38s-6 25.666 -13 36.999s-16.667 20.833 -29 28.5s-28.5 11.5 -48.5 11.5c-36 0 -66.667 -10.333 -92 -31s-41.333 -48 -48 -82l-32 -178c14 5.33301 28.333 8 43 8c18 0 34.333 -3.5 49 -10.5s26.834 -16.667 36.501 -29s16.5 -26.5 20.5 -42.5
s4.66699 -33 2 -51c-3.33301 -18 -10.166 -35 -20.499 -51s-22.833 -30.167 -37.5 -42.5s-30.834 -22 -48.501 -29s-35.5 -10.5 -53.5 -10.5c-21.333 0 -40.166 3.5 -56.499 10.5s-29.833 16.667 -40.5 29s-17.834 27 -21.501 44s-3.5 35.5 0.5 55.5l59 305
c5.33301 30 16.166 56.833 32.499 80.5s36 43.834 59 60.501s48 29.5 75 38.5s54.167 13.5 81.5 13.5c25.333 0 47.166 -3 65.499 -9s33.5 -13.833 45.5 -23.5s21 -20.5 27 -32.5s9.66699 -24 11 -36c16.667 26 40.667 49 72 69s69 30 113 30
c27.333 0 51.666 -4.33301 72.999 -13s38.666 -20.834 51.999 -36.501s22.333 -34.167 27 -55.5s4.33398 -44.333 -0.999023 -69l-51 -256c-3.33301 -19.333 -8.66602 -36 -15.999 -50s-14.666 -25.667 -21.999 -35l-13.5 -15.5
c-4.33301 -5 -9.16602 -9.16699 -14.499 -12.5c34.667 12.667 64.834 32.167 90.501 58.5s47.167 56.5 64.5 90.5s30.833 70.333 40.5 109s16.167 77 19.5 115l11.5 108c3.66699 35.333 9.16699 69.166 16.5 101.499s17.833 62.666 31.5 90.999s32.167 53.5 55.5 75.5z
M229 123.003c3.33301 16.667 0.167969 30.667 -9.49902 42s-22.834 17 -39.501 17s-31.5 -5.66699 -44.5 -17s-21.167 -25.333 -24.5 -42s-0.5 -30.834 8.5 -42.501s21.833 -17.5 38.5 -17.5c16 0 31 5.83301 45 17.5s22.667 25.834 26 42.501z" />
    <glyph glyph-name="uni0E58" unicode="&#xe58;" horiz-adv-x="850" 
d="M852 819c-4.66699 -45.333 -15.8389 -86.3281 -33.5059 -122.995s-42.167 -68 -73.5 -94s-70 -45.667 -116 -59s-99.333 -19 -160 -17c-91.333 3.33301 -164.666 -14.167 -219.999 -52.5s-91.333 -100.5 -108 -186.5c-6.66699 -34 -9.66699 -63.833 -9 -89.5
s4.16699 -46.834 10.5 -63.501s14.833 -29.167 25.5 -37.5s22.334 -12.5 35.001 -12.5c14.667 0 27.834 4.66699 39.501 14s22 21.166 31 35.499s16.667 29.833 23 46.5s11.166 32.334 14.499 47.001h86c-4 -18.667 -4.66699 -37 -2 -55s8.66699 -34.167 18 -48.5
s21.833 -25.833 37.5 -34.5s34.167 -13 55.5 -13c10 0 20.667 1.83301 32 5.5s22.166 8.66699 32.499 15s19.333 14 27 23s13.167 19.167 16.5 30.5c-19.333 -4.66699 -38.166 -5.33398 -56.499 -2.00098s-34.166 10.166 -47.499 20.499s-23.333 24.166 -30 41.499
s-7.66699 38 -3 62c2.66699 16.667 8.83398 32.667 18.501 48s21.334 28.666 35.001 39.999s28.834 20.333 45.501 27s33.667 10 51 10c20 0 38 -3.33301 54 -10s29.167 -17 39.5 -31s17.166 -31.5 20.499 -52.5s2 -45.833 -4 -74.5
c-7.33301 -37.333 -18.666 -70.833 -33.999 -100.5s-33.833 -54.667 -55.5 -75s-46.167 -36 -73.5 -47s-56.333 -16.5 -87 -16.5c-36.667 0 -68.667 9 -96 27s-45.666 42.333 -54.999 73c-15.333 -30 -36.333 -54.167 -63 -72.5s-57 -27.5 -91 -27.5
c-33.333 0 -61.333 7.16699 -84 21.5s-40 34.666 -52 60.999s-18.833 58.166 -20.5 95.499s2.16602 79 11.499 125c10 54 27.667 101.5 53 142.5s56.833 75 94.5 102s80.5 47 128.5 60s100 18.5 156 16.5c50.667 -1.33301 93 2.83398 127 12.501s61.5 23.667 82.5 42
s36.5 40.333 46.5 66s16.667 53.834 20 84.501h107zM656.995 272.005c3.33301 15.333 0.5 28.5 -8.5 39.5s-21.167 16.5 -36.5 16.5s-29.166 -5.5 -41.499 -16.5s-20.166 -24.167 -23.499 -39.5c-3.33301 -16 -0.5 -29.167 8.5 -39.5s21.167 -15.5 36.5 -15.5
s29.166 5.16699 41.499 15.5s20.166 23.5 23.499 39.5z" />
    <glyph glyph-name="uni0E59" unicode="&#xe59;" horiz-adv-x="991" 
d="M1051 768c-24.667 -14 -46.3369 -31.999 -65.0039 -53.999s-34.167 -46.167 -46.5 -72.5s-21.833 -53.833 -28.5 -82.5s-10.667 -56.667 -12 -84l-106 -31c0 10 -1.66699 20.333 -5 31s-8.5 20.5 -15.5 29.5s-16 16.167 -27 21.5s-23.833 7.33301 -38.5 6
c-15.333 -1.33301 -31.166 -7.66602 -47.499 -18.999s-31 -27.833 -44 -49.5s-23 -48.5 -30 -80.5s-8.83301 -69 -5.5 -111c1.33301 -21.333 4.83301 -43.333 10.5 -66s12.834 -44.5 21.501 -65.5s18.5 -40 29.5 -57s22.5 -29.833 34.5 -38.5l-111 -55
c-20 24.667 -36.5 52.667 -49.5 84s-23.167 64.166 -30.5 98.499s-12.166 69.166 -14.499 104.499s-2.83301 69.333 -1.5 102c0.666992 18.667 -0.833008 37.334 -4.5 56.001s-10.167 35.5 -19.5 50.5s-21.833 27 -37.5 36s-34.834 13.5 -57.501 13.5
c-22 0 -43.833 -5 -65.5 -15s-41.834 -24.5 -60.501 -43.5s-34.834 -42 -48.501 -69s-23.834 -57.833 -30.501 -92.5c-6 -32 -8 -60.167 -6 -84.5s4 -39.833 6 -46.5c13.333 18.667 31 34.667 53 48s47.333 20 76 20c18 0 34.167 -3.33301 48.5 -10s26 -15.834 35 -27.501
s15.333 -25.5 19 -41.5s3.83398 -33.333 0.500977 -52c-4 -19.333 -11.167 -37 -21.5 -53s-23 -29.667 -38 -41s-31.667 -20.333 -50 -27s-37.166 -10 -56.499 -10c-26 0 -51.667 6.16699 -77 18.5s-46.833 31.666 -64.5 57.999s-29.667 60 -36 101
s-3.83301 90.167 7.5 147.5c8.66699 44.667 22.834 86.167 42.501 124.5s43.834 71.333 72.501 99s61.334 49.334 98.001 65.001s76.334 23.5 119.001 23.5c44 0 82 -9.16699 114 -27.5s53.333 -45.5 64 -81.5c6 14 14.167 27.667 24.5 41s22.5 25.166 36.5 35.499
s29.5 18.833 46.5 25.5s35.167 10.334 54.5 11.001c28.667 1.33301 52.667 -3.83398 72 -15.501s32 -25.834 38 -42.501c1.33301 26.667 6.16602 52.834 14.499 78.501s19.5 49.834 33.5 72.501s30.5 43 49.5 61s39.833 32.667 62.5 44zM306.997 123.001
c3.33301 15.333 0.5 28.666 -8.5 39.999s-21.167 17 -36.5 17s-29.5 -5.66699 -42.5 -17s-21.167 -24.666 -24.5 -39.999s-0.5 -28.666 8.5 -39.999s21.167 -17 36.5 -17s29.5 5.66699 42.5 17s21.167 24.666 24.5 39.999z" />
    <glyph glyph-name="uni0E5A" unicode="&#xe5a;" horiz-adv-x="952" 
d="M629 0l134.007 690.002l-57 -41l-60 -28l-120 -621h-102l123 637c-76 -78 -169.333 -117 -280 -117c-30.667 0 -58.334 4 -83.001 12s-45.334 19.5 -62.001 34.5s-28.334 33.167 -35.001 54.5s-7.33398 45 -2.00098 71c4 18.667 11.167 36.334 21.5 53.001
s22.833 31.167 37.5 43.5s31 22.166 49 29.499s36.667 11 56 11c33.333 0 62.666 -13.667 87.999 -41c22 -26 29.333 -58 22 -96c-7.33301 -34 -22 -62 -44 -84c51.333 0 104.666 22.667 159.999 68c51.333 43.333 86.666 91 105.999 143h24c52.667 0 71.667 -39 57 -117
l56 31c17.333 13.333 32.5 27.166 45.5 41.499s23.167 29.166 30.5 44.499h16c25.333 0 42.833 -11 52.5 -33s11.167 -50 4.5 -84l-136 -702h-102zM284.007 692.002c1.33301 6.66699 0.99707 13.5 -1.00293 20.5s-5.16699 13.5 -9.5 19.5s-9.66602 10.833 -15.999 14.5
s-13.5 5.5 -21.5 5.5c-35.333 0 -59 -20 -71 -60c-1.33301 -7.33301 -1.16602 -14.5 0.500977 -21.5s4.16699 -14.167 7.5 -21.5c8.66699 -6.66699 22 -12 40 -16c16.667 0 31.334 5.33301 44.001 16c14.667 14.667 23.667 29 27 43z" />
    <glyph glyph-name="uni0E5B" unicode="&#xe5b;" horiz-adv-x="1442" 
d="M1371 434c-3.33301 -13.333 -20.3291 -21.332 -50.9961 -23.999l-112 -11c-25.333 -39.333 -43.333 -59 -54 -59c-9.33301 0 -18 10 -26 30l-21 62c-34 -78 -60.333 -117 -79 -117c-8.66699 0 -18.667 15.667 -30 47l-25 84c-36 -100.667 -65.333 -151 -88 -151
c-12 0 -22 19.667 -30 59l-15 77c-3.33301 17.333 -5.66602 27.333 -6.99902 30c-13.333 -45.333 -32 -87.666 -56 -126.999c-24 -44 -44.333 -66 -61 -66c-16 0 -25 15 -27 45c-1.33301 56.667 -5.33301 106.667 -12 150c-42.667 -117.333 -100 -209 -172 -275
c-80.667 -74.667 -163 -112 -247 -112c-78.667 0 -136 31.333 -172 94c-36.667 61.333 -45.334 142.666 -26.001 243.999c18 94.667 56.333 175.334 115 242.001s123 100 193 100c58 0 102 -23.667 132 -71c30 -46.667 38.333 -105 25 -175
c-5.33301 -27.333 -13.333 -52.333 -24 -75s-23.167 -42.334 -37.5 -59.001s-30.333 -29.5 -48 -38.5s-35.834 -13.5 -54.501 -13.5c-30.667 0 -55 12 -73 36c-16.667 25.333 -21.334 55.666 -14.001 90.999c7.33301 34 23.666 63.667 48.999 89c27.333 25.333 56 38 86 38
c15.333 0 27.666 -2.33301 36.999 -7c-4 74 -34 111 -90 111c-44.667 0 -88.667 -25.667 -132 -77c-42.667 -49.333 -72 -115.666 -88 -198.999c-14.667 -78.667 -8 -141.667 20 -189c28 -46.667 70.667 -70 128 -70c65.333 0 130 33.333 194 100
c64 67.333 114.333 157.666 151 270.999c17.333 49.333 37.333 74 60 74c36.667 0 57.667 -65.667 63 -197l45 123c14 36.667 28.333 55 43 55c32 0 54.667 -53.667 68 -161c24 82 45.333 123 64 123c29.333 0 53.333 -45.333 72 -136c33.333 71.333 58 107 74 107
c17.333 0 34 -27.333 50 -82c15.333 33.333 34 48.333 56 45l108 -14c28 -4 41 -11 39 -21zM434.004 451.001c9.33301 43.333 -3 65 -37 65c-32 0 -52.667 -21.667 -62 -65c-3.33301 -16.667 -1 -31.5 7 -44.5s18 -19.5 30 -19.5c33.333 0 54 21.333 62 64z" />
    <glyph glyph-name="zerowidthnonjoiner" unicode="&#x200c;" 
 />
    <glyph glyph-name="zerowidthjoiner" unicode="&#x200d;" 
 />
    <glyph glyph-name="endash" unicode="&#x2013;" horiz-adv-x="737" 
d="M6 297l19 90h655l-18 -90h-656z" />
    <glyph glyph-name="emdash" unicode="&#x2014;" horiz-adv-x="1475" 
d="M6 297l19 90h1392l-18 -90h-1393z" />
    <glyph glyph-name="quoteleft" unicode="&#x2018;" horiz-adv-x="352" 
d="M352 958c-32 -19.333 -57.002 -39.332 -75.002 -59.999s-31.667 -41.334 -41 -62.001c4 1.33301 10 2 18 2c12 0 22.833 -2.33301 32.5 -7s17.667 -11 24 -19s10.833 -17.333 13.5 -28s2.66699 -22 0 -34c-5.33301 -26 -18 -47.667 -38 -65s-41.667 -26 -65 -26
c-12.667 0 -24.667 2.5 -36 7.5s-21 12.5 -29 22.5s-13.5 22.5 -16.5 37.5s-2.5 32.833 1.5 53.5c4.66699 22.667 12.334 44.167 23.001 64.5s23.334 39.5 38.001 57.5s30.5 34.5 47.5 49.5s34.167 28.167 51.5 39.5l51 -33v0z" />
    <glyph glyph-name="quoteright" unicode="&#x2019;" horiz-adv-x="352" 
d="M350 870c-4 -22.667 -11.332 -44.167 -21.999 -64.5s-23.334 -39.5 -38.001 -57.5s-30.667 -34.5 -48 -49.5s-34.666 -28.167 -51.999 -39.5l-51 33c32 19.333 56.833 39.5 74.5 60.5s31.167 41.833 40.5 62.5c-4 -1.33301 -10 -2 -18 -2c-25.333 0 -44.333 8.5 -57 25.5
s-17 37.833 -13 62.5c2.66699 12.667 7.33398 24.5 14.001 35.5s14.667 20.5 24 28.5s19.666 14.333 30.999 19s23 7 35 7c13.333 0 25.666 -2.5 36.999 -7.5s20.833 -12.5 28.5 -22.5s13 -22.5 16 -37.5s2.5 -32.833 -1.5 -53.5z" />
    <glyph glyph-name="quotedblleft" unicode="&#x201c;" horiz-adv-x="614" 
d="M612 958c-32 -19.333 -57.002 -39.332 -75.002 -59.999s-31.667 -41.334 -41 -62.001c4 1.33301 10 2 18 2c24.667 0 44 -8.5 58 -25.5s18.667 -37.833 14 -62.5c-5.33301 -26 -18 -47.667 -38 -65s-42.333 -26 -67 -26c-12.667 0 -24.667 2.5 -36 7.5s-21 12.5 -29 22.5
s-13.5 22.5 -16.5 37.5s-2.5 32.833 1.5 53.5c4.66699 22.667 12.334 44.167 23.001 64.5s23.334 39.5 38.001 57.5s30.5 34.5 47.5 49.5s34.167 28.167 51.5 39.5zM351.998 958.001c-32 -19.333 -57.002 -39.332 -75.002 -59.999s-31.667 -41.334 -41 -62.001
c4 1.33301 10 2 18 2c12 0 22.833 -2.33301 32.5 -7s17.667 -11 24 -19s10.833 -17.333 13.5 -28s2.66699 -22 0 -34c-5.33301 -26 -18 -47.667 -38 -65s-41.667 -26 -65 -26c-12.667 0 -24.667 2.5 -36 7.5s-21 12.5 -29 22.5s-13.5 22.5 -16.5 37.5s-2.5 32.833 1.5 53.5
c4.66699 22.667 12.334 44.167 23.001 64.5s23.334 39.5 38.001 57.5s30.5 34.5 47.5 49.5s34.167 28.167 51.5 39.5z" />
    <glyph glyph-name="quotedblright" unicode="&#x201d;" horiz-adv-x="614" 
d="M610 870c-4 -22.667 -11.335 -44.167 -22.002 -64.5s-23.167 -39.5 -37.5 -57.5s-30.166 -34.5 -47.499 -49.5s-34.666 -28.167 -51.999 -39.5l-52 33c32 19.333 56.833 39.5 74.5 60.5s31.167 41.833 40.5 62.5c-4 -1.33301 -10 -2 -18 -2
c-23.333 0 -41.5 8.5 -54.5 25.5s-17.5 37.833 -13.5 62.5c2.66699 12.667 7.33398 24.5 14.001 35.5s14.5 20.5 23.5 28.5s19 14.333 30 19s22.5 7 34.5 7c13.333 0 25.666 -2.5 36.999 -7.5s20.833 -12.5 28.5 -22.5s13 -22.5 16 -37.5s2.5 -32.833 -1.5 -53.5z
M349.998 870c-4 -22.667 -11.332 -44.167 -21.999 -64.5s-23.334 -39.5 -38.001 -57.5s-30.667 -34.5 -48 -49.5s-34.666 -28.167 -51.999 -39.5l-51 33c32 19.333 56.833 39.5 74.5 60.5s31.167 41.833 40.5 62.5c-4 -1.33301 -10 -2 -18 -2
c-25.333 0 -44.333 8.5 -57 25.5s-17 37.833 -13 62.5c2.66699 12.667 7.33398 24.5 14.001 35.5s14.667 20.5 24 28.5s19.666 14.333 30.999 19s23 7 35 7c13.333 0 25.666 -2.5 36.999 -7.5s20.833 -12.5 28.5 -22.5s13 -22.5 16 -37.5s2.5 -32.833 -1.5 -53.5z" />
    <glyph glyph-name="bullet" unicode="&#x2022;" horiz-adv-x="799" 
d="M694 410c-8 -42.667 -23.667 -82.667 -47 -120s-51.5 -70 -84.5 -98s-69.667 -50 -110 -66s-81.833 -24 -124.5 -24s-81 8 -115 24s-62.167 38 -84.5 66s-38 60.667 -47 98s-9.5 77.333 -1.5 120s23.667 82.667 47 120s51.5 69.833 84.5 97.5s69.667 49.5 110 65.5
s81.833 24 124.5 24s81 -8 115 -24s62.167 -37.833 84.5 -65.5s38 -60.167 47 -97.5s9.5 -77.333 1.5 -120z" />
    <glyph glyph-name="ellipsis" unicode="&#x2026;" horiz-adv-x="922" 
d="M772 72c-2 -11.333 -6.16602 -22 -12.499 -32s-14 -18.667 -23 -26s-19 -13.166 -30 -17.499s-21.833 -6.5 -32.5 -6.5c-22.667 0 -40.334 8 -53.001 24s-17 35.333 -13 58c2 11.333 6.16699 22 12.5 32s14 18.667 23 26s19 13.166 30 17.499s22.167 6.5 33.5 6.5
c22.667 0 40.167 -8 52.5 -24s16.5 -35.333 12.5 -58zM465.001 72c-2 -11.333 -6.16699 -22 -12.5 -32s-14 -18.667 -23 -26s-19 -13.166 -30 -17.499s-21.833 -6.5 -32.5 -6.5c-22.667 0 -40.334 8 -53.001 24s-17 35.333 -13 58c2 11.333 6.16699 22 12.5 32
s14 18.667 23 26s18.833 13.166 29.5 17.499s21.667 6.5 33 6.5c22.667 0 40.334 -8 53.001 -24s17 -35.333 13 -58zM158.001 72c-2 -11.333 -6.16797 -22 -12.501 -32s-14 -18.667 -23 -26s-19 -13.166 -30 -17.499s-22.167 -6.5 -33.5 -6.5c-22.667 0 -40.167 8 -52.5 24
s-16.5 35.333 -12.5 58c2 11.333 6.16699 22 12.5 32s14 18.667 23 26s18.833 13.166 29.5 17.499s21.667 6.5 33 6.5c22.667 0 40.334 -8 53.001 -24s17 -35.333 13 -58z" />
    <glyph glyph-name="thothannobasethai" unicode="&#xf700;" horiz-adv-x="709" 
d="M711 768c-22.667 -21.333 -44.9941 -38.9922 -66.9941 -52.9922s-47 -21 -75 -21c-21.333 0 -41.5 2.83301 -60.5 8.5s-37.667 12 -56 19s-36.666 13.667 -54.999 20s-37.5 9.83301 -57.5 10.5c-22.667 0 -42.834 -2 -60.501 -6s-33.334 -9.33301 -47.001 -16
s-25 -14.334 -34 -23.001s-16.5 -17 -22.5 -25c36 -1.33301 74.667 -3.5 116 -6.5s84 -7.5 128 -13.5c30.667 -4.66699 59.167 -10.834 85.5 -18.501s48.833 -17.834 67.5 -30.501s32.5 -28.167 41.5 -46.5s11.167 -40.5 6.5 -66.5
c-6.66699 -35.333 -17.167 -71.5 -31.5 -108.5s-30.333 -75.833 -48 -116.5l-55.5 -129c-19.333 -45.333 -37.333 -94 -54 -146h-127l-31 287c-12 -8.66699 -25 -15 -39 -19s-28 -6 -42 -6c-19.333 0 -36.5 3.66699 -51.5 11s-27.5 17.166 -37.5 29.499s-17 26.833 -21 43.5
s-4.33301 34.334 -1 53.001s10.166 36.5 20.499 53.5s23 31.667 38 44s31.5 22.166 49.5 29.499s36.667 11 56 11c20.667 0 38.5 -3.5 53.5 -10.5s27.667 -16.5 38 -28.5s18.166 -26.167 23.499 -42.5s8.66602 -33.833 9.99902 -52.5l14 -178
c0.666992 -9.33301 1 -19.833 1 -31.5s-0.333008 -22.5 -1 -32.5l-2 -36h4c0.666992 4.66699 1.83398 11 3.50098 19s3.5 16.333 5.5 25s4.33301 17.5 7 26.5s5.66699 17.5 9 25.5c8.66699 22.667 18 45.667 28 69l29 68.5c9.33301 22.333 17.666 44 24.999 65
s12.666 40.833 15.999 59.5c4 21.333 0.333008 38.666 -11 51.999s-27.333 24.166 -48 32.499s-44.334 14.666 -71.001 18.999s-53 8.16602 -79 11.499c-23.333 2.66699 -47.333 4.66699 -72 6s-49 2.33301 -73 3s-47 1.16699 -69 1.5s-42 0.833008 -60 1.5
c32 71.333 75.5 126.833 130.5 166.5s124.167 59.5 207.5 59.5c20 0 39.5 -2.66699 58.5 -8s37 -11 54 -17l48 -17c15 -5.33301 28.833 -8 41.5 -8c14.667 0 27.667 4 39 12l37 27zM283.006 399.008c3.33301 17.333 -0.167969 32.333 -10.501 45s-24.166 19 -41.499 19
s-33.333 -6.33301 -48 -19s-23.667 -27.667 -27 -45s0 -32.166 10 -44.499s23.667 -18.5 41 -18.5s33.5 6.16699 48.5 18.5s24.167 27.166 27.5 44.499z" />
    <glyph glyph-name="saraileftthai" unicode="&#xf701;" 
d="M-254 901c-33.333 17.333 -73.167 30.5 -119.5 39.5s-95.333 14.833 -147 17.5s-104.334 2.83398 -158.001 0.500977s-104.5 -5.83301 -152.5 -10.5c6.66699 37.333 19.834 71.666 39.501 102.999s43.667 58.333 72 81s60.166 40.334 95.499 53.001s72 19 110 19
c52.667 0 97 -8 133 -24s64.333 -37.833 85 -65.5s34.334 -59.834 41.001 -96.501s7 -75.667 1 -117zM-338.001 1006c-3.33301 16 -9.66797 30.999 -19.001 44.999s-21.833 26.5 -37.5 37.5s-34.5 19.667 -56.5 26s-47 9.5 -75 9.5c-42 0 -79.5 -8.83301 -112.5 -26.5
s-57.167 -41.5 -72.5 -71.5c26.667 6 57 10 91 12s68.333 2.16699 103 0.5s67.834 -5.16699 99.501 -10.5s58.167 -12.666 79.5 -21.999z" />
    <glyph glyph-name="saraiileftthai" unicode="&#xf702;" 
d="M-254 901c-33.333 17.333 -73.165 30.499 -119.498 39.499s-95.333 14.833 -147 17.5s-104.334 2.83398 -158.001 0.500977s-104.5 -5.83301 -152.5 -10.5c6.66699 37.333 19.834 71.666 39.501 102.999s43.667 58.333 72 81s60.166 40.334 95.499 53.001s72 19 110 19
c46 0 85.667 -6.83301 119 -20.5s60.666 -32.167 81.999 -55.5l24 129h103zM-337.999 1006c-3.33301 16 -9.66797 30.999 -19.001 44.999s-21.833 26.5 -37.5 37.5s-34.5 19.667 -56.5 26s-47 9.5 -75 9.5c-42 0 -79.5 -8.83301 -112.5 -26.5s-57.167 -41.5 -72.5 -71.5
c26.667 6 57 10 91 12s68.333 2.16699 103 0.5s67.834 -5.16699 99.501 -10.5s58.167 -12.666 79.5 -21.999z" />
    <glyph glyph-name="saraueleftthai" unicode="&#xf703;" 
d="M-135 1143c-3.33301 -15.333 -8.83398 -29.668 -16.501 -43.001s-17 -25.333 -28 -36s-23 -19.667 -36 -27s-26.5 -12.333 -40.5 -15c3.33301 -18.667 5.33301 -38.167 6 -58.5s-0.666016 -41.166 -3.99902 -62.499c-33.333 17.333 -73.166 30.333 -119.499 39
s-95.333 14.167 -147 16.5s-104.334 2.5 -158.001 0.5s-104.5 -5 -152.5 -9c6.66699 37.333 19.834 71.666 39.501 102.999s43.667 58.333 72 81s60.166 40.334 95.499 53.001s72 19 110 19c59.333 0 107.666 -10 144.999 -30c5.33301 14 12.833 26.667 22.5 38
s20.5 21 32.5 29s25 14.167 39 18.5s28 6.5 42 6.5c16.667 0 31.667 -3.33301 45 -10s24.333 -15.5 33 -26.5s14.834 -24 18.501 -39s4.16699 -30.833 1.5 -47.5zM-205.001 1143c3.33301 15.333 1.16602 28 -6.50098 38s-19.167 15 -34.5 15s-29.166 -5 -41.499 -15
s-20.166 -22.667 -23.499 -38c-2 -15.333 0.833008 -28 8.5 -38s19.167 -15 34.5 -15s29.166 5 41.499 15s19.5 22.667 21.5 38zM-338.001 1006c-3.33301 16 -9.66797 30.999 -19.001 44.999s-21.833 26.5 -37.5 37.5s-34.5 19.667 -56.5 26s-47 9.5 -75 9.5
c-42 0 -79.5 -8.83301 -112.5 -26.5s-57.167 -41.5 -72.5 -71.5c26.667 6 57 10 91 12s68.333 2.16699 103 0.5s67.834 -5.16699 99.501 -10.5s58.167 -12.666 79.5 -21.999z" />
    <glyph glyph-name="saraueeleftthai" unicode="&#xf704;" 
d="M-254 901c-33.333 17.333 -73.168 30.499 -119.501 39.499s-95.333 14.833 -147 17.5s-104.334 2.83398 -158.001 0.500977s-104.5 -5.83301 -152.5 -10.5c6.66699 37.333 19.834 71.666 39.501 102.999s43.667 58.333 72 81s60.166 40.334 95.499 53.001s72 19 110 19
c14.667 0 28.834 -0.5 42.501 -1.5s26.834 -3.16699 39.501 -6.5l10 61h72l-17 -83c10.667 -6.66699 20.5 -13.167 29.5 -19.5s17.167 -13.5 24.5 -21.5l24 124h103zM-338.002 1006c-3.33301 16 -9.66797 30.999 -19.001 44.999s-21.833 26.5 -37.5 37.5
s-34.5 19.667 -56.5 26s-47 9.5 -75 9.5c-42 0 -79.5 -8.83301 -112.5 -26.5s-57.167 -41.5 -72.5 -71.5c26.667 6 57 10 91 12s68.333 2.16699 103 0.5s67.834 -5.16699 99.501 -10.5s58.167 -12.666 79.5 -21.999z" />
    <glyph glyph-name="maieklowleftthai" unicode="&#xf705;" 
d="M-340 942l57 287h103l-58 -287h-102z" />
    <glyph glyph-name="maitholowleftthai" unicode="&#xf706;" 
d="M-16 1251c-19.333 -50.667 -45.499 -95.8311 -78.499 -135.498s-70.833 -73.334 -113.5 -101.001s-89.334 -49.334 -140.001 -65.001s-103.334 -24.834 -158.001 -27.501l-39 30c23.333 15.333 45.333 32.333 66 51s36.334 37.334 47.001 56.001
c-4 -1.33301 -7.66699 -2 -11 -2h-12c-16 0 -30.667 3.16699 -44 9.5s-24.166 14.833 -32.499 25.5s-14.166 23.167 -17.499 37.5s-3.33301 29.833 0 46.5c2.66699 16 8.5 31.167 17.5 45.5s20 26.833 33 37.5s27.333 19.167 43 25.5s31.5 9.5 47.5 9.5
c20 0 37.167 -3.5 51.5 -10.5s26 -16.167 35 -27.5s15 -24.833 18 -40.5s3.16699 -31.834 0.5 -48.501c-2 -13.333 -5.66699 -27.333 -11 -42s-11.5 -29 -18.5 -43s-14.5 -26.833 -22.5 -38.5s-16 -20.834 -24 -27.501c31.333 6.66699 61.166 18.334 89.499 35.001
s53.833 35.834 76.5 57.501s42.167 45 58.5 70s28.166 49.167 35.499 72.5h103zM-378.999 1176c2 14 -1 26 -9 36s-19.333 15 -34 15s-27.667 -5 -39 -15s-18 -22 -20 -36c-3.33301 -14.667 -1 -27 7 -37s19.333 -15 34 -15c14 0 26.833 5 38.5 15s19.167 22.333 22.5 37z
" />
    <glyph glyph-name="maitrilowleftthai" unicode="&#xf707;" 
d="M-66 1251c-1.33301 -53.333 -10.9971 -99.9971 -28.9971 -139.997s-40 -73.5 -66 -100.5s-53.5 -48 -82.5 -63s-55.167 -24.167 -78.5 -27.5l-49 38c11.333 10.667 22.5 25.667 33.5 45s19.167 41.333 24.5 66c5.33301 28 4.16602 51.667 -3.50098 71
s-16.167 32.666 -25.5 39.999l-90 -58l-88 64c-11.333 -3.33301 -22.5 -9.5 -33.5 -18.5s-19.167 -17.167 -24.5 -24.5c3.33301 0 6 0.333008 8 1c2 0 4 0.166992 6 0.5s3.66699 0.5 5 0.5c16.667 0 31.5 -3 44.5 -9s23.833 -14.167 32.5 -24.5s14.667 -22.333 18 -36
s3.66602 -28.167 0.999023 -43.5c-3.33301 -15.333 -9.5 -29.833 -18.5 -43.5s-19.833 -25.5 -32.5 -35.5s-26.667 -18 -42 -24s-31.333 -9 -48 -9c-36 0 -63.833 12.667 -83.5 38s-25.5 61 -17.5 107c6 28 16.333 53.5 31 76.5s31.667 43.333 51 61s40 32 62 43
s43 18.5 63 22.5l78 -64l98 62c16.667 -4.66699 32 -11.834 46 -21.501s25.667 -21.334 35 -35.001s15.666 -29.167 18.999 -46.5s3 -36.333 -1 -57c-3.33301 -17.333 -7.5 -33.833 -12.5 -49.5s-11.167 -29.167 -18.5 -40.5c12.667 8 25.167 20.667 37.5 38
s22.833 36.833 31.5 58.5s15 44.667 19 69s4.66699 47.5 2 69.5h98zM-534.997 1032c2.66699 13.333 0.333008 24.5 -7 33.5s-17.666 13.5 -30.999 13.5s-25.5 -4.5 -36.5 -13.5s-17.5 -20.167 -19.5 -33.5c-3.33301 -13.333 -1.33301 -24.5 6 -33.5
s17.666 -13.5 30.999 -13.5s25.333 4.5 36 13.5s17.667 20.167 21 33.5z" />
    <glyph glyph-name="maichattawalowleftthai" unicode="&#xf708;" 
d="M-299 1044l-25 -122h-102l25 122h-134l17 82h133l25 123h102l-25 -123h133l-16 -82h-133z" />
    <glyph glyph-name="thanthakhatlowleftthai" unicode="&#xf709;" 
d="M-39 1288c-8.66699 -26 -21.666 -48 -38.999 -66s-36.666 -32.667 -57.999 -44s-43.5 -19.833 -66.5 -25.5s-44.167 -8.83398 -63.5 -9.50098c16.667 -5.33301 29.334 -17.833 38.001 -37.5s11 -40.167 7 -61.5c-3.33301 -17.333 -9.83301 -33.333 -19.5 -48
s-21.5 -27.5 -35.5 -38.5s-29.833 -19.667 -47.5 -26s-36.167 -9.5 -55.5 -9.5c-15.333 0 -30.5 3 -45.5 9s-28 14.833 -39 26.5s-19 26 -24 43s-5.5 36.5 -1.5 58.5c4.66699 22 13.167 41.667 25.5 59s27.666 32.5 45.999 45.5s39.166 23.5 62.499 31.5
s48.666 13.667 75.999 17c40 5.33301 73.333 17.833 100 37.5s44.667 44.834 54 75.501zM-300.999 1044c3.33301 14.667 0.667969 27.334 -7.99902 38.001s-20.334 16 -35.001 16s-28.167 -5.33301 -40.5 -16s-20.166 -23.334 -23.499 -38.001
c-3.33301 -14 -0.5 -26.333 8.5 -37s20.5 -16 34.5 -16c14.667 0 28.167 5.33301 40.5 16s20.166 23 23.499 37z" />
    <glyph glyph-name="maieklowrightthai" unicode="&#xf70a;" 
d="M-125 942l57 287h103l-58 -287h-102z" />
    <glyph glyph-name="maitholowrightthai" unicode="&#xf70b;" 
d="M184 1251c-18.667 -50.667 -44.333 -95.8311 -77 -135.498s-70.5 -73.334 -113.5 -101.001s-89.833 -49.334 -140.5 -65.001s-103.334 -24.834 -158.001 -27.501l-39 30c23.333 15.333 45.333 32.333 66 51s36.334 37.334 47.001 56.001
c-4.66699 -1.33301 -8.66699 -2 -12 -2h-11c-16 0 -30.667 3.16699 -44 9.5s-24.166 14.833 -32.499 25.5s-14.166 23.167 -17.499 37.5s-3.33301 29.833 0 46.5c2.66699 16 8.5 31.167 17.5 45.5s20 26.833 33 37.5s27.333 19.167 43 25.5s31.5 9.5 47.5 9.5
c20 0 37.167 -3.5 51.5 -10.5s26 -16.167 35 -27.5s15 -24.833 18 -40.5s3.16699 -31.834 0.5 -48.501c-2 -13.333 -5.66699 -27.333 -11 -42s-11.5 -29 -18.5 -43s-14.5 -26.833 -22.5 -38.5s-16 -20.834 -24 -27.501c31.333 6.66699 61.166 18.334 89.499 35.001
s53.833 35.834 76.5 57.501s42.167 45 58.5 70s28.166 49.167 35.499 72.5h102zM-177.999 1176c2 14 -1.16797 26 -9.50098 36s-19.5 15 -33.5 15c-14.667 0 -27.667 -5 -39 -15s-18.333 -22 -21 -36c-3.33301 -14.667 -0.833008 -27 7.5 -37s19.5 -15 33.5 -15
c14.667 0 27.834 5 39.501 15s19.167 22.333 22.5 37z" />
    <glyph glyph-name="maitrilowrightthai" unicode="&#xf70c;" 
d="M113 1251c-1.33301 -53.333 -11.1641 -99.998 -29.4971 -139.998s-40.5 -73.667 -66.5 -101s-53.5 -48.333 -82.5 -63s-54.833 -23.667 -77.5 -27l-50 38c11.333 10.667 22.5 25.667 33.5 45s19.167 41.333 24.5 66c5.33301 28.667 4.16602 52.5 -3.50098 71.5
s-16.167 32.167 -25.5 39.5l-90 -58l-88 64c-11.333 -3.33301 -22.333 -9.5 -33 -18.5s-18.667 -17.167 -24 -24.5c2.66699 0 5 0.333008 7 1c2 0 4 0.166992 6 0.5s3.66699 0.5 5 0.5c16.667 0 31.667 -3 45 -9s24.333 -14.167 33 -24.5s14.667 -22.333 18 -36
s3.33301 -28.167 0 -43.5s-9.33301 -29.833 -18 -43.5s-19.334 -25.5 -32.001 -35.5s-26.834 -18 -42.501 -24s-31.834 -9 -48.501 -9c-35.333 0 -62.833 12.667 -82.5 38s-25.5 61 -17.5 107c5.33301 28 15.333 53.5 30 76.5s31.834 43.333 51.501 61s40.5 32 62.5 43
s43 18.5 63 22.5l77 -64l99 62c16.667 -4.66699 32 -11.834 46 -21.501s25.5 -21.334 34.5 -35.001s15.167 -29.167 18.5 -46.5s3 -36.333 -1 -57c-3.33301 -17.333 -7.5 -33.833 -12.5 -49.5s-11.167 -29.167 -18.5 -40.5c12.667 8 25.167 20.5 37.5 37.5
s22.833 36.5 31.5 58.5s15.167 45.167 19.5 69.5s4.83301 47.5 1.5 69.5h99zM-355.998 1032c2 13.333 -0.666016 24.5 -7.99902 33.5s-17.666 13.5 -30.999 13.5s-25.333 -4.5 -36 -13.5s-17.334 -20.167 -20.001 -33.5c-3.33301 -13.333 -1.33301 -24.5 6 -33.5
s17.666 -13.5 30.999 -13.5s25.5 4.5 36.5 13.5s18.167 20.167 21.5 33.5z" />
    <glyph glyph-name="maichattawalowrightthai" unicode="&#xf70d;" 
d="M-2 1044l-25 -122h-102l25 122h-134l17 82h133l25 123h102l-25 -123h133l-16 -82h-133z" />
    <glyph glyph-name="thanthakhatlowrightthai" unicode="&#xf70e;" 
d="M133 1288c-8.66699 -26 -21.668 -48 -39.001 -66s-36.666 -32.667 -57.999 -44s-43.5 -19.833 -66.5 -25.5s-44.167 -8.83398 -63.5 -9.50098c16.667 -5.33301 29.334 -17.833 38.001 -37.5s11 -40.167 7 -61.5c-3.33301 -17.333 -9.83301 -33.333 -19.5 -48
s-21.5 -27.5 -35.5 -38.5s-29.833 -19.667 -47.5 -26s-36.167 -9.5 -55.5 -9.5c-15.333 0 -30.5 3 -45.5 9s-28 14.833 -39 26.5s-19 26 -24 43s-5.5 36.5 -1.5 58.5c4.66699 22 13.167 41.667 25.5 59s27.666 32.333 45.999 45s39.333 23 63 31s49.167 14 76.5 18
c38.667 5.33301 71.5 17.833 98.5 37.5s45.167 44.834 54.5 75.501zM-129.001 1044c3.33301 14.667 0.667969 27.334 -7.99902 38.001s-20.334 16 -35.001 16s-28.167 -5.33301 -40.5 -16s-20.166 -23.334 -23.499 -38.001c-3.33301 -14 -0.5 -26.333 8.5 -37
s20.5 -16 34.5 -16c14.667 0 28.167 5.33301 40.5 16s20.166 23 23.499 37z" />
    <glyph glyph-name="yoyingnobasethai" unicode="&#xf70f;" horiz-adv-x="1137" 
d="M969 193c-6 -32.667 -14.335 -60.999 -25.002 -84.999s-25 -44 -43 -60s-40.167 -28 -66.5 -36s-58.166 -12 -95.499 -12h-360l14 78c23.333 0 42 0.833008 56 2.5s25.167 5.66699 33.5 12s14.666 15.833 18.999 28.5s8.5 29.667 12.5 51l82 414
c5.33301 28 4.33301 52.667 -3 74s-18.666 39 -33.999 53s-33.5 24.667 -54.5 32s-42.5 11 -64.5 11c-40 0 -77.667 -6.66699 -113 -20s-68 -34 -98 -62c16.667 -8 36.167 -19.833 58.5 -35.5s41.166 -33.167 56.499 -52.5c-76 -25.333 -121 -73.333 -135 -144l-37 -184
c7.33301 3.33301 15.833 5.5 25.5 6.5s18.167 1.5 25.5 1.5c19.333 0 36.5 -3.5 51.5 -10.5s27.333 -16.667 37 -29s16.334 -26.666 20.001 -42.999s3.83398 -33.833 0.500977 -52.5c-4 -19.333 -11.167 -37.5 -21.5 -54.5s-23 -31.833 -38 -44.5
s-31.667 -22.834 -50 -30.501s-37.166 -11.5 -56.499 -11.5c-46 0 -79.333 13.833 -100 41.5s-27 63.5 -19 107.5l59 305c8 36.667 22.833 67.334 44.5 92.001s45.167 41.334 70.5 50.001c-8 7.33301 -18 14.666 -30 21.999s-24.167 14.166 -36.5 20.499s-24 12 -35 17
l-25.5 11.5c48 56.667 102.333 100.667 163 132s128 47 202 47c38 0 73.333 -5.33301 106 -16s60 -26.5 82 -47.5s37.667 -47.167 47 -78.5s10 -68 2 -110l-96 -502h98c29.333 0 53.833 1.66699 73.5 5s36 9.66602 49 18.999s23.167 22.5 30.5 39.5s13.666 39.5 18.999 67.5
l119 606h103zM259.998 131.001c4 17.333 0.832031 32.333 -9.50098 45s-24.166 19 -41.499 19s-33.333 -6.33301 -48 -19s-24 -27.667 -28 -45c-3.33301 -17.333 0 -32.166 10 -44.499s23.667 -18.5 41 -18.5s33.5 6.16699 48.5 18.5s24.167 27.166 27.5 44.499z" />
    </font>
</defs>
</svg>
